<?xml version="1.0" encoding="utf-8"?>
<!-- Generator: Adobe Illustrator 24.2.1, SVG Export Plug-In . SVG Version: 6.00 Build 0)  -->
<svg version="1.1" id="Layer_1" xmlns="http://www.w3.org/2000/svg" xmlns:xlink="http://www.w3.org/1999/xlink" x="0px" y="0px"
	 viewBox="0 0 612 792" style="enable-background:new 0 0 612 792;" xml:space="preserve">
<style type="text/css">
	.st0{fill:#FFFFFF;}
	.st1{fill:#FEFEFE;}
	.st2{fill:#040404;}
</style>
<path class="st0" d="M-969-96c0-385.88,0-771.76,0-1158c687.33,0,1374.67,0,2062,0c-3.28,4.03-8.29,5.21-12.63,7.39
	c-186.67,93.94-276.82,309.68-208.86,510.94c1.91,5.66,7.95,12,3.98,17.14c-3.51,4.55-11.49,4.38-17.62,5.9
	c-0.32,0.08-0.66,0.12-0.98,0.2c-4.39,1.09-7.27,0-9.69-4.4c-8.19-14.87-16.86-29.48-25.47-44.12c-1.63-2.78-2.47-6.25-5.92-7.92
	c-4,10.59-5.21,21.94-9.74,32.63c-6.33-1.76-12.7-1.98-17.99,1.54c-4.72,3.14-6.4,0.67-8.6-2.63c-5.05-7.55-10.2-15.03-15.44-22.73
	c-2.66,2.7-2.57,5.13-3,7.39c-3.3,17.33-6.83,34.62-9.75,52.01c-0.82,4.86-2.67,7.11-7.45,7.33c-1.98,0.09-3.92,0.79-5.9,1
	c-41.6,4.41-80.86-19.91-95.29-59.26c-2.4-6.53-3.98-13.38-5.71-20.14c-4.2-16.47-8.27-32.98-12.73-50.82
	c-4.42,7.08-5.99,13.6-8.46,19.71c-16.55,40.8-46.36,65.69-89.34,74.88c-16.84,3.6-33.69,7.1-50.61,10.66
	c1.21,2.89,3.75,2.78,5.95,3.32c16.16,3.95,32.26,8.17,48.5,11.75c11.83,2.61,20.52,8.89,26.59,19.28
	c4.53,7.76,9.42,15.32,14.3,22.87c1.36,2.1,1.95,5.07,5.15,5.56c5.8-3.95,11.41-8.17,17.39-11.77
	c17.74-10.68,35.63-10.33,52.62,1.27c18.5,12.63,30.26,29.33,30.93,52.97c0.39,13.75,3.02,27.44,4.66,41.33
	c3.91-0.87,4.49-3.81,5.88-5.86c6.9-10.21,13.31-20.76,20.5-30.76c16.18-22.51,46.69-26.13,67.7-8.25
	c7.11,6.05,13.75,12.57,19.44,20.06c6.65,8.75,13.59,17.29,20.57,25.78c4.48,5.45,11.38,4.1,13.82-2.65
	c3.73-10.33,7.52-20.64,10.84-31.09c2.85-8.97,6.98-17.27,11.69-25.32c11.53-19.69,33.66-27.82,55.16-20.48
	c4.9,1.67,8.6,4.45,11.49,8.96c9.75,15.15,20.84,29.31,32.56,43c1.39,1.62,3.9,2.83,3,6.09c-6.94,0-13.99,0-22.85,0
	c4.16,2.4,6.64,3.92,9.21,5.3c13.5,7.23,27.16,14.16,40.48,21.7c13.04,7.38,23.71,16.84,27.26,32.56
	c1.97,8.73,5.53,17.09,7.95,25.73c1.11,3.94,2.82,4.66,6.44,3.3c7.78-2.91,15.36-6.33,23.58-8.04c4.49-0.93,8.28-0.74,12.35,1.7
	c11.13,6.68,22.75,12.5,34.55,17.91c2.09,0.96,4.22,1.82,5.71,3.85c9.66,13.24,16.8,27.21,14.22,44.4
	c-1.39,9.22-2.72,18.46-3.63,27.73c-0.9,9.11-3.44,18.08-2.91,28.67c2.06-1.77,3.28-2.77,4.44-3.82
	c10.12-9.18,20.02-18.62,30.4-27.5c23.21-19.86,56.02-15.4,73.32,9.74c5.48,7.96,10.46,16.17,14.21,25.16
	c4.47,10.75,9.52,21.26,14.16,31.94c1.47,3.38,3.59,4.14,7.26,4.8c5.42,0.98,6.22-2.79,8.13-5.49
	c11.7-16.56,21.27-34.61,35.59-49.35c22.13-22.77,54.93-21.83,75.33,2.67c6.82,8.19,13.2,16.75,19.92,25.03
	c2.6,3.21,4.72,6.96,9.35,10.18c0.63-19.18,1.36-37.04,1.77-54.91c0.3-13.25,4.85-24.68,13.67-34.47c2.9-3.22,5.79-6.45,8.8-9.57
	c17.21-17.82,41.19-21.47,63.07-9.57c5.82,3.17,11.52,6.57,17.96,10.26c5.37-10.47,10.9-20.31,15.54-30.56
	c6.06-13.38,15.9-21.68,29.94-25.73c10.53-3.04,20.82-6.9,31.22-10.4c0,858,0,1716,0,2574c-104,0-208,0-312,0
	c2.07-2.75-0.33-4.81-1.27-6.91c-17.2-38.59-34.47-77.15-51.79-115.69c-0.9-2.01-1.07-4.71-4.2-5.45
	c-4.62,3.47-9.39,7.09-14.2,10.66c-26.74,19.87-53.81,39.27-82.47,56.31c-8.02,4.76-16.2,9.21-24.88,12.71
	c-3.83,1.54-6.33,0.95-7.14-3.62c-1.23-6.88-2.96-13.67-3.98-20.57c-4.41-30.01-7-60.2-8.45-90.49c-0.25-5.12-0.15-10.37-1.97-16.05
	c-30.96,19.98-60.39,40.64-92.35,60.97c7.81-59.16,15.31-115.96,23.11-175.03c-10.06,8.33-18.21,15.07-26.35,21.83
	c-7.95,6.6-15.89,13.21-23.83,19.81c-8.19,6.82-16.33,13.71-24.59,20.46c-8.02,6.55-15.69,13.59-25.46,20.58c0-6.09,0-10.03,0-13.97
	c0-368.59-0.01-737.18,0.02-1105.77c0-23.05-1.98-45.89-5.77-68.61c-16.95-101.67-63.39-187.87-137.11-259.38
	c-48.75-47.28-105.19-83.69-166.34-112.72C483.5,224.5,371.15,203.1,253.51,208.93c-7.04,0.35-7.1,0.41-8.73-7.26
	c-19.94-94.06-39.9-188.12-59.68-282.22c-1.25-5.94-3.66-9.95-9.05-13.19c-26.81-16.14-53.29-32.83-80.08-49.01
	c-4.97-3-7.65-6.59-8.85-12.23c-4.58-21.47-9.37-42.9-14.49-64.25c-1.19-4.98-0.96-10.6-4.65-15.12
	c-21.92,9.59-43.6,18.94-65.13,28.62c-5.06,2.27-8.65,2.67-13.21-1.59c-8.76-8.18-18.52-15.28-28.86-21.38
	c-4.85-2.86-5.77-5.56-4.33-11.19c9.45-37.07,18.41-74.26,27.37-111.45c1.83-7.61,4.63-15.06,5.05-23.76
	c-9.45,4.41-17.01,10.44-25,15.7c-42.84,28.19-85.52,56.62-128.36,84.81c-10.19,6.7-6.89,6.73-16.49-1.3
	c-10.47-8.77-20.91-17.6-31.06-26.73c-3.42-3.08-6.41-3.65-10.77-2.39c-13.74,3.97-27.62,7.42-41.43,11.15
	c-37.88,10.25-76.21,19.12-113.55,31.08c-146.33,46.87-292.33,94.74-438.49,142.15c-9.48,3.07-18.8,6.77-28.76,8.22
	c-39.53,5.76-79.05,11.55-118.58,17.33C-965.5-94.83-967.53-93.77-969-96z M990.65-307.54c-6.35-1.96-11.34-1.71-16.22-1.9
	c-23.64-0.91-47.3-1.49-70.93-2.56c-54.48-2.48-96.65-26.65-126.23-72.5c-6.13-9.51-11.62-19.42-17.44-29.13
	c-1.21-2.03-2.06-4.42-5.07-6.29c-0.58,5.92-1.16,10.85-1.53,15.8c-1.98,26.24-3.62,52.51-5.93,78.73
	c-5.26,59.69-53.68,105.02-113.64,106.77c-8.46,0.25-8.54,0.28-11.5-7.62c-9.1-24.29-18.11-48.62-27.25-72.9
	c-0.94-2.49-1.31-5.47-3.26-7.34c-2.52,1.26-2.7,3.08-3.37,4.53c-5.3,11.48-10.65,22.94-15.76,34.5c-1.85,4.19-3.68,7.08-8.8,4.05
	c-2.61-1.54-5.16-1.26-6.42,2.09c-0.58,1.55-2.13,2.29-2.73,0.88c-2.06-4.82-5.14-4.22-8.76-2.31c-3.11,1.65-4.88,0.33-6.19-2.59
	c-3.25-7.29-6.6-14.54-9.95-21.79c-3.06-6.61-6.18-13.2-10.01-21.37c-9.5,25.58-18.3,49.26-27.09,72.93
	c-6.68,17.96-6.68,17.96-26.02,15.88c-51.78-5.57-94.13-46.24-101.83-97.79c-2.17-14.52-2.58-29.19-3.73-43.79
	c-1.52-19.41-2.92-38.83-4.37-58.24c-7.63,9.75-13.61,19.99-19.75,30.14c-30.14,49.81-74.3,75.66-132.53,77.48
	c-23.98,0.75-47.95,1.68-71.93,2.66c-3.36,0.14-7-0.39-10.97,2.13c28,12.08,55.04,24.05,82.35,35.39
	c14.13,5.86,23.66,15.37,29.03,29.68c5.02,13.38,10.87,26.46,16.13,39.76c1.56,3.94,3.19,5.1,7.34,2.95
	c7.67-3.98,15.56-7.56,23.51-10.96c25.38-10.86,52.75-4.11,70.29,17.2c2.75,3.34,5.23,6.91,8.01,10.23
	c11.22,13.42,16.18,28.73,14.98,46.26c-1.38,20.27-2.32,40.58-3.42,60.87c-0.28,5.07-0.47,10.14-0.73,16.01
	c4.59-2.28,6.4-5.15,8.63-7.51c13.26-14.06,26.1-28.53,39.73-42.23c24.64-24.75,63.5-22.5,85.5,4.54
	c7.79,9.57,14.91,19.56,20.6,30.59c6.41,12.42,13.47,24.5,20.08,36.81c2.27,4.22,4.37,7.61,9.62,3.58c1.76-1.34,3.92-0.99,5.6,0.28
	c5.11,3.86,6.72,0.06,8.73-3.63c7.95-14.62,16.05-29.15,24.02-43.76c5.62-10.31,12.75-19.59,20.68-28.1
	c21.79-23.37,59.16-23.33,82.23,0.13c13.55,13.78,26.42,28.22,39.66,42.29c2.15,2.28,3.86,5.23,6.77,6.37
	c0.79-0.61,1.24-0.81,1.23-0.98c-1.29-25.29-2.46-50.58-3.98-75.86c-0.92-15.24,2.67-29.04,11.73-41.34
	c3.16-4.29,6.43-8.5,9.75-12.67c18.88-23.74,46.72-30.54,74.21-18.11c6.97,3.15,14.04,6.17,20.73,9.85c4.64,2.56,6.3,0.95,7.97-3.27
	c5.63-14.23,11.54-28.34,17.31-42.51c4.75-11.68,12.8-20.01,24.5-24.92c12.27-5.15,24.43-10.55,36.64-15.83
	C956.99-292.96,973.1-299.94,990.65-307.54z"/>
<path class="st1" d="M-969,42c0-32.67,0-65.33,0-98c35.55-5.34,71.13-10.55,106.65-16.09c13.13-2.05,26.54-2.66,39.3-6.8
	c96.8-31.45,193.64-62.8,290.39-94.43c98.65-32.25,197.18-64.86,298.08-89.66c6.25-1.54,10.45-0.8,15.21,3.53
	c12.07,10.99,24.61,21.47,37.07,32.02c7.2,6.1,4.84,6.53,13.16,1.04c29.47-19.43,58.89-38.95,88.39-58.36
	c2.99-1.97,5.6-4.75,10.89-5.54c-14.29,58.44-28.43,116.28-43.12,176.31C-59.97-137.18-9-159.49,42.58-182.07
	c3.83,16.95,7.69,32.79,10.89,48.76c1.41,7.02,4.56,11.59,10.87,15.36c26.3,15.7,52.19,32.1,78.38,48
	c4.88,2.96,7.56,6.29,8.78,12.18c12.17,58.65,24.74,117.21,37.19,175.79c6.01,28.32,12.01,56.64,17.97,84.97
	c2.08,9.89,2.01,9.78-7.47,11c-7.92,1.02-15.81,2.29-23.69,3.6c-106.26,17.6-203.13,57.79-290.46,120.88
	c-2.04,1.47-4.73,2.38-5.94,5.81c21.09,17.9,42.29,35.89,64.58,54.8c-33.26,8.68-64.76,16.78-96.17,25.22
	c-4.67,1.26-6.61-0.26-8.43-4.07c-2.43-5.1-5.16-10.07-7.94-14.99c-7.36-13-3.13-12.48-17.74-5.3c-4.58,2.25-4.66,4.41-2.38,8.39
	c4.05,7.08,7.65,14.42,11.82,22.38c-21.96,5.76-42.63,11.17-63.23,16.57c-1.87-3.6-2.11-6.59-2.61-9.54
	c-5.08-29.86-10.16-59.72-15.36-89.55c-2.37-13.61-2.45-13.36-16.18-10.49c-4.22,0.88-4.51,2.71-3.9,6.17
	c2.76,15.73,5.35,31.5,8.07,47.24c3,17.38,6.26,34.72,9.01,52.14c1.53,9.66,2.12,9.28-7.1,11.52c-13.25,3.22-26.36,6.99-39.54,10.52
	c-1.91,0.51-3.82,1.23-6.37,0.02c-1.62-9.79-3.27-19.94-4.98-30.09c-2.42-14.42-2.42-14.33-16.7-11.09c-3.27,0.74-4.38,1.9-3.72,5.4
	c2.14,11.45,3.9,22.97,5.87,34.45c1.33,7.73,1.39,7.75-6.6,9.9c-18.95,5.09-37.91,10.16-56.88,15.2c-7.81,2.08-7.9,2.07-10.78-5.38
	c-9.57-24.83-19.07-49.7-28.61-74.54c-0.92-2.39-1.19-5.18-3.99-6.65c-2.75,1.05-5.56,2.09-8.34,3.17
	c-8.18,3.17-8.17,3.18-4.9,11.74c9.14,23.93,18.3,47.85,27.4,71.8c2.6,6.84,2.54,6.96-4,8.75c-26.31,7.21-52.66,14.27-78.93,21.62
	c-5.18,1.45-8.07,0.38-9.66-4.9c-1.04-3.48-2.83-6.74-4.3-10.09c-6.83-15.49-13.67-30.97-20.84-47.21
	c-5.88,2.6-11.24,4.97-17.34,7.66c8.91,20.46,17.6,40.41,26.69,61.28c-23.71,6.54-46.51,12.84-69.63,19.22
	c-0.8-3.35-1.46-5.58-1.85-7.86c-4.85-28.55-9.76-57.1-14.44-85.68c-2.86-17.45-2.7-17.48-19.78-13.71
	c-0.55,0.12-0.97,0.81-1.62,1.38c0.81,4.8,1.63,9.72,2.46,14.63c5.08,30.2,10.06,60.42,15.33,90.59c0.79,4.5,0.07,6.38-4.66,7.65
	c-21.21,5.68-42.35,11.61-63.38,17.92c-4.62,1.39-6.48,0.21-8.46-3.68c-5.6-10.97-11.55-21.75-17.35-32.61
	c-5.54-10.4-3.72-9.58-13.51-4.4c-8.11,4.29-8.11,4.33-3.93,12.21c4.84,9.11,9.8,18.16,14.52,27.33c1.3,2.52,3.62,4.79,2.87,8.41
	c-5.33,1.53-10.77,3.09-16.2,4.64c-14.26,4.07-14.12,4.02-9.03,17.85c1.19,3.22,2.43,4.21,5.71,3.2c8.26-2.56,16.62-4.8,24.87-7.36
	c3.77-1.17,6.12-0.33,7.97,3.34c4.35,8.61,9.04,17.05,13.59,25.57c7.95,14.89,7.96,14.9,22.45,5.73c0.5-0.32,0.71-1.1,1.16-1.84
	c-6.85-13.01-13.75-26.1-20.91-39.7c21.6-6.06,41.76-11.77,61.94-17.36c6.55-1.81,6.66-1.7,7.72,4.49
	c4.05,23.62,7.92,47.27,12.1,70.87c2.87,16.21-0.48,13.46,16.64,10.95c2.97-0.44,4.09-1.73,3.6-4.61c-0.44-2.63-0.82-5.26-1.27-7.89
	c-4.21-24.6-8.47-49.2-12.62-73.81c-1.18-6.97-1.08-7.14,5.53-8.98c20.51-5.72,41.12-11.07,61.53-17.12
	c5.63-1.67,7.5,0.16,9.47,4.91c5.73,13.83,11.92,27.47,17.94,41.18c7.34,16.71,7.34,16.71,23.71,6.67
	c-8.52-19.63-17.07-39.35-25.87-59.63c29.34-7.92,57.63-15.41,85.81-23.28c4.84-1.35,6.32,0.28,7.84,4.36
	c6.49,17.46,13.27,34.82,19.93,52.21c6.37,16.65,6.37,16.65,23.5,8.1c-8.9-23.43-17.82-46.94-27.02-71.15
	c23.42-6.24,45.8-12.2,68.73-18.31c2.08,11.68,3.98,22.46,5.94,33.23c2.27,12.44,2.29,12.44,14.53,10.12
	c6.2-1.17,6.21-1.18,5.11-7.7c-1.93-11.49-3.55-23.05-5.94-34.44c-0.97-4.63-0.12-6.67,4.47-7.82c14.52-3.66,29.02-7.4,43.4-11.53
	c4.68-1.34,5.9,0.54,6.54,4.43c1.89,11.5,4.03,22.95,5.79,34.47c2.27,14.88-0.61,11.86,15.61,10.02c4.32-0.49,5.19-2.64,4.37-6.86
	c-2.64-13.73-4.62-27.58-7.31-41.3c-1.07-5.48,0.85-7.65,5.91-8.92c18.39-4.63,36.7-9.57,55.05-14.35c8.39-2.18,8.42-2.15,12.67,5.8
	c9.09,16.99,18.15,34,27.58,51.69c5.84-3.15,11.6-5.28,16.57-9.32c-9.89-18.71-19.43-36.78-29.26-55.39
	c33.34-8.69,65.19-17.02,97.07-25.27c4.09-1.06,8.32-4.98,12.1-2.89c3.97,2.2,2.53,7.89,3.24,12c1.85,10.69,4.51,21.29,5.06,32.48
	c-4.53,0-8.48,0.13-12.41-0.03c-7.66-0.32-15.3-0.89-22.96-1.19c-10.68-0.41-10.9-0.36-11.51,9.85
	c-1.22,20.62-2.15,41.26-3.27,61.89c-0.61,11.25-1.37,22.49-2.12,34.71c-49.48-5.57-98.31-11.07-147.26-16.58
	c-0.16,4.25,1.84,7.05,3.1,10.06c6.82,16.26,13.77,32.46,20.52,48.75c2.29,5.53,1.91,6.26-3.74,7.35
	c-9.14,1.76-18.35,3.2-27.53,4.78c-52.45,9.02-104.89,18.08-157.34,27.06c-53.15,9.1-106.32,18.08-159.47,27.18
	c-35.38,6.06-70.84,11.57-105.96,19.12c-20.16,4.34-40.61,7.34-60.95,10.87c-33.12,5.75-66.27,11.36-99.37,17.27
	c-4.97,0.89-6.91,0.21-7.87-5.31c-9.71-56.08-19.78-112.1-29.71-168.14c-10.33-58.34-20.59-116.69-30.92-175.03
	c-10.39-58.66-20.99-117.29-31.16-175.99c-5.01-28.87-10.2-57.6-21.18-85.01c-4.94-12.33-8.66-25.16-12.97-37.75
	c-3.34-9.76-6.67-19.51-10.13-29.23C-965.79,42.37-966.17,39.47-969,42z M29.76,69.96c3.45-4.29,4.39-8.99,6.59-13.05
	c1.71-3.15,0.46-4.94-2.55-6.09c-1.55-0.59-3.06-1.31-4.58-1.97C-48.82,14.84-126.86-19.19-204.9-53.21
	c-1.83-0.8-3.63-1.66-5.48-2.41c-1.32-0.53-2.86-0.57-3.53,0.78c-2.33,4.73-5.95,9.42-5.73,14.57c0.15,3.71,5.86,3.41,8.77,5.43
	c0.69,0.48,1.2,1.23,2.02,2.1c-11.3,5.97-20.85,13.63-28.96,23.09c-12.72,14.85-22.03,31.71-28.55,50.03
	c-12.2,34.24-17.08,69.04-6.71,104.8c19.61,67.64,87.46,110.66,156.7,99.3c35.75-5.86,65.52-23.37,91.61-47.68
	c16.26-15.15,29.73-32.43,36.56-54c7.99-25.23,4.06-48.01-14.86-67.36c-7.68-7.86-15.57-15.51-23.23-23.4
	c-1.67-1.72-5.66-3.12-3.69-6.05c1.82-2.69,4.78,0.08,6.99,1.03C-5.57,54.51,11.78,62.13,29.76,69.96z M-831.86,229.55
	c2.79,1.93,2.5,3.74,2.91,5.28c20.14,76.02,95.84,120.59,171.94,101.23c71.77-18.25,117.88-91.13,102.26-163.44
	c-10.32-47.76-37.88-84.47-77.5-112.39c-4.86-3.42-10.34-6.07-15.79-8.51c-16.3-7.29-33.02-10.22-50.42-3.85
	c-0.85,0.31-1.9,0.04-3.03,0.04c-0.11-3.87,2.77-5.99,4.56-8.57c7.79-11.22,15.88-22.23,23.59-33.49c2.95-4.3,8.85-8.26,7.89-13.17
	c-0.96-4.86-7.84-6.57-11.98-9.83c-0.45-0.35-1.22-0.28-2.56-0.56c-61,86.01-122.17,172.25-183.51,258.73
	c5.42,4.21,10.01,7.92,15.68,10.83c2.7-3.76,5.22-7.26,7.73-10.76C-837.41,237.33-834.73,233.56-831.86,229.55z M-807.52,317
	c1.4,1.71,2.35,3.07,3.5,4.24c44.38,45.15,97.84,62.23,159.44,47.8c49.9-11.69,81.31-45.56,99.84-92.3c0.95-2.4,2.74-5.09-1.4-6.38
	c-3.46-1.07-6.61-1.55-7.41,3.43c-0.26,1.6-1.13,3.12-1.79,4.64c-26.07,60.28-79.74,94.84-152.3,84.05
	c-34.83-5.18-63.95-21.48-88.46-46.46C-800.75,311.28-800.8,311.33-807.52,317z M-253.39,222.88
	c30.8,36.82,68.53,60.17,116.76,58.36c67.48-2.52,115.91-36.36,145.49-97.07c0.58-1.19,1.14-2.41,1.58-3.66
	c0.78-2.24,0.06-3.47-2.26-4.54c-4.84-2.24-6.09,0.36-7.88,4.22c-15.75,34.15-40.06,60.25-74.13,76.57
	c-30.95,14.82-63.26,20.25-96.98,11.13c-28.15-7.61-51.16-23.5-70.33-45.22C-246.09,217.06-246.11,217.09-253.39,222.88z"/>
<path class="st1" d="M-733,2046c-78.63,0-157.26,0-236,0c0-630,0-1260,0-1890c3.78,0.4,3.38,3.56,3.81,6.01
	c6.06,34.08,12.07,68.17,18.11,102.25c10.4,58.66,20.82,117.32,31.21,175.99c10.97,61.94,21.91,123.89,32.89,185.84
	c7.73,43.59,15.47,87.17,23.28,130.74c1.45,8.08,1.64,8.15,9.33,6.81c51.15-8.93,102.29-17.94,153.44-26.86
	c18.96-3.31,37.95-6.47,56.71-9.66c2.51,3.3,2.57,6.69,3.12,9.93c4.32,25.6,8.61,51.2,12.97,76.79
	c8.99,52.83,18.05,105.66,27.03,158.5c9.65,56.77,19.2,113.55,28.86,170.32c9.66,56.77,19.43,113.52,29.09,170.29
	c8.82,51.85,17.64,103.7,26.21,155.59c0.91,5.5,3.18,6.39,8.03,5.5c13.42-2.46,26.91-4.61,40.36-6.92
	c17.06-2.93,34.14-5.73,51.14-8.93c5.18-0.97,7.39,0.75,7.8,5.68c0.11,1.33,0.33,2.65,0.55,3.96c3.3,19.36,6.74,38.7,9.82,58.09
	c0.62,3.9,1.96,5.14,5.78,4.41c6.54-1.24,13.13-2.18,19.69-3.3c13.12-2.24,26.23-4.57,39.36-6.75c2.46-0.41,5.89-1.62,6.42,2.36
	c1.24,9.29,5.48,17.96,6.35,27.12c1.01,10.66,1.9,10.36-9,12.18c-37.1,6.2-74.19,12.47-111.27,18.78
	c-53.16,9.05-106.31,18.15-159.46,27.24c-14.44,2.47-28.85,5.08-43.31,7.4c-3.64,0.58-5.53,1.75-4.54,5.73
	c0.4,1.61,0.39,3.31,0.67,4.95c17.04,99.74,34.14,199.48,51.01,299.25c1.16,6.89,3.69,13.8,2.24,22.68
	c-31.13-31.68-61.27-62.34-92.48-94.1c-6.36,24.75-12.23,47.53-18.07,70.32C-712.25,1964.79-722.62,2005.4-733,2046z"/>
<path class="st2" d="M-733,2046c10.38-40.6,20.75-81.21,31.15-121.81c5.83-22.79,11.71-45.57,18.07-70.32
	c31.21,31.76,61.35,62.43,92.48,94.1c1.45-8.88-1.07-15.8-2.24-22.68c-16.87-99.77-33.97-199.5-51.01-299.25
	c-0.28-1.64-0.27-3.34-0.67-4.95c-0.99-3.98,0.91-5.15,4.54-5.73c14.46-2.32,28.88-4.93,43.31-7.4
	c53.15-9.09,106.3-18.19,159.46-27.24c37.08-6.31,74.17-12.59,111.27-18.78c10.89-1.82,10.01-1.52,9-12.18
	c-0.87-9.16-5.11-17.83-6.35-27.12c-0.53-3.98-3.96-2.77-6.42-2.36c-13.13,2.18-26.24,4.51-39.36,6.75
	c-6.56,1.12-13.16,2.05-19.69,3.3c-3.82,0.73-5.16-0.51-5.78-4.41c-3.08-19.39-6.52-38.73-9.82-58.09
	c-0.22-1.31-0.44-2.63-0.55-3.96c-0.41-4.93-2.62-6.66-7.8-5.68c-17.01,3.2-34.09,6-51.14,8.93c-13.45,2.31-26.93,4.45-40.36,6.92
	c-4.85,0.89-7.12-0.01-8.03-5.5c-8.57-51.89-17.39-103.74-26.21-155.59c-9.66-56.77-19.43-113.52-29.09-170.29
	c-9.66-56.77-19.21-113.55-28.86-170.32c-8.98-52.84-18.04-105.66-27.03-158.5c-4.36-25.59-8.65-51.19-12.97-76.79
	c-0.55-3.24-0.61-6.63-3.12-9.93c-18.76,3.19-37.75,6.35-56.71,9.66c-51.15,8.93-102.29,17.93-153.44,26.86
	c-7.69,1.34-7.88,1.27-9.33-6.81c-7.81-43.57-15.55-87.16-23.28-130.74c-10.98-61.94-21.92-123.89-32.89-185.84
	c-10.39-58.66-20.81-117.32-31.21-175.99c-6.04-34.08-12.04-68.17-18.11-102.25c-0.44-2.45-0.03-5.61-3.81-6.01c0-38,0-76,0-114
	c2.83-2.53,3.21,0.37,3.75,1.89c3.45,9.71,6.79,19.47,10.13,29.23c4.3,12.59,8.03,25.41,12.97,37.75
	c10.98,27.4,16.18,56.13,21.18,85.01c10.18,58.7,20.78,117.33,31.16,175.99c10.33,58.34,20.59,116.69,30.92,175.03
	c9.92,56.04,19.99,112.06,29.71,168.14c0.96,5.52,2.9,6.2,7.87,5.31c33.09-5.91,66.24-11.52,99.37-17.27
	c20.33-3.53,40.78-6.53,60.95-10.87c35.12-7.55,70.59-13.07,105.96-19.12c53.15-9.1,106.32-18.08,159.47-27.18
	c52.46-8.98,104.9-18.04,157.34-27.06c9.18-1.58,18.39-3.02,27.53-4.78c5.65-1.09,6.03-1.81,3.74-7.35
	c-6.75-16.29-13.7-32.5-20.52-48.75c-1.27-3.02-3.26-5.81-3.1-10.06c48.96,5.51,97.78,11.01,147.26,16.58
	c0.75-12.22,1.51-23.46,2.12-34.71c1.12-20.63,2.05-41.27,3.27-61.89c0.6-10.21,0.82-10.26,11.51-9.85
	c7.66,0.3,15.3,0.87,22.96,1.19c3.93,0.16,7.87,0.03,12.41,0.03c-0.55-11.19-3.21-21.79-5.06-32.48c-0.71-4.11,0.73-9.8-3.24-12
	c-3.78-2.09-8.01,1.83-12.1,2.89c-31.87,8.25-63.73,16.58-97.07,25.27c9.83,18.6,19.37,36.67,29.26,55.39
	c-4.98,4.03-10.73,6.17-16.57,9.32c-9.43-17.68-18.5-34.69-27.58-51.69c-4.25-7.95-4.28-7.99-12.67-5.8
	c-18.35,4.78-36.66,9.72-55.05,14.35c-5.06,1.27-6.98,3.44-5.91,8.92c2.69,13.72,4.66,27.57,7.31,41.3
	c0.81,4.22-0.05,6.37-4.37,6.86c-16.22,1.83-13.34,4.86-15.61-10.02c-1.76-11.52-3.9-22.97-5.79-34.47
	c-0.64-3.89-1.86-5.77-6.54-4.43c-14.39,4.13-28.89,7.87-43.4,11.53c-4.59,1.16-5.44,3.19-4.47,7.82
	c2.39,11.39,4.01,22.95,5.94,34.44c1.09,6.52,1.09,6.52-5.11,7.7c-12.24,2.32-12.26,2.32-14.53-10.12
	c-1.96-10.77-3.85-21.55-5.94-33.23c-22.93,6.11-45.3,12.07-68.73,18.31c9.19,24.21,18.12,47.72,27.02,71.15
	c-17.13,8.55-17.13,8.55-23.5-8.1c-6.66-17.4-13.44-34.75-19.93-52.21c-1.52-4.08-3-5.72-7.84-4.36
	c-28.18,7.87-56.46,15.37-85.81,23.28c8.79,20.27,17.35,39.99,25.87,59.63c-16.37,10.04-16.38,10.04-23.71-6.67
	c-6.02-13.71-12.21-27.35-17.94-41.18c-1.97-4.76-3.85-6.58-9.47-4.91c-20.41,6.04-41.02,11.4-61.53,17.12
	c-6.6,1.84-6.7,2.01-5.53,8.98c4.15,24.61,8.41,49.21,12.62,73.81c0.45,2.62,0.82,5.26,1.27,7.89c0.48,2.87-0.64,4.17-3.6,4.61
	c-17.12,2.51-13.77,5.26-16.64-10.95c-4.18-23.6-8.05-47.25-12.1-70.87c-1.06-6.19-1.17-6.31-7.72-4.49
	c-20.19,5.59-40.34,11.3-61.94,17.36c7.16,13.6,14.06,26.69,20.91,39.7c-0.45,0.74-0.66,1.52-1.16,1.84
	c-14.49,9.17-14.5,9.16-22.45-5.73c-4.55-8.51-9.24-16.96-13.59-25.57c-1.85-3.67-4.2-4.51-7.97-3.34
	c-8.26,2.56-16.62,4.8-24.87,7.36c-3.28,1.02-4.52,0.03-5.71-3.2c-5.09-13.83-5.23-13.77,9.03-17.85c5.43-1.55,10.86-3.11,16.2-4.64
	c0.76-3.62-1.57-5.89-2.87-8.41c-4.72-9.17-9.68-18.22-14.52-27.33c-4.18-7.87-4.18-7.92,3.93-12.21c9.79-5.18,7.96-6,13.51,4.4
	c5.79,10.87,11.75,21.65,17.35,32.61c1.99,3.89,3.84,5.07,8.46,3.68c21.03-6.3,42.17-12.24,63.38-17.92
	c4.73-1.27,5.44-3.15,4.66-7.65c-5.28-30.17-10.26-60.39-15.33-90.59c-0.83-4.91-1.65-9.82-2.46-14.63
	c0.65-0.57,1.07-1.26,1.62-1.38c17.08-3.77,16.92-3.73,19.78,13.71c4.69,28.58,9.59,57.13,14.44,85.68
	c0.39,2.28,1.05,4.51,1.85,7.86c23.12-6.38,45.92-12.68,69.63-19.22c-9.09-20.87-17.78-40.82-26.69-61.28
	c6.1-2.7,11.46-5.07,17.34-7.66c7.17,16.24,14.01,31.73,20.84,47.21c1.48,3.35,3.26,6.61,4.3,10.09c1.58,5.28,4.48,6.35,9.66,4.9
	c26.27-7.35,52.62-14.41,78.93-21.62c6.54-1.79,6.6-1.92,4-8.75c-9.1-23.95-18.26-47.87-27.4-71.8c-3.27-8.56-3.28-8.57,4.9-11.74
	c2.79-1.08,5.59-2.13,8.34-3.17c2.8,1.47,3.07,4.26,3.99,6.65c9.54,24.84,19.04,49.71,28.61,74.54c2.87,7.46,2.97,7.46,10.78,5.38
	c18.97-5.04,37.93-10.11,56.88-15.2c7.99-2.14,7.93-2.17,6.6-9.9c-1.97-11.48-3.74-23-5.87-34.45c-0.65-3.51,0.45-4.66,3.72-5.4
	c14.28-3.23,14.28-3.32,16.7,11.09c1.7,10.14,3.36,20.3,4.98,30.09c2.55,1.21,4.46,0.49,6.37-0.02c13.17-3.53,26.29-7.3,39.54-10.52
	c9.22-2.24,8.63-1.86,7.1-11.52c-2.76-17.42-6.02-34.76-9.01-52.14c-2.71-15.74-5.31-31.51-8.07-47.24
	c-0.61-3.46-0.32-5.29,3.9-6.17c13.73-2.87,13.8-3.12,16.18,10.49c5.2,29.84,10.28,59.7,15.36,89.55c0.5,2.95,0.75,5.93,2.61,9.54
	c20.6-5.4,41.27-10.82,63.23-16.57c-4.17-7.96-7.77-15.3-11.82-22.38c-2.28-3.98-2.2-6.14,2.38-8.39c14.6-7.18,10.38-7.7,17.74,5.3
	c2.78,4.92,5.51,9.89,7.94,14.99c1.82,3.81,3.76,5.33,8.43,4.07c31.41-8.45,62.91-16.55,96.17-25.22
	c-22.29-18.91-43.49-36.91-64.58-54.8c1.21-3.43,3.9-4.34,5.94-5.81c87.32-63.1,184.2-103.28,290.46-120.88
	c7.88-1.31,15.77-2.58,23.69-3.6c9.48-1.22,9.55-1.11,7.47-11c-5.96-28.33-11.96-56.65-17.97-84.97
	C176.24,59.43,163.66,0.87,151.5-57.77c-1.22-5.89-3.9-9.22-8.78-12.18c-26.19-15.9-52.07-32.29-78.38-48
	c-6.31-3.77-9.46-8.34-10.87-15.36c-3.2-15.97-7.06-31.81-10.89-48.76C-9-159.49-59.97-137.18-112.98-113.97
	c14.68-60.03,28.82-117.87,43.12-176.31c-5.29,0.79-7.9,3.57-10.89,5.54c-29.49,19.41-58.91,38.92-88.39,58.36
	c-8.32,5.49-5.95,5.06-13.16-1.04c-12.46-10.55-24.99-21.04-37.07-32.02c-4.76-4.33-8.96-5.06-15.21-3.53
	c-100.9,24.79-199.43,57.41-298.08,89.66c-96.75,31.62-193.59,62.98-290.39,94.43c-12.76,4.15-26.17,4.76-39.3,6.8
	C-897.87-66.55-933.45-61.34-969-56c0-13.33,0-26.67,0-40c1.47,2.23,3.5,1.17,5.39,0.9c39.53-5.78,79.05-11.57,118.58-17.33
	c9.96-1.45,19.28-5.14,28.76-8.22c146.15-47.41,292.16-95.28,438.49-142.15c37.34-11.96,75.67-20.83,113.55-31.08
	c13.81-3.74,27.69-7.18,41.43-11.15c4.36-1.26,7.35-0.69,10.77,2.39c10.15,9.14,20.59,17.96,31.06,26.73
	c9.59,8.04,6.3,8.01,16.49,1.3c42.84-28.19,85.52-56.62,128.36-84.81c7.99-5.26,15.55-11.29,25-15.7
	c-0.42,8.7-3.22,16.15-5.05,23.76c-8.96,37.19-17.92,74.38-27.37,111.45c-1.44,5.63-0.52,8.33,4.33,11.19
	c10.34,6.1,20.11,13.19,28.86,21.38c4.56,4.26,8.15,3.87,13.21,1.59c21.53-9.68,43.21-19.03,65.13-28.62
	c3.7,4.52,3.46,10.14,4.65,15.12c5.12,21.35,9.91,42.78,14.49,64.25c1.2,5.64,3.88,9.23,8.85,12.23
	c26.78,16.18,53.26,32.87,80.08,49.01c5.38,3.24,7.8,7.24,9.05,13.19c19.78,94.1,39.74,188.15,59.68,282.22
	c1.63,7.67,1.69,7.61,8.73,7.26c117.63-5.83,229.99,15.57,336.47,66.13c61.15,29.04,117.6,65.44,166.34,112.72
	c73.72,71.51,120.16,157.71,137.11,259.38c3.79,22.72,5.77,45.57,5.77,68.61c-0.03,368.59-0.02,737.18-0.02,1105.77
	c0,3.94,0,7.88,0,13.97c9.77-6.99,17.45-14.02,25.46-20.58c8.25-6.75,16.39-13.64,24.59-20.46c7.94-6.61,15.88-13.22,23.83-19.81
	c8.14-6.76,16.29-13.5,26.35-21.83c-7.8,59.07-15.3,115.87-23.11,175.03c31.96-20.34,61.39-41,92.35-60.97
	c1.82,5.69,1.72,10.93,1.97,16.05c1.45,30.29,4.04,60.48,8.45,90.49c1.01,6.9,2.75,13.7,3.98,20.57c0.82,4.57,3.31,5.16,7.14,3.62
	c8.67-3.49,16.86-7.94,24.88-12.71c28.67-17.04,55.73-36.44,82.47-56.31c4.8-3.57,9.58-7.19,14.2-10.66c3.13,0.74,3.3,3.44,4.2,5.45
	c17.32,38.54,34.59,77.09,51.79,115.69c0.94,2.11,3.34,4.17,1.27,6.91C601.67,2046-65.67,2046-733,2046z M70.94,481.79
	c-2.09,2.67-3.84,1.74-5.32,1.67c-32.95-1.6-65.89-3.28-98.83-4.9c-7.32-0.36-14.66-0.47-21.98-0.84c-2.93-0.15-4.29,0.94-4.3,3.9
	c-0.01,1.99-0.31,3.98-0.42,5.98c-1.63,29.61-3.27,59.22-4.85,88.83c-0.5,9.35-0.42,9.24-9.19,8.23
	c-36.73-4.2-73.46-8.42-110.22-12.36c-5.34-0.57-10.78-2.11-17.02-1.19c5.41,12.72,10.24,24.74,15.65,36.5
	c2.23,4.86,1.93,8.1-1.67,12.38c-21.87,26.02-43.93,51.91-64.74,78.78c-10.45,13.5-21.82,23.19-39.25,25.87
	c-9.24,1.42-7.43,1.38-7.43,9.91c-0.04,136.33,0,272.65-0.14,408.98c-0.01,5.09,1.66,8.8,4.76,12.56
	c12.28,14.92,24.17,30.17,36.6,44.96c4.05,4.82,5.08,9.15,3.52,15.36c-14.4,57.44-28.46,114.97-42.62,172.47
	c-1.43,5.83-2.23,11.68-2.23,17.75c0.08,203.99,0.06,407.98,0.08,611.97c0,12.57-1.38,11.17,11.18,11.17
	c207.32,0.02,414.65-0.03,621.97,0.2c7.98,0.01,12.37-2.33,16.35-9.31c34.45-60.45,69.3-120.68,104.09-180.94
	c1.67-2.9,2.89-6.26,6.67-9.33c6.2,36.9,12.18,72.47,18.48,109.92c7.71-6.54,14.2-12.03,20.67-17.55
	c6.85-5.83,13.68-11.69,20.53-17.53c6.59-5.63,13.19-11.24,19.78-16.86c6.84-5.84,13.67-11.7,20.52-17.54
	c6.59-5.63,13.07-11.39,19.82-16.82c6.77-5.43,12.49-12.31,21.68-16.85c0,48.93,0,96.53,0.02,144.13c0,0.23,0.32,0.51,0.55,0.69
	c0.26,0.2,0.58,0.32,1.44,0.77c50.89-32.56,102.04-65.3,154.19-98.67c1.43,6.49,2.63,11.59,3.67,16.73
	c8.21,40.44,16.25,80.91,24.69,121.3c1.84,8.79,0.48,7.63,9.64,7.66c25,0.06,50,0.06,75,0c7.61-0.02,7.61-0.13,7.79-7.63
	c0.02-1,0-2,0-3c0.1-59.33,0.27-118.65,0.28-177.98c0.03-374.98,0.04-749.96-0.04-1124.94c-0.01-30.4-3.42-60.52-10.23-90.16
	c-23.12-100.64-74.91-183.96-154.64-249.07C605.04,286.85,477.66,238.4,335.7,228.47c-55.02-3.85-109.82-0.63-164.24,9.09
	C81.12,253.7-2.46,286.65-79.2,336.95c-3.59,2.35-7.51,4.33-10.91,8.34C-36.39,390.82,17.27,436.31,70.94,481.79z M-245.18,659.94
	c-5.09-1.14-8.62-0.09-12.03,0.48c-21.66,3.63-43.26,7.54-64.91,11.23c-90.21,15.37-180.41,30.84-270.68,45.86
	c-10.37,1.72-9.11,2.54-7.65,11.5c3.49,21.34,7.44,42.61,11.06,63.94c17.63,104.01,35.19,208.02,52.83,312.03
	c16.59,97.77,33.18,195.54,49.97,293.27c1.9,11.06,2.89,22.36,6.42,33.34c51.52-8.78,102.64-17.47,153.76-26.22
	c8.22-1.41,8.14-1.55,9.16-10.41c0.26-2.3,0.91-4.56,1.47-6.82c13.68-55.89,27.26-111.81,41.23-167.63
	c1.49-5.94,0.43-9.84-3.35-14.34c-11.78-14.03-23.01-28.52-34.72-42.6c-3.4-4.09-4.82-8.21-4.81-13.54
	c0.12-143.29,0.09-286.57,0.1-429.86c0-8.19,0.06-8.17,8.18-10.48c9.91-2.82,21.09-3.71,29.35-9.08
	c8.28-5.38,13.66-15.24,20.26-23.17C-254.93,671.9-250.4,666.3-245.18,659.94z M-466.65,1624.62c7.01,41.03,13.97,81.6,20.85,122.19
	c1,5.91,1.99,11.65,5.08,17.04c24.17,42.1,48.16,84.3,72.25,126.44c1.08,1.89,1.62,4.55,4.38,4.62c6.32-7.33,7.75-15.08,5.97-24.88
	c-8.82-48.74-16.73-97.64-25.02-146.48c-5.89-34.74-12.05-69.43-17.63-104.21c-0.92-5.76-3.22-6.28-7.91-5.42
	c-9.48,1.74-19.08,2.88-28.51,4.85C-446.85,1620.81-456.9,1621.1-466.65,1624.62z M-489.48,1902.01
	c10.95-39.93,21.5-79.44,32.74-118.75c3.28-11.49,4.16-22.4,1.99-34.27c-7.21-39.26-13.66-78.66-20.14-118.05
	c-0.75-4.56-2.58-5.46-6.6-4.71c-7.85,1.45-15.74,2.68-23.61,4.05c-12.39,2.16-24.77,4.37-37.38,6.6c0.25,2.01,0.37,3.31,0.58,4.59
	c4.91,28.86,9.86,57.71,14.74,86.57c8.94,52.81,17.9,105.62,26.7,158.45C-499.35,1893.13-496.84,1898.42-489.48,1902.01z
	 M-349.2,1867.44c0.63,0.12,1.25,0.24,1.88,0.36c6.35-10.46,12.13-21.32,19.21-31.26c8.47-11.9,12.19-24.41,10.98-39.08
	c-1.09-13.22,1.21-26.85-0.82-39.85c-7.73-49.58-16.68-98.98-24.91-148.48c-0.84-5.03-2.86-5.93-7.25-5.15
	c-12.43,2.2-24.88,4.33-37.36,6.23c-4.33,0.66-5.33,2.31-4.45,6.67c2.29,11.4,3.97,22.92,5.92,34.39
	c9.02,53.08,18.04,106.16,27.07,159.24C-355.72,1829.48-352.45,1848.46-349.2,1867.44z M-602.63,1647.04
	c1.31,7.95,2.45,15.13,3.67,22.29c8.45,49.49,17,98.96,25.24,148.49c0.88,5.29,2.94,9.1,6.78,12.66
	c16.6,15.39,32.95,31.04,49.52,46.47c1.75,1.63,2.92,4.53,6.66,4.04c-1.68-10.24-3.29-20.39-5.01-30.53
	c-9.08-53.44-18.19-106.87-27.3-160.31c-2.62-15.41-5.26-30.81-7.91-46.21c-0.43-2.5-0.07-5.79-4.26-5.08
	C-570.91,1641.55-586.57,1644.27-602.63,1647.04z M-340.75,1446.05c-8.51,1.41-17.01,2.84-25.52,4.24c-2.55,0.42-3.2,2.08-2.84,4.3
	c1.58,9.82,3.17,19.64,4.85,29.45c0.46,2.67,1.9,3.85,4.93,3.27c7.81-1.51,15.69-2.69,23.52-4.09c2.67-0.48,5.26-1.05,4.51-4.95
	c-1.81-9.45-3.46-18.92-5.1-28.4C-336.84,1447.31-337.56,1445.34-340.75,1446.05z M14.91,461.96c0.25-0.66,0.49-1.32,0.74-1.98
	c-9.77-8.21-19.54-16.41-31.08-26.1c1.59,9.03,3.09,15.49,3.76,22.03c0.42,4.1,2.61,4.82,5.88,4.98
	C1.12,461.21,8.01,461.6,14.91,461.96z"/>
<path class="st1" d="M1581-1020c0,98.67,0,197.33,0,296c-5.13-2.06-4.15,3.16-5.04,4.91c-15.69,30.79-35.22,58.83-59.04,83.87
	c-16.09,16.91-33.62,32.13-53.29,45.58c-11.75-12.69-17.34-28.67-26.26-44.69c-1.04,5.74-1.75,9.32-2.33,12.92
	c-2.58,16.11-5.26,32.2-7.56,48.34c-0.57,4-1.82,6.58-5.6,8.47c-35.78,17.9-73.58,28.95-113.2,34.09c-3.65,0.47-5.18-0.63-6.33-4.29
	c-2.09-6.62-2.75-13.79-6.93-20.76c-2.56,4.55-5.16,8.1-6.67,12.07c-4.59,12.05-12.07,18.52-25.65,14.92
	c-1.22-0.32-2.64,0.17-3.96,0.19c-7.67,0.12-7.53,0.05-10.55-7.38c-3.15-7.76-5.02-16.07-9.17-23.52c-0.92,0.55-1.32,0.65-1.44,0.88
	c-2.93,5.96-5.88,11.91-8.72,17.91c-4.59,9.67-4.58,9.8-14.71,8.16c-29.04-4.69-56.81-13.52-84.24-24.15
	c-12.43-4.82-16.68-12.81-17.31-24.59c-0.32-5.99-0.65-11.98-0.64-17.97c0.03-17,0.24-33.99,0.37-50.99c0.02-2.87,0-5.74,0-8.61
	c-5.93,5.08-10.04,10.89-14.2,16.67c-10.67,14.81-23.91,26.75-39.63,36.06c-3.76,2.23-6.36,2.13-9.7-0.75
	c-9.61-8.27-18.98-16.76-27.82-25.85c-23.63-24.28-43.12-51.52-58.98-81.46c-2.73-5.15-2.18-8.27,2.11-11.92
	c12.53-10.67,26.74-14.47,42.79-11.22c4.88,0.99,9.64,2.57,14.47,3.84c7.23,1.91,7.27,1.91,8.99-5.64
	c2.07-9.08,4.27-18.14,6.05-27.28c2.18-11.16,8.18-19.43,17.71-25.41c7.62-4.78,15.04-9.87,22.66-14.63
	c4.13-2.58,7.73-6.25,12.75-7.15c1.87,4.6,3.61,8.86,5.47,13.44c6.22-1.85,11.36-5.17,17.28-6.06
	c20.93-3.17,41.69,17.66,39.55,39.73c-0.94,9.75-1.93,19.5-2.9,29.25c7.14-4.61,12.63-10.26,18.4-15.6
	c14.56-13.5,33.22-11.77,45.12,3.95c6.29,8.31,10.03,17.99,14.94,27.05c1.46,2.7,1.47,6.94,5.73,7.38c5.02,0.52,5.4-4.31,7.22-7.08
	c5.85-8.88,10.56-18.51,17.96-26.36c12.46-13.23,30.62-13.5,43.25-0.33c4.38,4.56,8.22,9.64,12.48,14.31
	c1.38,1.52,2.04,4.42,5.33,3.68c0-7.98,0.4-15.91-0.09-23.79c-0.77-12.47,3.43-22.66,11.98-31.61c10.5-11,23.5-13.82,37.2-7.38
	c10.84,5.09,11.57,5.36,15.58-5.62c4.88-13.35,13.46-21.54,27.1-25.36c7.17-2.01,14.35-4.54,22.34-9.33
	c-11.46-0.99-21.24-1.83-31.01-2.69c-25.71-2.26-45.23-14.48-58.64-36.49c-2.19-3.6-4.21-7.31-6.57-11.44
	c-1.98,3.4-2.12,6.41-2.43,9.37c-0.84,7.95-1.63,15.9-2.56,23.84c-3.6,31.03-26.84,52.79-56.27,53.08c-5.38,0.05-8.4-1.08-9.95-6.96
	c-2.76-10.45-6.64-20.61-10.06-30.93c-2.59,1.15-3.35,3.12-3.96,4.96c-2.78,8.44-7.26,12.78-17.27,10.72
	c-3.99-0.82-5.51-1.81-6.93-5.1c-1.72-3.99-2.3-8.73-6.43-11.97c-3.49,8.18-6.76,15.82-10,23.47c-6.33,14.94-6.33,14.95-21.81,11.01
	c-1.28-0.33-2.52-0.84-3.78-1.27c-22.89-7.83-37.91-28.11-38.9-52.88c-0.46-11.49-0.51-23-0.75-34.58
	c-3.94,0.22-4.19,3.06-5.52,4.72c-3.32,4.16-6.06,8.83-9.68,12.68c-14.39,15.28-32.13,23.36-53.22,23.63
	c-10.42,0.13-20.84,0.02-31.26,0.02c2.65,3.09,5.48,4.62,8.37,6.04c7.17,3.53,14.5,6.74,21.48,10.6c4.11,2.27,8.72,4.78,8.52,11.1
	c-15.25,1.99-30.05,4.83-44.96,5.7c-38.57,2.26-71.14-11.11-97.22-39.78c-5.07-5.57-9.89-11.37-14.82-17.06
	c-0.43,12.43,0.9,24.2,1.74,36c0.85,11.92,3.48,23.76,2.18,35.81c-1.19-3.14-2.19-6.29-2.74-9.52c-8.1-48.23-7.25-96.21,4.8-143.73
	c44.1-173.94,210.22-284.61,387.35-256.68c94.3,14.87,169.42,62.6,225.86,139.6c11.25,15.34,20.78,31.74,29.3,48.74
	C1577.56-1021.42,1577.44-1018.01,1581-1020z"/>
<path class="st2" d="M1581-1020c-3.56,1.99-3.44-1.42-4.26-3.06c-8.52-17-18.05-33.4-29.3-48.74
	c-56.44-77-131.57-124.73-225.86-139.6c-177.12-27.93-343.25,82.73-387.35,256.68c-12.05,47.52-12.9,95.5-4.8,143.73
	c0.54,3.23,1.55,6.37,2.74,9.52c1.3-12.06-1.32-23.89-2.18-35.81c-0.85-11.8-2.17-23.57-1.74-36c4.93,5.69,9.75,11.49,14.82,17.06
	c26.08,28.67,58.66,42.04,97.22,39.78c14.91-0.87,29.71-3.71,44.96-5.7c0.2-6.32-4.4-8.83-8.52-11.1
	c-6.98-3.86-14.31-7.08-21.48-10.6c-2.89-1.42-5.73-2.95-8.37-6.04c10.42,0,20.84,0.11,31.26-0.02
	c21.09-0.27,38.84-8.35,53.22-23.63c3.63-3.85,6.37-8.52,9.68-12.68c1.33-1.66,1.58-4.5,5.52-4.72c0.24,11.58,0.29,23.09,0.75,34.58
	c0.99,24.78,16.01,45.05,38.9,52.88c1.26,0.43,2.5,0.94,3.78,1.27c15.48,3.93,15.48,3.92,21.81-11.01c3.24-7.65,6.51-15.29,10-23.47
	c4.14,3.24,4.71,7.98,6.43,11.97c1.42,3.29,2.94,4.28,6.93,5.1c10.01,2.05,14.48-2.28,17.27-10.72c0.61-1.84,1.37-3.81,3.96-4.96
	c3.43,10.33,7.31,20.48,10.06,30.93c1.55,5.88,4.57,7.01,9.95,6.96c29.44-0.3,52.67-22.05,56.27-53.08
	c0.92-7.94,1.71-15.89,2.56-23.84c0.31-2.97,0.46-5.97,2.43-9.37c2.37,4.13,4.38,7.84,6.57,11.44
	c13.4,22.01,32.93,34.23,58.64,36.49c9.77,0.86,19.54,1.69,31.01,2.69c-7.98,4.79-15.17,7.32-22.34,9.33
	c-13.64,3.82-22.22,12.01-27.1,25.36c-4.01,10.98-4.74,10.71-15.58,5.62c-13.7-6.44-26.7-3.62-37.2,7.38
	c-8.55,8.95-12.75,19.14-11.98,31.61c0.49,7.88,0.09,15.81,0.09,23.79c-3.29,0.74-3.94-2.16-5.33-3.68
	c-4.27-4.68-8.1-9.75-12.48-14.31c-12.63-13.17-30.79-12.9-43.25,0.33c-7.39,7.85-12.11,17.48-17.96,26.36
	c-1.82,2.77-2.2,7.6-7.22,7.08c-4.26-0.44-4.27-4.69-5.73-7.38c-4.91-9.06-8.65-18.74-14.94-27.05
	c-11.89-15.72-30.55-17.45-45.12-3.95c-5.77,5.35-11.26,10.99-18.4,15.6c0.97-9.75,1.96-19.49,2.9-29.25
	c2.14-22.06-18.62-42.9-39.55-39.73c-5.92,0.9-11.06,4.21-17.28,6.06c-1.87-4.59-3.6-8.84-5.47-13.44
	c-5.02,0.9-8.61,4.57-12.75,7.15c-7.63,4.76-15.05,9.85-22.66,14.63c-9.54,5.98-15.54,14.25-17.71,25.41
	c-1.78,9.14-3.98,18.2-6.05,27.28c-1.72,7.55-1.76,7.56-8.99,5.64c-4.82-1.28-9.59-2.86-14.47-3.84
	c-16.05-3.25-30.27,0.55-42.79,11.22c-4.28,3.65-4.83,6.77-2.11,11.92c15.86,29.94,35.35,57.18,58.98,81.46
	c8.84,9.08,18.21,17.58,27.82,25.85c3.34,2.88,5.93,2.98,9.7,0.75c15.72-9.31,28.96-21.25,39.63-36.06
	c4.16-5.77,8.27-11.59,14.2-16.67c0,2.87,0.02,5.74,0,8.61c-0.13,17-0.34,33.99-0.37,50.99c-0.01,5.99,0.32,11.99,0.64,17.97
	c0.63,11.78,4.88,19.78,17.31,24.59c27.43,10.63,55.2,19.46,84.24,24.15c10.14,1.64,10.13,1.51,14.71-8.16
	c2.85-6,5.79-11.95,8.72-17.91c0.12-0.24,0.53-0.34,1.44-0.88c4.15,7.45,6.02,15.76,9.17,23.52c3.02,7.44,2.88,7.5,10.55,7.38
	c1.33-0.02,2.75-0.52,3.96-0.19c13.58,3.6,21.07-2.87,25.65-14.92c1.51-3.97,4.11-7.52,6.67-12.07c4.17,6.97,4.84,14.14,6.93,20.76
	c1.15,3.66,2.68,4.76,6.33,4.29c39.61-5.14,77.42-16.19,113.2-34.09c3.77-1.89,5.03-4.47,5.6-8.47c2.3-16.15,4.98-32.24,7.56-48.34
	c0.58-3.6,1.29-7.18,2.33-12.92c8.92,16.02,14.51,31.99,26.26,44.69c19.66-13.46,37.2-28.67,53.29-45.58
	c23.81-25.04,43.35-53.08,59.04-83.87c0.89-1.75-0.09-6.97,5.04-4.91c0,43.33,0,86.67,0,130c-14.63,17-31.29,31.98-49.17,47.58
	c17.47,3.33,33.32,4.85,49.17,6.42c0,4,0,8,0,12c-10.4,3.49-20.69,7.35-31.22,10.4c-14.04,4.06-23.88,12.35-29.94,25.73
	c-4.64,10.25-10.18,20.09-15.54,30.56c-6.44-3.69-12.14-7.09-17.96-10.26c-21.88-11.91-45.86-8.26-63.07,9.57
	c-3.01,3.12-5.9,6.35-8.8,9.57c-8.82,9.8-13.37,21.22-13.67,34.47c-0.41,17.87-1.13,35.73-1.77,54.91
	c-4.64-3.22-6.75-6.97-9.35-10.18c-6.72-8.28-13.09-16.84-19.92-25.03c-20.4-24.5-53.2-25.44-75.33-2.67
	c-14.33,14.74-23.89,32.79-35.59,49.35c-1.91,2.7-2.71,6.47-8.13,5.49c-3.67-0.67-5.8-1.43-7.26-4.8
	c-4.64-10.68-9.69-21.19-14.16-31.94c-3.74-8.99-8.73-17.2-14.21-25.16c-17.3-25.14-50.12-29.6-73.32-9.74
	c-10.38,8.88-20.27,18.33-30.4,27.5c-1.16,1.05-2.37,2.05-4.44,3.82c-0.52-10.59,2.01-19.56,2.91-28.67
	c0.91-9.27,2.25-18.51,3.63-27.73c2.58-17.18-4.56-31.16-14.22-44.4c-1.48-2.03-3.62-2.89-5.71-3.85
	c-11.81-5.42-23.42-11.23-34.55-17.91c-4.07-2.44-7.86-2.63-12.35-1.7c-8.23,1.71-15.81,5.13-23.58,8.04
	c-3.62,1.36-5.34,0.64-6.44-3.3c-2.43-8.64-5.98-17-7.95-25.73c-3.55-15.72-14.22-25.18-27.26-32.56
	c-13.32-7.54-26.99-14.47-40.48-21.7c-2.57-1.38-5.05-2.9-9.21-5.3c8.86,0,15.91,0,22.85,0c0.9-3.26-1.61-4.47-3-6.09
	c-11.72-13.68-22.82-27.84-32.56-43c-2.9-4.5-6.59-7.28-11.49-8.96c-21.5-7.34-43.64,0.79-55.16,20.48
	c-4.71,8.05-8.84,16.36-11.69,25.32c-3.32,10.46-7.12,20.77-10.84,31.09c-2.44,6.75-9.34,8.1-13.82,2.65
	c-6.98-8.49-13.92-17.03-20.57-25.78c-5.69-7.5-12.33-14.01-19.44-20.06c-21-17.88-51.52-14.26-67.7,8.25
	c-7.19,10-13.6,20.55-20.5,30.76c-1.39,2.05-1.96,4.99-5.88,5.86c-1.64-13.89-4.27-27.57-4.66-41.33
	c-0.67-23.64-12.44-40.34-30.93-52.97c-16.98-11.6-34.88-11.94-52.62-1.27c-5.98,3.6-11.59,7.82-17.39,11.77
	c-3.19-0.49-3.79-3.46-5.15-5.56c-4.88-7.55-9.76-15.11-14.3-22.87c-6.08-10.4-14.76-16.67-26.59-19.28
	c-16.24-3.59-32.34-7.81-48.5-11.75c-2.2-0.54-4.74-0.43-5.95-3.32c16.92-3.56,33.77-7.06,50.61-10.66
	c42.99-9.19,72.8-34.08,89.34-74.88c2.47-6.1,4.04-12.63,8.46-19.71c4.46,17.84,8.52,34.34,12.73,50.82
	c1.73,6.76,3.31,13.61,5.71,20.14c14.43,39.35,53.69,63.67,95.29,59.26c1.98-0.21,3.92-0.9,5.9-1c4.78-0.22,6.64-2.47,7.45-7.33
	c2.92-17.39,6.45-34.68,9.75-52.01c0.43-2.26,0.34-4.69,3-7.39c5.24,7.7,10.39,15.18,15.44,22.73c2.2,3.29,3.88,5.76,8.6,2.63
	c5.29-3.52,11.66-3.3,17.99-1.54c4.53-10.69,5.74-22.03,9.74-32.63c3.45,1.66,4.28,5.14,5.92,7.92
	c8.6,14.64,17.27,29.25,25.47,44.12c2.43,4.4,5.3,5.49,9.69,4.4c0.32-0.08,0.66-0.12,0.98-0.2c6.13-1.53,14.11-1.36,17.62-5.9
	c3.97-5.13-2.07-11.48-3.98-17.14c-67.96-201.26,22.19-417,208.86-510.94c4.34-2.18,9.34-3.36,12.63-7.39c116.67,0,233.33,0,350,0
	c1.78,3.71,5.78,4.09,8.88,5.62c49.41,24.45,92.55,57.1,129.12,98.38C1581-1106.67,1581-1063.33,1581-1020z M975.37-580.56
	c0.03,0.73,0.06,1.46,0.08,2.2c2.6,1.43,5.09,3.11,7.81,4.24c18.99,7.88,30.36,21.94,35.04,41.87c1.47,6.28,3.23,12.63,6.45,18.56
	c5.09-1.72,9.41-3.41,13.86-4.64c19.93-5.54,39.08-3.07,54.52,10.66c21.64,19.24,34.83,42.77,28.84,73.43
	c-1.41,7.21-1.89,14.59-3.09,24.28c6.55-5.9,11.12-10.18,15.84-14.27c28.26-24.44,67.63-19.07,88.79,11.69
	c9.15,13.3,15.19,28.04,21.85,42.54c1.76,3.82,2.69,8.19,6.56,11.65c5.86-8.82,11.7-17.25,17.15-25.92
	c5.72-9.09,12.65-17.16,20.13-24.77c24.4-24.81,63.94-23.22,86.79,3.47c4.42,5.16,8.59,10.52,12.82,15.71
	c2.67-1.74,1.88-3.58,1.94-5.08c0.22-6.33,0.42-12.66,0.37-18.99c-0.25-31.19,17.23-51.64,41.82-66.94
	c12.2-7.59,26.25-8.67,40.6-5.63c9.67,2.05,17.73,7.37,26.98,11.78c4.19-8.13,8.49-16,12.35-24.07
	c6.42-13.41,16.69-22.15,30.79-26.61c5.41-1.71,10.75-3.66,16.72-5.71c-3.46-2.94-6.6-2.47-9.51-2.76
	c-44.92-4.54-79.93-25.4-104.68-63.31c-1.08-1.65-1.31-4.86-4.66-3.91c-2.12,12.87-3.94,25.73-6.39,38.48
	c-10.15,52.83-59.15,89.73-112.82,85.18c-13.81-1.17-13.78-1.18-17.61-14.68c-3.58-12.64-7.25-25.26-11.53-40.16
	c-3.5,6.21-5.83,10.46-8.26,14.65c-3.45,5.95-3.72,6.34-9.69,2.93c-7.07-4.04-13.96-5.89-21.56-1.85c-0.29,0.15-0.65,0.15-0.96,0.27
	c-4.51,1.79-7.33,1.13-8.82-4.29c-1.37-4.97-2.75-10.13-6.25-15.26c-6.91,14.62-13.79,28.64-20.11,42.89
	c-2.08,4.69-4.67,6.33-9.75,6.24c-57.81-1.06-104.39-47.85-104.92-105.7c-0.1-10.33,0.17-20.66,0.05-30.99
	c-0.02-2.01,1.44-4.68-1.73-6.17C1068.17-590.97,1025.74-575.77,975.37-580.56z M820.17-744.88c-3.72,4.37-3.77,9.23-4.81,13.55
	c-1.08,4.5-2.9,6.84-7.41,5.15c-8.66-3.25-16.21-1.38-23.16,4.2c-2.99,2.4-5.05,2-7.23-1.35c-2.78-4.29-5.13-9.07-9.93-12.86
	c-2.69,14.02-5.75,26.96-7.48,40.08c-1.01,7.65-4.58,10.42-11.65,11.83c-52.08,10.33-103.43-21.12-117.46-72.36
	c-3.06-11.18-5.7-22.47-9.02-35.65c-7.37,14.44-15.25,26.65-25.54,37.1c-10.62,10.78-22.79,19.31-36.31,26.11
	c-13.05,6.56-27.43,8.99-41.21,13.59c3.9,1.68,7.63,2.83,11.45,3.55c15.69,2.97,27.45,11.17,35.26,25.25
	c3.65,6.59,8.06,12.76,12.33,19.44c3.44-2.33,6.16-4.22,8.93-6.02c22.62-14.72,49.92-12.9,70.31,4.74c3.27,2.83,6.41,5.82,9.58,8.78
	c10.92,10.2,16.86,22.73,18.6,37.61c0.95,8.14,0.92,16.5,3.97,26c3.81-5.75,6.82-10.45,9.99-15.03
	c20.16-29.11,57.71-33.47,84.5-10.22c11.95,10.37,21.06,23.1,31.04,35.13c2.02,2.44,3.18,5.94,7.38,6.76
	c1.64-4.66,3.25-9.28,4.89-13.89c4.46-12.52,8.55-25.12,15.08-36.86c18.14-32.62,55-40.88,85.02-18.74c4.21,3.1,7.98,6.9,13.94,9.49
	c-1.97-8.67-3.69-16.41-5.5-24.12c-2.64-11.24-3.05-22.41,0.88-33.46c3.59-10.09,8.23-19.79,14.87-28.12
	c14.5-18.21,33.51-25.48,56.61-21.25c2.61,0.48,5.22,1.09,7.73,1.92c4.22,1.38,6.85,1.08,7.52-4.32c0.65-5.25,2.66-10.33,3.45-15.57
	c2.51-16.66,11.23-28.81,25.72-37.19c3.54-2.05,7.62-3.73,10.6-8.35c-47.62,9.33-88.54-2.06-124.46-36.48
	c0.61,6.37,1.08,10.58,1.41,14.79c0.84,10.62,2.61,21.27,2.24,31.85c-1.75,50.27-38.17,90.19-88.05,97.28
	c-8.64,1.23-8.65,1.24-13.27-6.67C834.1-720.91,827.28-732.67,820.17-744.88z M1339.9-869.29c-1.1,8.36-1.97,14.21-2.64,20.09
	c-3.44,30.44-24.17,51.96-54.44,56.45c-15.46,2.29-17.09,1.12-22.09-13.47c-1.82-5.33-2.31-11.36-6.42-16.07
	c-0.79,1.04-1.26,1.52-1.58,2.09c-1.31,2.32-2.11,5.16-3.97,6.87c-2.91,2.69-5.34-1.09-8.07-1.66c-1.65-0.34-3.12-0.62-4.84-0.29
	c-7.96,1.5-7.95,1.43-11.22-5.37c-0.55-1.15-1.45-2.13-2.6-3.78c-2.48,5.71-4.75,10.81-6.92,15.95
	c-5.98,14.14-7.77,15.12-22.95,11.84c-2.92-0.63-5.79-1.52-8.61-2.53c-24.08-8.61-39.85-30.38-40.94-56.17
	c-0.28-6.71,0.51-13.59-1.97-21.42c-18.7,23.73-42.95,32.92-72.26,32.07c2.85,4.07,6.28,4.66,9.06,6.15
	c3.57,1.91,7.3,3.81,9.39,7.24c3.45,5.66,7.38,9.72,15.8,6.98c-9.21,8.32-9.21,8.32-3.49,17.51c7.45-2.65,14.85-5.71,23.15-4.36
	c18.52,3.01,34.77,21.78,34.76,40.82c0,6.9-0.89,13.8-1.4,21.15c4.51-1.85,6.89-5.65,10.09-8.41c15.72-13.56,37.59-11.45,50.24,5.01
	c3.65,4.75,6.9,9.76,9.43,15.25c2.55,5.53,5.52,10.86,8.65,16.95c1.52-2.24,2.46-3.58,3.36-4.95c4.95-7.48,8.96-15.57,14.83-22.48
	c16.55-19.47,38.9-19.85,55.78-0.84c1.83,2.06,3.26,4.72,6.88,6.24c0-6.59,0.32-12.21-0.06-17.79
	c-1.07-15.46,15.98-35.11,28.39-39.04c7.87-2.49,15.68-2.5,23.54,0.14c3.37,1.13,6.54,4.83,9.83,3.56
	c3.78-1.46,4.39-6.43,5.79-10.02c4.02-10.37,11-17.22,21.64-20.45c2.11-0.64,4.55-1,6.19-3.99
	C1381.01-831.28,1357.44-842.82,1339.9-869.29z"/>
<path class="st1" d="M1581-1150c-36.57-41.28-79.71-73.92-129.12-98.38c-3.1-1.54-7.09-1.92-8.88-5.62c46,0,92,0,138,0
	C1581-1219.33,1581-1184.67,1581-1150z"/>
<path class="st1" d="M1581-540c-15.85-1.56-31.7-3.08-49.17-6.42c17.88-15.6,34.54-30.58,49.17-47.58C1581-576,1581-558,1581-540z"
	/>
<path class="st2" d="M990.65-307.54c-17.56,7.6-33.66,14.58-49.76,21.55c-12.21,5.29-24.37,10.69-36.64,15.83
	c-11.7,4.91-19.74,13.25-24.5,24.92c-5.77,14.17-11.68,28.28-17.31,42.51c-1.67,4.22-3.33,5.83-7.97,3.27
	c-6.69-3.69-13.75-6.7-20.73-9.85c-27.48-12.43-55.33-5.62-74.21,18.11c-3.32,4.17-6.59,8.38-9.75,12.67
	c-9.07,12.3-12.65,26.1-11.73,41.34c1.52,25.28,2.69,50.57,3.98,75.86c0.01,0.17-0.45,0.37-1.23,0.98
	c-2.91-1.14-4.62-4.08-6.77-6.37c-13.25-14.08-26.12-28.52-39.66-42.29c-23.07-23.46-60.44-23.5-82.23-0.13
	c-7.93,8.51-15.06,17.79-20.68,28.1c-7.97,14.61-16.07,29.14-24.02,43.76c-2.01,3.69-3.62,7.49-8.73,3.63
	c-1.68-1.27-3.84-1.62-5.6-0.28c-5.26,4.02-7.35,0.64-9.62-3.58c-6.61-12.32-13.67-24.4-20.08-36.81
	c-5.69-11.03-12.81-21.02-20.6-30.59c-22-27.03-60.86-29.29-85.5-4.54c-13.63,13.69-26.47,28.17-39.73,42.23
	c-2.23,2.37-4.04,5.23-8.63,7.51c0.27-5.87,0.45-10.94,0.73-16.01c1.11-20.29,2.04-40.6,3.42-60.87
	c1.2-17.52-3.76-32.84-14.98-46.26c-2.78-3.32-5.26-6.89-8.01-10.23c-17.54-21.31-44.91-28.06-70.29-17.2
	c-7.95,3.4-15.84,6.98-23.51,10.96c-4.16,2.16-5.78,1-7.34-2.95c-5.27-13.3-11.11-26.37-16.13-39.76
	c-5.37-14.3-14.9-23.81-29.03-29.68c-27.31-11.33-54.35-23.31-82.35-35.39c3.97-2.52,7.61-2,10.97-2.13
	c23.97-0.98,47.95-1.91,71.93-2.66c58.24-1.82,102.39-27.67,132.53-77.48c6.14-10.15,12.12-20.39,19.75-30.14
	c1.45,19.41,2.85,38.83,4.37,58.24c1.15,14.6,1.56,29.27,3.73,43.79c7.7,51.55,50.05,92.22,101.83,97.79
	c19.34,2.08,19.35,2.08,26.02-15.88c8.8-23.68,17.59-47.35,27.09-72.93c3.83,8.17,6.95,14.76,10.01,21.37
	c3.35,7.25,6.7,14.49,9.95,21.79c1.3,2.92,3.07,4.23,6.19,2.59c3.62-1.91,6.7-2.51,8.76,2.31c0.6,1.41,2.15,0.67,2.73-0.88
	c1.26-3.35,3.81-3.63,6.42-2.09c5.12,3.03,6.94,0.14,8.8-4.05c5.11-11.56,10.46-23.02,15.76-34.5c0.67-1.45,0.85-3.27,3.37-4.53
	c1.95,1.87,2.32,4.84,3.26,7.34c9.14,24.28,18.14,48.61,27.25,72.9c2.96,7.9,3.04,7.87,11.5,7.62
	c59.96-1.75,108.38-47.08,113.64-106.77c2.31-26.21,3.95-52.49,5.93-78.73c0.37-4.95,0.95-9.88,1.53-15.8
	c3.01,1.86,3.86,4.26,5.07,6.29c5.81,9.71,11.3,19.63,17.44,29.13c29.58,45.85,71.75,70.02,126.23,72.5
	c23.63,1.08,47.29,1.65,70.93,2.56C979.31-309.25,984.3-309.5,990.65-307.54z M522.25-257.55c-2.37,2.2-2.85,4.51-3.66,6.69
	c-5.43,14.66-11.04,29.26-16.35,43.97c-1.51,4.19-3.42,6.31-8.36,6.78c-67.03,6.35-128.23-36.29-145.31-101.38
	c-4.01-15.28-4.49-30.93-5.7-46.52c-0.3-3.84,0.34-7.88-2.11-12.36c-34.42,42.91-78.99,65.18-133.66,67.8
	c1.51,3.03,3.35,3.24,4.79,3.79c18.89,7.29,31.44,20.63,38.46,39.5c2.55,6.86,5.84,13.44,8.24,20.35c1.72,4.95,4,6.51,8.58,3.4
	c0.81-0.55,1.82-0.82,2.73-1.23c35.07-15.66,72.17-6.76,96.11,23.08c2.71,3.38,5.26,6.88,7.97,10.26
	c14.25,17.76,20.07,37.93,17.94,60.62c-0.66,7-0.1,14.11-0.1,22.29c4.23-4.44,7.59-8.07,11.06-11.59
	c33.25-33.71,85.52-30.92,115.3,5.75c11.43,14.08,20.23,29.67,28.84,45.46c2.68,4.91,4.8,10.2,9.03,14.7
	c5.01-9.04,10.09-17.62,14.59-26.48c6.22-12.26,14.16-23.31,22.7-34c7.18-8.99,15.81-16.17,26.15-21.25
	c29.42-14.46,64.83-8.22,88.46,15.42c3.88,3.89,6.85,8.86,12.35,11.52c-0.47-10.85-1.11-21.16-1.33-31.47
	c-0.36-16.88,4.77-32.17,14.45-45.88c4.41-6.25,9.07-12.39,14.08-18.17c15.7-18.08,35.52-27.49,59.61-27.79
	c12.6-0.16,24.35,2.89,35.68,8.19c7.08,3.31,7.16,3.18,10.32-4.38c3.08-7.37,6.21-14.71,9.17-22.13c6.51-16.31,17.9-27.8,33.9-34.86
	c2.48-1.09,5.54-1.46,7.65-5.46c-26.84-0.82-51.5-6.91-74.68-18.7c-23.07-11.74-42.3-28.2-58.55-48.53
	c-2.33,2.89-1.55,5.29-1.82,7.47c-1.96,16.18-1.68,32.57-5.49,48.59c-15.75,66.18-78.52,110.78-146.32,103.95
	c-4.43-0.45-6.64-2.14-7.78-6.11c-0.64-2.23-1.52-4.4-2.34-6.58c-5.53-14.73-11.06-29.46-16.9-44.99c-4.33,5.3-5.92,10.82-8.2,15.88
	c-1.83,4.07-4,5.05-7.64,2.89c-12.53-7.44-24.98-7.07-37.43,0.18c-4.06,2.37-5.93,0.13-7.44-3.42
	C527.17-247.18,524.83-251.95,522.25-257.55z"/>
<path class="st2" d="M29.76,69.96C11.78,62.13-5.57,54.51-22.99,47.04c-2.21-0.95-5.17-3.72-6.99-1.03
	c-1.97,2.92,2.01,4.32,3.69,6.05c7.66,7.88,15.55,15.54,23.23,23.4c18.91,19.35,22.85,42.12,14.86,67.36
	c-6.83,21.57-20.3,38.85-36.56,54c-26.09,24.31-55.86,41.81-91.61,47.68c-69.24,11.36-137.09-31.67-156.7-99.3
	c-10.37-35.76-5.49-70.56,6.71-104.8c6.52-18.31,15.84-35.17,28.55-50.03c8.1-9.47,17.66-17.12,28.96-23.09
	c-0.82-0.87-1.32-1.62-2.02-2.1c-2.91-2.02-8.61-1.72-8.77-5.43c-0.21-5.15,3.41-9.84,5.73-14.57c0.67-1.36,2.21-1.32,3.53-0.78
	c1.85,0.75,3.65,1.61,5.48,2.41C-126.86-19.19-48.82,14.84,29.22,48.86c1.52,0.66,3.03,1.38,4.58,1.97
	c3.01,1.15,4.26,2.94,2.55,6.09C34.15,60.98,33.21,65.67,29.76,69.96z M-37.27,41.57L-37.28,42l0.24-0.26
	c1.83,1.77,3.1,4.5,6.85,4.53C-31.46,41.74-34.99,42.64-37.27,41.57z M-48.07,61.32c10.59,22.99,14.06,45.94,8.11,69.78
	c-5.96,23.88-18.8,43.19-39.07,57.3c-33.55,23.36-78.24,22.35-111.17-2.36c-34.26-25.71-48.37-70.91-34.57-111.67
	c7.54-22.25,21.3-39.86,41.45-52.07c19.86-12.04,41.54-16.11,64.94-13.38c-0.61-1.17-1.45-1.67-2.31-2.16
	c-16.2-9.29-33.14-17.05-50.34-24.23c-6.27-2.62-12.85-2.72-19.61-1.16c-13.69,3.16-24.31,11.09-32.66,21.72
	c-29.68,37.84-42.3,80.82-33.37,128.28c12.15,64.59,79.19,107.78,143.13,93.15c39.96-9.14,71.43-31.64,95.5-64.58
	c5.12-7,8.92-14.76,11.73-23.04c6.14-18.1,3.15-34.12-10.36-47.87c-7.94-8.08-15.98-16.06-24.06-23.99
	C-42.32,63.46-43.61,61.24-48.07,61.32z M-133.07,80.63c-15.39-0.09-27.98,12.26-28.22,27.68c-0.25,15.98,12.23,28.91,27.99,28.99
	c15.28,0.08,28.01-12.41,28.28-27.75C-104.75,93.64-117.27,80.72-133.07,80.63z M-48.36,58.76c-0.1,0.2-0.33,0.45-0.28,0.59
	c0.09,0.25,0.46,0.63,0.55,0.6c0.73-0.34,0.84-0.79,0.32-1.16C-47.91,58.69-48.16,58.77-48.36,58.76z"/>
<path class="st2" d="M-831.86,229.55c-2.86,4.02-5.54,7.78-8.23,11.54c-2.51,3.5-5.03,7-7.73,10.76
	c-5.68-2.91-10.26-6.62-15.68-10.83C-802.17,154.54-741,68.29-680-17.71c1.35,0.27,2.12,0.21,2.56,0.56
	c4.15,3.26,11.03,4.98,11.98,9.83c0.97,4.9-4.94,8.86-7.89,13.17c-7.72,11.26-15.8,22.27-23.59,33.49c-1.79,2.58-4.67,4.7-4.56,8.57
	c1.13,0,2.19,0.27,3.03-0.04c17.4-6.36,34.12-3.43,50.42,3.85c5.45,2.44,10.93,5.09,15.79,8.51c39.62,27.91,67.18,64.63,77.5,112.39
	c15.62,72.31-30.49,145.19-102.26,163.44c-76.1,19.36-151.8-25.21-171.94-101.23C-829.36,233.29-829.07,231.48-831.86,229.55z
	 M-570.85,199.09c0.22-9.44-1-20.04-4.16-30.26c-11.7-37.81-33.59-68.38-65.89-91.34c-7.62-5.41-15.93-9.58-25.05-12.04
	c-15.79-4.26-29.74-1.52-40.95,10.93c-31.65,35.14-62.43,70.99-88.91,110.3c-5.2,7.73-10,15.69-13.87,24.2
	c-2.27,5.01-2.9,9.75-1.7,15.35c13.13,60.75,72.03,102.35,133.81,94.22C-616.2,312.38-571,261.52-570.85,199.09z"/>
<path class="st2" d="M-807.52,317c6.72-5.67,6.77-5.72,11.42-0.98c24.5,24.98,53.63,41.28,88.46,46.46
	c72.56,10.79,126.23-23.77,152.3-84.05c0.66-1.52,1.53-3.04,1.79-4.64c0.79-4.98,3.95-4.51,7.41-3.43c4.14,1.28,2.35,3.97,1.4,6.38
	c-18.52,46.74-49.93,80.61-99.84,92.3c-61.6,14.43-115.05-2.64-159.44-47.8C-805.17,320.07-806.12,318.7-807.52,317z"/>
<path class="st2" d="M-253.39,222.88c7.28-5.8,7.3-5.82,12.26-0.2c19.17,21.72,42.18,37.61,70.33,45.22
	c33.72,9.12,66.03,3.69,96.98-11.13c34.07-16.32,58.38-42.42,74.13-76.57c1.78-3.87,3.04-6.47,7.88-4.22
	c2.31,1.07,3.04,2.3,2.26,4.54c-0.44,1.25-0.99,2.47-1.58,3.66c-29.58,60.71-78.01,94.55-145.49,97.07
	C-184.86,283.05-222.59,259.7-253.39,222.88z"/>
<path class="st1" d="M70.94,481.79c-53.67-45.49-107.33-90.97-161.05-136.5c3.4-4.01,7.32-5.99,10.91-8.34
	c76.74-50.3,160.32-83.25,250.67-99.39c54.42-9.72,109.21-12.94,164.24-9.09c141.96,9.93,269.34,58.38,379.75,148.54
	c79.73,65.1,131.52,148.43,154.64,249.07c6.81,29.64,10.22,59.76,10.23,90.16c0.08,374.98,0.07,749.96,0.04,1124.94
	c0,59.33-0.18,118.65-0.28,177.98c0,1,0.02,2,0,3c-0.18,7.5-0.18,7.61-7.79,7.63c-25,0.05-50,0.06-75,0
	c-9.16-0.02-7.8,1.13-9.64-7.66c-8.44-40.39-16.48-80.86-24.69-121.3c-1.04-5.14-2.24-10.24-3.67-16.73
	c-52.15,33.37-103.3,66.1-154.19,98.67c-0.86-0.45-1.18-0.57-1.44-0.77c-0.23-0.18-0.55-0.45-0.55-0.69
	c-0.02-47.6-0.02-95.19-0.02-144.13c-9.19,4.53-14.91,11.41-21.68,16.85c-6.76,5.42-13.23,11.19-19.82,16.82
	c-6.84,5.84-13.68,11.7-20.52,17.54c-6.59,5.63-13.19,11.24-19.78,16.86c-6.84,5.84-13.68,11.7-20.53,17.53
	c-6.47,5.51-12.96,11.01-20.67,17.55c-6.29-37.44-12.28-73.02-18.48-109.92c-3.78,3.07-5,6.43-6.67,9.33
	c-34.79,60.26-69.63,120.49-104.09,180.94c-3.98,6.99-8.38,9.32-16.35,9.31c-207.32-0.23-414.65-0.18-621.97-0.2
	c-12.56,0-11.18,1.39-11.18-11.17c-0.02-203.99,0-407.98-0.08-611.97c0-6.07,0.8-11.92,2.23-17.75
	c14.15-57.5,28.21-115.03,42.62-172.47c1.56-6.21,0.53-10.54-3.52-15.36c-12.43-14.79-24.32-30.04-36.6-44.96
	c-3.1-3.76-4.77-7.48-4.76-12.56c0.14-136.33,0.1-272.65,0.14-408.98c0-8.53-1.81-8.5,7.43-9.91c17.43-2.67,28.79-12.37,39.25-25.87
	c20.8-26.86,42.87-52.76,64.74-78.78c3.6-4.28,3.9-7.52,1.67-12.38c-5.4-11.76-10.24-23.77-15.65-36.5
	c6.24-0.92,11.68,0.61,17.02,1.19c36.76,3.94,73.49,8.16,110.22,12.36c8.77,1,8.69,1.11,9.19-8.23c1.58-29.61,3.22-59.22,4.85-88.83
	c0.11-2,0.41-3.99,0.42-5.98c0.01-2.97,1.37-4.05,4.3-3.9c7.32,0.37,14.66,0.48,21.98,0.84c32.94,1.62,65.89,3.3,98.83,4.9
	C67.1,483.53,68.86,484.46,70.94,481.79z M8.52,1045.42c-1.37-7.4-2.78-14.23-3.84-21.11c-0.74-4.84-3.28-6.27-8.05-6.54
	c-9.29-0.52-18.57-1.68-27.8-2.95c-7.38-1.01-7.47-1.25-7.61-8.48c-0.45-23.64-0.89-47.29-1.12-70.94
	c-0.05-5.56-2.39-12.58,1.17-16.33c3.53-3.72,10.71-1.69,16.23-2.65c5.33-0.93,9.28,0.52,12.98,4.94
	c7.47,8.94,15.56,17.37,23.56,25.85c29.73,31.5,59.45,63.01,92.29,91.36c6.06,5.23,12.28,10.25,19.26,14.22
	c2.57,1.46,5.11,3.53,8.27,3.09c12.13-1.7,24.24-3.57,37.78-5.6C123.82,1002.64,87.77,948.1,51.75,893.1
	c3.51-2.57,6.18-4.51,8.84-6.49c16.54-12.3,30.41-26.96,39.33-45.75c13.25-27.92,4.52-55.67-22.18-71.29
	c-7.82-4.57-16.23-7.6-24.99-9.78c-22.13-5.52-44.77-6.99-67.39-7.31c-40.3-0.57-80.62-0.21-120.93-0.1
	c-5.59,0.01-12.78-2.47-16.39,1.14c-3.89,3.88,0.59,10.6,0.84,16.12c0.05,1,0.29,1.99,0.29,2.98c0,5.11,2.83,6.75,7.6,7.03
	c9.31,0.54,18.58,1.55,27.88,2.32c8.83,0.74,9.04,0.71,9.29,9.98c0.46,17.31,0.87,34.63,0.93,51.94
	c0.16,51.3,0.67,102.61-0.81,153.91c-0.49,16.86-0.8,16.64-18.22,18.44c-8.19,0.85-16.52,0.72-24.54,3.01
	c-2.61,7.94-3.64,16.21-5.13,24.39c-0.09,0.5,0.35,1.09,0.58,1.76C-99.49,1042.98-45.67,1043.09,8.52,1045.42z M711.27,1045.4
	c-0.31-7.52-3.21-13.69-4.21-20.22c-0.77-5.06-3.07-7.16-8.46-7.44c-10.63-0.54-21.23-1.85-31.82-3.08
	c-12.32-1.43-12.39-1.54-12.73-13.86c-1.52-54.97-1.04-109.96-0.91-164.94c0.04-15.99,0.69-31.97,0.84-47.96
	c0.05-4.83,1.88-6.4,6.65-5.81c9.92,1.23,19.89,2.1,29.35,5.59c17.71,6.53,28.94,18.73,31.41,37.78
	c4.13,31.84-10.54,54.19-32.87,66.02c-7.09,3.76-14.49,7.04-22.38,8.24c-6.26,0.95-8.35,4.28-8.66,9.86c-0.11,1.99-0.65,4-0.5,5.97
	c0.36,4.59-4.12,10.12-0.68,13.22c3.7,3.32,9.57-0.04,14.32-0.86c27.19-4.7,52.83-13.69,75.54-29.73
	c20.8-14.68,35.75-33.65,41.67-58.99c7.06-30.21-2.95-53.73-29.76-69.52c-7.21-4.25-14.85-7.46-22.9-9.71
	c-18.07-5.05-36.6-7.05-55.25-7.94c-45.3-2.16-90.61-0.33-135.92-0.36c-1.64,0-3.33-0.06-4.54,1.55c0.84,5.51,1.59,11.12,2.56,16.68
	c1.37,7.82,1.45,7.74,8.91,8.48c9.94,0.98,19.86,2.27,29.81,3.02c4.66,0.35,6.64,2.18,6.1,6.85c-0.19,1.64,0.08,3.33,0.11,4.99
	c1.07,53.64,1.3,107.28,0.59,160.93c-0.23,17.66-0.64,35.31-0.67,52.97c-0.01,4.99-1.59,6.94-6.75,7.33
	c-10.28,0.79-20.51,2.35-30.76,3.56c-2.65,0.31-5.64,0.16-6.12,3.74c-1.03,7.78-3.94,15.28-4.02,23.61
	C596.64,1042.92,653.51,1043.17,711.27,1045.4z M420.6,1045.54c-0.67-3.08-1.17-5.68-1.81-8.25c-1.13-4.52-2.67-8.96-3.43-13.53
	c-0.67-3.98-2.35-5.64-6.48-5.85c-6.98-0.35-13.95-1.1-20.88-2.03c-20.13-2.69-16.17,0.36-16.48-17.96
	c-1.12-65.65-0.92-131.31-0.26-196.97c0.06-5.91-2.12-13.47,1.96-17.26c3.46-3.21,10.62-2.51,16.17-3.36
	c8.16-1.26,16.5-1.37,24.49-3.75c2.16-8.35,4.32-16.69,6.46-25.04c0.06-0.25-0.12-0.57-0.23-1.03
	c-54.79,2.71-109.63,2.42-165.15,0.02c1.96,7.69,4.06,14.99,5.61,22.41c0.76,3.65,2.51,4.78,6.02,5.12
	c10.27,1,20.49,2.63,30.77,3.49c4.6,0.39,6.29,1.96,6.33,6.65c0.1,12.65,0.93,25.3,1,37.96c0.33,56.65,0.88,113.31-0.71,169.95
	c-0.16,5.6,1.78,12.72-1.8,16.39c-3.84,3.93-11.15,2.86-17.03,3.55c-7.91,0.93-15.81,1.9-23.71,2.86
	c-2.75,7.9-3.75,16.18-5.23,24.36c-0.1,0.53,0.36,1.15,0.7,2.16C311.28,1042.99,365.78,1042.97,420.6,1045.54z"/>
<path class="st1" d="M-245.18,659.94c-5.22,6.36-9.75,11.96-14.36,17.49c-6.61,7.93-11.99,17.79-20.26,23.17
	c-8.26,5.37-19.44,6.26-29.35,9.08c-8.12,2.31-8.18,2.29-8.18,10.48c-0.01,143.29,0.02,286.57-0.1,429.86
	c0,5.33,1.42,9.45,4.81,13.54c11.71,14.08,22.94,28.57,34.72,42.6c3.78,4.5,4.84,8.4,3.35,14.34
	c-13.98,55.82-27.55,111.74-41.23,167.63c-0.55,2.26-1.21,4.52-1.47,6.82c-1.01,8.86-0.94,9.01-9.16,10.41
	c-51.11,8.75-102.24,17.44-153.76,26.22c-3.53-10.98-4.52-22.28-6.42-33.34c-16.78-97.74-33.38-195.5-49.97-293.27
	c-17.64-104-35.2-208.02-52.83-312.03c-3.62-21.32-7.56-42.59-11.06-63.94c-1.47-8.96-2.72-9.78,7.65-11.5
	c90.27-15.02,180.47-30.48,270.68-45.86c21.65-3.69,43.25-7.6,64.91-11.23C-253.8,659.85-250.27,658.8-245.18,659.94z"/>
<path class="st1" d="M-466.65,1624.62c9.76-3.53,19.8-3.81,29.47-5.84c9.43-1.98,19.03-3.11,28.51-4.85
	c4.69-0.86,6.99-0.34,7.91,5.42c5.58,34.78,11.74,69.48,17.63,104.21c8.29,48.84,16.2,97.74,25.02,146.48
	c1.77,9.8,0.34,17.55-5.97,24.88c-2.76-0.07-3.3-2.73-4.38-4.62c-24.1-42.14-48.08-84.35-72.25-126.44
	c-3.09-5.39-4.08-11.13-5.08-17.04C-452.68,1706.23-459.64,1665.65-466.65,1624.62z"/>
<path class="st1" d="M-489.48,1902.01c-7.36-3.58-9.87-8.87-10.98-15.51c-8.81-52.83-17.76-105.64-26.7-158.45
	c-4.89-28.86-9.83-57.71-14.74-86.57c-0.22-1.28-0.33-2.58-0.58-4.59c12.61-2.23,24.99-4.44,37.38-6.6
	c7.87-1.37,15.76-2.6,23.61-4.05c4.01-0.74,5.85,0.16,6.6,4.71c6.48,39.39,12.93,78.79,20.14,118.05
	c2.18,11.86,1.3,22.78-1.99,34.27C-467.98,1822.57-478.53,1862.07-489.48,1902.01z"/>
<path class="st1" d="M-349.2,1867.44c-3.25-18.98-6.52-37.96-9.75-56.94c-9.03-53.08-18.05-106.16-27.07-159.24
	c-1.95-11.47-3.63-22.99-5.92-34.39c-0.87-4.36,0.12-6.01,4.45-6.67c12.48-1.9,24.93-4.03,37.36-6.23c4.4-0.78,6.42,0.11,7.25,5.15
	c8.23,49.51,17.18,98.9,24.91,148.48c2.03,13.01-0.28,26.63,0.82,39.85c1.21,14.67-2.51,27.18-10.98,39.08
	c-7.07,9.94-12.85,20.81-19.21,31.26C-347.95,1867.68-348.58,1867.56-349.2,1867.44z"/>
<path class="st1" d="M-602.63,1647.04c16.07-2.77,31.72-5.49,47.38-8.16c4.18-0.71,3.83,2.58,4.26,5.08
	c2.65,15.4,5.29,30.8,7.91,46.21c9.11,53.43,18.21,106.87,27.3,160.31c1.72,10.14,3.33,20.29,5.01,30.53
	c-3.73,0.49-4.91-2.42-6.66-4.04c-16.56-15.43-32.92-31.08-49.52-46.47c-3.84-3.56-5.9-7.38-6.78-12.66
	c-8.23-49.53-16.79-99-25.24-148.49C-600.19,1662.17-601.33,1654.99-602.63,1647.04z"/>
<path class="st1" d="M-340.76,1446.05c3.19-0.71,3.91,1.26,4.36,3.81c1.64,9.48,3.29,18.95,5.1,28.4c0.75,3.9-1.84,4.48-4.51,4.95
	c-7.83,1.4-15.71,2.57-23.52,4.09c-3.03,0.59-4.47-0.6-4.93-3.27c-1.68-9.81-3.27-19.63-4.85-29.45c-0.36-2.22,0.29-3.89,2.84-4.3
	C-357.76,1448.89-349.26,1447.46-340.76,1446.05z"/>
<path class="st1" d="M14.91,461.96c-6.9-0.36-13.79-0.75-20.69-1.07c-3.28-0.15-5.46-0.88-5.88-4.98c-0.68-6.54-2.17-13-3.76-22.03
	c11.54,9.69,21.31,17.89,31.08,26.1C15.4,460.64,15.16,461.3,14.91,461.96z"/>
<path class="st1" d="M975.37-580.56c50.37,4.79,92.8-10.41,125.81-49c3.17,1.49,1.71,4.16,1.73,6.17
	c0.12,10.33-0.15,20.66-0.05,30.99c0.54,57.85,47.11,104.65,104.92,105.7c5.09,0.09,7.67-1.55,9.75-6.24
	c6.33-14.26,13.21-28.27,20.11-42.89c3.5,5.13,4.88,10.28,6.25,15.26c1.49,5.42,4.32,6.08,8.82,4.29c0.31-0.12,0.67-0.12,0.96-0.27
	c7.6-4.04,14.49-2.19,21.56,1.85c5.97,3.41,6.23,3.02,9.69-2.93c2.43-4.19,4.76-8.43,8.26-14.65c4.28,14.9,7.95,27.52,11.53,40.16
	c3.83,13.49,3.79,13.5,17.61,14.68c53.68,4.55,102.68-32.35,112.82-85.18c2.45-12.74,4.27-25.6,6.39-38.48
	c3.34-0.95,3.58,2.26,4.66,3.91c24.75,37.91,59.76,58.77,104.68,63.31c2.91,0.29,6.05-0.18,9.51,2.76c-5.97,2.05-11.31,4-16.72,5.71
	c-14.1,4.46-24.37,13.2-30.79,26.61c-3.86,8.07-8.16,15.94-12.35,24.07c-9.25-4.41-17.31-9.73-26.98-11.78
	c-14.35-3.04-28.39-1.96-40.6,5.63c-24.6,15.3-42.08,35.74-41.82,66.94c0.05,6.33-0.15,12.66-0.37,18.99
	c-0.05,1.5,0.74,3.34-1.94,5.08c-4.22-5.19-8.4-10.55-12.82-15.71c-22.86-26.68-62.4-28.27-86.79-3.47
	c-7.48,7.61-14.41,15.67-20.13,24.77c-5.45,8.67-11.29,17.1-17.15,25.92c-3.87-3.46-4.8-7.83-6.56-11.65
	c-6.66-14.5-12.7-29.24-21.85-42.54c-21.15-30.76-60.53-36.13-88.79-11.69c-4.73,4.09-9.3,8.36-15.84,14.27
	c1.2-9.68,1.68-17.07,3.09-24.28c5.98-30.66-7.2-54.19-28.84-73.43c-15.44-13.73-34.59-16.2-54.52-10.66
	c-4.45,1.24-8.77,2.92-13.86,4.64c-3.22-5.93-4.98-12.29-6.45-18.56c-4.68-19.94-16.05-34-35.04-41.87
	c-2.72-1.13-5.21-2.81-7.81-4.24C975.43-579.09,975.4-579.83,975.37-580.56z"/>
<path class="st1" d="M820.17-744.88c7.11,12.21,13.94,23.97,20.79,35.71c4.62,7.91,4.63,7.9,13.27,6.67
	c49.88-7.09,86.3-47.01,88.05-97.28c0.37-10.58-1.41-21.24-2.24-31.85c-0.33-4.22-0.8-8.42-1.41-14.79
	c35.91,34.42,76.83,45.81,124.46,36.48c-2.98,4.62-7.06,6.3-10.6,8.35c-14.49,8.39-23.21,20.53-25.72,37.19
	c-0.79,5.25-2.8,10.32-3.45,15.57c-0.67,5.39-3.3,5.7-7.52,4.32c-2.52-0.83-5.12-1.44-7.73-1.92c-23.1-4.23-42.11,3.03-56.61,21.25
	c-6.64,8.34-11.28,18.03-14.87,28.12c-3.93,11.05-3.52,22.22-0.88,33.46c1.81,7.71,3.52,15.44,5.5,24.12
	c-5.97-2.6-9.74-6.39-13.94-9.49c-30.02-22.14-66.88-13.88-85.02,18.74c-6.53,11.74-10.62,24.35-15.08,36.86
	c-1.64,4.61-3.25,9.23-4.89,13.89c-4.2-0.83-5.36-4.32-7.38-6.76c-9.98-12.03-19.08-24.76-31.04-35.13
	c-26.79-23.25-64.34-18.88-84.5,10.22c-3.17,4.58-6.18,9.28-9.99,15.03c-3.05-9.5-3.02-17.87-3.97-26
	c-1.73-14.89-7.68-27.41-18.6-37.61c-3.17-2.96-6.3-5.95-9.58-8.78c-20.39-17.64-47.68-19.46-70.31-4.74
	c-2.77,1.8-5.48,3.7-8.93,6.02c-4.27-6.68-8.68-12.85-12.33-19.44c-7.81-14.08-19.57-22.28-35.26-25.25
	c-3.81-0.72-7.55-1.87-11.45-3.55c13.79-4.6,28.16-7.03,41.21-13.59c13.53-6.8,25.69-15.34,36.31-26.11
	c10.3-10.45,18.18-22.65,25.54-37.1c3.32,13.18,5.96,24.47,9.02,35.65c14.03,51.24,65.38,82.7,117.46,72.36
	c7.07-1.4,10.65-4.18,11.65-11.83c1.73-13.12,4.79-26.06,7.48-40.08c4.79,3.8,7.14,8.57,9.93,12.86c2.17,3.35,4.24,3.75,7.23,1.35
	c6.95-5.58,14.5-7.45,23.16-4.2c4.51,1.69,6.33-0.65,7.41-5.15C816.39-735.65,816.45-740.51,820.17-744.88z"/>
<path class="st1" d="M1339.9-869.29c17.54,26.47,41.11,38.01,70.36,39.26c-1.63,2.99-4.07,3.35-6.19,3.99
	c-10.64,3.23-17.63,10.08-21.64,20.45c-1.39,3.59-2,8.56-5.79,10.02c-3.28,1.27-6.45-2.43-9.83-3.56
	c-7.86-2.64-15.68-2.63-23.54-0.14c-12.41,3.94-29.46,23.59-28.39,39.04c0.39,5.57,0.06,11.19,0.06,17.79
	c-3.61-1.53-5.04-4.18-6.88-6.24c-16.88-19.01-39.22-18.63-55.78,0.84c-5.88,6.91-9.88,14.99-14.83,22.48
	c-0.9,1.37-1.84,2.71-3.36,4.95c-3.14-6.1-6.11-11.43-8.65-16.95c-2.53-5.49-5.78-10.5-9.43-15.25
	c-12.65-16.45-34.52-18.57-50.24-5.01c-3.2,2.76-5.58,6.56-10.09,8.41c0.51-7.35,1.4-14.25,1.4-21.15
	c0.01-19.04-16.24-37.81-34.76-40.82c-8.3-1.35-15.7,1.72-23.15,4.36c-5.71-9.19-5.71-9.19,3.49-17.51
	c-8.42,2.74-12.34-1.32-15.8-6.98c-2.09-3.43-5.82-5.33-9.39-7.24c-2.79-1.49-6.21-2.08-9.06-6.15
	c29.31,0.85,53.56-8.34,72.26-32.07c2.48,7.83,1.69,14.71,1.97,21.42c1.09,25.79,16.86,47.56,40.94,56.17
	c2.81,1.01,5.69,1.9,8.61,2.53c15.17,3.28,16.97,2.3,22.95-11.84c2.17-5.14,4.44-10.23,6.92-15.95c1.15,1.65,2.04,2.63,2.6,3.78
	c3.28,6.8,3.26,6.87,11.22,5.37c1.72-0.32,3.19-0.05,4.84,0.29c2.73,0.57,5.16,4.34,8.07,1.66c1.85-1.71,2.66-4.56,3.97-6.87
	c0.32-0.56,0.78-1.05,1.58-2.09c4.11,4.71,4.59,10.74,6.42,16.07c4.99,14.6,6.63,15.76,22.09,13.47c30.27-4.48,50.99-26,54.44-56.45
	C1337.93-855.08,1338.8-860.93,1339.9-869.29z"/>
<path class="st1" d="M522.25-257.55c2.58,5.6,4.92,10.37,6.99,15.26c1.51,3.54,3.37,5.79,7.44,3.42c12.45-7.26,24.9-7.62,37.43-0.18
	c3.64,2.16,5.81,1.18,7.64-2.89c2.28-5.06,3.87-10.58,8.2-15.88c5.84,15.53,11.38,30.26,16.9,44.99c0.82,2.18,1.7,4.35,2.34,6.58
	c1.14,3.97,3.36,5.66,7.78,6.11c67.8,6.83,130.57-37.77,146.32-103.95c3.81-16.02,3.54-32.41,5.49-48.59
	c0.26-2.18-0.52-4.58,1.82-7.47c16.26,20.33,35.48,36.79,58.55,48.53c23.18,11.79,47.84,17.88,74.68,18.7
	c-2.11,4-5.16,4.36-7.65,5.46c-16.01,7.06-27.4,18.55-33.9,34.86c-2.96,7.42-6.09,14.76-9.17,22.13c-3.16,7.56-3.24,7.69-10.32,4.38
	c-11.33-5.3-23.08-8.35-35.68-8.19c-24.1,0.31-43.92,9.71-59.61,27.79c-5.02,5.78-9.67,11.91-14.08,18.17
	c-9.68,13.71-14.81,29-14.45,45.88c0.22,10.32,0.86,20.62,1.33,31.47c-5.5-2.66-8.47-7.64-12.35-11.52
	c-23.63-23.65-59.04-29.88-88.46-15.42c-10.34,5.08-18.97,12.26-26.15,21.25c-8.53,10.69-16.48,21.74-22.7,34
	c-4.5,8.87-9.58,17.44-14.59,26.48c-4.23-4.51-6.35-9.79-9.03-14.7c-8.61-15.79-17.41-31.38-28.84-45.46
	c-29.77-36.67-82.04-39.47-115.3-5.75c-3.47,3.52-6.82,7.15-11.06,11.59c0-8.19-0.56-15.3,0.1-22.29
	c2.13-22.69-3.69-42.85-17.94-60.62c-2.71-3.38-5.26-6.88-7.97-10.26c-23.94-29.84-61.04-38.74-96.11-23.08
	c-0.91,0.41-1.91,0.68-2.73,1.23c-4.58,3.11-6.86,1.55-8.58-3.4c-2.4-6.9-5.69-13.49-8.24-20.35c-7.02-18.87-19.57-32.21-38.46-39.5
	c-1.43-0.55-3.28-0.76-4.79-3.79c54.67-2.62,99.24-24.89,133.66-67.8c2.45,4.47,1.82,8.52,2.11,12.36
	c1.21,15.59,1.69,31.24,5.7,46.52c17.08,65.09,78.28,107.73,145.31,101.38c4.94-0.47,6.85-2.59,8.36-6.78
	c5.3-14.71,10.92-29.3,16.35-43.97C519.4-253.04,519.88-255.35,522.25-257.55z"/>
<path class="st1" d="M-48.07,61.32c4.46-0.08,5.75,2.14,7.34,3.7c8.08,7.93,16.12,15.91,24.06,23.99
	c13.52,13.75,16.5,29.77,10.36,47.87c-2.81,8.28-6.61,16.04-11.73,23.04c-24.08,32.95-55.55,55.44-95.5,64.58
	c-63.94,14.64-130.98-28.56-143.13-93.15c-8.93-47.46,3.7-90.44,33.37-128.28c8.34-10.63,18.97-18.56,32.66-21.72
	c6.77-1.56,13.34-1.46,19.61,1.16c17.2,7.18,34.14,14.94,50.34,24.23c0.86,0.49,1.71,0.99,2.31,2.16
	c-23.4-2.73-45.08,1.33-64.94,13.38c-20.15,12.21-33.91,29.82-41.45,52.07c-13.81,40.76,0.3,85.96,34.57,111.67
	c32.93,24.71,77.62,25.72,111.17,2.36c20.26-14.11,33.1-33.42,39.07-57.3C-34.01,107.25-37.48,84.31-48.07,61.32z"/>
<path class="st1" d="M-133.07,80.63c15.8,0.09,28.32,13.01,28.05,28.92c-0.27,15.34-12.99,27.83-28.28,27.75
	c-15.76-0.08-28.24-13.01-27.99-28.99C-161.05,92.89-148.46,80.54-133.07,80.63z M-124.12,109.21c0.15-4.85-3.52-8.94-8.34-9.33
	c-5.11-0.4-9.85,3.74-10.03,8.77c-0.17,4.93,4.42,9.48,9.47,9.38C-128.28,117.94-124.27,113.96-124.12,109.21z"/>
<path class="st1" d="M-37.35,41.55c2.36,1.1,5.89,0.19,7.16,4.72c-3.75-0.03-5.03-2.75-6.85-4.53L-37.35,41.55z"/>
<path class="st1" d="M-37.04,41.74L-37.28,42c0,0,0.01-0.43-0.03-0.44S-37.04,41.74-37.04,41.74z"/>
<path class="st1" d="M-48.36,58.76c0.2,0.01,0.46-0.08,0.59,0.02c0.52,0.38,0.41,0.83-0.32,1.16c-0.08,0.04-0.45-0.35-0.55-0.6
	C-48.7,59.21-48.47,58.96-48.36,58.76z"/>
<path class="st1" d="M-570.85,199.09c-0.16,62.43-45.36,113.29-106.72,121.37c-61.78,8.13-120.68-33.47-133.81-94.22
	c-1.21-5.6-0.58-10.34,1.7-15.35c3.87-8.52,8.66-16.48,13.87-24.2c26.48-39.31,57.26-75.16,88.91-110.3
	c11.21-12.44,25.16-15.18,40.95-10.93c9.12,2.46,17.43,6.62,25.05,12.04c32.3,22.96,54.19,53.52,65.89,91.34
	C-571.84,179.06-570.62,189.65-570.85,199.09z M-664.4,199.41c-0.23-16.05-12.92-28.14-29.08-27.72
	c-15.38,0.41-27.61,13.19-27.36,28.58c0.26,15.84,13.23,28.15,29.21,27.73C-676.12,227.6-664.18,215.06-664.4,199.41z"/>
<path class="st2" d="M8.52,1045.42c-54.19-2.33-108.02-2.44-161.8-0.03c-0.23-0.67-0.67-1.26-0.58-1.76
	c1.49-8.18,2.52-16.45,5.13-24.39c8.02-2.29,16.35-2.16,24.54-3.01c17.42-1.81,17.73-1.59,18.22-18.44
	c1.49-51.29,0.98-102.6,0.81-153.91c-0.05-17.32-0.46-34.63-0.93-51.94c-0.25-9.26-0.46-9.24-9.29-9.98
	c-9.29-0.78-18.57-1.78-27.88-2.32c-4.76-0.28-7.6-1.91-7.6-7.03c0-0.99-0.25-1.99-0.29-2.98c-0.25-5.52-4.73-12.24-0.84-16.12
	c3.61-3.61,10.8-1.12,16.39-1.14c40.31-0.11,80.63-0.47,120.93,0.1c22.62,0.32,45.26,1.79,67.39,7.31
	c8.77,2.19,17.17,5.21,24.99,9.78c26.71,15.62,35.43,43.36,22.18,71.29c-8.92,18.8-22.79,33.45-39.33,45.75
	c-2.65,1.97-5.33,3.91-8.84,6.49c36.02,55,72.07,109.55,119.89,157.18c-13.54,2.02-25.65,3.9-37.78,5.6
	c-3.16,0.44-5.69-1.63-8.27-3.09c-6.98-3.97-13.2-9-19.26-14.22c-32.84-28.36-62.57-59.86-92.29-91.36
	c-8-8.48-16.09-16.91-23.56-25.85c-3.69-4.42-7.65-5.87-12.98-4.94c-5.51,0.96-12.7-1.07-16.23,2.65
	c-3.56,3.76-1.22,10.77-1.17,16.33c0.23,23.65,0.67,47.29,1.12,70.94c0.14,7.23,0.23,7.47,7.61,8.48c9.23,1.27,18.51,2.43,27.8,2.95
	c4.77,0.27,7.31,1.7,8.05,6.54C5.74,1031.19,7.16,1038.02,8.52,1045.42z M39.96,876.92c0.64-0.41,1.28-0.82,1.92-1.24
	c11.1-5.79,19.85-14.4,27.98-23.66c6.85-7.8,12.39-16.44,15.47-26.5c3.89-12.7,1.11-23.98-8.51-32.81
	c-15.95-14.65-36.17-16.59-56.4-18.09c3.06,2.83,6.48,4.78,9.7,7.02c19.76,13.76,28.88,32.13,25.42,56.57
	c-1.88,13.29-7.86,24.49-14.91,35.42c-1.21,0.3-1.86,1-1.69,2.31c-0.91,0.05-2.02,0.65-1.66,1.33
	C38.15,878.89,39.11,877.58,39.96,876.92z M123.27,1026.44l0.01-0.44l-0.24,0.27c-0.65-1.01-1.82-1.86-0.97-3.31
	c-1.49,0.57-1.82-0.76-2.49-1.52c-34.46-42.62-65.42-87.68-93.95-134.82c-8.3,6.39-17.99,9.75-27.82,13.99
	c1.81,2.24,2.97,3.84,4.29,5.3c30.62,33.78,61.87,66.95,94.88,98.43c6.01,5.74,12.23,11.26,18.45,16.77
	c1.22,1.08,2.88,3.39,4.34,0.14c-0.34,0.53-1.07,1.42-0.96,1.54c0.97,1.08,2.11,1.06,3.23,0.13
	C121.24,1024.57,121.95,1025.64,123.27,1026.44z M-87.57,771.05c1.17,43.67,1.86,85.27,1.58,126.89
	c-0.28,41.84-0.78,83.68-1.2,126.38c6.92,0,13.86,0.01,20.79,0c11.25-0.02,9.52,0.53,9.09-9.8c-2.53-60.91-1.8-121.83-1.32-182.76
	c0.14-18.3,0.85-36.6,1.52-54.9c0.15-4.21-1.03-6.01-5.47-5.88C-70.82,771.22-79.07,771.05-87.57,771.05z M-38.81,834.99
	c-0.38,0-0.77,0-1.15,0c0,15.28,0.12,30.56-0.08,45.83c-0.05,4.25,1.12,5.89,5.62,5.57c14.39-1.02,28.26-3.86,41.17-10.54
	c6.85-3.55,12.85-8.23,17.92-14.07c21.9-25.19,15.44-55.75-14.72-69.71c-13.15-6.09-27.2-8.46-41.46-9.77
	c-6.98-0.64-7.2-0.39-7.26,6.84C-38.9,804.42-38.81,819.7-38.81,834.99z"/>
<path class="st2" d="M711.27,1045.4c-57.76-2.23-114.63-2.48-172.02-0.02c0.08-8.33,2.99-15.83,4.02-23.61
	c0.48-3.58,3.47-3.43,6.12-3.74c10.25-1.21,20.47-2.77,30.76-3.56c5.15-0.39,6.74-2.34,6.75-7.33c0.03-17.66,0.44-35.31,0.67-52.97
	c0.7-53.65,0.48-107.29-0.59-160.93c-0.03-1.67-0.3-3.35-0.11-4.99c0.54-4.66-1.44-6.49-6.1-6.85c-9.96-0.76-19.87-2.05-29.81-3.02
	c-7.46-0.73-7.54-0.66-8.91-8.48c-0.98-5.57-1.73-11.18-2.56-16.68c1.2-1.61,2.89-1.55,4.54-1.55c45.31,0.04,90.62-1.79,135.92,0.36
	c18.65,0.89,37.18,2.89,55.25,7.94c8.05,2.25,15.69,5.47,22.9,9.71c26.81,15.79,36.83,39.3,29.76,69.52
	c-5.92,25.33-20.87,44.3-41.67,58.99c-22.71,16.03-48.35,25.03-75.54,29.73c-4.75,0.82-10.62,4.18-14.32,0.86
	c-3.45-3.1,1.04-8.63,0.68-13.22c-0.16-1.96,0.39-3.97,0.5-5.97c0.31-5.57,2.4-8.9,8.66-9.86c7.89-1.2,15.29-4.49,22.38-8.24
	c22.32-11.83,37-34.18,32.87-66.02c-2.47-19.04-13.7-31.24-31.41-37.78c-9.46-3.49-19.43-4.36-29.35-5.59
	c-4.77-0.59-6.61,0.98-6.65,5.81c-0.15,15.99-0.8,31.97-0.84,47.96c-0.13,54.98-0.61,109.97,0.91,164.94
	c0.34,12.32,0.41,12.43,12.73,13.86c10.59,1.23,21.19,2.53,31.82,3.08c5.39,0.28,7.69,2.38,8.46,7.44
	C708.06,1031.72,710.96,1037.88,711.27,1045.4z M635.5,770.05c-8.1,0-15.7-0.11-23.29,0.03c-7.24,0.14-7.34,0.26-6.97,8.02
	c2.9,60.6,1.69,121.24,1.39,181.87c-0.1,19.64-0.93,39.28-1.47,58.92c-0.07,2.72-0.61,5.55,3.57,5.41c8.91-0.3,17.86,0.71,26.75-0.6
	C633.88,939.15,632.98,855.02,635.5,770.05z M709.51,774.27c42.03,34.26,38.82,73.41,13.72,115.57c6.91-3.34,12.39-7.1,17.49-11.36
	c15.26-12.74,26.08-28.17,29.52-48.24c2.95-17.2-2.55-30.73-16.72-40.77C740.54,780.28,725.78,776.26,709.51,774.27z"/>
<path class="st2" d="M420.6,1045.54c-54.82-2.57-109.32-2.54-163.68-0.12c-0.34-1-0.79-1.63-0.7-2.16
	c1.48-8.18,2.48-16.46,5.23-24.36c7.9-0.96,15.8-1.93,23.71-2.86c5.88-0.69,13.2,0.38,17.03-3.55c3.58-3.67,1.64-10.78,1.8-16.39
	c1.58-56.65,1.03-113.3,0.71-169.95c-0.07-12.65-0.9-25.3-1-37.96c-0.04-4.69-1.72-6.26-6.33-6.65
	c-10.28-0.86-20.49-2.49-30.77-3.49c-3.51-0.34-5.26-1.47-6.02-5.12c-1.55-7.42-3.65-14.72-5.61-22.41
	c55.52,2.4,110.35,2.69,165.15-0.02c0.11,0.46,0.29,0.78,0.23,1.03c-2.14,8.35-4.3,16.7-6.46,25.04
	c-7.99,2.37-16.33,2.49-24.49,3.75c-5.55,0.85-12.71,0.15-16.17,3.36c-4.08,3.79-1.9,11.35-1.96,17.26
	c-0.66,65.66-0.87,131.32,0.26,196.97c0.31,18.32-3.65,15.27,16.48,17.96c6.93,0.93,13.9,1.68,20.88,2.03
	c4.12,0.21,5.81,1.87,6.48,5.85c0.77,4.57,2.3,9.02,3.43,13.53C419.43,1039.85,419.93,1042.46,420.6,1045.54z M353.24,1023.85
	c-2.05-84.08-2.68-167.7-0.01-252.17c-5.42,0-10.34-0.15-15.25,0.04c-5.23,0.2-10.57-0.92-15.6,0.84
	c2.46,83.92,1.94,167.54,0.08,251.29C333.11,1023.85,342.95,1023.85,353.24,1023.85z"/>
<path class="st2" d="M-124.12,109.21c-0.15,4.76-4.16,8.73-8.9,8.83c-5.05,0.1-9.65-4.45-9.47-9.38c0.18-5.03,4.92-9.17,10.03-8.77
	C-127.64,100.26-123.97,104.36-124.12,109.21z"/>
<path class="st2" d="M-664.4,199.41c0.23,15.65-11.72,28.19-27.23,28.59c-15.98,0.42-28.95-11.89-29.21-27.73
	c-0.26-15.39,11.98-28.17,27.36-28.58C-677.32,171.27-664.63,183.36-664.4,199.41z M-683.3,200.15c0.19-4.82-4.53-9.66-9.34-9.58
	c-4.64,0.08-8.63,4.1-8.83,8.89c-0.21,5.02,3.17,8.9,8.14,9.32C-688.22,209.23-683.49,205.16-683.3,200.15z"/>
<path class="st1" d="M-87.57,771.05c8.5,0,16.75,0.17,24.99-0.07c4.44-0.13,5.63,1.66,5.47,5.88c-0.67,18.29-1.37,36.59-1.52,54.9
	c-0.48,60.92-1.21,121.85,1.32,182.76c0.43,10.33,2.15,9.77-9.09,9.8c-6.93,0.02-13.86,0-20.79,0c0.41-42.7,0.92-84.54,1.2-126.38
	C-85.71,856.32-86.4,814.71-87.57,771.05z"/>
<path class="st1" d="M-38.81,834.99c0-15.28-0.09-30.57,0.04-45.85c0.06-7.22,0.29-7.48,7.26-6.84c14.26,1.31,28.3,3.68,41.46,9.77
	c30.16,13.96,36.62,44.52,14.72,69.71c-5.07,5.84-11.07,10.52-17.92,14.07c-12.9,6.68-26.78,9.52-41.17,10.54
	c-4.5,0.32-5.68-1.32-5.62-5.57c0.19-15.28,0.08-30.55,0.08-45.83C-39.58,834.98-39.19,834.99-38.81,834.99z"/>
<path class="st1" d="M119.84,1021.22c-1.52,3.29-3.18,0.98-4.4-0.1c-6.22-5.51-12.44-11.04-18.45-16.77
	C63.98,972.87,32.72,939.7,2.1,905.92c-1.32-1.46-2.48-3.06-4.29-5.3c9.83-4.24,19.52-7.61,27.82-13.99
	c28.52,47.13,59.49,92.2,93.95,134.82L119.84,1021.22z"/>
<path class="st1" d="M40.62,873.63c7.04-10.93,13.03-22.13,14.91-35.42c3.46-24.44-5.66-42.8-25.42-56.57
	c-3.22-2.24-6.63-4.19-9.7-7.02c20.23,1.51,40.46,3.44,56.4,18.09c9.62,8.83,12.4,20.11,8.51,32.81
	c-3.08,10.06-8.62,18.7-15.47,26.5c-8.13,9.26-16.88,17.87-27.98,23.66C41.46,875,41.04,874.31,40.62,873.63z"/>
<path class="st1" d="M119.58,1021.44c0.67,0.76,1,2.09,2.49,1.52c0,0-0.02-0.03-0.02-0.03c-1.12,0.94-2.26,0.96-3.23-0.12
	c-0.11-0.13,0.62-1.01,0.99-1.57C119.84,1021.22,119.58,1021.44,119.58,1021.44z"/>
<path class="st1" d="M123.35,1026.46c-1.4-0.82-2.11-1.89-1.29-3.52c0,0,0.01,0.03,0.01,0.03c-0.86,1.45,0.31,2.3,0.97,3.31
	L123.35,1026.46z"/>
<path class="st1" d="M123.04,1026.27l0.24-0.27c0,0-0.01,0.44,0.03,0.45C123.35,1026.46,123.04,1026.27,123.04,1026.27z"/>
<path class="st1" d="M41.88,875.68c-0.64,0.41-1.28,0.83-1.92,1.24c-0.33-0.34-0.67-0.66-1.02-0.98c-0.17-1.31,0.48-2.02,1.69-2.31
	C41.04,874.31,41.46,875,41.88,875.68z"/>
<path class="st1" d="M39.96,876.92c-0.85,0.66-1.81,1.97-2.68,0.35c-0.37-0.68,0.75-1.29,1.66-1.33
	C39.28,876.26,39.62,876.59,39.96,876.92z"/>
<path class="st1" d="M635.5,770.05c-2.52,84.98-1.62,169.1-0.02,253.65c-8.89,1.31-17.85,0.3-26.75,0.6
	c-4.18,0.14-3.65-2.69-3.57-5.41c0.54-19.64,1.38-39.28,1.47-58.92c0.3-60.63,1.51-121.26-1.39-181.87
	c-0.37-7.76-0.28-7.88,6.97-8.02C619.8,769.94,627.4,770.05,635.5,770.05z"/>
<path class="st1" d="M709.51,774.27c16.27,1.98,31.02,6.01,44.01,15.21c14.18,10.04,19.67,23.57,16.72,40.77
	c-3.44,20.07-14.26,35.5-29.52,48.24c-5.1,4.26-10.58,8.01-17.49,11.36C748.34,847.69,751.55,808.53,709.51,774.27z"/>
<path class="st1" d="M353.24,1023.85c-10.29,0-20.13,0-30.78,0c1.86-83.74,2.39-167.37-0.08-251.29c5.04-1.76,10.38-0.64,15.6-0.84
	c4.91-0.19,9.83-0.04,15.25-0.04C350.56,856.15,351.19,939.77,353.24,1023.85z"/>
<path class="st1" d="M-683.3,200.15c-0.19,5.01-4.93,9.07-10.04,8.63c-4.97-0.43-8.35-4.3-8.14-9.32c0.2-4.79,4.2-8.81,8.83-8.89
	C-687.83,190.5-683.11,195.33-683.3,200.15z"/>
</svg>
