<?xml version="1.0" encoding="utf-8"?>
<!-- Generator: Adobe Illustrator 24.2.1, SVG Export Plug-In . SVG Version: 6.00 Build 0)  -->
<svg version="1.1" id="Layer_1" xmlns="http://www.w3.org/2000/svg" xmlns:xlink="http://www.w3.org/1999/xlink" x="0px" y="0px"
	 viewBox="0 0 612 792" style="enable-background:new 0 0 612 792;" xml:space="preserve">
<style type="text/css">
	.st0{fill:#FEFEFE;}
	.st1{fill:#0C0C0C;}
	.st2{fill:#FDFDFD;}
</style>
<path class="st0" d="M-869.87,772.94c0-347.06,0.01-694.13-0.13-1041.19c0-4.31,1.19-4.72,5-4.72
	c780.66,0.1,1561.33,0.1,2341.99-0.03c4.45,0,5.01,1.19,5.01,5.21c-0.11,215.6-0.09,431.2-0.09,646.81c-0.25,0-0.5,0-0.76,0
	c-0.96-12.78-0.71-25.61-2.13-38.38c-1.78-15.93-7.62-29.65-19.91-40.47c-18.98-16.71-41.73-25.45-65.78-31.09
	c-40.86-9.59-82.5-13.76-124.32-16.05c-18.14-0.99-35.87-2.85-53.01-9.69c-51.51-20.58-101.42-44.59-151.19-68.96
	c-3.34-1.64-5.07-3.59-5.82-7.12c-6.51-30.9-16.53-60.85-24.57-91.34c-3.49-13.22-11.01-23.97-19.24-34.59
	c-5.87-7.58-12.63-13.09-21.91-15.5c-6.27-1.63-12.53-3.34-18.75-5.15c-9.34-2.72-16.94-9.3-26.29-11.98
	c-4.33-1.24-6.97-2.86-6.24-8.33c0.66-4.98-2.13-6.47-6.94-4.43c-2.12,0.89-4.1,2.15-6.07,3.35c-3.37,2.06-5.32,1.35-6.49-2.47
	c-1.31-4.28,0.67-8.14,1.53-12.15c0.62-2.87,2.22-2.92,4.38-1.79c1.73,0.79,3.47,1.56,5.43,0.8c5.82,0.65,11.6,0.17,17.38-0.55
	c14.19-1.78,24.58-10.34,27.35-23.06c1.72-7.91-0.24-15.5-3.02-22.86c-3.94-10.42-4.12-20.91-1.99-31.8
	c3.77-19.28,6.8-38.7,2.39-58.31c-0.97-4.31-1.12-7.12,4.21-7.71c1.14-0.13,2.34-1.29,3.19-2.25c6.28-7.11,10.74-19.01,1.07-29.08
	c-3.91-4.07-8.28-7.71-12.38-11.61c-5.32-5.06-9.26-10.72-9.23-18.57c0.03-10.75-3.75-19.79-12.85-26.14
	c-0.54-0.38-0.96-0.92-1.42-1.4c-6.33-6.77-5.57-13.03,2.11-18.19c1.76-1.18,4.23-1.47,5.62-3.94c-9.54-0.57-18.49,0.32-27.03,3.19
	c-10.69,3.59-18.04,10.27-18.41,22.6c-0.15,4.81-2.78,8.01-7.66,9.13c-4.7,1.07-9.42,1.92-14.26,1.96c-2.2-0.38-2.88,1.56-4.09,2.68
	c-1.5-1.03-3.19-0.97-4.82-0.64c-10.37,2.1-20.86,3.87-30.68,8c-12.15,5.11-22.89,12.27-30.23,23.5
	c-6.91,10.56-5.15,21.22,4.57,29.19c1.71,1.41,1.95,2.47,1.63,4.56c-2.51,16.28-3.16,32.42,4.81,47.67c0.52,1,1.5,2.33-0.35,2.73
	c-2.82,0.61-1.77,2.08-1.19,3.66c5.83,15.92,15.39,28.56,31.36,35.51c2.79,1.21,5.33,2.66,7.16,5.19
	c4.86,6.73,9.72,13.47,14.68,20.13c1.23,1.65,1.46,3.3,0.98,5.15c-1.54,5.91-3.1,11.8-5.47,17.47
	c-7.51,17.96-20.96,30.53-37.01,40.6c-11.93,7.49-24.34,14.22-36.22,21.79c-15.46,9.84-26.99,22.92-31.8,41.15
	c-2.89,10.94-2.38,22.1-2.35,33.21c0.01,3.69-0.98,4.68-4.8,4.49c-37.09-1.81-74.18-3.7-111.3-4.97
	c-50.27-1.73-100.56-2.89-150.84-4.38c-46.81-1.38-93.62-1.23-140.42,0.33c-13.12,0.44-26.28,1.1-39.28,3.15
	c-30.29,4.78-59.38,13.8-87.68,25.42c-72.21,29.67-143.18,62.09-212.49,98.02c-48.82,25.31-98.49,49.24-143,82.11
	c-5.56,4.11-11.75,5.79-18.71,5.28c-11.78-0.86-23.58-1.76-35.38-2.03c-63.64-1.45-127.24-0.23-190.77,3.81
	c-29.58,1.88-57.82,8.72-84.62,21.64c-85.21,41.09-168.23,86.21-249.44,134.69c-40.64,24.26-80.42,49.81-118.83,77.51
	c-22.95,16.55-32.28,38.53-29.57,66.49c1.63,16.75,4.9,33.09,9.44,49.2c5.82,20.65,10.14,41.77,18.44,61.67
	c4.25,10.2,4.27,9.95-5.97,13.72C-842.66,749.17-859.85,755.81-869.87,772.94z"/>
<path class="st0" d="M1481.91,418.01c0,214.1-0.01,428.19,0.08,642.29c0,3.57-0.51,4.7-4.48,4.7
	c-780.97-0.11-1561.95-0.11-2342.92-0.01c-3.85,0-4.55-0.97-4.54-4.64c0.11-94.14,0.09-188.27,0.09-282.41
	c2.83,4.39,5.01,9.19,8.72,13.01c6.04,6.21,11.75,12.75,18,18.74c29.87,28.64,64.29,50.85,100.57,70.33
	c24.7,13.26,50.1,24.79,78.03,29.63c9.03,1.56,18.06,3.64,25.24,9.66c13.89,11.66,29.55,20.11,46.26,26.8
	c67.14,26.87,137.29,42.56,208.07,55.8c27.36,5.12,54.77,9.99,82.21,14.62c24.04,4.06,48.12,7.86,72.25,11.33
	c20.55,2.95,41.16,5.39,61.83,7.43c20.87,2.06,41.76,3.86,62.71,4.57c28.67,0.97,57.19-1.04,85.64-4.72
	c25.01-3.23,49.84-7.46,74.66-11.84c25.62-4.52,51.25-9.01,76.93-13.24c27.29-4.49,54.58-8.99,81.31-16.17
	c4.54-1.22,5.79-0.33,6.49,4.17c1.67,10.66,4.66,21,10.09,30.45c3.98,6.94,9.41,11.98,17.85,12.8c5.43,0.52,10.85,1.46,16.29,1.61
	c17.65,0.5,35.31,0.86,52.96,0.98c5.95,0.04,11.77,1.1,17.93-1.55c4.34-1.87,10.17-0.35,15.34-0.22
	c41.72,1.04,83.04-1.79,123.38-13.26c31.83-9.06,59.55-24.48,78.05-53.12c33.13-51.31,51.51-107.26,52.03-168.62
	c0.36-42.32,0.53-84.64-0.19-126.96c-0.08-4.69-0.01-9.38-0.01-14.07c1.2,1.26,1.76,2.6,1.97,3.99c3.97,25.82,6.75,51.74,7.25,77.89
	c0.58,30.49-0.18,60.92-2.91,91.31c-1.7,18.87-3.78,37.68-6.28,56.45c-0.81,6.11,0.39,7.17,6.18,5.11
	c3.91-1.39,7.83-2.78,11.81-3.97c12.63-3.79,25.93-4.34,38.63-7.71c39.7-10.53,79.42-21.01,119.32-30.75
	c17.41-4.25,35.66-5.02,52.29-12.52c3.13-1.41,2.71,0.9,2.87,2.68c2.29,24.98,4.86,49.94,8.32,74.79c0.9,6.46-0.82,11.78-3.79,17.02
	c-2.53,4.47-5.61,8.64-8.05,13.16c-5.26,9.72-4.42,17.94,3.96,25.1c9.56,8.17,16.61,18.04,22.76,28.74
	c11.87,20.66,29.75,34.54,50.67,44.98c5.95,2.97,12.2,5,18.8,6.12c14.64,2.47,23.07-6.52,19.07-20.72
	c-2.26-8.03-6.1-15.4-10.64-22.35c-12.71-19.47-24.84-39.36-38.53-58.11c-13.03-17.85-15.77-36.87-12.33-57.99
	c3.49-21.45,6.04-43.05,8.83-64.61c1.02-7.87,1.18-8.32,9.11-8.79c12.88-0.76,25.35-2.96,37.31-8.25
	c7.88-3.48,16.11-6.31,24.41-8.67c18.95-5.38,38.06-10.12,57.38-14.04c3.63-0.73,4.72-0.24,5.7,3.19
	c7.54,26.54,15.34,53,22.88,79.54c4.49,15.8,8.84,31.67,7.15,48.41c-0.85,8.43-1.95,16.85-2.5,25.3
	c-0.97,14.71,5.31,23.67,17.98,25.38c8.43,1.14,16.99,0.79,25.42-0.27c17-2.15,34.03-3.83,51.16-4.59
	c18.12-0.8,36.25-1.51,54.22-4.08c6.53-0.93,13.07-2.36,18.83-5.9c5.42-3.34,6.05-7.52,2.06-12.45c-2.7-3.35-6.25-5.36-10.26-6.73
	c-8.62-2.96-17.53-4.8-26.38-6.88c-19.49-4.57-39.25-7.9-58.61-13.04c-14.41-3.83-23.89-12.55-26.52-27.59
	c-1.14-6.53-1.74-13.17-2.29-19.79c-1.29-15.58-2.43-31.18-3.59-46.78c-1.16-15.6-2.22-31.21-3.45-46.8
	c-0.2-2.59,0.67-3.56,3.07-4.6c15.29-6.63,31.51-10.06,47.48-14.44c16.21-4.44,33.08-5.77,49.09-10.95
	c13.98-4.52,28.31-7.29,42.87-9.17c12.6-1.63,24.6-5,36.12-10.85c6.11-3.1,7.29-7.02,7.42-12.82c0.13-5.85,0.86-11.69,1.38-18.18
	c2.1,1.71,2.23,3.38,2.67,4.91c2.54,8.79,5.17,17.55,7.6,26.37c2.87,10.45,9.66,18.06,17.63,24.86c1.26,1.07,2.66,1.95,4.43,2.12
	c19.23,1.87,38.47,2.8,57.81,1.91c16.04-0.74,29.3-6.57,39.28-19.33c1.95-2.49,4.07-4.87,5.74-7.54
	c17.4-27.92,31.49-57.42,42.47-88.45c5.01-14.17,7.58-28.95,10.49-43.51c3.21-16.05,3.41-32.71,4.71-49.12
	c1.68-21.23,3.39-42.46,4.62-63.72c1.37-23.77,2.22-47.57,3.3-71.35l0.37,0L1481.91,418.01z"/>
<path class="st1" d="M1481.16,418.01c-1.08,23.79-1.92,47.58-3.3,71.35c-1.23,21.26-2.95,42.49-4.62,63.72
	c-1.3,16.41-1.5,33.07-4.71,49.12c-2.91,14.55-5.47,29.34-10.49,43.51c-10.98,31.03-25.08,60.53-42.47,88.45
	c-1.66,2.67-3.79,5.05-5.74,7.54c-9.98,12.76-23.24,18.59-39.28,19.33c-19.34,0.89-38.58-0.03-57.81-1.91
	c-1.77-0.17-3.17-1.05-4.43-2.12c-7.97-6.79-14.76-14.4-17.63-24.86c-2.42-8.82-5.06-17.58-7.6-26.37c-0.44-1.53-0.57-3.2-2.67-4.91
	c-0.52,6.49-1.25,12.33-1.38,18.18c-0.13,5.79-1.31,9.71-7.42,12.82c-11.52,5.85-23.52,9.21-36.12,10.85
	c-14.56,1.88-28.89,4.65-42.87,9.17c-16.02,5.18-32.88,6.51-49.09,10.95c-15.97,4.37-32.19,7.81-47.48,14.44
	c-2.39,1.04-3.27,2.02-3.07,4.6c1.23,15.59,2.29,31.2,3.45,46.8c1.16,15.6,2.3,31.19,3.59,46.78c0.55,6.62,1.15,13.26,2.29,19.79
	c2.62,15.04,12.11,23.77,26.52,27.59c19.36,5.14,39.13,8.47,58.61,13.04c8.85,2.08,17.76,3.93,26.38,6.88
	c4.01,1.38,7.56,3.39,10.26,6.73c3.98,4.93,3.35,9.11-2.06,12.45c-5.76,3.55-12.3,4.97-18.83,5.9c-17.97,2.57-36.11,3.28-54.22,4.08
	c-17.13,0.76-34.16,2.44-51.16,4.59c-8.43,1.07-16.99,1.41-25.42,0.27c-12.67-1.71-18.94-10.67-17.98-25.38
	c0.55-8.45,1.65-16.87,2.5-25.3c1.69-16.74-2.66-32.61-7.15-48.41c-7.54-26.54-15.34-53-22.88-79.54c-0.97-3.43-2.07-3.92-5.7-3.19
	c-19.32,3.92-38.43,8.66-57.38,14.04c-8.29,2.35-16.53,5.19-24.41,8.67c-11.95,5.28-24.43,7.49-37.31,8.25
	c-7.93,0.47-8.09,0.92-9.11,8.79c-2.8,21.56-5.35,43.16-8.83,64.61c-3.43,21.12-0.7,40.14,12.33,57.99
	c13.69,18.75,25.83,38.64,38.53,58.11c4.54,6.95,8.38,14.32,10.64,22.35c4,14.2-4.44,23.19-19.07,20.72
	c-6.6-1.11-12.85-3.15-18.8-6.12c-20.92-10.44-38.81-24.32-50.67-44.98c-6.15-10.71-13.19-20.57-22.76-28.74
	c-8.38-7.16-9.23-15.39-3.96-25.1c2.45-4.51,5.52-8.69,8.05-13.16c2.97-5.24,4.69-10.56,3.79-17.02
	c-3.45-24.85-6.03-49.81-8.32-74.79c-0.16-1.78,0.25-4.09-2.87-2.68c-16.63,7.5-34.87,8.27-52.29,12.52
	c-39.91,9.74-79.62,20.22-119.32,30.75c-12.7,3.37-26,3.92-38.63,7.71c-3.98,1.19-7.9,2.57-11.81,3.97c-5.78,2.06-6.99,1-6.18-5.11
	c2.5-18.77,4.58-37.58,6.28-56.45c2.74-30.4,3.49-60.82,2.91-91.31c-0.5-26.15-3.28-52.07-7.25-77.89
	c-0.21-1.39-0.77-2.73-1.97-3.99c0,4.69-0.07,9.38,0.01,14.07c0.72,42.32,0.55,84.64,0.19,126.96
	c-0.52,61.36-18.9,117.31-52.03,168.62c-18.49,28.64-46.22,44.06-78.05,53.12c-40.34,11.48-81.67,14.31-123.38,13.26
	c-5.16-0.13-10.99-1.64-15.34,0.22c-6.16,2.65-11.98,1.59-17.93,1.55c-17.66-0.13-35.31-0.48-52.96-0.98
	c-5.44-0.15-10.86-1.09-16.29-1.61c-8.44-0.81-13.86-5.86-17.85-12.8c-5.43-9.45-8.42-19.79-10.09-30.45
	c-0.7-4.5-1.95-5.39-6.49-4.17c-26.74,7.18-54.03,11.68-81.31,16.17c-25.67,4.23-51.3,8.71-76.93,13.24
	c-24.82,4.38-49.65,8.61-74.66,11.84c-28.45,3.67-56.98,5.69-85.64,4.72c-20.95-0.71-41.84-2.51-62.71-4.57
	c-20.67-2.04-41.29-4.48-61.83-7.43c-24.13-3.47-48.21-7.27-72.25-11.33c-27.45-4.63-54.85-9.5-82.21-14.62
	c-70.79-13.25-140.93-28.94-208.07-55.8c-16.71-6.69-32.37-15.14-46.26-26.8c-7.18-6.02-16.21-8.1-25.24-9.66
	c-27.93-4.83-53.33-16.36-78.03-29.63c-36.28-19.48-70.7-41.69-100.57-70.33c-6.25-5.99-11.96-12.52-18-18.74
	c-3.71-3.82-5.89-8.62-8.72-13.01c0-1.67,0-3.33,0-5c10.02-17.14,27.21-23.77,44.49-30.13c10.25-3.77,10.23-3.52,5.97-13.72
	c-8.3-19.91-12.62-41.02-18.44-61.67c-4.54-16.11-7.81-32.45-9.44-49.2c-2.72-27.96,6.62-49.94,29.57-66.49
	c38.41-27.7,78.18-53.25,118.83-77.51c81.21-48.48,164.23-93.61,249.44-134.69c26.79-12.92,55.04-19.75,84.62-21.64
	c63.54-4.04,127.13-5.27,190.77-3.81c11.8,0.27,23.6,1.18,35.38,2.03c6.96,0.51,13.15-1.17,18.71-5.28
	c44.51-32.87,94.18-56.8,143-82.11c69.31-35.93,140.28-68.35,212.49-98.02c28.3-11.63,57.39-20.64,87.68-25.42
	c13-2.05,26.16-2.71,39.28-3.15c46.8-1.56,93.61-1.72,140.42-0.33c50.28,1.49,100.57,2.65,150.84,4.38
	c37.11,1.28,74.2,3.16,111.3,4.97c3.82,0.19,4.81-0.8,4.8-4.49c-0.03-11.11-0.54-22.27,2.35-33.21c4.82-18.22,16.35-31.3,31.8-41.15
	c11.88-7.56,24.29-14.3,36.22-21.79c16.05-10.07,29.5-22.64,37.01-40.6c2.37-5.67,3.93-11.56,5.47-17.47
	c0.48-1.84,0.25-3.5-0.98-5.15c-4.96-6.66-9.82-13.4-14.68-20.13c-1.83-2.53-4.37-3.98-7.16-5.19
	c-15.97-6.95-25.53-19.59-31.36-35.51c-0.58-1.57-1.63-3.05,1.19-3.66c1.85-0.4,0.88-1.73,0.35-2.73
	c-7.97-15.24-7.32-31.39-4.81-47.67c0.32-2.09,0.08-3.15-1.63-4.56c-9.72-7.98-11.48-18.63-4.57-29.19
	c7.34-11.23,18.08-18.38,30.23-23.5c9.82-4.13,20.3-5.9,30.68-8c1.63-0.33,3.32-0.39,4.83,0.64c-0.89,0.13-1.79,0.22-2.68,0.4
	c-14.16,2.75-28.23,5.77-40.64,13.71c-8.92,5.71-15.97,12.96-18.89,23.49c-3.04,10.98,3.92,23.42,14.19,24.58
	c18.7,2.13,36.83,0.04,54.06-8.18c14.02-6.69,28.97-9.87,44.44-9.62c14.28,0.23,26.32,5.43,33.93,18.43
	c0.74,1.26,2.08,2.14,2.99,3.31c2.71,3.49,5.19,2.71,7.74-0.21c6.55-7.51,6.96-17.15,0.9-25.09c-4.17-5.47-9.18-10.16-14.87-13.96
	c-7.52-5.03-10.34-11.79-8.81-20.59c1.41-8.07-1.75-14.25-8.06-19.07c-2.25-1.72-4.64-3.26-6.77-5.1
	c-5.95-5.15-5.79-11.05,0.38-15.95c1.51-1.2,3.23-2.13,5.12-3.35c-3.23-0.87-5.86,0.45-8.6,0.62c-12.68,0.78-21.67,9.13-23.39,21.53
	c-1.06,7.67-2.97,10.04-10.58,11.81c-5.09,1.18-10.32,1.8-15.51,2.49c-0.91,0.12-1.09-1.04-0.89-1.93
	c4.84-0.03,9.56-0.88,14.26-1.96c4.88-1.12,7.51-4.32,7.66-9.13c0.37-12.33,7.72-19.01,18.41-22.6c8.55-2.87,17.49-3.77,27.03-3.19
	c-1.39,2.47-3.86,2.75-5.62,3.94c-7.68,5.15-8.43,11.42-2.11,18.19c0.45,0.49,0.88,1.03,1.42,1.4c9.11,6.35,12.89,15.39,12.85,26.14
	c-0.02,7.84,3.91,13.51,9.23,18.57c4.1,3.9,8.47,7.54,12.38,11.61c9.67,10.07,5.21,21.97-1.07,29.08c-0.85,0.97-2.05,2.13-3.19,2.25
	c-5.33,0.59-5.18,3.4-4.21,7.71c4.41,19.6,1.39,39.03-2.39,58.31c-2.13,10.89-1.95,21.37,1.99,31.8c2.78,7.36,4.75,14.95,3.02,22.86
	c-2.77,12.72-13.16,21.28-27.35,23.06c-5.78,0.72-11.56,1.21-17.38,0.56c-1.02-1.63,0.13-1.59,1.17-1.41
	c4.01,0.68,7.99,0.06,11.96-0.26c13.57-1.11,24.31-9.93,26.65-22.25c1.53-8.05-0.64-15.83-3.13-23.44c-2.57-7.83-3.98-15.74-2.7-24
	c0.75-4.84,1.32-9.71,2-14.74c-6.93,5.33-6.93,5.33-10.53,4.22c6.84-2.41,9.34-7.71,10.46-13.72c1.11-6.01-2.37-9.59-8.14-8.87
	c0.53,1.57,1.11,3.11,1.58,4.7c2.14,7.12-0.78,12.86-7.65,15.51c-4.03,1.56-7.19,0.7-9.45-2.92c-2.54-4.07-2.43-11.15,0.12-13.31
	c3.86-3.27,8.21-5.51,13.31-6.14c4.8-0.59,9.07,0.5,13.09,5c0.42-10.17,0.95-19.24-0.25-28.3c-0.67-5.07-0.27-11.03-3.58-14.71
	c-3.98-4.41-6.69-9.36-9.74-14.25c-1.36-2.18-2.63-4.93-5.89-4.67c-2.74,0.22-5.33-0.44-7.89-1.04c-17.37-4.05-33.77,0.2-49.53,6.68
	c-10.55,4.35-21.02,8.31-32.39,9.49c-2.86,0.3-3.62,1.38-3.11,4.15c3.39,18.37,4.18,36.97,4.78,55.58c0.04,1.14,0.93,2.97-0.89,3.39
	c-1.35,0.31-3.04,0.26-4.2-0.92c-1.04-1.07-2-2.23-2.9-3.42c-4.13-5.43-9.91-7-16.32-6.77c-6.08,0.22-7.3,2.54-4.52,7.83
	c5.02,9.56,12.24,16.9,21.86,21.82c7.1,3.63,12.95,8.5,16.95,15.58c2.69,4.76,5.94,9.2,8.93,13.79
	c6.19,9.55,13.28,18.31,22.24,25.44c1.59,1.27,3.18,2.54,4.78,3.82c-10.65-3.93-17.41-12.44-24.54-21.29
	c-1.96,8.65-4.09,16.31-7.75,23.4c-1.42,2.75-0.17,3.9,1.77,5.21c6.6,4.47,13.14,9.04,19.78,13.45c2.37,1.58,3.87,3.39,4.06,6.39
	c0.21,3.32,0.86,6.61,1.37,10.33c2.14-2.05,2.28-4.32,3.02-6.28c1.65-4.34,1.82-9.64,8.03-10.57c1.93-0.29,1.25-2.15,1.2-3.31
	c-0.18-4.06,1.71-7.74,1.95-11.7c0.09-1.4,1.15-1.97,1.89-1.56c2.19,1.22,5.32,0.53,6.72,3.28c-2.16-1.13-3.76-1.08-4.38,1.79
	c-0.87,4.01-2.84,7.87-1.53,12.15c1.17,3.82,3.12,4.53,6.49,2.47c1.97-1.21,3.95-2.46,6.07-3.35c4.81-2.03,7.6-0.55,6.94,4.43
	c-0.73,5.47,1.9,7.09,6.24,8.33c9.35,2.68,16.95,9.26,26.29,11.98c6.22,1.81,12.48,3.53,18.75,5.15c9.29,2.41,16.04,7.92,21.91,15.5
	c8.23,10.62,15.75,21.38,19.24,34.59c8.04,30.49,18.06,60.45,24.57,91.34c0.74,3.53,2.47,5.48,5.82,7.12
	c49.77,24.37,99.68,48.38,151.19,68.96c17.14,6.85,34.87,8.7,53.01,9.69c41.82,2.29,83.45,6.47,124.32,16.05
	c24.05,5.64,46.8,14.39,65.78,31.09c12.29,10.82,18.14,24.54,19.91,40.47c1.42,12.76,1.18,25.6,2.13,38.38
	C1481.15,392.01,1481.15,405.01,1481.16,418.01z M1401.54,740.57c-1.69,0.67-3.32,1.53-5.07,1.97c-4.29,1.09-8.36,3.61-12.9,3.06
	c-8.54-1.04-16.43-3.98-23.25-9.43c-14.62-11.69-24.91-26.5-31.35-43.98c-8.01-21.77-12.36-44.39-13.9-67.44
	c-2.16-32.38,0.52-64.4,9.86-95.66c9.26-30.98,24.79-58.51,45.81-82.96c10.71-12.46,28.26-19.29,45.97-7.44
	c8.03,5.38,13.74,12.19,18.8,20.19c8.98,14.2,13.89,29.66,15.4,46.19c2.36,25.74,2.48,51.58,1.89,77.39
	c-0.42,18.61-1.81,37.2-4.6,55.66c-1.61,10.62-3.57,21.16-5.33,31.81c3.39-5.08,5.43-10.76,7.5-16.39
	c7.16-19.47,13.94-39.08,13.29-60.25c-1.1-35.6-4.38-70.98-11.96-105.83c-4.33-19.9-9.74-39.52-20.61-57.11
	c-2.53-4.1-5.08-8.17-9.05-11.16c-17.25-13.01-39-12.22-56.18,1.1c-15.21,11.78-23.82,28.4-31.69,44.73
	c-17.89,37.11-27.26,77.18-36.2,117.23c-5.49,24.6-9.2,49.53-12.9,74.45c-2.01,13.52-2.54,26.97,1.12,40.27
	c2.95,10.74,6.34,21.37,9.23,32.13c2.53,9.44,8.25,16.58,15.39,22.82c2.3,2.01,4.94,3.5,8,3.79c16.39,1.57,32.8,3.7,49.29,2.07
	c13.33-1.32,25.75-5.04,34.44-16.35c0.03-0.43,0.05-0.86,0.08-1.29C1402.27,740.29,1401.9,740.43,1401.54,740.57z M252.44,127.51
	c20.58,1.44,41.08,1.21,61.57,1.68c49.8,1.15,99.61,1.77,149.38,3.84c30.28,1.26,60.56,2.62,90.83,4.19
	c32.57,1.68,65.01,5.41,97.6,6.92c6.58,0.31,13.25,0.99,19.41,3.83c6.53,3,10,7.89,9.87,15.25c-0.15,8.06-2.14,15.78-4.63,23.32
	c-9.57,28.97-22.59,56.49-36.49,83.56c-14.84,28.89-30.29,57.48-48.53,84.44c-13.4,19.8-31.06,29.85-56.01,28.32
	c-23.91-1.47-47.86-2.71-71.8-3.95c-17.12-0.88-34.23-2.02-51.35-3.14c-23.58-1.54-47.17-3.13-70.75-4.75
	c-15.11-1.04-30.22-2.12-45.32-3.27c-19.91-1.52-39.81-3.11-59.71-4.72c-17.41-1.41-34.82-2.82-52.22-4.33
	c-17.07-1.48-34.12-3.09-51.18-4.63c-15.9-1.44-31.81-2.77-47.7-4.3c-19.03-1.83-38.05-3.73-57.06-5.76
	c-16.02-1.72-32.02-3.66-48.03-5.53c-18.32-2.13-36.63-4.25-54.94-6.44c-17.79-2.12-35.55-4.4-52.05-12.04
	c-1.93-0.89-3.73-1.09-5.75-0.61c-4.94,1.17-9.99,1.03-14.91,0.34c-17.01-2.4-34.11-3.36-51.25-3.53
	c-51.32-0.53-102.61,0.13-153.81,3.99c-15.23,1.15-30.43,2.9-45.52,5.42c-22.74,3.8-44.08,11.85-64.44,22.31
	c-82.1,42.19-163.5,85.66-242.54,133.42c-37.39,22.6-74.26,45.99-109.31,72.11c-13.78,10.27-24.78,22.65-27.19,40.66
	c-1.61,11.99-1.19,24,0.91,35.8c5.69,31.96,13.9,63.29,24.66,93.93c1.69,4.81,5.58,10.42,4.3,14.27c-1.37,4.1-8.71,4.15-13.36,6.16
	c-11.62,5.02-23.1,10.28-32.09,19.55c-7.69,7.92-7.97,14.69-1.18,23.39c4.72,6.06,10.12,11.51,15.58,16.88
	c36.08,35.47,78.39,61.83,123.62,83.74c19.82,9.6,40.31,17.55,62.42,20.48c7.76,1.03,15.32,3.01,21.29,8.67
	c8.88,8.42,18.99,15.04,30.06,20.17c30.4,14.09,62.33,23.84,94.54,32.65c40.38,11.05,81.24,20.12,122.31,28.25
	c29.42,5.83,58.9,11.33,88.54,15.89c21.15,3.25,42.28,6.69,63.47,9.68c18.91,2.67,37.87,4.97,56.85,7.16
	c18.51,2.14,37.08,3.75,55.7,4.58c23.15,1.02,46.32,1.15,69.41-0.87c20.85-1.82,41.59-4.64,62.32-7.57
	c24.65-3.49,49.35-6.6,73.95-10.39c27.68-4.27,55.28-9.02,82.71-14.7c15.23-3.15,30.39-6.61,45.57-9.95
	c6.13-1.35,9.28-5.19,9.86-11.45c0.43-4.63,1.33-9.21,1.84-13.83c2.76-24.77,5.08-49.59,8.28-74.3c4.9-37.81,11-75.44,19.85-112.56
	c14.91-62.57,34.82-123.05,70.13-177.76c15.61-24.19,34.85-44.71,58.54-59.86c23.97-15.33,50.03-27.45,80.15-26.44
	c10.94,0.37,21.92-0.39,32.84,1.21c22.54,3.3,42.67,11.87,59.84,27.01c21.81,19.23,35.17,43.93,44.45,70.88
	c14.62,42.44,19.53,86.59,20.96,131.17c0.7,21.97,0.46,43.98-0.99,65.92c-1.23,18.59-3.16,37.12-4.59,55.7
	c-0.7,9.08-2.11,18.07-3.48,27.51c6.36-1.98,12.09-4.2,18.14-5.29c10.15-1.82,20.42-3.19,30.4-5.72
	c38.67-9.83,77.14-20.42,115.94-29.73c18.53-4.44,36.99-9.15,55.54-13.47c4.34-1.01,5.41-3.04,4.94-7.21
	c-0.76-6.77-1.14-13.61-1.32-20.42c-0.09-3.52-1.61-3.63-4.34-2.95c-21.82,5.43-43.65,10.81-65.49,16.17
	c-43.2,10.59-86.41,21.11-129.58,31.81c-2.53,0.63-4.02,0.36-4.49-2.03c-0.49-2.52,1.78-2.1,3.27-2.47
	c39.01-9.61,78.01-19.26,117.03-28.85c26.33-6.47,52.7-12.82,79.01-19.35c1.69-0.42,4.29-0.03,4.12-3.6
	c-0.36-7.3-0.11-14.63-0.11-22.09c-1.23,0.11-2.25,0.05-3.19,0.3c-13.29,3.42-26.56,6.89-39.85,10.33
	c-41.77,10.8-83.54,21.6-125.32,32.36c-6.74,1.74-7.56,0.99-7.56-6.1c-0.02-85.15-0.03-170.3-0.09-255.44
	c0-4.32-0.4-8.64-0.64-12.96c-0.1-1.9-0.73-2.36-2.84-1.8c-8.15,2.16-16.39,3.98-24.59,5.95c-13.08,3.14-26.16,6.3-39.73,9.57
	c1.36-2.37,3.04-2.79,4.88-3.23c19.3-4.61,38.57-9.32,57.88-13.92c2.67-0.64,4.38-1.24,3.9-4.77c-3.16-23.52-8.32-46.57-15.47-69.2
	c-5.27-16.7-11.41-33.08-17.71-49.59c3.12-1.05,4.67-0.31,5.76,2.78c3.58,10.12,7.71,20.05,11.23,30.2
	c9.51,27.41,17.47,55.22,20.46,84.2c0.47,4.54,2.71,3.76,5.59,3.05c51.22-12.59,102.45-25.16,153.68-37.7
	c10.84-2.65,10.85-2.58,9.64-13.7c-0.2-1.82-0.38-3.63-0.6-5.45c-2.31-18.63-5.53-37.18-5.4-56.04c0.1-14.66,1.29-29.23,3.68-43.71
	c0.32-1.92,1.46-4.62-2.66-3.76c-23.2,4.86-46.59,8.66-69.98,12.44c-19.65,3.17-39.41,5.73-59.14,8.36
	c-13.5,1.8-27.03,3.38-40.58,4.81c-9.87,1.05-19.69,3.59-29.73,1.19c-6.58-1.57-9.64-5.89-8.29-12.43c0.63-3.07,1.51-6.1,2.44-9.1
	c9.84-31.56,24.21-61.17,39.21-90.48c16.91-33.04,34.04-66,54.3-97.15c16.26-25.01,37.92-42.45,68.64-46.4
	c6.34-0.82,6.2-1.19,3.98-7.36c-3.66-10.13-11.5-18.45-12.82-29.6c-0.25-2.09-1.97-1.37-3.14-1.44
	c-33.91-1.97-67.8-4.22-101.73-5.77c-36.77-1.68-73.56-2.98-110.36-3.96c-69.14-1.86-138.27-1.44-207.39,0.94
	c-18.6,0.64-37.1,2.48-55.08,7.82C278.75,117.15,265.38,121.68,252.44,127.51z M-123.58,317.61c6.47,2.92,12.95,4.77,19.5,6.32
	c15.55,3.69,31.42,5.26,47.28,6.68c16.06,1.43,32.04,3.55,48.05,5.34c16.51,1.84,33.03,3.61,49.56,5.32
	c18.85,1.95,37.7,3.87,56.56,5.67c16.22,1.54,32.46,2.89,48.69,4.31c18.06,1.58,36.11,3.2,54.17,4.72
	c17.4,1.46,34.81,2.84,52.22,4.23c20.23,1.61,40.46,3.24,60.7,4.75c15.93,1.19,31.87,2.23,47.81,3.29
	c24.08,1.6,48.16,3.19,72.24,4.73c17.77,1.13,35.56,2.06,53.33,3.29c20.1,1.4,40.17,2.61,60.36,2.04
	c10.82-0.31,19.09-4.75,26.2-12.31c7.65-8.14,14.64-16.83,20.84-26.11c29.49-44.1,52.73-91.47,73.02-140.36
	c4.26-10.26,7.62-20.78,9.63-31.73c2.02-10.97-1.57-16.57-11.7-17.65c-9.59-1.03-19.17-2.22-28.78-2.88
	c-31.05-2.13-62.1-4.39-93.18-5.95c-39.91-2.01-79.85-3.77-119.8-4.94c-59.6-1.74-119.23-2.86-178.84-4.3
	c-2.87-0.07-5.52,0.31-8.21,1.4c-92.68,37.65-182.37,81.58-270.49,128.78C-65.05,278.66-95.96,294.82-123.58,317.61z
	 M1133.87,435.25c0,1.63,0.18,3.14-0.03,4.59c-2.8,19.52-6.32,38.91-11.49,57.95c-13.44,49.43-27,98.83-40.63,148.21
	c-0.79,2.86-0.83,5.58-0.44,8.36c2.44,17.62,4.27,35.3,5.66,53.03c0.24,3.12,0.92,4.05,4.14,3.15c9.07-2.53,18.22-4.79,27.35-7.14
	c7.26-1.87,14.51-3.84,22.06-4.44c-0.08,1.07-0.67,0.96-1.12,1.08c-15.53,4-31.02,8.15-46.6,11.9c-3.98,0.96-5.35,2.51-4.82,6.59
	c0.96,7.37,1.46,14.79,2.15,22.11c0.54,0.07,0.72,0.14,0.87,0.1c52.17-12.83,104.34-25.68,156.53-38.47
	c2.25-0.55,5.44-1.97,6.23,1.61c0.78,3.5-3.26,1.58-4.55,3.03c-0.16,0.18-0.65,0.06-0.97,0.14
	c-51.54,12.65-103.08,25.33-154.64,37.91c-2.5,0.61-3.16,1.49-2.88,4.04c0.64,5.78,1.01,11.6,1.27,17.42
	c0.3,6.76,0.29,6.99,6.55,4.16c15.7-7.11,31.92-12.1,48.97-15.02c14.72-2.52,29.66-4.28,43.94-9.02
	c14.11-4.69,28.67-7.33,43.35-9.35c12.61-1.73,24.72-4.86,35.88-11.28c2.82-1.62,4.21-3.29,4.18-6.52
	c-0.17-16.18,2.33-32.17,4.31-48.14c3.39-27.31,7.85-54.48,12.58-81.61c8.52-48.94,21.09-96.46,45.32-140.38
	c4.85-8.79,9.83-17.29,15.83-25.3c6.84-9.13,15.83-14.57,26.84-16.89c4.72-0.99,9.45-2.04,14.23-2.64
	c13.02-1.63,24.36,2.8,32.88,12.18c11.4,12.55,17.86,28.07,23.3,44.03c10.35,30.34,14.55,61.76,17.08,93.84
	c2.12-5.12,2.25-10.24,2.58-15.28c1.56-23.92,3.3-47.82,4.34-71.77c1.78-41.1,3.82-82.2-0.28-123.27
	c-2.07-20.75-10.87-37.69-29.1-49.02c-11.17-6.94-22.93-12.59-35.27-17.04c-43.48-15.66-88.94-20.08-134.56-21.66
	c-27.45-0.95-53.58-4.68-78.56-16.58c-33.15-15.79-66.96-30.15-99.98-46.22c-11.37-5.53-22.77-11-34.81-16.81
	c1.37,8.94,3.41,17.04,3.44,25.34c0.01,2.87,1.08,4.45,3.54,5.82c8.84,4.91,17.75,9.73,26.26,15.18
	c11.3,7.24,23.53,13.2,33.36,22.57c8.19,7.81,8.18,13.76,0.13,21.57c-6.97,6.76-15.28,11.73-23.4,16.92
	c-22.38,14.3-46.42,25.39-70.71,35.96c-2.21,0.96-4.7,1.39-4.12,5.03c1.63,10.33,2.49,20.79,4.44,31.05
	c5.31,27.97,11.04,55.86,16.54,83.8c0.63,3.19,1.45,4.72,5.36,3.67c35.93-9.58,71.9-19.01,107.9-28.34
	c61.59-15.97,122.7-33.67,184.02-50.61c29.79-8.23,59.65-16.32,87.13-31.05c0.78-0.42,1.63-1.23,2.59-0.08
	c-1.01,1.96-3.12,2.41-4.8,3.27c-14.31,7.29-29.13,13.39-44.45,18.21c-45.57,14.31-91.94,25.82-137.86,38.89
	c-64.54,18.37-129.54,35.05-194.51,51.84c-3.02,0.78-3.87,1.74-3.29,4.59c7.17,35.37,14.51,70.7,21.38,106.12
	c4.42,22.79,9.68,45.57,6.72,69.11c-0.08,0.62,0.02,1.3,1.23,1.39c0.33-0.75,0.81-1.57,1.06-2.46
	c11.15-40.46,22.43-80.88,33.35-121.4c5.52-20.47,9.94-41.2,12.31-62.32C1129.43,438.36,1129.54,435.31,1133.87,435.25z
	 M884.14,304.86c-10.65,6.31-21.46,9.06-33.14,4.62c-3.44-1.3-4.34-0.1-5.42,3.07c-6.24,18.29-10.76,36.98-14.17,56
	c-5.05,28.15-7.82,56.36-4.27,84.95c7.77,62.42,17.61,124.58,24.35,187.14c2.22,20.62,3.14,41.11-2.81,61.41
	c-10.61,36.2-13.16,73.21-11.04,110.74c1.37,24.28,3.27,48.51,5.2,72.75c0.5,6.26,1.39,11.35,8.08,13.91
	c3.2,1.22,5.96,3.6,8.91,5.47c4.1,2.59,8.56,3.34,13.37,3.06c4.27-0.25,6.4-1.63,6.58-6.47c0.72-18.65,2.98-37.17,5.48-55.65
	c6.76-49.96,16.65-99.4,25.31-149.04c7.73-44.32,13.55-88.85,15.27-133.86c2.02-52.93,4.01-105.86,5.98-158.8
	c0.11-2.86,0.42-5.67,1.47-8.31c1.5-3.74,3.92-6.96,8.29-6.84c4.33,0.12,4.6,4.2,5.46,7.29c19.01,68.85,38.62,137.54,56.27,206.76
	c3.81,14.95,9.03,29.57,10.1,45.17c0.86,12.7-0.34,25.3-1,37.93c-0.74,14.17-1.23,28.33,2.2,42.24
	c13.58,55.17,30.95,109.34,43.74,164.72c0.32,1.38,0.48,2.78,2.51,3.17c6.36,1.23,12.62,3.2,19.12,3.41
	c5.95,0.19,10.85-2.61,15.23-6.47c1.3-1.15,1.41-2.31,1.28-3.95c-2.91-38.02-5.64-76.06-8.62-114.07
	c-2.03-25.9-4.29-51.78-6.64-77.65c-2.08-22.87-5.47-45.65-3.97-68.74c1.12-17.23-1.08-34.23-3.75-51.2
	c-7.16-45.53-17.86-90.35-26.88-135.51c-8.24-41.24-18.69-82.09-21.9-124.22c-0.17-2.28-1.07-3.47-3.32-4.26
	c-5.4-1.89-10.11-5.04-14.19-9.06c-1.04-1.03-3.41-2.13-1.72-3.94c1.68-1.79,2.88,0.41,4.03,1.43c4.15,3.72,8.47,7.13,14.47,8.5
	c-0.69-8.25-1.33-15.97-2.04-24.6c-7.19,4.52-14.27,7.29-21.84,8.56c-9.84,1.65-19.86,1.7-29.73,3.44
	c-9.12,1.61-18.26,0.79-27.54-0.86c-10.27-1.82-20.86-1.89-31.22-3.61c-18.23-3.04-36.13-7.43-53.69-13.17
	c-2.82-0.92-3.79-0.59-4.39,2.66c-1.23,6.68-2.9,13.33-4.97,19.8c-1.05,3.3-0.22,4.21,2.78,5.05c9.67,2.69,18.43,0.12,26.9-4.26
	C880.58,302.4,882.53,301.62,884.14,304.86z M828.95,503.17c-56.23,13.75-111.76,27.35-167.31,40.84c-2.86,0.69-2.78,2.35-2.5,4.41
	c1.43,10.28,0.89,20.63,0.89,30.95c0.04,78.82,0.06,157.64-0.07,236.46c-0.01,4.45,0.52,5.5,5.33,4.24
	c53.72-14,107.5-27.77,161.31-41.45c3.42-0.87,5.05-2.12,5.08-5.82c0.18-21.09,5.14-41.35,10.84-61.49
	c4.77-16.86,8.07-34.02,6.04-51.62c-2.55-22.1-5.78-44.12-8.55-66.19C836.26,563.52,832.66,533.51,828.95,503.17z M598.78,753.16
	c0.55-32.21-0.74-65.17-2.02-98.13c-0.32-8.29-0.7-16.72-2.42-24.79c-5.57-26.2-17.36-49.6-34.15-70.4
	c-14.13-17.51-31.77-30.45-53.6-36.24c-18.32-4.85-36.7-7.2-56.18-3.26c-26.2,5.3-51.23,13.25-72.62,28.89
	c-23.84,17.44-45.53,37.62-57.64,65.75c-0.71,1.65-1.43,3.9-3.31,4.14c-3.12,0.39-3.86,2.71-5.05,4.8
	c-13.71,24.08-24.54,49.45-33.78,75.54c-14.61,41.27-24.75,83.7-32.77,126.66c-5.49,29.39-8.68,59.11-12.06,88.8
	c-2.11,18.48-4.15,36.96-6.82,55.37c-0.97,6.71-3.96,13.56-3.49,19.87c0.99,13.16,4.69,26.06,12.25,37.35
	c3.96,5.92,9.23,9.48,16.54,10.78c4.18,0.74,7.83-0.61,11.74-0.61c26.33-0.05,52.64,0.64,78.94,1.75
	c42.56,1.8,84.65-0.75,126.13-11.44c37.89-9.76,66.66-30.9,85.68-65.26c12.77-23.08,23.56-47,31.84-72.05
	c6.37-19.28,11-38.96,11.83-59.27C598.88,805.6,599.03,779.77,598.78,753.16z M850.86,263.69c0.94-5.22-1.38-9.57-7.86-12.17
	c-7.68-3.08-12.96-9.02-17.06-16.2c-7.98-13.99-17.09-27.22-23.26-42.36c-5.05-12.39-12.8-23.69-16.08-36.93
	c-0.58-2.34-1.82-2.39-4-2.17c-28.66,2.82-50.06,17.17-65.44,41.04c-30.65,47.58-56.98,97.51-80.05,149.14
	c-6.79,15.19-14.12,30.29-17.57,46.78c-2.26,10.82,2.55,16.71,13.35,15.83c13.42-1.1,26.82-2.42,40.18-4.01
	c21.59-2.57,43.14-5.4,64.65-8.6c28.2-4.19,56.23-9.32,84.3-14.28c2.17-0.38,3.57-1.11,4.06-3.99c3.77-22.53,9.06-44.71,15.61-66.61
	C846,294.75,850.57,280.34,850.86,263.69z M869.92-6.05c-2.24-0.16-2.84,1.49-3.81,2.51c-3.56,3.75-7.25,7.33-11.26,10.61
	c-10.24,8.37-22.13,13.96-33.66,20.16c-10.26,5.52-20.29,11.34-28.69,19.61c-11.89,11.7-17.98,26.43-17.65,42.47
	c0.15,7.48-0.37,15.42,1.45,23.32c1.38,5.98,1.9,12.2,5.13,17.51c2.7,4.45,5.14,8.92,6.78,13.85c2.63,7.89,4.42,16.2,8.08,23.58
	c10.77,21.72,20.1,44.22,33.96,64.35c4.36,6.33,9.22,11.83,16.11,15.22c11.36,5.59,22.99,10.46,35.74,11.87
	c1.19,0.13,2.52,0.24,3.11,1.31c1.34,2.43,3.44,1.76,5.26,1.33c27.48-6.39,53.33-17.71,80.01-26.54c2.25-0.74,1.93-2.2,1.78-3.93
	c-0.95-11.03-5.37-20.71-11.1-30c-2.26-3.66-4.52-5.67-9.06-4.17c-2.8,0.92-5.86,1.05-8.79,1.6c-18.54,3.49-36.64,8.97-55.32,11.9
	c-4.69,0.73-6.3-1.05-7.93-4.41c-8.57-17.75-17.42-35.36-25.69-53.24c-8.87-19.19-16.38-38.91-21.42-60.06
	c4.52,2.98,4,7.57,5.09,11.38c10.13,35.37,26.73,67.96,42.96,100.72c1.26,2.55,2.84,2.05,4.89,1.54
	c19.93-4.92,39.74-10.54,60.33-11.99c4.95-0.35,4.93-2.85,4.54-6.43c-1.47-13.55-4.09-26.87-8.09-39.88
	c-11.54-37.54-30.22-72.74-36.61-112c-0.7-4.29-6.13-6.05-10.19-4.21c-7.85,3.55-15.7,7.15-24.56,7.27
	c-6.98,0.09-9.48-2.1-7.18-8.65C868.34,18.58,866.01,5.86,869.92-6.05z M1447.73,565.46c0-12.82,0.45-25.66-0.15-38.45
	c-0.43-9.27-0.03-18.66-2.19-27.81c-3.12-13.24-7.35-25.79-15.03-37.48c-5.18-7.88-10.4-14.59-18.56-19.46
	c-11.01-6.58-20.66-5.08-30.34,2.48c-12.43,9.7-21.42,22.41-29.21,35.59c-21.18,35.82-30.85,75.14-32.23,116.58
	c-0.73,21.85,1.34,43.53,5.08,65.02c1.81,10.42,3.06,21.53,8.51,30.43c8.13,13.26,16.17,27.13,28.42,37.15
	c16.93,13.86,32.23,17.45,47.95-1.58c0.53-0.64,1.1-1.25,1.63-1.89c12.85-15.73,19.73-34.31,25.23-53.48
	C1446.86,637.54,1448.64,601.58,1447.73,565.46z M1005.12,163.35c0.23-17.64-0.2-34.89-2.72-52.05
	c-1.71-11.64-4.01-23.14-7.37-34.43c-0.33-1.11-1.19-2.88,0.62-3.42c1.45-0.44,2.96,0.24,3.59,1.9c0.35,0.92,0.59,1.88,0.87,2.83
	c8.01,27.01,10.45,54.7,9.88,82.73c-0.09,4.51,0.89,8.03,3.76,11.77c10.45,13.58,10.97,27.21,2.08,38.88
	c-4.59,6.03-10.5,10.61-16.81,14.72c-12.42,8.09-26.12,13.41-39.98,18.27c-3.51,1.23-4.77,3.26-4.96,6.39
	c-0.15,2.47,0.2,4.97,0.3,7.46c0.11,2.85,1.5,3.68,4.39,3.87c29.44,1.89,57.86-3.58,85.88-11.78c8.56-2.51,13.75-8.78,15.08-17.49
	c2.38-15.54,2.39-31.2-0.36-46.68c-4.54-25.55-11.73-50.47-18.71-75.42c-4.68-16.74-10.63-33.04-17.57-48.98
	c-2.6-5.97-8.21-9.6-11.23-15.21c-5.01-9.31-13.07-14.39-23.23-16.44c-7.53-1.52-14.82-3.76-21.9-6.73
	c-7.21-3.02-13.59-7.75-21.15-10.08c-5.71-1.76-5.54-1.94-4.88,3.79c0.55,4.8,2.03,9.37,3.06,14.05c1.52,6.94-2.25,10.49-9.21,9.06
	c-5.98-1.23-10.9-4.66-16.16-7.4c-1.41-0.73-2.65-2.7-4.51-0.33c-1.46,1.86-4.19,2.15-3.47,6.06c3.49,18.96,9.53,37.09,16.28,55.06
	c8.6,22.87,18.2,45.39,23.82,69.3c2.3,9.79,3.26,19.78,4.61,29.47c13.6-1.58,23.4-7.94,28.96-20.23c0.27-0.6,0.66-1.15,1.02-1.7
	C990.55,162.4,995.08,160.67,1005.12,163.35z M1008.96,659.79c0.13-6.52-0.61-12.96-1.63-19.37c-2.69-17.04-8.02-33.42-12.49-50.01
	c-10.53-39.09-21.25-78.13-31.75-117.23c-0.76-2.82-1.48-3.44-4.33-2.63c-7.15,2.04-14.39,3.84-21.66,5.41
	c-2.51,0.54-3.14,1.62-3.24,3.98c-0.9,20.79-1.85,41.59-2.91,62.37c-0.99,19.45-1.85,38.92-3.27,58.34
	c-1.54,21.04-4.18,41.96-7.6,62.79c-4.98,30.26-9.76,60.55-14.74,90.81c-0.52,3.15-0.42,4.16,3.29,3.2
	c32.15-8.38,64.34-16.61,96.55-24.73c3.49-0.88,4.45-2.46,3.65-5.79c-2.48-10.29-2.66-20.75-2.05-31.25
	C1007.48,683.7,1008.23,671.75,1008.96,659.79z M846.95,923.99c-0.1,8.34-3.82,15.28-8.38,21.92c-1.41,2.05-2.67,4.22-3.8,6.43
	c-4.96,9.75-3.42,17.49,5.2,24.22c5.22,4.07,9.31,9.01,12.81,14.51c3.12,4.91,6.09,9.91,9.24,14.81
	c13.89,21.63,33.13,36.55,57.15,45.43c4.38,1.62,8.83,2.99,13.58,2.8c5.51-0.22,8.21-2.92,8.17-8.49
	c-0.04-6.27-2.28-12.04-4.59-17.74c-6.64-16.34-17.15-30.33-27.38-44.47c-9.55-13.2-19.72-26.15-25.83-41.34
	c-2.82-7.02-4.76-11.61-13.79-10.12c-6.23,1.03-12.18-2.59-17.73-5.74C850.22,925.44,849.12,924.01,846.95,923.99z M1058.65,949.04
	c0.07,0,0.13,0.01,0.2,0.01c0,1.67-0.07,3.33,0.01,5c0.64,12.38,6.96,19.19,19.27,20.89c5.14,0.71,10.27,0.97,15.44,0.28
	c11.05-1.49,22.06-3.42,33.16-4.29c24.75-1.92,49.53-3.3,74.3-4.87c2.68-0.17,5.33-0.49,7.77-1.6c5.32-2.41,9.86-7.23,10.22-11.98
	c0.24-3.25-6.02-6.89-11.07-7.84c-0.16-0.03-0.31-0.12-0.47-0.16c-8.87-2.19-17.71-4.54-26.62-6.53
	c-19.45-4.35-39.24-7.28-58.16-13.88c-6.56-2.29-12.57-5.4-16.94-10.93c-1.75-2.21-2.86-1.59-4.67-0.25
	c-5.95,4.42-12.72,6.31-20.14,6.1c-5.54-0.15-10.88-1.3-16.21-2.66c-1.34-0.34-2.93-1.3-3.17,1.39
	C1060.66,928.17,1059.64,938.6,1058.65,949.04z M1065.93,210.84c-0.63,8.37-0.86,16.01-1.87,23.61c-1.29,9.64-5.73,16.45-15.5,19.05
	c-6.86,1.83-13.68,3.88-20.63,5.3c-2.76,0.56-3.09,1.68-2.91,3.94c1.42,17.73,2.87,35.47,4.13,53.21c0.31,4.35,1.92,4.08,5.22,2.63
	c18.65-8.18,36.93-17.13,54.85-26.8c12.44-6.72,24.42-14.21,34.51-24.3c6.67-6.67,6.66-11.11,0.29-17.91
	c-1.02-1.09-2.09-2.15-3.19-3.16C1104.69,231.51,1085.52,221.34,1065.93,210.84z M897.95,820.77c15.21-0.87,30.34-4.68,44.85-10.5
	c22.95-9.21,46.25-16.8,71.02-19.16c2.46-0.23,4.85-1.14,7.29-1.64c2.21-0.46,2.8-1.25,2.01-3.71c-2.02-6.28-3.59-12.71-5.29-19.1
	c-0.56-2.1-1.26-2.82-3.81-2.18c-37.22,9.27-74.47,18.38-111.74,27.46c-2.04,0.5-3.06,1.14-3.37,3.45
	c-1.03,7.72-2.32,15.41-3.63,23.09C894.94,820.42,895.23,821.41,897.95,820.77z M900.12,787.54c10.94-2.68,21.03-5.14,31.11-7.62
	c26.97-6.64,53.92-13.36,80.93-19.81c3.18-0.76,3.5-1.8,2.79-4.59c-1.56-6.08-2.93-12.22-4.1-18.39c-0.6-3.15-2.19-3.6-4.88-2.83
	c-3.49,0.99-7.02,1.86-10.54,2.77c-28.82,7.41-57.63,14.83-86.47,22.17c-3.21,0.82-4.91,1.88-5.24,5.78
	C903.12,772.21,901.49,779.34,900.12,787.54z M947.69,274.4c0-2.76,0.99-6.82-0.31-9.91c-1.05-2.48-5.48-1.19-8.28-2.12
	c-1.73-0.57-3.54-1.02-5.13-1.87c-7.62-4.08-14.9-3.05-22.76-0.01c-11.27,4.36-23.08,6.04-35.25,3.66
	c-6.1-1.2-11.56-4.09-17.44-5.85c-1.49-0.45-3.3-1.41-3.24,1.7c0.08,4.32-0.12,8.64-0.29,12.96c-0.06,1.65,0.12,2.62,2.07,3.24
	c27.78,8.9,56.16,14.91,85.19,17.83c2.83,0.29,3.41-1.13,3.64-3.37C946.43,285.54,947.02,280.42,947.69,274.4z M960.35,293.23
	c9.6,0.66,18.7-3.18,28.21-3.11c11.31,0.08,21.55-3.4,31.26-8.94c1.43-0.82,1.85-1.54,1.71-3.05c-0.43-4.47-0.94-8.94-1.05-13.43
	c-0.09-3.4-1.35-4.03-4.53-3.34c-8.61,1.88-17.34,3.01-26.13,3.81c-10.97,0.99-21.92,1.25-32.88-0.06c-3.39-0.41-5.53,0.08-5.29,4.5
	c0.25,4.62-0.62,9.29-0.67,13.94c-0.03,3.09-2.53,7.22-0.31,8.89C952.87,294.09,957.05,293.08,960.35,293.23z M989.33,226.71
	c5.26-2.04,9.67-4.89,13.92-7.93c14.69-10.5,18.23-22.6,11.69-39.53c-2.42-6.27-5.75-12.18-13.06-12.85
	c-7.23-0.66-11.2,4.79-14.58,10.33c-2.93,4.81-5.37,10.01-10.24,13.28c-1.95,1.31-0.57,2.26,0.13,3.2
	C984.49,202.99,988.5,214,989.33,226.71z M860.02-107.16c-0.56-18.8-1.78-36.42-4.53-53.93c-0.35-2.22-1.43-2.86-3.69-2.83
	c-4.81,0.06-9.66,0.02-14.43-0.51c-7.55-0.85-7.82-1.07-8.75,6.17c-1.63,12.66-1.09,25.16,4.54,36.96c0.67,1.4,0.99,3.33,3.2,3.34
	C845.36-117.97,852.42-113.48,860.02-107.16z M934.27,467.46c-0.07,0-0.13,0-0.2-0.01c0,0.67,0.11,1.35-0.02,1.99
	c-1,5.1,1.2,5.25,5.33,3.96c5.83-1.81,11.81-3.15,17.78-4.43c3.4-0.73,4.36-1.86,3.34-5.61c-3.87-14.17-8.58-28.11-11.04-42.66
	c-1.35-7.96-2.56-16.02-6.14-23.41c-0.85-1.76-1.92-4.01-4.33-3.31c-2.03,0.59-1.9,2.87-1.97,4.69
	C936.1,421.6,935.18,444.53,934.27,467.46z M870.35,37.23c7.72-1.54,15.11-4.33,22.52-7.1c3.3-1.23,6.51-2.16,5.48-6.91
	c-0.23-1.08,0.59-2.63,1.36-3.62c1.53-1.98,1.05-3.38-0.41-5.17c-4.21-5.14-8.07-10.58-12.38-15.63c-2.6-3.04-5.14-7.86-9.8-6.31
	c-4.6,1.53-5.22,6.79-6.13,11.18c-0.03,0.16-0.01,0.33-0.03,0.5c-1.13,9.51-0.96,19.2-4.62,28.33
	C865.01,35.83,866.48,37.63,870.35,37.23z M935.73,37.46c4.37-0.05,6.05-2.12,4.94-6.29c-2.49-9.37-4.1-18.68-1.49-28.35
	c0.94-3.48-1.32-4.92-4.59-4.16c-1.71,0.4-3.52,1.21-4.82,2.36c-4.21,3.72-8.26,7.62-12.24,11.58c-2.26,2.25-4.96,4.45-1.05,7.88
	c1.38,1.22,1.16,3.68,0.71,5.71c-0.24,1.06-0.85,2.49,0.48,3.17C923.68,32.42,929.17,36.65,935.73,37.46z M878.72,909.83
	c-13.23,5.39-23.35-1.77-34.14-9.13c0.84,6.34,1.51,11.59,2.27,16.83c0.11,0.75,0.47,1.72,1.04,2.12
	c8.41,5.81,17.28,9.99,27.94,7.32c1.76-0.44,3-0.98,2.93-3.22C878.61,919.27,878.72,914.79,878.72,909.83z M1097.72,898.12
	c-6.7,5.8-14.13,6.91-22.21,4.93c-2.74-0.67-5.51-1.18-8.26-1.81c-7.12-1.64-7.19-1.64-6.33,5.6c0.23,1.95-0.93,4.73,2,5.55
	c9.61,2.69,19.24,5.71,29.19,1.43C1101.32,909.85,1102.02,908.02,1097.72,898.12z M977.23,232.92c3.15-2.95,8.4-1.62,8.15-7.15
	c-0.53-11.44-4.35-21.66-11.23-30.78c-1.1-1.46-2.21-2.37-4.16-1.75c-2.9,0.91-5.84,1.71-9.12,2.67
	C969.39,206.78,975.15,218.54,977.23,232.92z M908.4,32.18c3-0.11,6.48-4.53,6.5-8.26c0.02-3.23-3.87-6.71-7.47-6.68
	c-3.12,0.02-6.57,4.12-6.45,7.67C901.12,28.6,904.9,32.31,908.4,32.18z M871.23-9.28c6.92-3.69,10.81-0.42,14.66,3.66
	c4.24,4.5,7.98,9.38,11.78,14.22c0.82,1.05,1.14,2.81,3.08,2.63c-0.11-6.42-0.38-12.38-7.55-15.65c-4.47-2.03-8.36-5.38-12.4-8.28
	C875.49-16.5,875.54-16.56,871.23-9.28z M959.05-111.24c-0.16-3.63-0.98-6.78-3.4-8.02c-1.82-0.94-4.38,1.16-5.73,2.84
	c-2.07,2.6-0.82,5.68,0.04,8.47c1.07,3.48,3.42,4.16,6.37,2.04C958.4-107.4,959.31-109.39,959.05-111.24z M909.89,16.43
	c3.91-3.82,6.66-7.09,9.98-9.59c3.52-2.65,0.87-3.96-0.61-5.64c-2.16-2.45-4.67-0.43-5.26,0.86
	C912.14,6.13,910.25,10.34,909.89,16.43z M949.7,248.33c-6.73,1.14-8.55,4.03-6.57,10.33c0.87,2.75,3.41,2.26,5.35,2.3
	c2.7,0.07,1.12-2.11,1.17-3.26C949.79,254.59,949.7,251.47,949.7,248.33z M937.91,259.09c0-1.87-0.06-3.35,0.02-4.82
	c0.08-1.62-0.37-2.77-2.19-1.99c-2.7,1.15-5.85,1.25-8.52,3.55C930.75,256.9,933.9,257.86,937.91,259.09z"/>
<path class="st2" d="M1481.16,418.01c0-13-0.01-26-0.01-39c0.25,0,0.5,0,0.76,0c0,13,0,26,0,38.99l-0.37,0L1481.16,418.01z"/>
<path class="st2" d="M928.4-17.12c-1.41-2.75-4.54-2.05-6.72-3.28c-0.74-0.41-1.8,0.16-1.89,1.56c-0.24,3.96-2.13,7.64-1.95,11.7
	c0.05,1.16,0.73,3.02-1.2,3.31c-6.21,0.93-6.38,6.23-8.03,10.57c-0.74,1.96-0.88,4.22-3.02,6.28c-0.52-3.72-1.16-7.01-1.37-10.33
	c-0.19-3-1.68-4.81-4.06-6.39c-6.64-4.41-13.18-8.98-19.78-13.45c-1.94-1.32-3.19-2.46-1.77-5.21c3.66-7.08,5.79-14.75,7.75-23.4
	c7.13,8.85,13.89,17.36,24.54,21.29c-1.59-1.27-3.18-2.55-4.78-3.82c-8.96-7.13-16.04-15.89-22.24-25.44
	c-2.98-4.6-6.23-9.03-8.93-13.79c-4.01-7.08-9.85-11.95-16.95-15.58c-9.62-4.92-16.85-12.25-21.86-21.82
	c-2.78-5.3-1.57-7.62,4.52-7.83c6.42-0.23,12.19,1.34,16.32,6.77c0.91,1.19,1.86,2.35,2.9,3.42c1.16,1.18,2.85,1.24,4.2,0.92
	c1.82-0.42,0.92-2.25,0.89-3.39c-0.6-18.61-1.39-37.22-4.78-55.58c-0.51-2.77,0.25-3.85,3.11-4.15c11.36-1.18,21.84-5.15,32.39-9.49
	c15.75-6.49,32.16-10.74,49.53-6.68c2.56,0.6,5.15,1.25,7.89,1.04c3.26-0.26,4.53,2.5,5.89,4.67c3.05,4.88,5.75,9.83,9.74,14.25
	c3.31,3.67,2.91,9.64,3.58,14.71c1.2,9.07,0.67,18.14,0.25,28.3c-4.01-4.5-8.28-5.59-13.09-5c-5.1,0.63-9.45,2.87-13.31,6.14
	c-2.55,2.16-2.66,9.24-0.12,13.31c2.25,3.62,5.42,4.48,9.45,2.92c6.87-2.65,9.79-8.4,7.65-15.51c-0.48-1.58-1.06-3.13-1.58-4.7
	c5.77-0.72,9.26,2.86,8.14,8.87c-1.11,6.01-3.62,11.3-10.46,13.72c3.59,1.12,3.59,1.12,10.53-4.22c-0.68,5.03-1.25,9.9-2,14.74
	c-1.28,8.26,0.14,16.17,2.7,24c2.49,7.6,4.66,15.38,3.13,23.44c-2.34,12.33-13.08,21.14-26.65,22.25
	c-3.97,0.33-7.95,0.95-11.96,0.26c-1.04-0.18-2.18-0.21-1.17,1.41C931.86-15.56,930.13-16.34,928.4-17.12z M937.91-56.14
	c0.3,2.39,2.44,4.75,1.06,5.81c-2.3,1.77-5.45,2.45-8.48,2.34c-2.83-0.11-1.08-2.59-1.64-3.9c-0.4-0.93-0.55-2.15-1.69-2.17
	c-1.97-0.04-1.32,1.7-1.17,2.58c0.59,3.33-1.08,4.49-3.76,3.41c-2.39-0.97-7.62,1.41-6.4-4.77c0.25-1.28,1.53-3.89-0.98-4.07
	c-2.03-0.15-1.72,2.38-1.96,3.96c-0.09,0.6-0.22,1.19-0.43,2.36c-2.83-1.56-5.28-2.85-7.67-4.24c-1.14-0.66-2.02-1.21-1.22-3.1
	c0.77-1.81,4.23-4.24,1.3-5.67c-2.11-1.03-2.37,3.29-3.96,4.81c-0.19,0.18-0.43,0.31-0.6,0.42c-1.65-0.59-2.52-2.65-5.51-2.45
	c3.48,2.99,5.33,5.82,2.65,9.57c-0.71,1-0.28,2.11,0.74,2.48c1.31,0.48,1.37-0.87,1.81-1.67c0.7-1.27,0.53-4.01,2.77-3.14
	c3.05,1.19,6.03,2.9,8.54,4.99c1.59,1.32,0.29,3.77,0.19,5.71c-0.06,1.15-0.47,2.64,1.09,2.85c2.4,0.32,1.07-1.84,1.58-2.81
	c0.7-1.34-0.45-4.66,2.43-3.62c4.28,1.54,10.75-0.18,11.85,6.96c0.09,0.61,1.06,0.61,1.73,0.37c1.04-1.87-2.33-4.38,0.27-5.57
	c2.95-1.35,6.35-2.19,9.59-2.29c2.53-0.08,2.03,3.4,3.44,4.89c0.47,0.49,1.16,1.21,2.1,0.7c-1.97-7.36-1.92-7.2,3.47-9.03
	c3.63-1.23,5.67-0.65,5.95,3.5c0.05,0.79,0.57,1.54,0.86,2.31c0.32,0.86,0.81,1.48,1.82,1.16c1.26-0.4,1.21-1.17,0.79-2.31
	c-0.68-1.83-1.08-3.77-1.58-5.58c2.04-1.27,4.41,0.34,6.47-1.39c-1.33-1.7-3.07-1.69-4.57-1.72c-1.94-0.04-3.21-0.66-3.66-2.57
	c-0.29-1.22-0.7-2.41-2.22-2.01c-1.85,0.49-0.85,1.77-0.5,2.78c0.33,0.94,0.92,1.85-0.61,2.31c-3.01,0.89-5.97,2.31-9.03,2.58
	c-2.08,0.18-1.13-3.17-2.69-4.2C939.7-55.84,939.15-55.84,937.91-56.14z M917.57-106.08c1.01-4.2-1.9-5.47-3.48-7.28
	c-5.88-6.71-12.94-10.8-22.32-9.49c-6.56,0.92-12.07,6.11-11.83,11.4c0.28,6.07,11.29,15.99,17.44,15.73
	c0.67-0.03,1.36,0.07,1.55-0.78c0.16-0.73-0.16-1.19-0.87-1.52c-2.17-1.01-4.78-1.26-6.61-3.74c4.36-0.1,8.56,0.24,11.67-3.22
	c3.11-3.46,1.44-7.79,2.06-12.12C910.22-114.35,913.32-109.97,917.57-106.08z M927.87-68.46c-0.14,1.61,1.1,2.01,2.01,2.62
	c9.89,6.65,22.12,4.33,31.73-5.72c2.55-2.66,2.93-4.17-0.6-6.28c-12.35-7.38-20.53-18.07-24.49-31.95
	c-0.72-2.53-1.62-5.04-2.69-7.45c-0.68-1.51-2.16-2.1-3.79-1.42c-1.41,0.59-1.26,1.75-0.78,2.94c3.89,9.66,7.33,19.54,14.19,27.68
	c3.68,4.36,8.08,7.91,12.76,11.11c2.43,1.66,2.3,2.92,0.41,4.97c-6.45,6.98-15.1,8.63-23.32,4.07
	C931.48-68.91,929.81-69.55,927.87-68.46z M871.89-138.05c-0.26,1.64,0.18,3.38,1.64,3.83c2.45,0.76,1.8-1.92,2.22-2.93
	c3.96-9.54,9.91-12.7,19.68-9.59c5.16,1.65,10.06,4.1,15.09,6.17c1.13,0.47,2.63,1.76,3.37,0.14c0.64-1.4-0.43-2.83-2.01-3.48
	c-6.41-2.61-12.62-6-19.27-7.64C880.47-154.53,874.4-148.22,871.89-138.05z M942.41-138.19c3.67,5.76,14.33,8.5,21.2,6.36
	c3.42-1.07,5.5-3.37,6.89-6.6c0.83-1.92-0.27-2.7-1.49-3.63c-1.38-1.05-1.92-0.11-2.65,0.9c-4.6,6.37-7.5,7.4-15.14,5.44
	C948.58-136.4,945.96-137.19,942.41-138.19z"/>
<path class="st2" d="M888.88-234.91c-0.2,0.89-0.02,2.05,0.89,1.93c5.19-0.69,10.42-1.31,15.51-2.49
	c7.61-1.76,9.51-4.14,10.58-11.81c1.72-12.4,10.7-20.74,23.39-21.53c2.73-0.17,5.37-1.49,8.6-0.62c-1.89,1.23-3.61,2.16-5.12,3.35
	c-6.17,4.9-6.33,10.8-0.38,15.95c2.13,1.85,4.52,3.39,6.77,5.1c6.31,4.82,9.48,11,8.06,19.07c-1.54,8.8,1.29,15.56,8.81,20.59
	c5.69,3.81,10.7,8.49,14.87,13.96c6.06,7.94,5.64,17.58-0.9,25.09c-2.54,2.92-5.03,3.7-7.74,0.21c-0.91-1.17-2.25-2.06-2.99-3.31
	c-7.61-13-19.65-18.19-33.93-18.43c-15.46-0.25-30.42,2.93-44.44,9.62c-17.23,8.22-35.36,10.3-54.06,8.18
	c-10.27-1.17-17.23-13.61-14.19-24.58c2.92-10.53,9.97-17.78,18.89-23.49c12.4-7.94,26.48-10.96,40.64-13.71
	c0.89-0.17,1.8-0.26,2.68-0.4C886-233.35,886.68-235.29,888.88-234.91z"/>
<path class="st2" d="M252.44,127.51c12.94-5.82,26.31-10.36,39.86-14.38c17.98-5.33,36.48-7.18,55.08-7.82
	c69.12-2.38,138.26-2.79,207.39-0.94c36.8,0.99,73.59,2.28,110.36,3.96c33.93,1.55,67.82,3.8,101.73,5.77
	c1.17,0.07,2.9-0.65,3.14,1.44c1.32,11.15,9.16,19.47,12.82,29.6c2.23,6.17,2.37,6.54-3.98,7.36c-30.72,3.95-52.38,21.39-68.64,46.4
	c-20.26,31.16-37.39,64.11-54.3,97.15c-15,29.3-29.38,58.92-39.21,90.48c-0.93,3-1.81,6.03-2.44,9.1
	c-1.35,6.55,1.71,10.87,8.29,12.43c10.04,2.39,19.86-0.15,29.73-1.19c13.54-1.43,27.08-3.02,40.58-4.81
	c19.74-2.63,39.49-5.19,59.14-8.36c23.39-3.77,46.78-7.57,69.98-12.44c4.12-0.86,2.98,1.84,2.66,3.76
	c-2.4,14.47-3.58,29.05-3.68,43.71c-0.13,18.86,3.09,37.41,5.4,56.04c0.22,1.81,0.4,3.63,0.6,5.45c1.21,11.12,1.19,11.05-9.64,13.7
	c-51.23,12.54-102.46,25.11-153.68,37.7c-2.88,0.71-5.12,1.49-5.59-3.05c-2.98-28.98-10.95-56.8-20.46-84.2
	c-3.52-10.14-7.65-20.07-11.23-30.2c-1.09-3.1-2.64-3.83-5.76-2.78c6.3,16.5,12.44,32.89,17.71,49.59
	c7.15,22.64,12.31,45.68,15.47,69.2c0.48,3.53-1.23,4.14-3.9,4.77c-19.3,4.6-38.58,9.31-57.88,13.92c-1.84,0.44-3.52,0.86-4.88,3.23
	c13.57-3.27,26.65-6.43,39.73-9.57c8.2-1.97,16.44-3.8,24.59-5.95c2.11-0.56,2.73-0.1,2.84,1.8c0.24,4.32,0.64,8.64,0.64,12.96
	c0.06,85.15,0.07,170.3,0.09,255.44c0,7.09,0.83,7.83,7.56,6.1c41.78-10.76,83.55-21.56,125.32-32.36
	c13.28-3.43,26.56-6.91,39.85-10.33c0.94-0.24,1.96-0.19,3.19-0.3c0,7.45-0.25,14.78,0.11,22.09c0.17,3.56-2.42,3.18-4.12,3.6
	c-26.32,6.53-52.68,12.88-79.01,19.35c-39.02,9.59-78.02,19.24-117.03,28.85c-1.49,0.37-3.76-0.05-3.27,2.47
	c0.47,2.4,1.96,2.66,4.49,2.03c43.17-10.7,86.38-21.22,129.58-31.81c21.84-5.35,43.67-10.74,65.49-16.17
	c2.72-0.68,4.24-0.56,4.34,2.95c0.18,6.82,0.57,13.65,1.32,20.42c0.47,4.17-0.6,6.2-4.94,7.21c-18.55,4.32-37.02,9.03-55.54,13.47
	c-38.8,9.31-77.28,19.9-115.94,29.73c-9.97,2.54-20.25,3.9-30.4,5.72c-6.05,1.09-11.78,3.31-18.14,5.29
	c1.37-9.44,2.78-18.43,3.48-27.51c1.43-18.57,3.37-37.11,4.59-55.7c1.45-21.94,1.69-43.95,0.99-65.92
	c-1.43-44.59-6.34-88.74-20.96-131.17c-9.28-26.94-22.64-51.65-44.45-70.88c-17.17-15.14-37.3-23.71-59.84-27.01
	c-10.92-1.6-21.9-0.84-32.84-1.21c-30.12-1.01-56.18,11.11-80.15,26.44c-23.69,15.15-42.93,35.67-58.54,59.86
	c-35.3,54.71-55.21,115.19-70.13,177.76c-8.84,37.12-14.94,74.75-19.85,112.56c-3.2,24.71-5.52,49.53-8.28,74.3
	c-0.52,4.62-1.42,9.2-1.84,13.83c-0.58,6.25-3.72,10.1-9.86,11.45c-15.19,3.34-30.35,6.8-45.57,9.95
	c-27.43,5.68-55.03,10.44-82.71,14.7c-24.6,3.79-49.3,6.9-73.95,10.39c-20.72,2.93-41.47,5.75-62.32,7.57
	c-23.09,2.02-46.26,1.9-69.41,0.87c-18.62-0.82-37.19-2.44-55.7-4.58c-18.97-2.19-37.94-4.5-56.85-7.16
	c-21.19-2.99-42.31-6.42-63.47-9.68c-29.65-4.56-59.12-10.06-88.54-15.89c-41.07-8.14-81.92-17.21-122.31-28.25
	c-32.21-8.81-64.14-18.56-94.54-32.65c-11.07-5.13-21.18-11.75-30.06-20.17c-5.96-5.66-13.53-7.64-21.29-8.67
	c-22.11-2.93-42.6-10.88-62.42-20.48c-45.23-21.91-87.54-48.27-123.62-83.74c-5.46-5.37-10.86-10.82-15.58-16.88
	c-6.78-8.71-6.51-15.47,1.18-23.39c8.99-9.26,20.47-14.53,32.09-19.55c4.65-2.01,11.99-2.06,13.36-6.16
	c1.29-3.85-2.61-9.46-4.3-14.27c-10.76-30.64-18.97-61.97-24.66-93.93c-2.1-11.8-2.51-23.81-0.91-35.8
	c2.42-18.01,13.42-30.39,27.19-40.66c35.05-26.12,71.92-49.51,109.31-72.11c79.04-47.76,160.44-91.23,242.54-133.42
	c20.36-10.47,41.71-18.51,64.44-22.31c15.09-2.52,30.28-4.27,45.52-5.42c51.2-3.86,102.5-4.52,153.81-3.99
	c17.14,0.18,34.24,1.13,51.25,3.53c4.92,0.69,9.97,0.83,14.91-0.34c2.01-0.48,3.82-0.28,5.75,0.61c16.5,7.64,34.27,9.92,52.05,12.04
	c18.31,2.19,36.63,4.31,54.94,6.44c16.01,1.86,32.01,3.81,48.03,5.53c19.01,2.04,38.03,3.93,57.06,5.76
	c15.89,1.53,31.8,2.87,47.7,4.3c17.06,1.54,34.12,3.15,51.18,4.63c17.4,1.51,34.81,2.93,52.22,4.33c19.9,1.61,39.8,3.2,59.71,4.72
	c15.1,1.15,30.21,2.23,45.32,3.27c23.58,1.62,47.16,3.21,70.75,4.75c17.11,1.11,34.22,2.25,51.35,3.14
	c23.94,1.24,47.89,2.48,71.8,3.95c24.95,1.53,42.61-8.52,56.01-28.32c18.24-26.96,33.69-55.54,48.53-84.44
	c13.9-27.07,26.92-54.59,36.49-83.56c2.49-7.54,4.49-15.25,4.63-23.32c0.13-7.36-3.34-12.26-9.87-15.25
	c-6.16-2.83-12.83-3.52-19.41-3.83c-32.59-1.51-65.03-5.24-97.6-6.92c-30.27-1.56-60.55-2.92-90.83-4.19
	c-49.77-2.08-99.59-2.69-149.38-3.84C293.53,128.72,273.03,128.95,252.44,127.51z M-754.48,597.13c-0.1-0.27-0.29-0.45-0.55-0.55
	c-0.46-0.47-0.92-0.95-1.38-1.42c-0.36-0.34-0.71-0.69-1.07-1.03c-0.11-0.21-0.27-0.37-0.48-0.47c-0.6-0.6-1.19-1.2-1.79-1.8
	c-0.32-0.34-0.65-0.68-0.97-1.02c-1.17-1.53-2.35-3.05-3.52-4.58c-1.16-1.47-2.32-2.94-3.48-4.41
	c-7.35-11.2-11.26-23.81-14.57-36.68c0.83,13.96,5.89,26.27,13.79,37.49c1.17,1.48,2.35,2.96,3.52,4.44
	c1.22,1.55,2.43,3.1,3.65,4.65c0.1,0.28,0.29,0.47,0.56,0.57c0.59,0.6,1.18,1.2,1.77,1.8c0.33,0.34,0.65,0.68,0.98,1.02
	c0.33,0.34,0.65,0.68,0.98,1.02c0.33,0.33,0.67,0.67,1,1c0.33,0.33,0.67,0.67,1,1c0.33,0.33,0.66,0.67,1,1
	c0.34,0.33,0.68,0.65,1.02,0.98c0.43,0.46,0.85,0.91,1.28,1.37c11.57,10.95,24.91,19.34,39.06,26.42
	c41.33,20.68,85.67,31.13,131,38.04c32.92,5.02,66.11,7.4,99.33,8.88c43.44,1.93,86.91,2.87,130.39,3.1
	c49.65,0.27,99.28-0.77,148.89-2.94c27.61-1.2,55.23-2.4,82.81-4.24c31.03-2.08,62.06-4.36,93-7.65
	c26.11-2.78,52.27-5.13,78.32-8.32c30.8-3.77,61.58-7.74,92.25-12.62c37.63-5.99,74.91-13.51,111.48-24.27
	c16.65-4.9,33-10.69,49.1-17.17c2.36-0.95,4.6-1.83,1.83-4.72c-1.66-1.72-3.09-0.06-4.43,0.47c-14.58,5.82-29.37,11.03-44.4,15.58
	c-60.5,18.32-122.84,27.08-185.19,35.74c-24.35,3.38-48.78,6.16-73.28,8.3c-25.02,2.18-50,4.76-75.04,6.68
	c-23.06,1.77-46.19,2.77-69.27,4.31c-34.9,2.33-69.86,3.56-104.81,4.67c-44.3,1.41-88.62,1.55-132.94,1.33
	c-48.3-0.24-96.58-0.91-144.76-5.05c-33.44-2.87-66.69-6.96-99.45-14.22c-44.29-9.81-86.84-23.89-122.84-53.03
	c-0.59-0.58-1.19-1.16-1.78-1.74c-0.32-0.31-0.64-0.63-0.96-0.94C-753.8,597.78-754.14,597.46-754.48,597.13z M-809.92,650
	c0.24,0.4,0.47,0.79,0.71,1.19c0.49,0.26,0.97,0.52,1.46,0.78c-0.54-0.23-1.07-0.46-1.59-0.7c0.94-0.64,0.55-1.22-0.08-1.78
	c-0.38-0.46-0.71-1.22-1.37-0.33C-810.82,649.2-810.22,649.71-809.92,650z M-188.43,963c9.12-0.13,17.44-0.44,25.64-1.97
	c6.35-1.18,8.2-4.63,6.25-10.82c-1.36-4.33-3.69-8.13-6.27-11.8c-6.31-8.97-12.73-17.86-18.98-26.86
	c-25.63-36.89-55.6-70.49-81.52-107.17c-1.99-2.82-4.7-5.17-7.25-7.56c-3.62-3.4-8.05-5.32-12.94-5.78
	c-5.96-0.57-11.95-0.99-17.93-1.09c-35.15-0.59-70.24,1.91-105.38,2.2c-64.27,0.53-128.52,2.72-192.73,5.69
	c-16.95,0.78-33.67,3.11-49.96,8.04c-1.63,0.49-4.3,0.49-3.58,2.96c0.68,2.32,3.14,1.3,4.77,0.81c18.62-5.57,37.76-7.09,57.04-7.79
	c3.73-0.14,4.74,0.6,4.55,4.53c-0.61,12.18,0.67,24.24,4.43,35.89c12.26,37.99,38.15,62.61,75.35,75.64
	c39.04,13.68,80.14,17.41,120.63,23.96c16.38,2.65,32.89,4.49,49.37,6.45c17.15,2.04,34.34,3.8,51.51,5.61
	c14.21,1.5,28.46,2.68,42.65,4.39C-224.45,960.55-206.1,962.4-188.43,963z M-688.78,707.69c0.35,1.32,1.04,1.22,1.67,1.36
	c30.29,6.83,60.96,11.36,91.77,14.85c31.25,3.54,62.64,5.65,94.06,6.96c45.77,1.9,91.58,2.88,137.39,2.01
	c32.13-0.61,64.26-1.48,96.34-3.72c21.74-1.52,43.53-2.53,65.25-4.33c22.86-1.89,45.68-4.29,68.49-6.75
	c23.77-2.56,47.55-5.14,71.26-8.29c26.8-3.56,53.52-7.77,80.28-11.68c30.84-4.5,61.54-9.81,92.2-15.38
	c44.13-8.02,88.12-16.81,131.88-26.71c11.92-2.7,23.82-5.49,35.92-8.29c-1.77-3.01-3.85-3.01-6.36-2.41
	c-39.61,9.4-79.4,17.92-119.33,25.84c-51.05,10.13-102.34,18.87-153.8,26.58c-31.02,4.65-62.12,8.68-93.27,12.43
	c-29.37,3.54-58.76,6.83-88.21,9.55c-30.31,2.8-60.68,5.07-91.06,6.97c-40.73,2.55-81.53,3.71-122.33,3.85
	c-41.47,0.14-82.93-1.12-124.32-3.76c-14.11-0.9-28.19-2.23-42.26-3.58c-17.03-1.64-34.07-3.35-51.06-5.32
	c-17.31-2.01-34.59-4.3-51.87-6.6C-673.65,710.25-681.11,708.9-688.78,707.69z M-245.45,625.06c1.36,0,2.31,0.06,3.26-0.01
	c13.94-0.96,27.87-2.09,41.82-2.87c34.04-1.9,68.08-3.65,101.93-8.05c24.01-3.12,47.69-7.67,70.89-14.69
	c43.52-13.18,84.53-32.23,124.81-53.04c20.2-10.43,40.49-20.7,57.86-35.7c9.24-7.98,8.62-14.53-1.9-20.57
	c-2.14-1.23-4.43-2.23-6.71-3.2c-8.69-3.7-17.7-6.45-26.87-8.58c-28.48-6.63-56.79-7.51-84.8,2.61
	c-16.96,6.12-33.79,12.57-49.84,20.78c-76.07,38.88-151.55,78.87-226.77,119.34C-243.2,621.85-244.86,622.42-245.45,625.06z
	 M-175.18,1001.86c10.71,0.51,20.84-0.52,30.96-1.26c21.72-1.6,43.42-3.62,65.11-5.65c17.37-1.62,34.74-3.36,52.07-5.32
	c21.12-2.39,42.22-5.04,63.32-7.62c22.25-2.72,44.51-5.3,66.73-8.28c27.96-3.74,55.86-7.87,83.81-11.67
	c3.06-0.42,4.29-1.33,4.37-4.55c0.97-36.6,2.7-73.14,6.72-109.57c2.58-23.35,7.56-45.99,15.88-67.95
	c11.01-29.09,26.24-56.03,41.5-82.98c0.81-1.44,3.4-3.38,0.69-4.89c-2.51-1.4-3.72,1.1-4.78,3.02c-4.12,7.38-8.16,14.8-12.4,22.11
	c-26.76,46.2-44.63,95.14-47.79,149c-1.74,29.56-3.35,59.14-4.89,88.71c-0.21,3.94-1.86,4.73-4.93,4.9
	c-16.94,0.94-33.67,3.6-50.45,5.87c-26.81,3.64-53.66,6.99-80.52,10.29c-32.64,4.01-65.28,7.98-97.95,11.7
	c-26.24,2.99-52.53,5.59-78.8,8.33c-24.25,2.53-48.52,2.73-72.8,0.52c-1.85-0.17-4.11-0.83-4.47,1.59
	c-0.47,3.14,2.52,2.58,4.23,2.69C-191.29,1001.38-183,1002.51-175.18,1001.86z M385.57,379.99c-0.26-2.12-1.84-2.13-3.62-1.84
	c-3.6,0.59-7.2,1.24-10.82,1.71c-31.24,4.06-62.16,9.96-92.94,16.52c-46.74,9.96-93.11,21.53-139.35,33.58
	c-84.15,21.92-167.29,47.05-248.27,78.96c-45.32,17.86-89.82,37.4-131.41,63.01c-1.41,0.87-2.81,1.75-4.19,2.66
	c-1,0.65-1.18,1.6-0.65,2.59c0.44,0.82,1.39,1.08,2.17,0.84c1.23-0.39,2.45-0.95,3.55-1.64c32.16-19.94,65.92-36.73,100.74-51.45
	C-72,496.5-2.49,474.75,67.38,454.06c66.12-19.58,133.01-36.2,200.43-50.68c28.32-6.08,56.67-12.13,85.35-16.42
	c9.35-1.4,18.71-2.71,28.04-4.24C382.79,382.47,385.09,382.76,385.57,379.99z M50.75,862.8c20.88-2.03,40.41-4.58,59.66-9.27
	c14.82-3.61,26.12-11.65,34.84-23.93c11.36-15.99,23.02-31.76,34.37-47.76c17.4-24.53,34.66-49.16,51.95-73.78
	c0.85-1.21,2.84-2.35,1.01-4.21c-1.36-1.39-2.92-2.09-4.89-1.07c-0.72,0.37-1.58,0.47-2.37,0.7c-26.35,7.58-52.08,17.47-78.93,23.13
	c-25.64,5.4-43.18,19.65-54.13,43.04C78.44,799.21,63,827.95,48.43,857.12C46.76,860.47,48.2,862.73,50.75,862.8z M180.01,863.37
	c0.13-2.52,0.19-4.81-3.23-4.29c-9.35,1.42-18.69,2.84-28.04,4.26c-16.56,2.52-33.11,5.02-49.67,7.56
	c-14.57,2.23-29.19,3.97-43.54,7.64c-9.26,2.37-15.29,6.79-19.58,15.74c-9.93,20.74-21.09,40.9-31.67,61.34
	c-0.85,1.64-2.71,3.43-1.14,5.45c1.44,1.85,3.34,0.43,5.06,0.12c4.24-0.75,8.49-1.48,12.75-2.17
	c36.95-5.97,73.71-12.86,110.22-21.12c15.05-3.4,28.34-9.25,35.77-24.08C174.95,897.86,178.19,880.7,180.01,863.37z M-777.34,780.71
	c-2.36,0.58-2.16,2.93-2.48,4.62c-2.86,15.12-5.41,30.3-8.52,45.37c-0.75,3.62-0.01,5.07,3.23,6.25
	c46.19,16.92,92.35,33.92,138.54,50.81c1.23,0.45,2.76,1.82,4.15,0.45c1.5-1.47-0.14-2.84-0.66-4.04
	c-6.96-16.07-14.15-32.04-21.02-48.14c-2.57-6.01-6.6-9.9-12.65-12.46c-32.4-13.71-64.7-27.66-97.04-41.51
	C-774.84,781.61-775.94,781.24-777.34,780.71z M622.23,502.49c0.62-0.52,2.69,0.22,2.63-1.68c-0.05-1.57-1.87-1.54-3.08-1.79
	c-19.01-3.94-38.17-7.11-57.49-8.92c-30.06-2.81-60.11-3.21-90.17,0.69c-24.26,3.15-47.83,8.67-70.4,18.16
	c-26.57,11.18-49.74,27.2-68.83,48.92c-0.85,0.97-2.95,2.05-1.29,3.61c1.37,1.29,3.12,0.57,4.39-0.8c0.56-0.61,1.12-1.23,1.67-1.86
	c19.65-22.21,43.62-38.12,71.11-48.95c28.83-11.36,58.87-16.45,89.69-18.15c31.9-1.76,63.47,0.93,94.91,5.97
	C604.2,499.11,612.98,500.83,622.23,502.49z M-705.28,545.86c0.35,1.86,1.95,2.64,3.1,3.72c13.79,13.04,29.8,22.76,47.06,30.31
	c49.7,21.74,102.13,32.12,155.94,35.95c21.74,1.55,43.6,1.25,65.4,0.12c2.2-0.11,4.4-0.44,6.6-0.67c-0.03-0.4-0.06-0.81-0.09-1.21
	c-2.39,0-4.8-0.13-7.18,0.02c-31.04,1.91-62.04,1.37-92.91-2.37c-30.62-3.71-60.67-10.12-90.03-19.73
	c-30.47-9.97-59.54-22.39-82.99-45.21C-701.72,545.51-703.26,544.53-705.28,545.86z M-807.78,751.05c0.32,0.71,0.58,1.31,0.85,1.91
	c4.28,9.47,8.56,18.94,12.82,28.43c0.69,1.53,1.37,3.63,3.35,2.74c2.25-1,0.54-2.84-0.07-4.22c-3.99-9.06-8.03-18.09-12.08-27.13
	c-0.6-1.33-1.07-2.78-2.75-3.27C-807.22,749.05-807.82,749.62-807.78,751.05z M-811.19,648.09c0.04-0.28,0.22-0.66,0.1-0.83
	c-7.65-10.36-13.44-21.63-16.81-34.11c-0.5-1.85-1.59-3.13-3.77-3.18C-830.61,620.47-818.9,642.17-811.19,648.09z"/>
<path class="st0" d="M-123.58,317.61c27.62-22.79,58.53-38.95,89.18-55.37c88.12-47.19,177.81-91.13,270.49-128.78
	c2.69-1.09,5.34-1.47,8.21-1.4c59.61,1.43,119.24,2.55,178.84,4.3c39.95,1.17,79.88,2.94,119.8,4.94
	c31.08,1.56,62.13,3.82,93.18,5.95c9.61,0.66,19.19,1.86,28.78,2.88c10.14,1.08,13.72,6.68,11.7,17.65
	c-2.02,10.95-5.38,21.46-9.63,31.73c-20.28,48.9-43.53,96.26-73.02,140.36c-6.2,9.28-13.19,17.97-20.84,26.11
	c-7.11,7.56-15.38,12-26.2,12.31c-20.19,0.58-40.26-0.64-60.36-2.04c-17.77-1.23-35.55-2.16-53.33-3.29
	c-24.08-1.54-48.16-3.13-72.24-4.73c-15.94-1.06-31.88-2.1-47.81-3.29c-20.24-1.51-40.47-3.15-60.7-4.75
	c-17.41-1.38-34.82-2.76-52.22-4.23c-18.06-1.52-36.12-3.14-54.17-4.72c-16.23-1.42-32.47-2.77-48.69-4.31
	c-18.86-1.79-37.71-3.72-56.56-5.67c-16.53-1.71-33.05-3.48-49.56-5.32c-16.02-1.78-31.99-3.91-48.05-5.34
	c-15.86-1.41-31.73-2.98-47.28-6.68C-110.63,322.38-117.11,320.53-123.58,317.61z"/>
<path class="st2" d="M1133.87,435.25c-4.33,0.07-4.44,3.11-4.72,5.6c-2.37,21.12-6.79,41.85-12.31,62.32
	c-10.92,40.52-22.2,80.94-33.35,121.4c-0.25,0.89-0.73,1.72-1.06,2.46c-1.21-0.09-1.31-0.76-1.23-1.39
	c2.95-23.54-2.31-46.32-6.72-69.11c-6.87-35.42-14.21-70.76-21.38-106.12c-0.58-2.85,0.27-3.81,3.29-4.59
	c64.97-16.79,129.97-33.47,194.51-51.84c45.92-13.07,92.29-24.58,137.86-38.89c15.32-4.81,30.14-10.92,44.45-18.21
	c1.68-0.86,3.79-1.31,4.8-3.27c-0.96-1.15-1.81-0.34-2.59,0.08c-27.48,14.73-57.34,22.82-87.13,31.05
	c-61.32,16.94-122.43,34.64-184.02,50.61c-36,9.33-71.97,18.77-107.9,28.34c-3.91,1.04-4.74-0.48-5.36-3.67
	c-5.5-27.94-11.23-55.83-16.54-83.8c-1.95-10.26-2.81-20.72-4.44-31.05c-0.57-3.64,1.92-4.07,4.12-5.03
	c24.29-10.57,48.33-21.65,70.71-35.96c8.11-5.18,16.43-10.16,23.4-16.92c8.05-7.81,8.06-13.76-0.13-21.57
	c-9.83-9.37-22.06-15.33-33.36-22.57c-8.51-5.45-17.42-10.27-26.26-15.18c-2.46-1.37-3.53-2.95-3.54-5.82
	c-0.03-8.31-2.07-16.4-3.44-25.34c12.03,5.81,23.44,11.27,34.81,16.81c33.02,16.07,66.84,30.43,99.98,46.22
	c24.98,11.9,51.11,15.63,78.56,16.58c45.62,1.58,91.08,6.01,134.56,21.66c12.34,4.44,24.1,10.1,35.27,17.04
	c18.23,11.32,27.03,28.27,29.1,49.02c4.1,41.07,2.06,82.16,0.28,123.27c-1.03,23.95-2.78,47.85-4.34,71.77
	c-0.33,5.04-0.47,10.16-2.58,15.28c-2.53-32.08-6.73-63.51-17.08-93.84c-5.44-15.96-11.91-31.48-23.3-44.03
	c-8.52-9.38-19.86-13.81-32.88-12.18c-4.78,0.6-9.51,1.64-14.23,2.64c-11.01,2.32-20,7.76-26.84,16.89
	c-6,8.01-10.98,16.51-15.83,25.3c-24.23,43.92-36.79,91.44-45.32,140.38c-4.72,27.13-9.19,54.29-12.58,81.61
	c-1.98,15.98-4.48,31.96-4.31,48.14c0.03,3.24-1.36,4.9-4.18,6.52c-11.17,6.43-23.27,9.56-35.88,11.28
	c-14.68,2.01-29.24,4.66-43.35,9.35c-14.28,4.75-29.22,6.5-43.94,9.02c-17.05,2.92-33.28,7.92-48.97,15.02
	c-6.25,2.83-6.25,2.6-6.55-4.16c-0.25-5.82-0.63-11.64-1.27-17.42c-0.28-2.55,0.38-3.43,2.88-4.04
	c51.56-12.58,103.1-25.26,154.64-37.91c0.32-0.08,0.81,0.05,0.97-0.14c1.29-1.46,5.33,0.47,4.55-3.03
	c-0.79-3.58-3.98-2.16-6.23-1.61c-52.18,12.79-104.35,25.64-156.53,38.47c-0.15,0.04-0.33-0.04-0.87-0.1
	c-0.69-7.32-1.19-14.74-2.15-22.11c-0.53-4.08,0.83-5.63,4.82-6.59c15.59-3.75,31.08-7.9,46.6-11.9c0.45-0.12,1.04,0,1.12-1.08
	c-7.55,0.6-14.79,2.58-22.06,4.44c-9.12,2.35-18.27,4.61-27.35,7.14c-3.22,0.9-3.9-0.03-4.14-3.15
	c-1.38-17.73-3.22-35.41-5.66-53.03c-0.38-2.78-0.35-5.5,0.44-8.36c13.63-49.38,27.19-98.78,40.63-148.21
	c5.18-19.04,8.69-38.43,11.49-57.95C1134.05,438.38,1133.87,436.87,1133.87,435.25z M1207.33,270.93
	c-11.41,0.29-22.06,2.34-32.34,6.43c-2.9,1.15-3.68,2.36-2.16,5.49c12.39,25.4,24.65,50.86,36.79,76.37
	c1.95,4.09,4.07,3.7,6.83,1.26c9.63-8.52,18.28-17.92,25.34-28.71c3.27-5,5.91-10.31,7.67-16.06c4.61-15.04-0.91-29.62-14.4-37.72
	C1226.42,272.81,1216.82,271.34,1207.33,270.93z M1156.11,694.67c2.13,0.71,3.38,0.27,4.64-0.06c7.07-1.83,7.07-1.83,7.07-9.33
	c-0.03-26.96-0.07-53.93-0.1-80.89c0-2.66-0.35-5.38,0.11-7.95c0.5-2.75,4.36-2.02,5.83-4.35c-1.81-0.34-3.27,0.4-4.67,0.38
	c-5.29-0.06-6.45,2.48-6.28,7.4c0.38,10.97,0.1,21.97,0.12,32.96c0.03,15.64-0.09,31.27,0.89,46.9
	C1164.08,685.47,1163.51,691.56,1156.11,694.67z M1286.15,571.71c-0.07-0.61-0.15-1.22-0.22-1.82
	c-33.81,6.53-67.61,13.06-101.42,19.59C1218.74,585.48,1252.27,577.62,1286.15,571.71z"/>
<path class="st2" d="M884.14,304.86c-1.61-3.24-3.56-2.46-5.88-1.26c-8.47,4.38-17.23,6.95-26.9,4.26c-3-0.84-3.84-1.75-2.78-5.05
	c2.07-6.48,3.73-13.12,4.97-19.8c0.6-3.25,1.57-3.58,4.39-2.66c17.56,5.74,35.46,10.13,53.69,13.17c10.36,1.73,20.96,1.8,31.22,3.61
	c9.28,1.64,18.42,2.47,27.54,0.86c9.87-1.75,19.89-1.79,29.73-3.44c7.57-1.27,14.65-4.04,21.84-8.56c0.72,8.63,1.36,16.35,2.04,24.6
	c-6-1.37-10.31-4.79-14.47-8.5c-1.15-1.03-2.35-3.22-4.03-1.43c-1.7,1.81,0.67,2.91,1.72,3.94c4.08,4.01,8.79,7.16,14.19,9.06
	c2.25,0.79,3.15,1.98,3.32,4.26c3.21,42.12,13.66,82.98,21.9,124.22c9.02,45.16,19.72,89.98,26.88,135.51
	c2.67,16.97,4.86,33.98,3.75,51.2c-1.5,23.09,1.9,45.86,3.97,68.74c2.35,25.87,4.61,51.75,6.64,77.65
	c2.98,38.02,5.71,76.05,8.62,114.07c0.13,1.64,0.02,2.8-1.28,3.95c-4.38,3.86-9.29,6.66-15.23,6.47c-6.5-0.21-12.76-2.18-19.12-3.41
	c-2.03-0.39-2.19-1.79-2.51-3.17c-12.79-55.38-30.16-109.55-43.74-164.72c-3.43-13.92-2.94-28.08-2.2-42.24
	c0.66-12.63,1.87-25.23,1-37.93c-1.06-15.6-6.28-30.22-10.1-45.17c-17.66-69.22-37.27-137.91-56.27-206.76
	c-0.85-3.09-1.13-7.17-5.46-7.29c-4.38-0.12-6.79,3.1-8.29,6.84c-1.05,2.64-1.37,5.45-1.47,8.31c-1.97,52.93-3.96,105.87-5.98,158.8
	c-1.72,45-7.53,89.54-15.27,133.86c-8.66,49.64-18.56,99.08-25.31,149.04c-2.5,18.48-4.76,37-5.48,55.65
	c-0.19,4.84-2.31,6.22-6.58,6.47c-4.81,0.28-9.27-0.47-13.37-3.06c-2.95-1.87-5.71-4.25-8.91-5.47c-6.7-2.55-7.58-7.64-8.08-13.91
	c-1.94-24.24-3.84-48.47-5.2-72.75c-2.11-37.53,0.44-74.54,11.04-110.74c5.95-20.3,5.03-40.79,2.81-61.41
	c-6.74-62.56-16.58-124.71-24.35-187.14c-3.56-28.59-0.79-56.8,4.27-84.95c3.41-19.01,7.92-37.71,14.17-56
	c1.08-3.16,1.98-4.37,5.42-3.07C862.68,313.91,873.49,311.16,884.14,304.86z"/>
<path class="st2" d="M828.95,503.17c3.71,30.34,7.32,60.34,11.08,90.32c2.77,22.07,6,44.09,8.55,66.19
	c2.03,17.6-1.27,34.75-6.04,51.62c-5.7,20.14-10.65,40.4-10.84,61.49c-0.03,3.7-1.66,4.95-5.08,5.82
	c-53.8,13.69-107.59,27.45-161.31,41.45c-4.81,1.25-5.33,0.21-5.33-4.24c0.12-78.82,0.11-157.64,0.07-236.46
	c-0.01-10.32,0.54-20.66-0.89-30.95c-0.29-2.06-0.37-3.72,2.5-4.41C717.19,530.52,772.71,516.92,828.95,503.17z"/>
<path class="st2" d="M598.78,753.16c0.25,26.61,0.1,52.44-0.96,78.24c-0.83,20.3-5.46,39.99-11.83,59.27
	c-8.28,25.05-19.06,48.97-31.84,72.05c-19.02,34.36-47.79,55.49-85.68,65.26c-41.48,10.69-83.57,13.24-126.13,11.44
	c-26.3-1.11-52.61-1.8-78.94-1.75c-3.91,0.01-7.55,1.36-11.74,0.61c-7.31-1.3-12.58-4.86-16.54-10.78
	c-7.56-11.29-11.27-24.19-12.25-37.35c-0.47-6.3,2.51-13.15,3.49-19.87c2.67-18.41,4.71-36.89,6.82-55.37
	c3.38-29.68,6.57-59.41,12.06-88.8c8.02-42.96,18.16-85.39,32.77-126.66c9.24-26.09,20.07-51.46,33.78-75.54
	c1.19-2.09,1.93-4.41,5.05-4.8c1.88-0.23,2.6-2.48,3.31-4.14c12.12-28.13,33.8-48.31,57.64-65.75
	c21.39-15.64,46.42-23.59,72.62-28.89c19.48-3.94,37.86-1.6,56.18,3.26c21.83,5.79,39.48,18.73,53.6,36.24
	c16.79,20.8,28.57,44.2,34.15,70.4c1.72,8.07,2.09,16.5,2.42,24.79C598.04,687.99,599.34,720.95,598.78,753.16z M289.95,813.98
	c0.82,17.62,1.85,37.2,4.92,56.64c4.44,28.17,13.7,54.42,29.75,78.19c37.19,55.08,111.83,71.83,169.3,31.85
	c30.6-21.29,53.17-48.84,68.14-82.82c17.01-38.63,22.57-79.51,23.8-121.22c0.45-15.33-1.14-30.62-1.31-45.92
	c-0.16-14.95-6.39-29.65-1.79-44.75c-3.02-10.22-2.05-21.38-6.72-31.13c-8.38-17.52-16.18-35.43-28.85-50.52
	c-5.67-6.76-11.73-13.24-16.84-20.4c-5.63-7.9-12.12-14.53-20.7-19.12c-7.19-3.85-14.27-7.92-21.49-11.71
	c-5.67-2.97-12.03-2.65-18.12-3.73c-11.03-1.95-21.8-2.38-32.57,0.28c-29.25,7.2-54.18,22.24-75.59,43.1
	c-25.4,24.74-41.72,55.07-52.96,88.36C294.6,723.54,289.74,767.4,289.95,813.98z"/>
<path class="st2" d="M850.86,263.69c-0.29,16.65-4.86,31.06-9.18,45.48c-6.55,21.9-11.84,44.08-15.61,66.61
	c-0.48,2.88-1.89,3.61-4.06,3.99c-28.07,4.96-56.1,10.09-84.3,14.28c-21.51,3.2-43.06,6.04-64.65,8.6
	c-13.37,1.59-26.77,2.91-40.18,4.01c-10.79,0.88-15.61-5.01-13.35-15.83c3.45-16.49,10.78-31.59,17.57-46.78
	c23.07-51.63,49.4-101.56,80.05-149.14c15.38-23.88,36.78-38.22,65.44-41.04c2.18-0.21,3.42-0.17,4,2.17
	c3.27,13.24,11.03,24.53,16.08,36.93c6.17,15.14,15.28,28.38,23.26,42.36c4.1,7.18,9.38,13.12,17.06,16.2
	C849.47,254.13,851.79,258.47,850.86,263.69z"/>
<path class="st2" d="M869.92-6.05c-3.91,11.91-1.58,24.63-5.79,36.6c-2.3,6.55,0.21,8.74,7.18,8.65c8.87-0.12,16.72-3.72,24.56-7.27
	c4.07-1.84,9.49-0.08,10.19,4.21c6.39,39.25,25.07,74.45,36.61,112c4,13.01,6.63,26.33,8.09,39.88c0.39,3.58,0.41,6.08-4.54,6.43
	c-20.59,1.45-40.4,7.07-60.33,11.99c-2.06,0.51-3.63,1.01-4.89-1.54c-16.23-32.76-32.83-65.35-42.96-100.72
	c-1.09-3.8-0.57-8.4-5.09-11.38c5.03,21.16,12.55,40.88,21.42,60.06c8.27,17.88,17.12,35.5,25.69,53.24
	c1.63,3.37,3.23,5.15,7.93,4.41c18.68-2.93,36.79-8.41,55.32-11.9c2.93-0.55,5.99-0.68,8.79-1.6c4.54-1.5,6.8,0.51,9.06,4.17
	c5.73,9.29,10.14,18.97,11.1,30c0.15,1.73,0.46,3.19-1.78,3.93c-26.68,8.82-52.53,20.14-80.01,26.54c-1.82,0.42-3.92,1.1-5.26-1.33
	c-0.59-1.06-1.92-1.18-3.11-1.31c-12.76-1.41-24.39-6.28-35.74-11.87c-6.9-3.39-11.76-8.89-16.11-15.22
	c-13.86-20.13-23.19-42.63-33.96-64.35c-3.66-7.38-5.45-15.69-8.08-23.58c-1.64-4.92-4.08-9.4-6.78-13.85
	c-3.23-5.31-3.74-11.53-5.13-17.51c-1.83-7.9-1.3-15.84-1.45-23.32c-0.32-16.04,5.76-30.77,17.65-42.47
	c8.4-8.26,18.43-14.09,28.69-19.61c11.53-6.2,23.41-11.79,33.66-20.16c4.01-3.28,7.7-6.86,11.26-10.61
	C867.08-4.56,867.68-6.22,869.92-6.05z"/>
<path class="st2" d="M1447.73,565.46c0.91,36.12-0.86,72.08-10.89,107.09c-5.49,19.17-12.38,37.75-25.23,53.48
	c-0.53,0.64-1.1,1.25-1.63,1.89c-15.72,19.03-31.02,15.44-47.95,1.58c-12.24-10.02-20.29-23.89-28.42-37.15
	c-5.46-8.9-6.7-20.01-8.51-30.43c-3.74-21.5-5.81-43.17-5.08-65.02c1.38-41.44,11.04-80.75,32.23-116.58
	c7.79-13.18,16.79-25.89,29.21-35.59c9.68-7.56,19.33-9.06,30.34-2.48c8.16,4.88,13.38,11.58,18.56,19.46
	c7.68,11.69,11.91,24.24,15.03,37.48c2.15,9.15,1.75,18.54,2.19,27.81C1448.18,539.8,1447.73,552.64,1447.73,565.46z"/>
<path class="st2" d="M1005.12,163.35c-10.04-2.68-14.57-0.96-20.05,7.23c-0.37,0.55-0.75,1.1-1.02,1.7
	c-5.56,12.29-15.36,18.64-28.96,20.23c-1.35-9.69-2.3-19.68-4.61-29.47c-5.62-23.91-15.23-46.43-23.82-69.3
	c-6.75-17.97-12.79-36.1-16.28-55.06c-0.72-3.91,2.02-4.2,3.47-6.06c1.86-2.37,3.11-0.4,4.51,0.33c5.26,2.74,10.18,6.17,16.16,7.4
	c6.96,1.43,10.73-2.12,9.21-9.06c-1.02-4.68-2.51-9.25-3.06-14.05c-0.66-5.73-0.83-5.55,4.88-3.79c7.56,2.33,13.94,7.06,21.15,10.08
	c7.09,2.97,14.38,5.21,21.9,6.73c10.16,2.05,18.22,7.13,23.23,16.44c3.02,5.61,8.63,9.24,11.23,15.21
	c6.94,15.95,12.89,32.24,17.57,48.98c6.98,24.96,14.17,49.88,18.71,75.42c2.75,15.48,2.74,31.14,0.36,46.68
	c-1.33,8.71-6.52,14.98-15.08,17.49c-28.02,8.2-56.44,13.68-85.88,11.78c-2.89-0.19-4.28-1.02-4.39-3.87
	c-0.1-2.49-0.44-4.99-0.3-7.46c0.18-3.13,1.44-5.16,4.96-6.39c13.87-4.86,27.57-10.18,39.98-18.27c6.32-4.12,12.22-8.69,16.81-14.72
	c8.89-11.68,8.37-25.3-2.08-38.88c-2.88-3.74-3.86-7.26-3.76-11.77c0.57-28.02-1.87-55.71-9.88-82.73
	c-0.28-0.95-0.52-1.91-0.87-2.83c-0.63-1.66-2.14-2.34-3.59-1.9c-1.81,0.55-0.95,2.31-0.62,3.42c3.37,11.29,5.67,22.79,7.37,34.43
	C1004.92,128.46,1005.35,145.71,1005.12,163.35z"/>
<path class="st2" d="M1008.96,659.79c-0.73,11.96-1.48,23.92-2.17,35.88c-0.61,10.5-0.43,20.96,2.05,31.25
	c0.8,3.33-0.16,4.91-3.65,5.79c-32.21,8.13-64.4,16.36-96.55,24.73c-3.71,0.97-3.8-0.05-3.29-3.2c4.98-30.26,9.76-60.55,14.74-90.81
	c3.43-20.83,6.06-41.75,7.6-62.79c1.42-19.42,2.28-38.89,3.27-58.34c1.06-20.79,2.01-41.58,2.91-62.37c0.1-2.36,0.73-3.44,3.24-3.98
	c7.27-1.57,14.51-3.37,21.66-5.41c2.85-0.81,3.57-0.19,4.33,2.63c10.5,39.1,21.22,78.14,31.75,117.23
	c4.47,16.59,9.8,32.97,12.49,50.01C1008.35,646.83,1009.09,653.27,1008.96,659.79z"/>
<path class="st2" d="M1402.55,741.44c-8.69,11.31-21.11,15.04-34.45,16.35c-16.49,1.63-32.9-0.5-49.29-2.07
	c-3.06-0.29-5.71-1.78-8-3.79c-7.14-6.24-12.85-13.39-15.39-22.82c-2.89-10.76-6.28-21.38-9.23-32.13
	c-3.65-13.31-3.13-26.75-1.12-40.27c3.7-24.92,7.41-49.84,12.9-74.45c8.94-40.04,18.31-80.12,36.2-117.23
	c7.87-16.33,16.48-32.94,31.69-44.73c17.19-13.32,38.93-14.12,56.18-1.1c3.96,2.99,6.51,7.06,9.05,11.16
	c10.88,17.58,16.28,37.21,20.61,57.11c7.59,34.85,10.87,70.23,11.96,105.83c0.65,21.17-6.12,40.77-13.29,60.25
	c-2.07,5.63-4.11,11.3-7.5,16.39c1.76-10.65,3.72-21.19,5.33-31.81c2.8-18.46,4.18-37.05,4.6-55.66
	c0.59-25.81,0.46-51.65-1.89-77.39c-1.51-16.53-6.42-31.99-15.4-46.19c-5.06-8-10.77-14.82-18.8-20.19
	c-17.72-11.85-35.26-5.02-45.97,7.44c-21.01,24.45-36.55,51.99-45.81,82.96c-9.34,31.26-12.02,63.28-9.86,95.66
	c1.54,23.04,5.89,45.67,13.9,67.44c6.43,17.48,16.72,32.29,31.35,43.98c6.82,5.45,14.7,8.39,23.25,9.43
	c4.54,0.55,8.61-1.97,12.9-3.06c1.74-0.44,3.38-1.3,5.07-1.97C1401.88,740.86,1402.21,741.15,1402.55,741.44z"/>
<path class="st2" d="M846.95,923.99c2.17,0.02,3.27,1.45,4.66,2.24c5.55,3.15,11.5,6.77,17.73,5.74c9.02-1.5,10.97,3.1,13.79,10.12
	c6.1,15.19,16.28,28.14,25.83,41.34c10.23,14.15,20.73,28.13,27.38,44.47c2.32,5.7,4.55,11.47,4.59,17.74
	c0.04,5.57-2.66,8.27-8.17,8.49c-4.76,0.19-9.2-1.18-13.58-2.8c-24.02-8.89-43.26-23.81-57.15-45.43c-3.14-4.9-6.12-9.9-9.24-14.81
	c-3.5-5.51-7.59-10.44-12.81-14.51c-8.62-6.73-10.16-14.47-5.2-24.22c1.13-2.22,2.39-4.38,3.8-6.43
	C843.13,939.28,846.85,932.33,846.95,923.99z"/>
<path class="st2" d="M1058.65,949.04c0.98-10.44,2.01-20.87,2.92-31.31c0.24-2.69,1.83-1.73,3.17-1.39
	c5.33,1.36,10.67,2.5,16.21,2.66c7.42,0.21,14.18-1.68,20.14-6.1c1.82-1.35,2.93-1.96,4.67,0.25c4.36,5.52,10.38,8.64,16.94,10.93
	c18.92,6.6,38.71,9.53,58.16,13.88c8.91,2,17.75,4.34,26.62,6.53c0.16,0.04,0.31,0.13,0.47,0.16c5.05,0.95,11.32,4.6,11.07,7.84
	c-0.36,4.74-4.91,9.57-10.22,11.98c-2.45,1.11-5.09,1.43-7.77,1.6c-24.77,1.56-49.56,2.95-74.3,4.87
	c-11.1,0.86-22.11,2.8-33.16,4.29c-5.17,0.7-10.3,0.43-15.44-0.28c-12.31-1.7-18.63-8.51-19.27-20.89c-0.09-1.66-0.01-3.33-0.01-5
	C1058.79,949.05,1058.72,949.04,1058.65,949.04z"/>
<path class="st2" d="M1065.93,210.84c19.6,10.5,38.77,20.67,54.89,35.57c1.1,1.02,2.17,2.07,3.19,3.16
	c6.37,6.8,6.38,11.24-0.29,17.91c-10.08,10.09-22.06,17.58-34.51,24.3c-17.91,9.68-36.19,18.62-54.85,26.8
	c-3.3,1.45-4.91,1.72-5.22-2.63c-1.26-17.75-2.71-35.48-4.13-53.21c-0.18-2.26,0.15-3.38,2.91-3.94c6.95-1.42,13.77-3.47,20.63-5.3
	c9.77-2.6,14.21-9.41,15.5-19.05C1065.07,226.85,1065.3,219.22,1065.93,210.84z"/>
<path class="st2" d="M897.95,820.77c-2.73,0.65-3.01-0.35-2.67-2.31c1.31-7.68,2.6-15.37,3.63-23.09c0.31-2.31,1.32-2.95,3.37-3.45
	c37.27-9.07,74.52-18.19,111.74-27.46c2.55-0.64,3.26,0.09,3.81,2.18c1.7,6.39,3.27,12.82,5.29,19.1c0.79,2.46,0.2,3.25-2.01,3.71
	c-2.44,0.51-4.83,1.41-7.29,1.64c-24.77,2.35-48.07,9.95-71.02,19.16C928.29,816.09,913.16,819.9,897.95,820.77z"/>
<path class="st2" d="M900.12,787.54c1.37-8.2,3-15.33,3.6-22.54c0.32-3.9,2.03-4.97,5.24-5.78c28.84-7.33,57.65-14.76,86.47-22.17
	c3.52-0.9,7.05-1.77,10.54-2.77c2.69-0.77,4.28-0.32,4.88,2.83c1.17,6.17,2.54,12.31,4.1,18.39c0.71,2.8,0.4,3.83-2.79,4.59
	c-27.01,6.46-53.96,13.18-80.93,19.81C921.15,782.39,911.06,784.85,900.12,787.54z"/>
<path class="st2" d="M947.69,274.4c-0.67,6.02-1.26,11.14-1.79,16.27c-0.23,2.24-0.81,3.66-3.64,3.37
	c-29.03-2.92-57.41-8.93-85.19-17.83c-1.95-0.62-2.13-1.6-2.07-3.24c0.17-4.32,0.37-8.64,0.29-12.96c-0.06-3.12,1.75-2.15,3.24-1.7
	c5.87,1.75,11.33,4.65,17.44,5.85c12.17,2.38,23.98,0.7,35.25-3.66c7.86-3.04,15.14-4.07,22.76,0.01c1.59,0.85,3.4,1.29,5.13,1.87
	c2.8,0.93,7.23-0.36,8.28,2.12C948.68,267.58,947.69,271.64,947.69,274.4z"/>
<path class="st2" d="M960.35,293.23c-3.3-0.15-7.48,0.86-9.66-0.78c-2.23-1.67,0.28-5.8,0.31-8.89c0.05-4.65,0.91-9.32,0.67-13.94
	c-0.24-4.42,1.9-4.91,5.29-4.5c10.96,1.32,21.91,1.05,32.88,0.06c8.79-0.8,17.52-1.92,26.13-3.81c3.18-0.7,4.44-0.07,4.53,3.34
	c0.11,4.48,0.62,8.96,1.05,13.43c0.14,1.51-0.28,2.23-1.71,3.05c-9.71,5.54-19.95,9.02-31.26,8.94
	C979.06,290.05,969.95,293.89,960.35,293.23z"/>
<path class="st2" d="M989.33,226.71c-0.83-12.71-4.84-23.72-12.14-33.51c-0.7-0.93-2.08-1.89-0.13-3.2
	c4.87-3.27,7.31-8.47,10.24-13.28c3.38-5.55,7.35-10.99,14.58-10.33c7.31,0.67,10.64,6.58,13.06,12.85
	c6.53,16.93,3,29.03-11.69,39.53C999,221.82,994.59,224.67,989.33,226.71z"/>
<path class="st2" d="M860.02-107.16c-7.59-6.32-14.65-10.81-23.67-10.81c-2.21,0-2.53-1.94-3.2-3.34
	c-5.63-11.8-6.17-24.3-4.54-36.96c0.93-7.24,1.21-7.02,8.75-6.17c4.77,0.54,9.62,0.58,14.43,0.51c2.26-0.03,3.34,0.61,3.69,2.83
	C858.23-143.58,859.45-125.96,860.02-107.16z"/>
<path class="st2" d="M934.27,467.46c0.92-22.93,1.83-45.86,2.75-68.78c0.07-1.82-0.06-4.1,1.97-4.69c2.41-0.7,3.48,1.55,4.33,3.31
	c3.58,7.39,4.79,15.46,6.14,23.41c2.46,14.55,7.17,28.49,11.04,42.66c1.02,3.75,0.07,4.88-3.34,5.61
	c-5.97,1.28-11.96,2.62-17.78,4.43c-4.12,1.28-6.33,1.14-5.33-3.96c0.13-0.64,0.02-1.33,0.02-1.99
	C934.13,467.46,934.2,467.46,934.27,467.46z"/>
<path class="st2" d="M870.35,37.23c-3.87,0.4-5.35-1.4-4.01-4.74c3.66-9.13,3.49-18.82,4.62-28.33c0.02-0.16,0-0.34,0.03-0.5
	c0.91-4.39,1.53-9.65,6.13-11.18c4.67-1.55,7.21,3.27,9.8,6.31c4.31,5.05,8.17,10.49,12.38,15.63c1.46,1.78,1.94,3.19,0.41,5.17
	c-0.77,1-1.6,2.55-1.36,3.62c1.03,4.75-2.19,5.68-5.48,6.91C885.46,32.9,878.07,35.68,870.35,37.23z"/>
<path class="st2" d="M935.73,37.46c-6.57-0.81-12.06-5.04-18.06-8.09c-1.33-0.68-0.72-2.11-0.48-3.17c0.45-2.04,0.68-4.5-0.71-5.71
	c-3.91-3.44-1.21-5.64,1.05-7.88c3.98-3.96,8.04-7.86,12.24-11.58c1.3-1.15,3.11-1.96,4.82-2.36c3.26-0.76,5.53,0.67,4.59,4.16
	c-2.61,9.67-1,18.99,1.49,28.35C941.78,35.34,940.1,37.41,935.73,37.46z"/>
<path class="st2" d="M878.72,909.83c0,4.96-0.11,9.44,0.04,13.92c0.08,2.24-1.17,2.78-2.93,3.22c-10.66,2.67-19.52-1.5-27.94-7.32
	c-0.57-0.4-0.93-1.36-1.04-2.12c-0.76-5.24-1.43-10.49-2.27-16.83C855.37,908.05,865.49,915.22,878.72,909.83z"/>
<path class="st2" d="M1097.72,898.12c4.3,9.9,3.61,11.73-5.61,15.69c-9.95,4.28-19.59,1.25-29.19-1.43c-2.93-0.82-1.77-3.6-2-5.55
	c-0.86-7.24-0.79-7.24,6.33-5.6c2.75,0.63,5.52,1.14,8.26,1.81C1083.59,905.03,1091.02,903.92,1097.72,898.12z"/>
<path class="st2" d="M977.23,232.92c-2.09-14.39-7.84-26.15-16.37-37.02c3.28-0.95,6.22-1.75,9.12-2.67
	c1.95-0.61,3.06,0.3,4.16,1.75c6.88,9.13,10.7,19.34,11.23,30.78C985.63,231.31,980.39,229.98,977.23,232.92z"/>
<path class="st2" d="M908.4,32.18c-3.51,0.13-7.29-3.58-7.41-7.27c-0.12-3.54,3.33-7.65,6.45-7.67c3.6-0.02,7.49,3.46,7.47,6.68
	C914.88,27.66,911.4,32.07,908.4,32.18z"/>
<path class="st2" d="M871.23-9.28c4.31-7.28,4.26-7.22,9.56-3.42c4.05,2.9,7.94,6.25,12.4,8.28c7.17,3.27,7.45,9.23,7.55,15.65
	c-1.94,0.18-2.26-1.58-3.08-2.63c-3.81-4.84-7.55-9.72-11.78-14.22C882.03-9.7,878.15-12.97,871.23-9.28z"/>
<path class="st2" d="M959.05-111.24c0.26,1.85-0.65,3.84-2.72,5.33c-2.95,2.12-5.3,1.44-6.37-2.04c-0.86-2.8-2.11-5.87-0.04-8.47
	c1.34-1.69,3.91-3.78,5.73-2.84C958.07-118.02,958.89-114.87,959.05-111.24z"/>
<path class="st2" d="M909.89,16.43c0.36-6.09,2.25-10.3,4.11-14.37c0.59-1.29,3.1-3.31,5.26-0.86c1.48,1.68,4.13,2.99,0.61,5.64
	C916.54,9.34,913.8,12.61,909.89,16.43z"/>
<path class="st2" d="M949.7,248.33c0,3.14,0.09,6.26-0.05,9.38c-0.05,1.15,1.53,3.32-1.17,3.26c-1.93-0.05-4.48,0.45-5.35-2.3
	C941.14,252.36,942.97,249.47,949.7,248.33z"/>
<path class="st2" d="M937.91,259.09c-4.01-1.22-7.16-2.19-10.69-3.27c2.67-2.3,5.83-2.4,8.52-3.55c1.82-0.78,2.27,0.37,2.19,1.99
	C937.85,255.74,937.91,257.22,937.91,259.09z"/>
<path class="st2" d="M1401.54,740.57c0.36-0.14,0.73-0.27,1.1-0.41c-0.03,0.43-0.05,0.86-0.08,1.29
	C1402.21,741.15,1401.88,740.86,1401.54,740.57z"/>
<path class="st1" d="M937.91-56.14c1.24,0.3,1.79,0.3,2.17,0.55c1.55,1.03,0.6,4.38,2.69,4.2c3.06-0.27,6.02-1.68,9.03-2.58
	c1.53-0.45,0.94-1.37,0.61-2.31c-0.35-1.01-1.35-2.29,0.5-2.78c1.52-0.4,1.93,0.79,2.22,2.01c0.45,1.92,1.72,2.54,3.66,2.57
	c1.51,0.03,3.25,0.03,4.57,1.72c-2.06,1.73-4.42,0.12-6.47,1.39c0.5,1.81,0.9,3.75,1.58,5.58c0.43,1.15,0.47,1.91-0.79,2.31
	c-1.01,0.32-1.5-0.3-1.82-1.16c-0.29-0.77-0.81-1.53-0.86-2.31c-0.28-4.15-2.33-4.73-5.95-3.5c-5.39,1.83-5.45,1.67-3.47,9.03
	c-0.94,0.51-1.63-0.21-2.1-0.7c-1.41-1.48-0.91-4.96-3.44-4.89c-3.23,0.1-6.63,0.94-9.59,2.29c-2.6,1.19,0.77,3.7-0.27,5.57
	c-0.67,0.24-1.64,0.25-1.73-0.36c-1.1-7.15-7.57-5.42-11.85-6.96c-2.88-1.04-1.72,2.29-2.43,3.62c-0.51,0.97,0.83,3.14-1.58,2.81
	c-1.56-0.21-1.15-1.7-1.09-2.85c0.1-1.94,1.4-4.39-0.19-5.71c-2.51-2.09-5.49-3.8-8.54-4.99c-2.25-0.87-2.08,1.86-2.77,3.14
	c-0.44,0.8-0.49,2.15-1.81,1.67c-1.02-0.37-1.45-1.49-0.74-2.48c2.68-3.75,0.83-6.58-2.65-9.57c2.99-0.2,3.86,1.86,5.51,2.45
	c0.17-0.12,0.41-0.24,0.6-0.42c1.59-1.52,1.85-5.84,3.96-4.81c2.94,1.43-0.53,3.86-1.3,5.67c-0.8,1.88,0.08,2.43,1.22,3.1
	c2.39,1.39,4.84,2.69,7.67,4.24c0.22-1.17,0.34-1.76,0.43-2.36c0.23-1.58-0.07-4.11,1.96-3.96c2.5,0.18,1.23,2.79,0.98,4.07
	c-1.23,6.19,4.01,3.8,6.4,4.77c2.68,1.09,4.36-0.08,3.76-3.41c-0.16-0.88-0.81-2.62,1.17-2.58c1.14,0.02,1.29,1.24,1.69,2.17
	c0.57,1.31-1.19,3.79,1.64,3.9c3.03,0.11,6.18-0.58,8.48-2.34C940.35-51.39,938.21-53.75,937.91-56.14z"/>
<path class="st1" d="M917.57-106.08c-4.24-3.89-7.35-8.27-12.39-11.02c-0.62,4.32,1.05,8.66-2.06,12.12
	c-3.12,3.47-7.32,3.12-11.67,3.22c1.82,2.48,4.43,2.73,6.61,3.74c0.71,0.33,1.03,0.79,0.87,1.52c-0.19,0.85-0.88,0.75-1.55,0.78
	c-6.15,0.26-17.17-9.66-17.44-15.73c-0.24-5.28,5.27-10.48,11.83-11.4c9.38-1.31,16.44,2.77,22.32,9.49
	C915.67-111.55,918.57-110.28,917.57-106.08z M900.37-111.24c-0.06-6.22-2.03-9.58-5.52-9.42c-3.81,0.18-8.74,4.42-8.81,7.58
	c-0.09,3.87,4.2,7.29,9.07,7.43C899.07-105.54,900.4-107.7,900.37-111.24z"/>
<path class="st1" d="M927.87-68.46c1.94-1.09,3.62-0.45,5.43,0.56c8.22,4.55,16.87,2.91,23.32-4.07c1.89-2.05,2.02-3.31-0.41-4.97
	c-4.67-3.19-9.08-6.74-12.76-11.11c-6.87-8.14-10.3-18.02-14.19-27.68c-0.48-1.19-0.63-2.35,0.78-2.94
	c1.63-0.68,3.11-0.09,3.79,1.42c1.08,2.4,1.97,4.91,2.69,7.45c3.96,13.89,12.14,24.57,24.49,31.95c3.53,2.11,3.15,3.62,0.6,6.28
	c-9.62,10.05-21.84,12.37-31.73,5.72C928.97-66.46,927.73-66.85,927.87-68.46z"/>
<path class="st1" d="M871.88-138.05c2.51-10.17,8.58-16.49,20.72-13.49c6.65,1.64,12.86,5.03,19.27,7.64
	c1.59,0.64,2.66,2.08,2.01,3.48c-0.74,1.62-2.24,0.32-3.37-0.14c-5.03-2.07-9.93-4.52-15.09-6.17c-9.77-3.12-15.72,0.05-19.68,9.59
	c-0.42,1.01,0.23,3.69-2.22,2.93C872.07-134.67,871.63-136.41,871.88-138.05z"/>
<path class="st1" d="M942.41-138.19c3.55,1,6.16,1.79,8.81,2.47c7.63,1.97,10.54,0.94,15.14-5.44c0.73-1.02,1.27-1.96,2.65-0.9
	c1.22,0.93,2.32,1.71,1.49,3.63c-1.39,3.22-3.47,5.53-6.89,6.6C956.74-129.69,946.08-132.43,942.41-138.19z"/>
<path class="st1" d="M-188.43,963c-17.68-0.6-36.03-2.45-54.36-4.66c-14.19-1.71-28.44-2.89-42.65-4.39
	c-17.18-1.81-34.36-3.58-51.51-5.61c-16.48-1.96-32.99-3.8-49.37-6.45c-40.49-6.55-81.59-10.29-120.63-23.96
	c-37.2-13.03-63.09-37.65-75.35-75.64c-3.76-11.65-5.05-23.71-4.43-35.89c0.2-3.93-0.82-4.66-4.55-4.53
	c-19.28,0.7-38.43,2.22-57.04,7.79c-1.63,0.49-4.09,1.51-4.77-0.81c-0.72-2.47,1.95-2.47,3.58-2.96
	c16.29-4.93,33.01-7.25,49.96-8.04c64.21-2.97,128.46-5.16,192.73-5.69c35.15-0.29,70.23-2.79,105.38-2.2
	c5.98,0.1,11.97,0.52,17.93,1.09c4.89,0.47,9.33,2.38,12.94,5.78c2.54,2.39,5.25,4.74,7.25,7.56
	c25.92,36.68,55.89,70.28,81.52,107.17c6.26,9,12.67,17.9,18.98,26.86c2.58,3.66,4.91,7.47,6.27,11.8
	c1.94,6.19,0.09,9.64-6.25,10.82C-170.99,962.56-179.31,962.87-188.43,963z M-409.71,795.07c0,0.22-0.01,0.44-0.01,0.66
	c-41.8,1.14-83.59,2.21-125.39,3.44c-13.81,0.41-27.62,1.24-41.42,1.9c-1.91,0.09-4.17-0.43-4.3,2.72
	c-0.21,4.97-1.04,9.95-0.83,14.89c1.3,29.72,13.22,54.11,36.97,72.42c21.15,16.3,45.61,25.23,71.1,31.77
	c43.37,11.12,87.9,15.01,132.1,20.9c26.35,3.51,52.83,5.98,79.33,8.33c30.19,2.67,60.38,4.93,90.68,5.78
	c3.81,0.11,9.09,2.05,11.11-1.79c1.98-3.75-1.6-7.92-3.88-11.25c-7.68-11.25-15.61-22.34-23.63-33.35
	c-28.12-38.61-57.89-75.93-87.99-113.01c-1.94-2.39-3.67-3.51-6.9-3.5C-325.08,795.12-367.4,795.07-409.71,795.07z"/>
<path class="st1" d="M-750.72,600.79c35.99,29.14,78.55,43.23,122.84,53.03c32.77,7.25,66.02,11.34,99.45,14.22
	c48.18,4.14,96.45,4.81,144.76,5.05c44.32,0.22,88.64,0.08,132.94-1.33c34.95-1.11,69.91-2.34,104.81-4.67
	c23.08-1.54,46.21-2.55,69.27-4.31c25.04-1.92,50.02-4.5,75.04-6.68c24.5-2.14,48.94-4.92,73.28-8.3
	c62.35-8.65,124.69-17.42,185.19-35.74c15.03-4.55,29.82-9.76,44.4-15.58c1.34-0.53,2.77-2.19,4.43-0.47
	c2.78,2.88,0.54,3.77-1.83,4.72c-16.1,6.48-32.45,12.27-49.1,17.17c-36.57,10.76-73.85,18.28-111.48,24.27
	c-30.66,4.88-61.44,8.85-92.25,12.62c-26.06,3.19-52.21,5.54-78.32,8.32c-30.94,3.29-61.97,5.58-93,7.65
	c-27.57,1.85-55.19,3.04-82.81,4.24c-49.6,2.16-99.24,3.21-148.89,2.94c-43.48-0.23-86.95-1.17-130.39-3.1
	c-33.23-1.48-66.42-3.86-99.33-8.88c-45.33-6.91-89.67-17.36-131-38.04c-14.15-7.08-27.49-15.47-39.06-26.42
	C-751.41,601.26-751.06,601.03-750.72,600.79z"/>
<path class="st1" d="M-688.78,707.69c7.67,1.22,15.13,2.56,22.64,3.57c17.28,2.3,34.56,4.59,51.87,6.6
	c17,1.97,34.03,3.69,51.06,5.32c14.07,1.35,28.15,2.68,42.26,3.58c41.4,2.64,82.85,3.9,124.32,3.76c40.81-0.13,81.6-1.3,122.33-3.85
	c30.38-1.9,60.75-4.17,91.06-6.97c29.44-2.72,58.84-6.01,88.21-9.55c31.15-3.75,62.25-7.79,93.27-12.43
	c51.46-7.71,102.75-16.45,153.8-26.58c39.93-7.92,79.72-16.45,119.33-25.84c2.51-0.6,4.59-0.6,6.36,2.41
	c-12.1,2.79-24,5.59-35.92,8.29c-43.75,9.91-87.74,18.7-131.88,26.71c-30.65,5.57-61.36,10.88-92.2,15.38
	c-26.76,3.91-53.47,8.12-80.28,11.68c-23.7,3.15-47.48,5.73-71.26,8.29c-22.81,2.46-45.63,4.86-68.49,6.75
	c-21.72,1.8-43.5,2.81-65.25,4.33c-32.08,2.24-64.21,3.11-96.34,3.72c-45.81,0.87-91.62-0.11-137.39-2.01
	c-31.42-1.31-62.81-3.42-94.06-6.96c-30.81-3.49-61.49-8.02-91.77-14.85C-687.74,708.9-688.43,709.01-688.78,707.69z"/>
<path class="st1" d="M-245.45,625.06c0.59-2.64,2.25-3.21,3.66-3.97c75.23-40.48,150.71-80.47,226.77-119.34
	c16.05-8.2,32.89-14.65,49.84-20.78c28.01-10.11,56.32-9.23,84.8-2.61c9.18,2.13,18.19,4.89,26.87,8.58
	c2.28,0.97,4.57,1.97,6.71,3.2c10.52,6.04,11.14,12.58,1.9,20.57c-17.37,15-37.66,25.27-57.86,35.7
	c-40.28,20.8-81.29,39.85-124.81,53.04c-23.19,7.03-46.87,11.57-70.89,14.69c-33.85,4.4-67.89,6.15-101.93,8.05
	c-13.95,0.78-27.88,1.91-41.82,2.87C-243.14,625.12-244.09,625.06-245.45,625.06z M-233.92,619.8c0.09,0.3,0.18,0.61,0.27,0.91
	c2.43,0,4.87,0.14,7.29-0.02c12.62-0.87,25.22-2,37.84-2.7c31.39-1.73,62.72-3.81,93.92-7.91c31.29-4.11,61.8-11.09,91.51-21.78
	c52.42-18.85,101.57-44.29,149.07-73.12c2.82-1.71,5.56-3.73,7.88-6.05c4.67-4.65,4.34-9.46-0.64-13.7
	c-3.58-3.05-7.84-4.89-12.22-6.46c-15.55-5.57-31.76-8.03-48.06-9.88c-8.91-1.01-17.83-2.16-26.86-1.53
	c-16.45,1.14-31.67,6.52-46.57,13.14c-71.93,31.94-141.5,68.57-210.69,105.94C-205.42,604.36-219.67,612.09-233.92,619.8z"/>
<path class="st1" d="M-175.18,1001.86c-7.82,0.65-16.11-0.48-24.41-1.02c-1.71-0.11-4.7,0.45-4.23-2.69
	c0.36-2.42,2.62-1.76,4.47-1.59c24.28,2.21,48.55,2.01,72.8-0.52c26.27-2.74,52.56-5.34,78.8-8.33c32.67-3.72,65.32-7.69,97.95-11.7
	c26.85-3.3,53.7-6.65,80.52-10.29c16.79-2.28,33.51-4.93,50.45-5.87c3.07-0.17,4.73-0.96,4.93-4.9c1.55-29.57,3.15-59.15,4.89-88.71
	c3.17-53.86,21.03-102.81,47.79-149c4.23-7.31,8.28-14.73,12.4-22.11c1.07-1.91,2.28-4.42,4.78-3.02c2.71,1.51,0.12,3.46-0.69,4.89
	c-15.26,26.95-30.49,53.9-41.5,82.98c-8.31,21.96-13.3,44.6-15.88,67.95c-4.03,36.43-5.75,72.97-6.72,109.57
	c-0.09,3.22-1.32,4.14-4.37,4.55c-27.95,3.8-55.85,7.93-83.81,11.67c-22.21,2.97-44.48,5.56-66.73,8.28
	c-21.1,2.58-42.19,5.23-63.32,7.62c-17.34,1.96-34.7,3.7-52.07,5.32c-21.69,2.03-43.38,4.05-65.11,5.65
	C-154.34,1001.34-164.47,1002.37-175.18,1001.86z"/>
<path class="st1" d="M385.57,379.99c-0.48,2.77-2.78,2.48-4.38,2.74c-9.33,1.53-18.69,2.84-28.04,4.24
	c-28.68,4.29-57.02,10.33-85.35,16.42c-67.41,14.47-134.3,31.1-200.43,50.68C-2.49,474.75-72,496.5-139.23,524.93
	c-34.82,14.72-68.59,31.51-100.74,51.45c-1.1,0.68-2.31,1.25-3.55,1.64c-0.78,0.25-1.72-0.02-2.17-0.84
	c-0.53-0.99-0.35-1.94,0.65-2.59c1.39-0.9,2.78-1.79,4.19-2.66c41.6-25.61,86.1-45.16,131.41-63.01
	c80.98-31.91,164.11-57.04,248.27-78.96c46.24-12.05,92.61-23.62,139.35-33.58c30.79-6.56,61.7-12.46,92.94-16.52
	c3.62-0.47,7.21-1.13,10.82-1.71C383.73,377.85,385.31,377.87,385.57,379.99z"/>
<path class="st1" d="M50.75,862.8c-2.55-0.07-3.99-2.33-2.31-5.69c14.57-29.17,30.01-57.91,43.83-87.45
	c10.95-23.39,28.49-37.64,54.13-43.04c26.84-5.66,52.57-15.55,78.93-23.13c0.79-0.23,1.65-0.33,2.37-0.7
	c1.97-1.01,3.53-0.32,4.89,1.07c1.82,1.86-0.17,3-1.01,4.21c-17.28,24.61-34.54,49.25-51.95,73.78
	c-11.35,16-23.02,31.77-34.37,47.76c-8.72,12.28-20.03,20.32-34.84,23.93C91.16,858.22,71.62,860.77,50.75,862.8z M223.57,708.2
	c-23.22,6.49-45.71,15.77-69.34,20.41c-28.45,5.58-47.81,20.84-59.63,47.07c-12.09,26.83-26.09,52.75-39.39,79
	c-0.62,1.22-1.85,2.43-0.88,4.41c16.91-1.38,33.72-3.88,50.43-7.64c17.08-3.84,29.61-13.2,39.05-27.67
	c6.89-10.56,14.48-20.68,21.8-30.96c19.74-27.73,39.66-55.34,58.76-83.52c0.15-0.35,0.29-0.7,0.44-1.05
	C224.4,708.24,223.99,708.22,223.57,708.2z"/>
<path class="st1" d="M180.01,863.37c-1.82,17.33-5.06,34.48-13.06,50.46c-7.42,14.83-20.72,20.68-35.77,24.08
	c-36.51,8.26-73.27,15.15-110.22,21.12c-4.25,0.69-8.5,1.41-12.75,2.17c-1.72,0.31-3.62,1.73-5.06-0.12
	c-1.57-2.02,0.29-3.81,1.14-5.45c10.58-20.44,21.73-40.59,31.67-61.34c4.28-8.95,10.32-13.38,19.58-15.74
	c14.36-3.67,28.98-5.4,43.54-7.64c16.55-2.54,33.11-5.05,49.67-7.56c9.35-1.42,18.69-2.85,28.04-4.26
	C180.2,858.57,180.14,860.85,180.01,863.37z M10.34,956.13c0.36,0,0.81,0.07,1.24-0.01c19.4-3.42,38.84-6.59,58.17-10.37
	c22.55-4.41,45.35-7.64,67.53-13.88c11.67-3.28,20.22-10.31,25.79-21.03c6.18-11.92,8.83-24.88,10.81-37.97
	c1.3-8.6,0.99-8.66-7.86-7.91c-1.65,0.14-3.29,0.39-4.92,0.68c-19.92,3.53-39.97,6.15-60.07,8.44
	c-17.43,1.99-34.73,4.81-51.34,10.88c-3.02,1.1-4.93,2.86-6.36,5.7c-10.67,21.1-21.1,42.33-32.53,63.04
	C10.38,954.43,9.9,955.07,10.34,956.13z"/>
<path class="st1" d="M-777.34,780.71c1.4,0.53,2.49,0.9,3.55,1.36c32.34,13.86,64.64,27.81,97.04,41.51
	c6.05,2.56,10.08,6.45,12.65,12.46c6.88,16.1,14.06,32.07,21.02,48.14c0.52,1.2,2.16,2.56,0.66,4.04c-1.39,1.37-2.92,0-4.15-0.45
	c-46.2-16.89-92.35-33.89-138.54-50.81c-3.24-1.19-3.98-2.63-3.23-6.25c3.11-15.07,5.65-30.25,8.52-45.37
	C-779.5,783.64-779.7,781.29-777.34,780.71z M-647.84,884.68c-0.2-1.03-0.18-1.7-0.45-2.23c-8-15.97-14.31-32.7-21.56-49.01
	c-2.06-4.64-4.96-7.65-9.48-9.34c-8.66-3.24-17.48-6.09-26.01-9.66c-21.95-9.18-43.8-18.61-65.64-28.06
	c-2.75-1.19-3.76-1.2-4.26,2.25c-1.71,11.63-2.76,23.39-5.85,34.78c-3.14,11.55-3.07,11.15,8.08,15.14
	c32.02,11.47,63.89,23.38,95.89,34.93C-667.42,876.99-658.36,882.19-647.84,884.68z"/>
<path class="st1" d="M622.23,502.49c-9.25-1.66-18.03-3.38-26.86-4.8c-31.44-5.05-63.01-7.73-94.91-5.97
	c-30.82,1.7-60.86,6.79-89.69,18.15c-27.49,10.83-51.47,26.74-71.11,48.95c-0.55,0.62-1.1,1.25-1.67,1.86
	c-1.27,1.37-3.02,2.09-4.39,0.8c-1.66-1.56,0.44-2.65,1.29-3.61c19.09-21.72,42.26-37.74,68.83-48.92
	c22.57-9.49,46.14-15.01,70.4-18.16c30.06-3.9,60.12-3.5,90.17-0.69c19.32,1.81,38.48,4.98,57.49,8.92
	c1.22,0.25,3.04,0.23,3.08,1.79C624.92,502.71,622.85,501.97,622.23,502.49z"/>
<path class="st1" d="M-705.28,545.86c2.02-1.33,3.56-0.35,4.89,0.94c23.45,22.82,52.52,35.24,82.99,45.21
	c29.36,9.6,59.41,16.02,90.03,19.73c30.87,3.74,61.87,4.28,92.91,2.37c2.38-0.15,4.79-0.02,7.18-0.02c0.03,0.4,0.06,0.81,0.09,1.21
	c-2.2,0.23-4.39,0.56-6.6,0.67c-21.8,1.13-43.65,1.43-65.4-0.12c-53.81-3.83-106.24-14.22-155.94-35.95
	c-17.26-7.55-33.27-17.27-47.06-30.31C-703.33,548.51-704.93,547.72-705.28,545.86z"/>
<path class="st1" d="M-807.78,751.05c-0.04-1.42,0.56-2,2.13-1.54c1.69,0.49,2.16,1.94,2.75,3.27c4.05,9.03,8.08,18.07,12.08,27.13
	c0.61,1.38,2.31,3.22,0.07,4.22c-1.98,0.88-2.66-1.21-3.35-2.74c-4.26-9.48-8.54-18.95-12.82-28.43
	C-807.2,752.35-807.47,751.75-807.78,751.05z"/>
<path class="st1" d="M-811.19,648.09c-7.71-5.92-19.41-27.62-20.48-38.12c2.18,0.05,3.27,1.34,3.77,3.18
	c3.37,12.47,9.15,23.75,16.81,34.11C-810.98,647.42-811.15,647.8-811.19,648.09z"/>
<path class="st1" d="M-768.52,582.64c-7.9-11.23-12.96-23.54-13.79-37.49c3.31,12.87,7.22,25.49,14.57,36.68
	C-767.99,582.1-768.25,582.37-768.52,582.64z"/>
<path class="st1" d="M-761.35,591.74c-1.22-1.55-2.43-3.1-3.65-4.65c0.25-0.28,0.49-0.56,0.74-0.84c1.17,1.53,2.35,3.05,3.52,4.58
	C-760.94,591.13-761.14,591.43-761.35,591.74z"/>
<path class="st1" d="M-765,587.08c-1.17-1.48-2.35-2.96-3.52-4.44c0.26-0.27,0.52-0.54,0.78-0.81c1.16,1.47,2.32,2.94,3.48,4.41
	C-764.5,586.52-764.75,586.8-765,587.08z"/>
<path class="st1" d="M-809.36,651.29c0.54,0.23,1.07,0.46,1.61,0.69c-0.49-0.26-0.97-0.52-1.46-0.78
	C-809.21,651.2-809.36,651.29-809.36,651.29z"/>
<path class="st1" d="M-759.76,591.85c0.6,0.6,1.19,1.2,1.79,1.8c-0.35,0.15-0.69,0.3-1.04,0.45c-0.59-0.6-1.18-1.2-1.77-1.8
	C-760.44,592.15-760.1,592-759.76,591.85z"/>
<path class="st1" d="M-751.76,601.49c-0.43-0.46-0.85-0.91-1.28-1.37c0.18-0.36,0.36-0.71,0.54-1.07c0.59,0.58,1.19,1.16,1.78,1.74
	C-751.06,601.03-751.41,601.26-751.76,601.49z"/>
<path class="st1" d="M-756.42,595.16c0.46,0.47,0.92,0.95,1.38,1.42c-0.34,0.19-0.68,0.38-1.02,0.56c-0.33-0.33-0.67-0.67-1-1
	C-756.84,595.82-756.63,595.49-756.42,595.16z"/>
<path class="st1" d="M-757.06,596.14c-0.33-0.34-0.65-0.68-0.98-1.02c0.18-0.33,0.36-0.67,0.54-1c0.36,0.34,0.71,0.69,1.07,1.03
	C-756.63,595.49-756.84,595.82-757.06,596.14z"/>
<path class="st1" d="M-757.97,593.65c0.22,0.1,0.38,0.26,0.48,0.47c-0.18,0.33-0.36,0.67-0.54,1c-0.33-0.34-0.65-0.68-0.98-1.02
	C-758.66,593.96-758.32,593.8-757.97,593.65z"/>
<path class="st1" d="M-760.73,590.82c0.32,0.34,0.65,0.68,0.97,1.02c-0.34,0.15-0.68,0.3-1.02,0.46c-0.28-0.1-0.47-0.29-0.56-0.57
	C-761.14,591.43-760.94,591.13-760.73,590.82z"/>
<path class="st1" d="M-809.92,650c-0.3-0.29-0.9-0.8-0.87-0.85c0.66-0.89,0.99-0.13,1.37,0.33
	C-809.59,649.66-809.75,649.83-809.92,650z"/>
<path class="st1" d="M-753.04,600.12c-0.34-0.33-0.68-0.65-1.02-0.98c0.2-0.34,0.4-0.69,0.61-1.03c0.32,0.31,0.64,0.63,0.96,0.94
	C-752.67,599.41-752.86,599.77-753.04,600.12z"/>
<path class="st1" d="M-809.21,651.2c-0.24-0.4-0.47-0.79-0.71-1.19c0.16-0.17,0.33-0.34,0.5-0.51c0.63,0.57,1.02,1.14,0.07,1.79
	C-809.36,651.29-809.21,651.2-809.21,651.2z"/>
<path class="st1" d="M-754.06,599.15c-0.33-0.33-0.66-0.67-1-1c0.19-0.34,0.38-0.68,0.57-1.01c0.34,0.33,0.69,0.66,1.03,0.98
	C-753.65,598.46-753.86,598.8-754.06,599.15z"/>
<path class="st1" d="M-755.04,596.58c0.27,0.1,0.45,0.28,0.55,0.55c-0.19,0.34-0.38,0.68-0.57,1.01c-0.33-0.33-0.67-0.67-1-1
	C-755.71,596.96-755.38,596.77-755.04,596.58z"/>
<path class="st1" d="M1207.33,270.93c9.49,0.42,19.09,1.88,27.74,7.07c13.49,8.1,19.01,22.67,14.4,37.72
	c-1.76,5.74-4.4,11.06-7.67,16.06c-7.06,10.78-15.71,20.19-25.34,28.71c-2.76,2.44-4.88,2.83-6.83-1.26
	c-12.14-25.52-24.41-50.98-36.79-76.37c-1.52-3.13-0.75-4.34,2.16-5.49C1185.27,273.27,1195.92,271.21,1207.33,270.93z
	 M1214.4,357.87c13.66-13.35,26.2-26.73,30.47-45.55c3.61-15.93-2.4-27.22-17.57-33.36c-15.24-6.17-30.72-5.53-46.28-0.98
	c-3.41,1-4.35,1.97-2.52,5.58c5.84,11.5,11.24,23.22,16.83,34.84C1201.56,331.34,1207.82,344.27,1214.4,357.87z"/>
<path class="st1" d="M1156.11,694.67c7.4-3.11,7.96-9.2,7.6-14.93c-0.98-15.63-0.86-31.26-0.89-46.9
	c-0.02-10.99,0.26-21.98-0.12-32.96c-0.17-4.92,1-7.46,6.28-7.4c1.4,0.01,2.86-0.73,4.67-0.38c-1.47,2.33-5.33,1.59-5.83,4.35
	c-0.47,2.57-0.12,5.29-0.11,7.95c0.03,26.96,0.07,53.93,0.1,80.89c0.01,7.49,0,7.49-7.07,9.33
	C1159.49,694.94,1158.24,695.38,1156.11,694.67z"/>
<path class="st1" d="M1286.15,571.71c-33.88,5.92-67.41,13.77-101.64,17.77c33.81-6.53,67.61-13.06,101.42-19.59
	C1286,570.49,1286.07,571.1,1286.15,571.71z"/>
<path class="st1" d="M289.95,813.98c-0.21-46.58,4.64-90.44,18.98-132.92c11.24-33.29,27.56-63.63,52.96-88.36
	c21.41-20.86,46.35-35.9,75.59-43.1c10.77-2.65,21.54-2.23,32.57-0.28c6.09,1.08,12.45,0.76,18.12,3.73
	c7.22,3.79,14.3,7.86,21.49,11.71c8.57,4.59,15.06,11.22,20.7,19.12c5.11,7.16,11.17,13.64,16.84,20.4
	c12.66,15.1,20.47,33,28.85,50.52c4.66,9.75,3.69,20.92,6.72,31.13c-4.6,15.1,1.63,29.8,1.79,44.75c0.17,15.3,1.76,30.59,1.31,45.92
	c-1.23,41.72-6.79,82.6-23.8,121.22c-14.96,33.98-37.53,61.53-68.14,82.82c-57.47,39.98-132.11,23.23-169.3-31.85
	c-16.05-23.77-25.31-50.02-29.75-78.19C291.8,851.18,290.77,831.61,289.95,813.98z M581.9,760.18c-0.64-20.49-1.87-39.59-4.16-58.59
	c-1.65-13.66-2.55-27.59-6.38-40.78c-5.27-18.16-15.02-34.34-26.07-49.61c-4.28-5.91-10.5-10.55-14.14-16.77
	c-9.3-15.9-23.52-25.39-39.39-33.33c-12.11-6.06-24.63-9.51-38.29-9.25c-13.1,0.25-25.04,4.55-36.74,9.63
	c-43.35,18.83-72.41,51.75-91.62,94.09c-18.49,40.73-25.44,84.15-28.97,128.25c-2.45,30.59-2.43,61.18,2.94,91.55
	c4,22.61,10.16,44.55,21.95,64.46c34.37,58.04,108.58,81.22,169.76,37.65c36.63-26.08,60.86-61.07,75.19-103.31
	C578.68,836.76,582.19,798.05,581.9,760.18z"/>
<path class="st2" d="M900.37-111.24c0.03,3.54-1.3,5.7-5.26,5.59c-4.87-0.14-9.17-3.56-9.07-7.43c0.08-3.16,5.01-7.4,8.81-7.58
	C898.34-120.82,900.31-117.46,900.37-111.24z"/>
<path class="st2" d="M-409.71,795.07c42.32,0,84.63,0.05,126.95-0.09c3.23-0.01,4.95,1.11,6.9,3.5
	c30.1,37.07,59.87,74.4,87.99,113.01c8.02,11.01,15.95,22.1,23.63,33.35c2.27,3.33,5.85,7.5,3.88,11.25
	c-2.02,3.84-7.3,1.9-11.11,1.79c-30.29-0.85-60.49-3.11-90.68-5.78c-26.49-2.34-52.97-4.82-79.33-8.33
	c-44.2-5.89-88.74-9.78-132.1-20.9c-25.48-6.54-49.95-15.47-71.1-31.77c-23.75-18.3-35.67-42.7-36.97-72.42
	c-0.22-4.94,0.62-9.92,0.83-14.89c0.13-3.15,2.39-2.63,4.3-2.72c13.81-0.66,27.61-1.49,41.42-1.9c41.79-1.24,83.59-2.31,125.39-3.44
	C-409.72,795.51-409.72,795.29-409.71,795.07z"/>
<path class="st2" d="M-233.92,619.8c14.26-7.72,28.5-15.44,42.77-23.15c69.19-37.38,138.76-74.01,210.69-105.94
	c14.89-6.61,30.12-12,46.57-13.14c9.03-0.63,17.95,0.52,26.86,1.53c16.3,1.84,32.51,4.3,48.06,9.88c4.38,1.57,8.64,3.41,12.22,6.46
	c4.98,4.24,5.3,9.05,0.64,13.7c-2.33,2.32-5.06,4.34-7.88,6.05c-47.5,28.83-96.66,54.26-149.07,73.12
	c-29.71,10.69-60.23,17.66-91.51,21.78c-31.2,4.1-62.54,6.19-93.92,7.91c-12.63,0.69-25.23,1.83-37.84,2.7
	c-2.42,0.17-4.86,0.02-7.29,0.02C-233.74,620.41-233.83,620.11-233.92,619.8z"/>
<path class="st2" d="M224.38,709.31c-19.1,28.18-39.03,55.78-58.77,83.52c-7.32,10.29-14.91,20.4-21.8,30.96
	c-9.44,14.47-21.97,23.82-39.05,27.67c-16.71,3.76-33.52,6.26-50.43,7.64c-0.97-1.98,0.26-3.19,0.88-4.41
	c13.3-26.25,27.3-52.17,39.39-79c11.82-26.23,31.18-41.48,59.63-47.07c23.63-4.64,46.13-13.92,69.34-20.41
	C223.84,708.57,224.11,708.94,224.38,709.31z"/>
<path class="st2" d="M223.57,708.2c0.42,0.02,0.83,0.04,1.25,0.06c-0.15,0.35-0.29,0.7-0.44,1.05
	C224.11,708.94,223.84,708.57,223.57,708.2z"/>
<path class="st2" d="M10.34,956.13c-0.44-1.06,0.03-1.7,0.44-2.44c11.43-20.71,21.86-41.94,32.53-63.04c1.43-2.84,3.34-4.6,6.36-5.7
	c16.61-6.06,33.91-8.89,51.34-10.88c20.1-2.29,40.15-4.91,60.07-8.44c1.63-0.29,3.27-0.54,4.92-0.68c8.85-0.75,9.16-0.69,7.86,7.91
	c-1.98,13.09-4.63,26.05-10.81,37.97c-5.56,10.73-14.11,17.75-25.79,21.03c-22.18,6.24-44.98,9.48-67.53,13.88
	c-19.33,3.78-38.77,6.94-58.17,10.37C11.15,956.19,10.7,956.13,10.34,956.13z"/>
<path class="st2" d="M-647.84,884.68c-10.53-2.49-19.59-7.68-29.28-11.19c-32-11.55-63.87-23.45-95.89-34.93
	c-11.15-3.99-11.22-3.59-8.08-15.14c3.09-11.39,4.15-23.15,5.85-34.78c0.51-3.45,1.51-3.44,4.26-2.25
	c21.84,9.44,43.68,18.88,65.64,28.06c8.52,3.56,17.34,6.42,26.01,9.66c4.52,1.69,7.42,4.7,9.48,9.34
	c7.25,16.31,13.56,33.03,21.56,49.01C-648.02,882.98-648.04,883.65-647.84,884.68z"/>
<path class="st2" d="M1214.4,357.87c-6.58-13.6-12.84-26.52-19.07-39.47c-5.6-11.62-10.99-23.35-16.83-34.84
	c-1.83-3.6-0.89-4.58,2.52-5.58c15.56-4.55,31.04-5.19,46.28,0.98c15.17,6.14,21.18,17.43,17.57,33.36
	C1240.59,331.14,1228.06,344.52,1214.4,357.87z"/>
<path class="st0" d="M581.9,760.18c0.28,37.87-3.22,76.57-15.92,114c-14.33,42.24-38.56,77.22-75.19,103.31
	c-61.18,43.57-135.4,20.39-169.76-37.65c-11.79-19.91-17.95-41.85-21.95-64.46c-5.37-30.37-5.39-60.96-2.94-91.55
	c3.53-44.1,10.48-87.52,28.97-128.25c19.22-42.34,48.27-75.26,91.62-94.09c11.7-5.08,23.63-9.38,36.74-9.63
	c13.66-0.26,26.18,3.18,38.29,9.25c15.87,7.95,30.08,17.44,39.39,33.33c3.64,6.22,9.86,10.85,14.14,16.77
	c11.04,15.27,20.8,31.45,26.07,49.61c3.83,13.19,4.74,27.11,6.38,40.78C580.03,720.59,581.26,739.69,581.9,760.18z"/>
</svg>
