<?xml version="1.0" encoding="utf-8"?>
<!-- Generator: Adobe Illustrator 24.2.1, SVG Export Plug-In . SVG Version: 6.00 Build 0)  -->
<svg version="1.1" id="Layer_1" xmlns="http://www.w3.org/2000/svg" xmlns:xlink="http://www.w3.org/1999/xlink" x="0px" y="0px"
	 viewBox="0 0 2293 2053" style="enable-background:new 0 0 2293 2053;" xml:space="preserve">
<style type="text/css">
	.st0{fill:#FEFEFE;}
	.st1{fill:#141111;}
</style>
<path class="st0" d="M0,1519.3C0,1012.9,0,506.4,0,0c764.3,0,1528.7,0,2293,0c0,325.9,0,651.7,0,977.6c-1.6-0.3-3.3-0.5-4.9-1
	c-42.3-11-85.5-16.6-129.1-18.8c-14.7-0.7-29.2,1.4-43.8,1.7c-6.2,0.1-8-2.1-8.1-8.1c-0.1-3.3,3.6-5.7,1.7-9.7
	c-5.3,2.8-3.8,9.7-8.3,13.6c-6.5-10.5-10.9-23-26-26c5.8,10.8,12.1,20.2,13.2,31.9c-42.3,3.6-83.7,7.7-124.8,14.3
	c-23.6,3.8-47.2,7.8-70.8,11.7c-0.7-0.9-1.4-1.7-2.1-2.6c0.7-8.8,4.7-16.9,6.7-25.7c-5.8-0.6-7.6,3.2-9.4,6.6
	c-2.4,4.8-4.3,9.9-4.9,15.1c-0.9,7.4-4.2,11.5-12,11.4c-1.6,0-3.2,0.8-4.8,1.2c-3.9,1.1-6.9,0.3-9.7-3c-2.7-3.3-5.7-6.6-10.1-7.9
	c0.6,2.5,2,4.3,3.1,6.2c3.9,6.5,3.5,7.3-3.8,9.2c-18,4.7-36.1,9-54,14.3c-7.4,2.2-13.6,2.2-20.8-1.1c-20.3-9.4-41.7-15.7-64-18.3
	c-39.5-4.6-75.3,4.5-106.7,29.4c-20.7,16.4-36,37.2-48.4,60.4c-1.5,2.8-2.3,6.2-5.7,9.1c-0.8-4.4-1.6-8.1-2.2-11.8
	c-5.1-32.5-10-65-15.3-97.5c-3.6-22.1-6.3-44.1-2.9-66.5c2.9-19.1,8.8-36.8,21.2-51.9c6-7.4,6.2-7.5,14.9-3.8
	c35.4,14.9,71.8,24,110.6,21.4c17.3-1.2,32.1,4.9,46.5,14.7c70.8,48.2,147.8,62.8,230.9,39.5c46.6-13.1,86.9-38,123.6-69
	c3.8-3.2,7.9-6.1,12.3-8.4c21.1-10.9,40.9-23.6,59.7-38.1c24.7-19,46.8-40.5,63.6-67.1c12.3-19.4,20.9-40.4,22.1-63.4
	c2.2-42-12.5-77.8-43.1-106.5c-22-20.6-49.5-29.3-78.7-33.1c-24.9-3.3-49.8-2.5-74.8-1.2c-18.3,1-36.6,2.4-54.9,2.3
	c-13.5,0-26.2-2.6-38.7-8c-60.9-26.1-123.2-48.2-187.5-64c-44.4-10.9-89.2-19.6-135.2-16.9c-13.1,0.8-23.1-2.6-33.9-9.7
	c-44.7-29.5-93.6-50.2-144.5-66.5c-95.3-30.6-193.3-42.8-293.2-42.4c-40.3,0.2-80.5,4.7-120.8,0.6c-3.6-0.4-7.1,0-10.4-2.5
	c-8.2-6.1-17.7-9.1-27.7-10.3c-4.4-0.5-7.1-2.1-8.9-6.5c-3.3-8.4-8.2-16-13-23.5c-1.2-1.8-3.5-3.4-1.7-7.3c60.7,0,121.9,0,185.3,0
	c-26.9-25.2-53.9-44.3-90.8-41.8c-3.5,0.2-5.3-1-7.4-3.6c-16.5-20.7-38.8-29.3-64.6-30.6c-19.2-1-37.9,1.7-56.1,7.7
	c-6.2,2-9.9,1.5-14.2-4.1c-11.8-15.5-26-28.6-42.6-38.8c-35-21.6-65.7-16.6-92,14.8c-0.4,0.5-0.9,1-1.3,1.6c-1.9,3-4.6,4.4-8,5.5
	c-16.1,5.4-32,11.2-47.5,18.1c-3.5,1.5-5.9,1.7-9.1-0.7c-22.5-17.4-48-19.9-74.9-14.7c-26.5,5.1-50.4,16.7-73.2,30.6
	c-5.9,3.6-10.8,4.5-17.5,2.1c-20.2-7.2-41.1-11.2-62.7-10c-26.5,1.5-47.8,11.7-58.4,37.6c-2.1,5.1-4.9,5.1-9.2,5
	c-25-0.7-48.4,4.6-68.6,19.9c-5,3.8-9.7,4.6-15.6,4.3c-34-1.8-67.9-2-101.7,3.1c-20.8,3.1-41.1,8.2-59.9,17.9
	c-15.4,7.9-28.5,18.6-36.7,34.1c-8.3,15.8-12,32.1-6.4,50c3.5,11.1,5.7,22.5,8.1,33.9c9.2,43,16.3,86.2,19.5,130.1
	c1.1,14.6,1.3,29.2,3.5,43.8c2.9,19.5,8,37.9,22.8,52c20.9,19.9,35.5,43.8,45.8,70.6c5.6,14.7,16.3,24.9,30.6,31.4
	c10.1,4.6,20.7,7,31.7,8.3c27.5,3.3,54.5-0.2,81.4-5.2c46.5-8.8,91.4-23.1,135.3-40.7c6.6-2.7,11.5-2,17.3,1.8
	c30.1,19.8,62,36.2,95.1,50.1c42.8,17.9,86.9,31.2,132.4,40c8.3,1.6,8.4,1.6,10,10.5c5.5,29.8,8.5,59.9,11,90.1
	c2.2,27.1-3.1,52.2-17.6,75.4c-4.6,7.3-8.9,14.9-12.9,22.5c-1.5,2.9-3.7,4.5-6.2,6.2c-12.1,8.2-24.2,16.4-36.3,24.7
	c-6,4.2-11.9,8.6-16.8,14.2c-8.5,9.8-7.4,20.6,2.9,28.5c6.5,4.9,14,7.4,21.7,9.8c4.7,1.5,9.9,1.2,14.7,4.6
	c-10.8,21.3-20.4,43.1-29.7,65.1c-22-9.2-43.5-17-65.7-23c-41.4-11.2-83.1-18.7-126.3-13.1c-23.4,3-45.4,10.2-65,23.7
	c-31.2,21.6-46.5,51.8-45.8,89.3c0.6,29.3,10.6,56,27.6,80c1.9,2.6,4.5,4.8,5.5,8.7c-37.1,7.6-73.5,17.3-110.4,28.1
	c1.1-18.6,9.8-32.9,18.3-47.5c-5.1,4.2-9.6,8.9-13.4,14c-4,5.3-7.3,11.1-11.1,16.6c-3.6,5.3-4.5,12.1-9.3,17.1
	c-8.9-17.7-10.3-18.9-20-17.8c2.2,3.6,6,6.2,6.4,10.9c-1.1,0.7-2.3,1.4-3.4,2.1c-4.2,2.8-5.1,7.7-6.3,11.9c-1.3,4.9-4.2,7-8.6,8.5
	c-12.5,4.4-24.9,9.2-37.3,13.7c-3.6,1.3-6.9,3.8-10.8,3.3c-2.2-2.4,2.3-4.9-0.8-7.3c-4.8,2.3-3,9.4-8.6,11.8
	c-6.1-10.1-10.8-21.5-25.2-24.8c4.3,8.7,8.8,15.6,11.2,23.5c2,6.6,2.1,6.5-4.2,9.5c-0.9,0.4-1.9,0.7-2.8,1.1
	c-50.5,22.3-99,48.2-144,80.4c-12.1,8.7-24.3,17.3-36.6,25.8C6.1,1517.6,4,1521.1,0,1519.3z M2129.8,273.4c-0.8-1-1.1-1.3-1.2-1.5
	c0-0.7,0-1.4,0.2-2c5.4-16.5,0.3-29.4-13.7-39c-2.9-2-3.4-4.3-3.1-7.6c1.9-17.3,0.7-34.5-2.6-51.6c-22-115.5-147.5-181-255-132.7
	c-43.1,19.4-74.2,51-93.5,94.1c-3.9,8.6-3.8,8.7-12.6,6.8c-20.5-4.4-41.1-8-61.9-10.6c-8.5-1.1-17-2.1-25.3-5.1
	c-10.5-3.8-21.6-3.2-32.6-1.3c-18.6,3.4-35.3,11.5-51.2,21.5c-24.4,15.3-46.2,34-65.4,55.3c-8.3,9.2-17.4,14-29.3,16.6
	c-22.7,4.9-45.1,11.4-66.3,21.3c-8.5,4-16.7,8.3-23.1,15.3c-8,8.8-8.6,18.4,0.1,26.5c12.8,12.1,27.5,20.7,46,20.7
	c107.3,0,214.5,0.1,321.8-0.2c7.2,0,11.2,2.2,15.2,8.1c32.1,47.3,76.7,75.7,133.6,81c72.7,6.8,130.6-21.2,172.4-81.1
	c4.2-6,8.1-8.1,15.2-8c32,0.4,64,0,95.9,0.3c7.1,0.1,7.3-2.4,6.3-7.7c-1.8-9.6-9.1-13.6-17.2-16.1c-12.9-4-26.2-4.5-39.6-3.8
	C2138.3,272.8,2133.8,273.1,2129.8,273.4z M361.5,905.3c-3.4-1-5.8-3.9-8.6-6c-13.3-10.1-27.3-18.9-43.3-24.2
	c-29.7-9.8-55.7-3.9-78.1,18c-10.8,10.6-19.1,23.1-25.3,36.9c-2.1,4.7-4.6,7-10,8c-19,3.7-29.7,16.7-30.2,35.5
	c-0.3,12.3-0.3,12.4,12.4,12.4c165.6,0,331.2,0,496.8,0c16.5,0,18.5-1.4,24.3-17c0.7-1.9,1.3-3.8,1.8-5.7
	c2.3-10.6-1.5-19.2-11.1-24.4c-5.3-2.9-11.1-4.7-17.1-4.9c-3.5-0.1-5.3-1.6-6.9-4.5c-13.9-25.2-35.9-36.5-64.2-36.3
	c-4.6,0-7-1.2-8.9-5.8c-6.5-15.4-18.7-23.7-35.1-26.1c-16.6-2.4-32.5,0.7-48,6.3c-5.8,2.1-10.2,2-15.6-1.7
	c-13.2-9.1-27.5-16.1-43-20.7c-36.6-10.7-65.2,2.3-81,37c-2.8,6.1-5,12.3-6.6,18.8C363.3,902.3,363.4,904.1,361.5,905.3z"/>
<path class="st0" d="M2293,1589.3c0,154.5,0,309.1,0,463.7c-764.3,0-1528.7,0-2293,0c0-173.9,0-347.8,0-521.7
	c13.2-11.7,28.2-21,42.3-31.3c46.7-34.1,97.1-61.5,150-84.6c1.9-0.8,3.9-3,6.3-1c2.2,4.7-2.7,9.2-0.5,14.6c3.7-3.5,3.8-7.3,4.1-11.2
	c0.4-6.4-0.8-12.6-2.6-18.7c-0.5-1.7-2.1-4,0.8-4.9c2.7-0.8,3.2,1.8,4,3.4c3.3,6.5,6.3,13.2,7.8,20.4c0.4,2,0.2,5.6,4.3,5.1
	c1-4.9-3.5-9.3-0.9-14.1c4.3,1.9,4.1,8,10,8.5c-1.3-5.1-5.8-8.1-6-13.5c15.9-6.9,32.5-12.6,48.9-18.7c4.1-1.5,4.1,3.1,7.1,3.8
	c1.1-5.3-0.6-11.3,4.8-16c3.1,7,7,12.6,11.5,17.9c0.6,0.5,1.3,1.5,1.8,1.5c1.5-0.1,1.4-1.5,1.4-2.7c-1.2-2.7-0.9-5.5-0.4-8.4
	c2.5-0.3,5.5,0.9,6.8-2.5c-0.1-10.1,3.3-19.1,8.5-27.5c1.3,0.9,1.6,2.3,1.6,3.8c0,8.3-2.4,16.5-1.3,24.9c0.3,2-0.5,4.8,3.1,5.1
	c1.6-4.9-2-10.9,1.6-14.4c3.6-3.7,9.8-3.5,14.8-5.3c1.6-0.6,3.2-1,4.8-1.4c29-8.4,58.5-15.4,87.9-22.3c6-1.4,10.7-0.7,15.1,4.2
	c4.8,5.5,11.3,9.3,17.2,13.5c24,17.1,45.6,36.7,63,60.7c7.2,10,13.3,20.7,16.4,32.8c4.5,17.8-0.6,31.4-15.8,41.5
	c-9.8,6.5-20.9,10.2-32.3,12.7c-15.9,3.6-32,6.1-47.4,11.7c-6.6,2.4-13,5.1-18.3,9.9c-6.7,6.1-7.1,13.5-1.3,20.3
	c3.3,3.9,7.5,6.6,11.9,9c10.9,5.9,22.4,10.2,34.4,13.1c16.8,4,33.8,7,51.1,8.7c26.8,2.7,53.1,2.6,78.2-8.6c1.2,1.7,0.7,3.4,0.4,5
	c-5.3,26.7-10.8,53.4-15.9,80.2c-1.8,9.6-4.7,18.5-9.7,26.9c-5.7,9.4-9.8,19.6-12.8,30.2c-1.9,7.1-3.6,14.3-2.6,21.7
	c3.3,25.4,13,47.9,29.7,67.5c12.9,15.1,27.9,27.6,44.6,38.2c4.1,2.6,5.9,5.4,5.6,10.4c-0.5,8.4-1.7,16.5-4.9,24.3
	c-1,2.4-3.3,5.1,0.1,6.8c4.4,2.1,4.8-2.5,5.8-4.8c2.9-6.4,4.3-13.2,4.8-20.3c1.5-20,0-39.9-3.2-59.7c-0.8-5-2.5-9.9-1.3-16.8
	c7.3,6.9,10.1,14.7,12.1,22.6c6.7,26.4,6.8,53.4,5.1,80.4c-0.3,5.3-0.6,10.6-1,15.9c-0.4,4.9-0.9,9.8-1.5,16.3
	c1.4-1.8,1.7-2.1,1.8-2.3c18.3-39.1,32.1-79.4,35.9-122.8c1.2-14,6.3-25.7,19.1-33.1c0.9,0.7,1.8,1.3,2.8,2
	c-3.2,9.4-6.7,18.7-8.3,28.6c-6.8,41.8-4.5,83.6-0.2,125.4c0.1,1.3,0.3,2.7,0.7,3.9c0.5,1.6,2,1.5,3.3,1.3c1.3-0.1,2.7-0.5,2.5-2.3
	c-0.3-2.6-0.6-5.3-0.8-7.9c-0.8-9.7-1.5-19.3-2.2-29.8c15.1,5,28.5,9.8,42.2,13.7c5.4,1.6,6,4.2,4.7,8.6c-2.8,9.2-5.7,18.4-8.6,27.6
	c-0.6,1.9-1.3,3.8-2.2,5.6c-0.8,1.9-0.3,3.3,1.4,4.1c2.3,1.1,3.8,0.3,4.6-2c0.3-0.9,0.8-1.8,1.1-2.8c7-18.1,11.6-36.7,14.3-55.9
	c2.2-15.7,1-31.2-0.5-46.8c0.7-0.7,1.3-1.5,2-2.2c15.4,22.1,25.9,46.3,32,72.5c2.5,10.7,3.8,21.6,3.7,32.7c0,2.3-0.4,4.9,3.3,4.8
	c3.7-0.1,3-2.8,3.1-5c0.1-2.7,0-5.3,0.2-8c0.3-6.7,0.6-13.3,1.1-19.9c0.1-1.2,0.7-2.5,2.4-2.6c1.8,0,2.1,1.2,2.4,2.5
	c0.3,1.6,0.3,3.3,0.8,4.9c1.4,5.5,1.5,11.6,6.7,16.1c9.4-9.8,15.5-21.2,21.5-32.7c0.8,0.7,1.6,1,1.7,1.5c5.3,20.6,11,41.2,5.8,62.8
	c-0.5,2.3-0.4,3.8,2.1,4.7c1.9,0.6,3.2,0,4.1-1.7c0.5-0.9,1-1.7,1.4-2.6c14.3-27.8,27.6-56.1,34.3-87c0.3-1.3,0.7-2.6,2.5-3.2
	c3.5,6,4.8,12.9,6.1,19.5c5.5,27.3,13.9,54.8-2.6,81.4c-1.1,1.8,0,3,1.4,4.2c1.8,1.5,3,0.4,4.1-1c4.1-5.4,6.4-11.6,8.2-18
	c2.5-8.7,1.3-17.7,2.6-26.8c11,1.3,21.6,2.4,32.2,3.6c35.4,4.1,70.8,7.7,106.5,7.6c44-0.1,87.9,0.6,131.9-1.8c8.3-0.4,8.1-0.2,7.4,8
	c-0.9,9.3-1.3,18.6-2.1,27.9c-0.2,2.3,0.1,3.9,2.6,4.4c2.6,0.5,3.6-1.1,3.8-3.3c0.3-3,0.5-6,0.7-9c1.3-24.6,4-49.1,8.5-73.3
	c1.1-5.9,1.2-12.4,6.4-19.6c3.9,40.3,14.7,76.8,29.6,113.9c10.6-25.8,15.4-50.6,13.3-78.4c4.3,5.1,5,9.4,6.3,13.4
	c7.4,24.2,9.1,49,8.5,74.1c-0.1,2.7-0.1,5.3-0.2,8c0,2.5,1.4,3.6,3.8,3.4c2.2-0.1,2.4-1.8,2.5-3.5c0.1-7.3,0.2-14.7,0.3-22
	c0.1-16-1.9-31.8-4.8-48.1c13.7-0.5,26.8-3.1,40-2.3c0.8,3.9-0.7,7-1.2,10.2c-1.3,8.3-1.9,16.6,0.2,24.8c0.4,1.7,1,4.1,3.9,3.2
	c2.6-0.8,2.5-2.3,1.9-4.6c-2.2-8.9-1.2-17.8,0.8-26.7c4-18,11.2-34.8,19-51.3c0.6-1.3,1.6-2.1,3.3-1.6c4.1,30.9,13.2,60.5,25.4,90.1
	c4.1-5.1,5.7-10.1,6.8-15.3c3.2-14.8,3.6-29.7,2.8-44.7c-2.4-47.3-10.6-93.9-19.9-140.3c-0.4-2.1-2-4.2,0.3-6.6
	c8.8,5.4,12.7,14.3,16.5,23.1c8.4,19.7,12.7,40.6,16.3,61.6c5.4,31.5,8.8,63.3,10.4,95.3c0.1,1.7,0.2,3.4,0.6,4.9
	c0.4,1.3,1.5,2.1,3,2.1c1.5-0.1,2.6-0.8,2.9-2.2c0.4-2,0.6-4,0.6-5.9c0.1-8.7,1.8-17.2,3.6-25.7c8.6-41.4,28.6-77.1,54.9-109.6
	c1-1.2,1.8-2.8,3.8-2.8c1.2,2.7-0.2,5.1-0.8,7.7c-7.7,32-9.4,64.5-8.8,97.2c0,1.8-0.5,4.3,2.4,4.5c2.6,0.2,3.8-1.5,3.4-3.7
	c-1-6,2.6-6.9,7.4-8c16.5-3.7,32.9-8.1,49-13.4c1.8-0.6,4-2.8,6.6-0.1c-0.7,3-1.2,6.3-2.1,9.4c-2.9,9.2-6,18.3-9,27.4
	c-0.6,1.8-1.8,3.8,0.9,5.1c3.2,1.5,4.1-0.9,5.1-2.9c1-2.1,1.6-4.3,2.5-6.5c7.7-20.6,12.5-41.8,13.8-64.5c7,10.2,12.8,28.2,13.6,41.7
	c0.1,2,0.1,4,0.3,6c0.2,2.3,1.9,2.3,3.6,2.3c1.5,0,2.6-0.8,2.7-2.3c0.1-2,0.1-4,0-6c-0.8-25-0.7-50,0.1-74.9
	c0.4-13.7,1.6-27.3,4.1-40.7c1-5.6,1.3-11.7,5.6-16.4c2.3,2.2,1.6,4.7,1.6,6.9c0.1,22.3,1,44.6,2.6,66.9c1.1,15.3,2.4,30.5,5.9,45.5
	c0.8,3.6,1.8,7.1,3.8,10.2c0.5,0.8,1,1.7,2.3,1.4c1.4-0.4,2.3-1.3,2.9-2.5c0.9-1.8-0.5-3.2-1-4.6c-3-7.9-3.5-16.2-5.1-24.4
	c-0.7-3.3,0.3-5.6,3-7.7c26-20.3,42.3-47.6,53.6-78c14.5-39.1,15.9-79.4,7.9-120c-5.6-28.2-14.1-55.4-30.7-79.5c-2-3-3.2-6.5-4.6-10
	c-3.4-8.7-5.3-17.8-7.1-27c-2.7-14.6-5.4-29.2-6.5-44.5c3.6,0,6.6-0.2,9.5,0c25.9,1.9,51.8,3.7,77.7,5.8c17.9,1.4,35.8,3.2,53.7,4.8
	c4.1,0.4,7.9,0.8,9.1,5.9c0.4,1.6,1.2,4.5,3.9,3c2.6-1.4,0.3-3.6-0.2-5.1c-3.8-10.7-9-20.8-16.5-31.5c11,2.8,17.3,10.8,26.4,15.1
	c0-4.2,0-7.5,0-10.8c0-4.3,0-8.7,0.1-13c0-1.6,1-2.5,2.4-2.4c0.8,0,1.9,0.9,2.2,1.7c0.6,1.9,0.8,3.9,1.3,5.8
	c1.6,6.7,2.5,13.7,7.1,19.8c6.1-12.8,8.2-26.4,11.3-39.6c1.1,1.3,2.1,2.6,3.2,3.9c0.2,3.7,0.5,7.3,0.6,10.9
	c0.3,14.8-2.4,29.1-6.5,43.3c-0.4,1.4-1.8,3.3,0.9,4c1.6,0.4,2.7-0.6,2.9-2c1-5.6,5.2-4.1,8.6-3.7c35.4,3.8,70.8,7.9,106.2,11.5
	c5.4,0.6,6.3,2.5,6,7.5c-1,15.9-2.6,31.9-1.1,47.9c0.2,2-0.8,4.8,2.5,5.5c2.8-1.6,1.7-4.2,1.6-6.3c-0.8-13.3-0.3-26.7,0.8-39.9
	c1.4-17.2,3.5-34.4,10.2-50.7c0.8,0.1,1.5,0.1,2.3,0.2c-1.4,24.8,2.2,48.8,11.1,74.6c7.1-20.6,12.1-39.3,16.5-58.3
	c4.3-19,7.2-38.2,8.7-57.8c1.3,1.7,2.2,3.4,2.6,5.2c2.7,13.4,5,26.8,6.5,40.4c2,18.9,3.8,37.8,4.5,56.8c0.1,2.5-1,6,3.9,7.5
	c0-7.8,0-14.9,0-23.2c45.5,6,90.2,11.9,134.7,17.8c0.3,4-1.4,6.2-2.5,8.6c-5,11.6-9.3,23.5-11.6,36c-2.1,10.8-4.1,21.6-2,32.7
	c0.3,1.5,0.3,3.7,2.6,3.4c2.3-0.3,1.8-2.4,1.6-4c-2.2-17,1.8-33,6.8-49c0.6-1.9,0.8-4,3.8-5c2.6,10.9,5.4,21.8,9.8,32.1
	c4.4,10.3,8.8,20.7,15.7,30.6c3.9-12.6,5.8-24.8,6.6-37c1.7-27.2-1.2-53.8-8.9-80c-0.8-2.7-4.4-7.1-0.1-8.3c3.9-1.1,3.8,4.5,4.8,7.3
	c2.3,6.9,4.4,14,6.1,21.1c4.9,21.1,8.3,42.4,10.5,64c0.4,3.6-0.2,7.8,4.6,12.1c2.1-14.4,7-26.1,14.5-36.7
	c7.6-10.7,16.1-20.5,27.5-30.7c-0.6,4.1-0.8,5.7-1.2,7.3c-4.3,18.5-0.7,36.4,4.9,54c0.5,1.6,0.7,4.8,3.3,4c3.4-1.1,1.1-3.7,0.5-5.8
	c-0.4-1.6-0.9-3.2-1.4-4.8c-3.2-10.9-5.3-22-5-33.4c0.1-3.9,1.5-5.1,5.5-4.4c12.5,2.1,25,3.6,37.5,5.6c14,2.3,28.5,2,42.1,7.2
	C2287.4,1586.2,2291,1586,2293,1589.3z M1655.9,1888.5c9.1,4,14.3,11.7,19,19.8c7.3,12.5,11.3,26.2,14.3,40.2
	c2.6,11.7,3.9,23.6,5,35.6c0.2,2.6-0.1,5.6,4,5.3c3.6-0.3,2.8-2.9,3-5.1c0.3-3,0.3-6,0.8-8.9c6.9-45.5,27.2-85.1,53.5-122.1
	c1.3,0.9,1.6,2.2,1.6,3.7c-0.3,1.3-0.5,2.6-1,3.8c-17.1,42.7-23.5,87.1-20.8,133c0.2,3.3,0.7,6.6,1.1,9.9c0.3,2.5,0.8,4.6,4.3,3.8
	c2.9-0.7,2.4-2.7,2.1-4.6c-2.7-20.6-2.1-41.1,0.1-61.7c5.9-55.3,25.6-104.9,60.9-148.2c1.8-2.1,6.7-4.5,2.3-7.9
	c-4-3.1-5.5,2.1-7.4,4c-20.1,21.4-38.3,44.3-54.4,68.9c-19,29.1-35.1,59.6-43.9,93.4c-0.3,1.3-0.4,3.3-2.6,3.5
	c-1.7-2.6-1.9-5.6-2.5-8.5c-3.7-16.3-8.6-32.1-18-46.2c-5.6-8.5-12.6-15.5-22.2-19.4c-7.3-3-14.7-4.8-23.3-2.5
	c13.7,11,20.5,20.6,27.4,38.4c11.2,28.6,14.5,58.6,14.8,89c0,0.9-0.5,1.2-2.3,0.9c-20.9-23.7-30.9-52-29.6-84.6
	c-12.3,23.2-22.1,46.8-26.3,72.3c-1.1,6.6-1.2,13.3,1.6,19.6c0.8,1.8,1.3,5.1,4.6,3.7c2.7-1.1,2.6-3.1,1.4-5.7c-2.6-6-2-12.3-1-18.6
	c2.1-12.9,6.1-25.2,10.7-37.3c0.8-2.2,1.4-4.5,4-7.1c3.1,15.2,7.5,28.8,14.8,41.2c7.2,12.2,15.5,23.5,28.6,33.3
	c0.1-47.7-3.3-92.3-27.3-132.8C1654.3,1889.7,1655.1,1889.1,1655.9,1888.5z M345.5,1467c8-11.2,9.4-24.8,12.3-39.2
	c6.2,8.9,6.2,18.2,9.4,26.5c1.5-25.5-1.1-51.3,6.9-76c1.4,11.8,1.3,23.6,2.4,35.3c1.2,11.8,0.3,24.2,6.1,35.3
	c1.9-0.9,1.9-1.8,1.7-2.8c-3.7-13.6-4.6-27.5-4.9-41.5c-0.2-10-0.9-19.9-1.3-29.9c-0.1-1.4-0.1-2.8-1.6-3.2
	c-1.3-0.3-2.6,0.1-3.6,1.2c-3.4,3.6-4.3,8.2-5.2,12.7c-2.3,11.8-2.4,23.8-2.6,35.8c0,2.3,0.9,5.2-2.4,7.1c-2-3.6-3.4-6.9-5.4-9.8
	c-1.8-2.6-2.3-6.8-7.3-7.2C358.3,1431.2,350.2,1448.8,345.5,1467z"/>
<path class="st0" d="M2293,983.6c0,199.2,0,398.5,0,597.7c-0.6,0.2-1.3,0.7-1.8,0.5c-22.2-7-45.3-9.2-68.1-13.1
	c-7.3-1.3-15-1-22.2-4.3c2-9.7,6.4-17.3,13.3-23.5c1-0.9,3.1-1.9,1.4-3.9c-1.7-1.9-3-0.2-4.2,0.7c-8.1,6.4-15.9,13.2-23,20.7
	c-3,3.2-6,4.5-10.6,3.6c-7.8-1.6-15.8-2.5-23.7-3.4c-4.5-0.5-6.8-2.1-7.8-7.1c-2.1-11.1-5-22-9.3-32.6c-2.4-5.9-4.9-11.7-9.2-16.5
	c-3.4-3.7-7.1-6.8-12.8-4.6c14,36.9,16.6,46.7,15.2,57c-0.7,0-1.3,0.1-2,0c-49.5-6.6-98.9-13.2-148.4-19.8c-7.1-0.9-7.6-1-8-8.7
	c-0.9-14.6-2.5-29.2-4.7-43.7c-2.4-16.4-5.3-32.8-11.5-48.4c-2.2-5.6-4.6-11.2-9.2-15.2c-3.2-2.8-6.8-5.8-11.8-1
	c8.6,3.4,12.5,10,14.2,18.1c1,4.9,1.8,9.8,1.9,14.8c0.2,24.8-5.1,48.8-10.6,72.8c-1,4.5-3,6-7.5,5.3c-4.1-0.6-7.3-0.6-8-6.4
	c-2.1-17.2-0.1-33.8,5.1-50.2c0.8-2.4,2.9-4.5,1.4-7.4c-3.1-0.9-4.2,1.5-5.4,3.3c-5.5,7.6-9.5,16-12.5,24.9
	c-2.8,8.2-5,16.5-6.5,25.1c-1.3,7.3-1.4,7.3-9,6.6c-5.3-0.5-10.6-1.3-15.9-1.9c-31.7-3.5-63.5-7-95.6-10.5c0.6-4.5,1.2-8.7,1.8-13
	c3.9-27.2,1.3-53.7-7.9-79.6c-0.7-1.9-0.6-5.1-5.2-3.7c6.5,24.6,3.6,48.8-4.8,74.7c-6.6-19.9-4.6-38.5-5.2-57.2
	c-7.1,3.8-8,5.2-9.6,13.3c-2.4,12.5-2.2,25.2-2.3,37.8c0,2.5,0.7,5.1-0.8,8c-4.7-2.9-8.8-5.6-13.1-8c-4.9-2.8-9.9-5.5-15.7-6
	c-9-0.9-11.9,1.7-12.7,11.4c3.9-2.8,7.2-8.2,12.8-3.9c6.9,5.3,11,12.5,14.3,21.1c-2.8,0-4.1,0.1-5.4,0c-44.5-3.4-89-7-133.5-10.1
	c-5.1-0.4-7-1.8-7.3-6.8c-1.1-14.3-2.4-28.5-4-42.7c-0.6-5.3,1-9.6,3.4-14.2c15.8-29,30.1-58.6,39.1-90.4c6.3-22.3,9.4-44.9,5.2-68
	c-2.1-11.1-5.8-21.8-8.8-32.7c-3.4-12.3-3.4-24.4,1.9-36.1c11.8-25.9,29.3-47.5,50.9-65.8c1-0.8,2.2-1.5,3.3-2.2
	c11.7-7.2,19.5-6.5,29.8,2.8c6.7,6.1,12.3,13.2,17.2,20.7c21.4,32.6,48,60.4,76.6,86.6c9.8,9,19.8,17.8,30.9,25.3
	c32.9,22.4,69.3,25.5,107.2,18.3c53-10.1,102.4-30.4,150-55.3c8.3-4.3,16.1-9.5,23.1-15.7c6.1-5.3,12.3-11.2,10.6-20.2
	c-1.9-9.7-10.6-12.1-18.8-13.9c-18.8-4.3-37.8-3-56.6-0.9c-23.5,2.6-46.6,7.7-70.2,9.9c-43.7,4.1-78.4-10.2-102.7-47.6
	c-5.6-8.7-11-17.5-16.3-26.3c-21.3-35.9-45.8-69.4-75.2-99.2c-1.3-1.3-3.4-2.3-2.7-5.3c22-6.1,44.1-12.8,66.8-17
	c3,10.6-1.6,20-1.1,29.8c3.5-5,3.9-10.8,4.9-16.5c1-5.8,0.6-11.6-0.6-18.8c11.3,10.6,17.1,22.6,20.2,36.2c3.1-2.2,2.8-4.7,3.1-6.9
	c0.9-7.3,1.3-14.6,2.6-21.8c1-5.6,0.4-11.8,4.3-16.7l-0.2-0.2c-2.2,19.4-4.1,38.8,2.2,58.8c6.9-9.7,8.5-21,13.6-31.7
	c5.5,9.8,2.8,19.5,5,28.9c1.3-1.2,2.1-1.5,2.3-2c0.3-1.3,0.3-2.6,0.4-4c0.2-13.5-3.6-26.2-8.1-38.8c-2.3-6.4-2.3-6.5,3.7-7.6
	c14.7-2.7,29.4-5.4,44.2-7.8c35.5-5.7,71.1-10,106.9-13.6c10.8-1.1,21.7-1.7,32.1-2.5c2.9,5.8-1.2,10.7-0.2,17.6
	c4.5-5.9,4.6-10.9,4.4-15.7c-0.2-4.6-0.7-9.3-2.3-13.7c-0.5-1.3-0.2-2.7,1.1-3.4c1.8-0.9,3.1-0.2,3.9,1.5c2.9,6,5.5,12.1,7.1,18.6
	c0.5,2.1,0.1,5.8,4.7,5.6c0.4-4.8-3.5-9.4-1.1-14.3c3.8,2,3.8,7.7,8.6,9c-0.1-6.8-0.1-6.9,5.3-7.2c8.6-0.5,17.3-1.5,25.9-1.4
	c23.3,0.5,46.5,2.6,69.6,5.6C2241.3,971.1,2267.6,975.4,2293,983.6z M2003.4,1067.9c9.6-15.5,3.5-32.3,3.3-50.3
	c6.8,7,7,14.6,7.9,21.6c0.9,7.2,0.6,14.6,0.7,22c0.1,6.8,0,13.6,0,22.7c9.2-20.5,15.7-39.5,17.8-59.7c0.5-4.3,0.8-8.6,2.8-12.6
	c1-2,2.2-4.6,5.1-3.3c2.5,1.1,1.2,3.3,0.8,5.2c-5,23.1-3.7,46.4-1.4,69.6c0.1,1.5-0.8,4.3,2.8,3.9c0-2,0.1-3.9,0-5.9
	c-1.2-13.6-2.3-27.2-1.6-40.9c0.5-10.6,1.3-21.2,5.3-31.3c2.3-5.9,5.7-10.5,12.7-11.1c0.9-0.1,2.9,0.2,2.2-2
	c-16.3-1.8-29.4,7.9-31.2,23.3c-1.5,12.6-3.9,25-7.9,37c-0.6,1.8-0.5,4.5-3.9,4.8c0-3.6,0.2-6.9,0-10.2c-0.7-9.6-1.1-19.3-4.7-28.4
	c-2.3-5.8-5.2-11.2-13.1-12.1c1.5,10.2,3.9,19.5,4.2,29.2C2005.6,1048.9,2005.9,1058.4,2003.4,1067.9z"/>
<path class="st1" d="M2293,983.6c-25.4-8.2-51.7-12.5-78.1-15.8c-23.1-2.9-46.3-5.1-69.6-5.6c-8.6-0.2-17.3,0.8-25.9,1.4
	c-5.5,0.3-5.5,0.4-5.3,7.2c-4.8-1.3-4.9-7-8.6-9c-2.5,4.9,1.5,9.5,1.1,14.3c-4.7,0.1-4.2-3.5-4.7-5.6c-1.6-6.5-4.2-12.6-7.1-18.6
	c-0.8-1.7-2.2-2.5-3.9-1.6c-1.3,0.7-1.6,2.1-1.1,3.4c1.6,4.4,2.1,9.1,2.3,13.7c0.2,4.8,0.1,9.8-4.4,15.7c-0.9-6.9,3.1-11.8,0.2-17.6
	c-10.4,0.8-21.3,1.4-32.1,2.5c-35.7,3.6-71.4,7.9-106.9,13.6c-14.8,2.4-29.5,5.1-44.2,7.8c-6,1.1-5.9,1.2-3.7,7.5
	c4.5,12.6,8.2,25.3,8.1,38.8c0,1.3-0.1,2.7-0.4,3.9c-0.1,0.5-0.9,0.9-2.3,2.1c-2.2-9.4,0.5-19.2-5-28.9c-5.2,10.7-6.7,22-13.6,31.7
	c-6.3-19.9-4.3-39.3-2.2-58.8c1.4-1.9,1.8-3.9,0.2-7.2c0,3.3,0,5.4,0,7.5c-3.9,4.9-3.3,11.1-4.3,16.7c-1.3,7.2-1.8,14.5-2.6,21.8
	c-0.3,2.3,0,4.8-3.1,6.9c-3.2-13.6-9-25.6-20.2-36.2c1.2,7.2,1.7,13,0.6,18.8c-1,5.7-1.4,11.5-4.9,16.5c-0.5-9.7,4.1-19.1,1.1-29.8
	c-22.7,4.2-44.7,10.9-66.8,17c-0.7,3,1.4,4,2.7,5.3c29.4,29.8,53.9,63.3,75.2,99.2c5.3,8.9,10.7,17.7,16.3,26.3
	c24.2,37.4,59,51.7,102.7,47.6c23.6-2.2,46.7-7.4,70.2-9.9c18.9-2.1,37.8-3.4,56.6,0.9c8.2,1.9,16.9,4.2,18.8,13.9
	c1.8,8.9-4.5,14.8-10.6,20.1c-7,6.2-14.8,11.4-23.1,15.7c-47.6,25-97,45.3-150,55.3c-37.9,7.2-74.2,4.1-107.2-18.3
	c-11-7.5-21.1-16.3-30.9-25.3c-28.5-26.2-55.2-54-76.6-86.6c-4.9-7.5-10.5-14.7-17.2-20.7c-10.3-9.2-18.1-9.9-29.8-2.8
	c-1.1,0.7-2.3,1.4-3.3,2.2c-21.6,18.3-39.1,39.9-50.9,65.8c-5.3,11.7-5.3,23.8-1.9,36.1c3,10.9,6.8,21.6,8.8,32.7
	c4.3,23.2,1.2,45.7-5.2,68c-9,31.9-23.4,61.5-39.1,90.4c-2.5,4.5-4,8.9-3.4,14.2c1.5,14.2,2.9,28.5,3.9,42.7c0.4,5,2.2,6.4,7.3,6.8
	c44.5,3.1,89,6.7,133.5,10.1c1.3,0.1,2.6,0,5.4,0c-3.4-8.6-7.4-15.8-14.3-21.1c-5.6-4.3-8.9,1.1-12.8,3.9
	c0.8-9.7,3.7-12.3,12.7-11.4c5.8,0.6,10.8,3.2,15.7,6c4.3,2.5,8.4,5.2,13,8c1.5-2.9,0.8-5.5,0.8-8c0.1-12.6,0-25.3,2.3-37.8
	c1.5-8.1,2.5-9.6,9.6-13.3c0.6,18.7-1.4,37.3,5.2,57.2c8.4-25.9,11.4-50.1,4.8-74.7c4.7-1.4,4.6,1.8,5.2,3.7
	c9.2,25.9,11.8,52.4,7.9,79.6c-0.6,4.2-1.2,8.5-1.8,13c32.1,3.5,63.9,7,95.6,10.5c5.3,0.6,10.6,1.4,15.9,1.9c7.6,0.7,7.7,0.6,9-6.6
	c1.5-8.5,3.7-16.9,6.5-25.1c3.1-8.8,7-17.2,12.5-24.9c1.3-1.8,2.3-4.2,5.4-3.3c1.4,2.9-0.7,5.1-1.4,7.4c-5.2,16.4-7.2,33-5.1,50.2
	c0.7,5.8,3.9,5.8,8,6.4c4.5,0.7,6.5-0.8,7.5-5.3c5.5-24,10.9-48,10.6-72.8c0-5.1-0.9-10-1.9-14.8c-1.6-8.1-5.6-14.7-14.2-18.1
	c5-4.8,8.6-1.8,11.8,1c4.6,4.1,7,9.6,9.2,15.2c6.1,15.6,9,32,11.5,48.4c2.2,14.5,3.8,29,4.7,43.6c0.5,7.7,0.9,7.7,8,8.7
	c49.5,6.6,99,13.2,148.4,19.8c0.6,0.1,1.3,0,2,0c1.4-10.3-1.2-20.1-15.2-57c5.7-2.2,9.4,0.9,12.8,4.6c4.3,4.7,6.8,10.6,9.2,16.5
	c4.2,10.5,7.1,21.5,9.3,32.6c1,5,3.3,6.6,7.8,7.1c7.9,0.9,15.9,1.8,23.7,3.4c4.6,0.9,7.6-0.4,10.6-3.6c7.1-7.5,14.9-14.3,23-20.7
	c1.2-0.9,2.5-2.7,4.2-0.7c1.7,2-0.4,2.9-1.4,3.9c-6.9,6.2-11.3,13.8-13.3,23.5c7.2,3.3,14.9,3,22.2,4.3c22.8,3.9,45.9,6.1,68.1,13.1
	c0.5,0.2,1.2-0.3,1.8-0.5c0,2.7,0,5.3,0,8c-2-3.3-5.6-3.1-8.6-4.3c-13.5-5.2-28-5-42.1-7.2c-12.5-2-25-3.5-37.5-5.6
	c-4.1-0.7-5.4,0.6-5.6,4.5c-0.3,11.4,1.8,22.5,5,33.4c0.5,1.6,0.9,3.2,1.4,4.8c0.6,2,2.9,4.7-0.5,5.8c-2.6,0.8-2.8-2.4-3.3-4
	c-5.6-17.6-9.3-35.4-4.9-54c0.4-1.6,0.5-3.2,1.2-7.3c-11.3,10.3-19.8,20-27.4,30.7c-7.6,10.6-12.4,22.3-14.5,36.7
	c-4.8-4.3-4.3-8.5-4.6-12.1c-2.2-21.5-5.6-42.9-10.5-64c-1.7-7.1-3.7-14.2-6.1-21.1c-1-2.8-0.9-8.4-4.8-7.3c-4.4,1.3-0.7,5.7,0,8.3
	c7.7,26.2,10.6,52.8,8.9,80c-0.8,12.3-2.7,24.4-6.6,37c-6.9-9.9-11.3-20.2-15.7-30.6c-4.4-10.3-7.2-21.2-9.8-32.1
	c-3,1.1-3.2,3.2-3.8,5c-4.9,16-8.9,32.1-6.8,49c0.2,1.6,0.7,3.7-1.6,4c-2.3,0.3-2.3-1.9-2.6-3.4c-2.1-11-0.1-21.9,2-32.7
	c2.4-12.5,6.6-24.3,11.7-36c1-2.4,2.7-4.6,2.5-8.6c-44.5-5.9-89.2-11.8-134.7-17.8c0,8.3,0,15.4,0,23.2c-4.9-1.5-3.8-5-3.9-7.5
	c-0.7-19-2.4-37.9-4.5-56.8c-1.5-13.6-3.7-27-6.5-40.4c-0.4-1.8-1.3-3.6-2.6-5.2c-1.6,19.6-4.4,38.8-8.7,57.8
	c-4.3,19-9.3,37.8-16.5,58.3c-8.9-25.8-12.5-49.8-11.1-74.6c1.4-2.3,1.5-4.6,0.4-7.2c-1,2.4-2.8,4.3-2.7,7
	c-6.6,16.2-8.7,33.4-10.2,50.7c-1.1,13.3-1.6,26.6-0.8,39.9c0.1,2.1,1.2,4.7-1.6,6.3c-3.3-0.7-2.3-3.5-2.5-5.5
	c-1.4-16,0.1-32,1.1-47.9c0.3-5.1-0.6-7-6-7.5c-35.4-3.7-70.8-7.7-106.2-11.5c-3.4-0.4-7.6-1.9-8.6,3.7c-0.2,1.3-1.4,2.4-2.9,2
	c-2.7-0.7-1.3-2.6-0.9-4c4.1-14.2,6.7-28.5,6.5-43.3c-0.1-3.7-0.4-7.3-0.6-10.9c0.3-4.5,0.8-9-2.6-14.7c-0.3,4.8-0.4,7.8-0.6,10.8
	c-3.2,13.2-5.2,26.8-11.3,39.6c-4.6-6.1-5.4-13.1-7.1-19.8c-0.5-1.9-0.6-3.9-1.3-5.8c-0.3-0.8-1.4-1.6-2.2-1.7
	c-1.4-0.1-2.4,0.8-2.4,2.4c0,4.3,0,8.7,0,13c0,3.3,0,6.6,0,10.8c-9.1-4.3-15.3-12.3-26.4-15.1c7.5,10.6,12.6,20.7,16.4,31.4
	c0.6,1.6,2.9,3.7,0.2,5.1c-2.7,1.5-3.5-1.4-3.9-3c-1.2-5.1-4.9-5.6-9.1-5.9c-17.9-1.6-35.8-3.4-53.7-4.8
	c-25.9-2.1-51.8-3.9-77.7-5.8c-2.9-0.2-5.9,0-9.5,0c1.1,15.3,3.8,29.9,6.5,44.5c1.7,9.1,3.7,18.3,7,27c1.3,3.4,2.5,7,4.5,9.9
	c16.6,24,25.1,51.3,30.7,79.5c8,40.6,6.7,80.9-7.9,120c-11.3,30.3-27.6,57.6-53.6,78c-2.7,2.1-3.7,4.4-3,7.7
	c1.7,8.1,2.1,16.5,5.1,24.4c0.5,1.5,1.9,2.8,1,4.6c-0.6,1.2-1.5,2.2-2.9,2.5c-1.3,0.3-1.8-0.6-2.3-1.4c-2-3.1-3-6.7-3.8-10.2
	c-3.5-15-4.8-30.2-5.9-45.5c-1.6-22.3-2.5-44.6-2.6-66.9c0-2.2,0.7-4.7-1.6-6.9c-4.3,4.7-4.6,10.8-5.6,16.4
	c-2.5,13.4-3.7,27.1-4.1,40.7c-0.8,25-0.9,50-0.1,74.9c0.1,2,0.1,4,0,6c-0.1,1.5-1.1,2.3-2.7,2.3c-1.7,0-3.4,0-3.6-2.3
	c-0.2-2-0.1-4-0.3-6c-0.8-13.5-6.6-31.5-13.6-41.7c-1.3,22.7-6,43.9-13.8,64.5c-0.8,2.2-1.5,4.4-2.5,6.5c-0.9,2.1-1.9,4.5-5.1,2.9
	c-2.7-1.3-1.5-3.3-0.9-5.1c3-9.2,6.1-18.3,9.1-27.4c1-3.1,1.5-6.4,2.1-9.4c-2.5-2.7-4.7-0.5-6.5,0.1c-16.1,5.3-32.5,9.7-49,13.4
	c-4.8,1.1-8.3,2-7.4,8c0.3,2.2-0.8,3.9-3.4,3.7c-3-0.2-2.4-2.7-2.4-4.5c-0.5-32.7,1.1-65.2,8.9-97.2c0.6-2.5,2-5,0.8-7.7
	c-2,0-2.8,1.6-3.8,2.8c-26.3,32.5-46.3,68.2-54.9,109.6c-1.8,8.5-3.5,17-3.6,25.7c0,2-0.3,4-0.6,5.9c-0.3,1.4-1.3,2.2-2.9,2.2
	c-1.5,0.1-2.7-0.7-3-2.1c-0.4-1.6-0.5-3.3-0.6-4.9c-1.6-32-5.1-63.7-10.4-95.3c-3.6-21-7.9-41.9-16.3-61.6
	c-3.7-8.8-7.7-17.7-16.4-23.1c-2.2,2.4-0.7,4.6-0.3,6.6c9.2,46.4,17.4,92.9,19.9,140.3c0.8,15,0.4,29.9-2.8,44.7
	c-1.1,5.2-2.7,10.2-6.8,15.3c-12.2-29.7-21.4-59.2-25.4-90.1c-1.7-0.5-2.6,0.3-3.3,1.6c-7.8,16.6-15,33.4-19,51.3
	c-2,8.9-3,17.7-0.8,26.7c0.5,2.3,0.7,3.8-1.9,4.6c-3,0.9-3.5-1.5-3.9-3.2c-2.1-8.2-1.4-16.5-0.2-24.8c0.5-3.2,1.9-6.3,1.2-10.2
	c-13.2-0.8-26.3,1.8-40,2.4c2.9,16.3,4.9,32.1,4.8,48.1c-0.1,7.3-0.2,14.7-0.3,22c0,1.7-0.2,3.4-2.5,3.5c-2.4,0.1-3.8-0.9-3.8-3.4
	c0-2.7,0.1-5.3,0.2-8c0.6-25.1-1.1-49.9-8.5-74.1c-1.2-4-1.9-8.3-6.3-13.4c2.1,27.8-2.6,52.7-13.3,78.4
	c-14.9-37.1-25.7-73.6-29.6-113.9c-5.2,7.2-5.3,13.6-6.4,19.6c-4.6,24.2-7.2,48.7-8.5,73.4c-0.2,3-0.4,6-0.7,9
	c-0.2,2.2-1.2,3.8-3.8,3.3c-2.6-0.5-2.8-2.1-2.6-4.4c0.8-9.3,1.3-18.6,2.1-27.9c0.8-8.2,0.9-8.4-7.4-8c-43.9,2.4-87.9,1.6-131.9,1.8
	c-35.7,0.1-71.1-3.5-106.5-7.6c-10.6-1.2-21.1-2.4-32.2-3.6c-1.3,9.1-0.2,18.1-2.6,26.8c-1.8,6.5-4.1,12.7-8.2,18
	c-1,1.4-2.2,2.4-4.1,1c-1.4-1.1-2.5-2.3-1.4-4.2c16.5-26.6,8.2-54.1,2.6-81.4c-1.3-6.6-2.7-13.5-6.1-19.5c-1.9,0.6-2.3,1.9-2.5,3.2
	c-6.6,30.9-19.9,59.1-34.3,87c-0.5,0.9-1,1.7-1.4,2.6c-0.9,1.7-2.1,2.4-4.1,1.7c-2.5-0.8-2.7-2.4-2.1-4.6
	c5.2-21.6-0.4-42.2-5.8-62.8c-0.1-0.5-0.9-0.8-1.7-1.5c-6,11.5-12.1,22.9-21.5,32.7c-5.2-4.4-5.3-10.5-6.7-16.1
	c-0.4-1.6-0.5-3.3-0.8-4.9c-0.2-1.3-0.6-2.6-2.4-2.5c-1.7,0-2.3,1.3-2.4,2.6c-0.5,6.6-0.8,13.3-1.1,19.9c-0.1,2.7,0,5.3-0.2,8
	c-0.1,2.2,0.6,4.9-3.1,5c-3.7,0.1-3.3-2.5-3.3-4.8c0-11-1.2-22-3.7-32.7c-6.1-26.1-16.6-50.4-32-72.5c-0.3-2.1-1.2-3.6-3.5-4
	c-0.3,2.3,0,4.4,1.5,6.2c1.4,15.6,2.6,31.1,0.5,46.8c-2.6,19.2-7.3,37.8-14.3,55.9c-0.4,0.9-0.8,1.8-1.1,2.8c-0.9,2.3-2.4,3.2-4.6,2
	c-1.7-0.9-2.2-2.3-1.4-4.1c0.8-1.8,1.6-3.7,2.2-5.6c2.9-9.2,5.7-18.4,8.6-27.6c1.3-4.4,0.7-7-4.7-8.6c-13.7-3.9-27.1-8.8-42.2-13.7
	c0.8,10.5,1.5,20.1,2.2,29.8c0.2,2.7,0.6,5.3,0.8,7.9c0.2,1.8-1.2,2.2-2.5,2.3c-1.3,0.1-2.8,0.2-3.3-1.4c-0.4-1.3-0.6-2.6-0.7-3.9
	c-4.3-41.8-6.6-83.6,0.2-125.4c1.6-9.9,5.2-19.2,8.3-28.6c0.8-0.9,1.6-1.9,0.3-2.9c-1.3-1-2.1,0.3-3,0.9
	c-12.7,7.3-17.9,19-19.1,33.1c-3.7,43.3-17.6,83.7-35.9,122.8c-0.1,0.3-0.4,0.5-1.8,2.3c0.6-6.5,1.1-11.4,1.5-16.3
	c0.4-5.3,0.7-10.6,1-15.9c1.7-27,1.5-53.9-5.1-80.4c-2-7.9-4.8-15.6-12.1-22.6c-1.1,6.8,0.5,11.8,1.3,16.8
	c3.1,19.8,4.7,39.6,3.2,59.7c-0.5,7-1.9,13.9-4.8,20.3c-1,2.3-1.4,6.9-5.8,4.8c-3.5-1.7-1.1-4.4-0.1-6.8c3.2-7.8,4.4-15.9,4.9-24.3
	c0.3-4.9-1.6-7.8-5.6-10.4c-16.6-10.6-31.7-23.1-44.6-38.2c-16.7-19.5-26.4-42.1-29.7-67.5c-1-7.4,0.7-14.6,2.6-21.7
	c2.9-10.6,7.1-20.8,12.8-30.2c5.1-8.4,7.9-17.4,9.7-26.9c5.1-26.8,10.6-53.4,15.9-80.2c0.3-1.6,0.8-3.3-0.4-5
	c-25.1,11.2-51.5,11.2-78.2,8.6c-17.3-1.7-34.2-4.7-51.1-8.7c-12-2.9-23.5-7.1-34.4-13.1c-4.4-2.4-8.6-5.1-11.9-9
	c-5.8-6.8-5.4-14.2,1.3-20.3c5.3-4.8,11.7-7.4,18.3-9.9c15.4-5.7,31.5-8.2,47.4-11.7c11.4-2.6,22.4-6.2,32.3-12.7
	c15.1-10,20.2-23.7,15.8-41.5c-3-12.2-9.1-22.8-16.4-32.8c-17.3-24.1-38.9-43.7-63-60.7c-6-4.2-12.4-8-17.2-13.5
	c-4.4-5-9.1-5.7-15.1-4.2c-29.5,6.9-58.9,13.8-87.9,22.3c-1.6,0.5-3.2,0.9-4.8,1.4c-5,1.8-11.1,1.6-14.8,5.3
	c-3.5,3.6,0,9.6-1.6,14.4c-3.5-0.3-2.8-3.1-3.1-5.1c-1.1-8.4,1.4-16.5,1.3-24.9c1.2-3.7,2.3-7.5,3.9-12.7c-3,3.7-5,5.8-5.5,8.9
	c-5.2,8.4-8.6,17.4-8.5,27.5c-3.1,1.4-3.8,0-4.2-2.9c-1.2-7.5-1.8-15.3-7.4-21.4c3,8.7,3.6,17.8,4.8,26.8c-0.5,2.8-0.8,5.6,0.4,8.4
	c-1.1,0.4-2.2,0.8-3.2,1.2c-4.5-5.3-8.4-11-11.5-17.9c-5.4,4.7-3.7,10.7-4.8,16c-3-0.7-2.9-5.4-7.1-3.8c-16.4,6.1-33,11.8-48.9,18.7
	c0.2,5.5,4.6,8.4,6,13.5c-5.9-0.5-5.7-6.6-10-8.5c-2.6,4.8,1.9,9.2,0.9,14.1c-4.1,0.5-3.9-3.1-4.3-5.1c-1.6-7.2-4.5-13.9-7.8-20.4
	c-0.8-1.6-1.3-4.3-4-3.4c-2.9,0.9-1.3,3.2-0.8,4.9c1.8,6.1,3,12.3,2.6,18.7c-0.3,3.9-0.4,7.7-4.1,11.2c-2.3-5.3,2.6-9.9,0.5-14.6
	c-2.5-2-4.4,0.1-6.3,1c-52.9,23.1-103.3,50.5-150,84.6c-14.2,10.4-29.2,19.6-42.3,31.3c0-4,0-8,0-12c4,1.8,6.1-1.7,8.6-3.5
	c12.3-8.5,24.4-17.1,36.6-25.8c45-32.2,93.5-58.2,144-80.4c0.9-0.4,1.9-0.7,2.8-1.1c6.3-2.9,6.2-2.9,4.2-9.5
	c-2.4-7.9-6.9-14.9-11.2-23.5c14.4,3.4,19.1,14.7,25.2,24.8c5.6-2.3,3.8-9.4,8.6-11.8c3.1,2.4-1.4,4.9,0.8,7.3
	c3.9,0.5,7.2-2,10.8-3.3c12.5-4.4,24.9-9.2,37.3-13.7c4.3-1.5,7.2-3.6,8.6-8.5c1.2-4.2,2-9.1,6.3-11.9c-0.6,3.6,0.4,7.1,1.2,10.6
	c0.4,1.7,0.8,3.3,2.9,3c2-0.3,3.8-1.2,3.3-3.8c-0.8-4.1-1.3-8.3-4-11.8c-0.3-4.7-4.2-7.3-6.4-10.9c9.7-1.2,11.1,0,20,17.8
	c4.8-5,5.7-11.9,9.3-17.1c3.8-5.5,7.1-11.3,11.1-16.6c3.8-5.1,8.3-9.8,13.4-14c-8.5,14.6-17.2,28.9-18.3,47.5
	c36.9-10.8,73.3-20.5,110.4-28.1c-1-3.9-3.6-6.1-5.5-8.7c-17-24-27-50.7-27.6-80c-0.7-37.5,14.5-67.7,45.8-89.3
	c19.6-13.5,41.5-20.7,65-23.7c43.1-5.5,84.9,1.9,126.3,13.1c22.2,6,43.7,13.8,65.7,23c9.3-22.1,18.9-43.8,29.7-65.1
	c-4.7-3.5-10-3.2-14.7-4.6c-7.7-2.4-15.2-4.8-21.7-9.8c-10.3-7.9-11.4-18.7-2.9-28.5c4.8-5.6,10.7-10,16.8-14.2
	c12.1-8.3,24.2-16.5,36.3-24.7c2.5-1.7,4.7-3.4,6.2-6.2c4-7.6,8.3-15.2,12.9-22.5c14.5-23.2,19.7-48.3,17.6-75.4
	c-2.4-30.2-5.5-60.3-11-90.1c-1.6-8.8-1.7-8.8-10-10.5c-45.5-8.8-89.6-22.1-132.4-40c-33.2-13.9-65-30.4-95.1-50.1
	c-5.9-3.9-10.7-4.5-17.4-1.8c-43.9,17.6-88.8,31.9-135.3,40.7c-26.9,5-53.9,8.6-81.4,5.2c-11-1.3-21.6-3.7-31.7-8.3
	c-14.2-6.5-24.9-16.7-30.6-31.4c-10.3-26.8-24.8-50.7-45.8-70.6c-14.8-14-19.9-32.5-22.8-52c-2.2-14.5-2.4-29.2-3.5-43.8
	c-3.2-43.9-10.4-87.1-19.5-130.1c-2.4-11.4-4.6-22.9-8.1-33.9c-5.6-17.9-1.9-34.2,6.4-50c8.2-15.6,21.3-26.2,36.7-34.1
	c18.8-9.7,39.1-14.7,59.9-17.9c33.8-5.1,67.7-5,101.7-3.1c5.9,0.3,10.6-0.5,15.6-4.3c20.2-15.3,43.6-20.6,68.6-19.9
	c4.3,0.1,7.1,0.1,9.2-5c10.7-25.9,31.9-36.1,58.4-37.6c21.6-1.2,42.5,2.8,62.7,10c6.7,2.4,11.6,1.4,17.5-2.1
	c22.8-13.9,46.7-25.5,73.2-30.6c26.9-5.2,52.4-2.8,74.9,14.7c3.1,2.4,5.6,2.3,9.1,0.7c15.5-6.9,31.4-12.7,47.5-18.1
	c3.3-1.1,6.1-2.5,8-5.5c0.3-0.6,0.8-1,1.3-1.6c26.3-31.5,57-36.5,92-14.8c16.6,10.3,30.8,23.4,42.6,38.8c4.2,5.5,7.9,6.1,14.2,4.1
	c18.2-6,36.9-8.7,56.1-7.7c25.8,1.3,48.1,10,64.6,30.6c2.1,2.6,3.9,3.9,7.4,3.6c36.8-2.5,63.8,16.5,90.8,41.8
	c-63.5,0-124.7,0-185.4,0c-1.8,3.9,0.5,5.5,1.7,7.3c4.9,7.6,9.7,15.2,13,23.5c1.7,4.4,4.5,6,8.9,6.5c10.1,1.1,19.5,4.2,27.7,10.3
	c3.3,2.4,6.8,2.1,10.4,2.5c40.3,4.1,80.5-0.4,120.8-0.6c99.9-0.4,197.8,11.8,293.2,42.4c50.8,16.3,99.8,37,144.5,66.5
	c10.8,7.1,20.8,10.5,33.9,9.7c46-2.7,90.8,6,135.2,16.9c64.4,15.8,126.7,37.9,187.5,64c12.5,5.4,25.3,8,38.7,8
	c18.3,0,36.6-1.4,54.9-2.4c25-1.3,49.9-2.1,74.8,1.2c29.3,3.9,56.8,12.5,78.7,33.1c30.6,28.7,45.3,64.5,43.1,106.5
	c-1.2,23-9.8,44-22,63.4c-16.8,26.5-38.9,48-63.6,67c-18.8,14.5-38.6,27.2-59.7,38.1c-4.5,2.3-8.5,5.1-12.3,8.4
	c-36.7,31-77.1,55.9-123.6,69c-83,23.4-160.1,8.7-230.9-39.5c-14.4-9.8-29.1-15.8-46.5-14.7c-38.8,2.6-75.2-6.5-110.6-21.4
	c-8.7-3.7-8.8-3.5-14.9,3.8c-12.4,15.1-18.3,32.9-21.2,52c-3.4,22.4-0.7,44.4,2.9,66.5c5.3,32.5,10.2,65,15.3,97.5
	c0.6,3.7,1.4,7.5,2.2,11.9c3.4-2.9,4.2-6.3,5.7-9.1c12.4-23.2,27.7-43.9,48.4-60.4c31.4-24.9,67.1-34,106.7-29.4
	c22.3,2.6,43.7,8.9,64,18.3c7.2,3.3,13.4,3.3,20.8,1.1c17.8-5.3,36-9.6,54-14.3c7.3-1.9,7.6-2.6,3.8-9.2c-1.1-1.9-2.5-3.7-3.1-6.2
	c4.4,1.4,7.3,4.6,10,7.9c2.7,3.3,5.8,4.2,9.7,3c1.6-0.5,3.2-1.3,4.8-1.2c7.8,0.1,11.1-4,12-11.4c0.6-5.3,2.4-10.4,4.9-15.1
	c1.8-3.5,3.6-7.2,9.4-6.6c-1.9,8.8-5.9,16.9-6.7,25.7c-1.2,2.3-0.6,3.3,2,2.6c23.6-3.9,47.2-8,70.8-11.7
	c41.1-6.5,82.4-10.7,124.8-14.3c-1.1-11.8-7.4-21.1-13.2-31.9c15.1,2.9,19.5,15.4,26,26c4.6-3.9,3-10.7,8.3-13.6
	c1.9,4.1-1.8,6.5-1.7,9.7c0.1,6.1,2,8.3,8.1,8.1c14.6-0.3,29.2-2.4,43.8-1.7c43.6,2.2,86.8,7.7,129.1,18.8c1.6,0.4,3.2,0.7,4.8,1
	C2293,979.6,2293,981.6,2293,983.6z M2129.2,1513.3c-0.6-3.3-2.4-6-6.1-8.4c1,4.3,1.8,7.6,4,10.5c-0.1,1.5,0.9,2.9,2.1,2.3
	C2131.6,1516.6,2130.8,1514.8,2129.2,1513.3z M152.2,455.8c-0.2,3.5,0.1,6.8,3,9.7c0.4-3.7,1-7,0.3-10.3c-0.1-1.4-0.9-2.5-2.2-2.3
	C151.8,453.2,151.5,454.4,152.2,455.8z M1760.9,1469.3c0-6.7,0-13.4,0-21.9c-2.7,8.4-4.1,15.3-3.1,22.5c-0.3,1.6-0.5,3.8,1.6,3.8
	C1762.5,1473.6,1761.2,1471.1,1760.9,1469.3z M811.1,1895.1c0-8.8,0-17.7,0-26.5c-1.4,8.8-3.9,17.5-3.1,26.5c0.1,2.5-2.6,6.9,1.5,7
	C813.3,1902.2,810.9,1897.7,811.1,1895.1z M717.2,1294.8c10.2,0.1,20.4,2.7,27.2-7.7c0.8-1.2,2.8-1.7,4.2-2.5
	c11-6.2,19.5-15.1,26.2-25.6c2.5-3.9,4.6-8,5.1-12.8c1.5-12.5,14.4-28.1,26.7-30.5c13.1-2.6,26.5-3,39.7-0.2c5.9,1.3,9,5.1,9.7,11.2
	c0.4,4,0.3,8.1-0.8,11.9c-3.1,10.9-7.4,21.4-14,30.7c-6.4,9-14.5,15.4-25.4,18.1c-10.4,2.5-16,10.6-22,19.3
	c33.6,11.8,63,28.7,91.4,47.3c2.8,1.8,5.9,3.1,8.5,5.2c4.4,3.5,6.9,1.5,9.5-2.4c3.8-5.7,5.6-11.8,6.7-18.5c2-13,9.7-19.1,22.8-18.8
	c4.6,0.1,9.3,1,13.8,1.8c10.2,1.7,15.1,6.5,17.3,16.6c1.7,7.6,1.6,15.1,0.4,22.8c-0.7,4.1-1.5,7.5-5.3,10.1
	c-4.1,2.8-7.1,6.8-9.2,11.7c3.8,2.2,7.8,2.8,11.6,3.7c14.9,3.7,30,6.3,45.3,7.1c2.4,0.1,5.4,1.3,6.8-2.3c4.2-10.1,9.1-19.8,10.4-31
	c1.2-10.6,1-21.3,1.8-31.9c1.4-17.7,10.9-26.4,28.3-26.5c1.7,0,3.3-0.1,5,0c10.1,0.3,14.6,3.9,16.9,13.5c3.2,13,1.1,25.8-2.8,38.3
	c-3.9,12.3-7.8,24.5-7.9,38.4c31.6-3.4,61.5-10.8,91-21.4c-3.2-10.3-7.3-19.1-11.4-27.8c-10.1-21.1-7.5-42.1,1.5-62.5
	c4.7-10.6,13.8-16.9,25.2-19.4c10.4-2.3,17.3,1.8,21,11.9c1.5,4.2,1.5,8.5,1.5,12.8c0.2,21.4,6.1,40.5,21.6,56.2
	c3.2,3.2,5.3,3.7,9.2,2c11.3-5,23.2-8,35.6-9.4c14.2-1.6,28.5-3,42.8-2.9c3.3,0,5.5-0.3,6-4.5c2.7-22.6,10.6-43.9,16.4-65.7
	c1.5-5.8,4-11.3,7.5-16.3c5.9-8.3,12.7-10.9,22.5-8.4c5.8,1.5,11.5,3.2,17.1,5.3c8.7,3.2,12.2,9.2,11.5,18.7
	c-0.4,5.8-3,10.8-5.6,15.9c-7.7,15.2-14.3,30.7-15.6,48c-0.5,7.3-0.6,7.5,7.1,7.8c25.3,1.1,50.5,3,75.8,5.2
	c12.4,1.1,24.5,2.9,34,12.2c5.8,5.7,10.2,12.3,13.6,19.6c5.6,11.8,8.8,24.4,10.9,37.2c2.6,15.1,3.5,30.4,3.4,45.8
	c0,2.4,0.1,4.7-3.5,4.8c-3.3,0.1-5-1.2-4.8-4.6c0.1-1.7,0-3.3,0-5c0.1-15-1.4-29.9-4.2-44.7c-2.7-13.8-6.5-27.2-14.5-39
	c-6.4-9.5-14.9-15.6-26.9-16.9c-19.9-2.2-39.8-3.6-59.7-5c-10.1-0.7-20.3-0.1-31-0.1c-0.3,5.3,0.5,10.8,1.3,16.4
	c2.8,19.4,5.5,38.9,4.7,58.6c-0.7,18.6-10.5,29-28.8,30.8c-2.6,0.3-5.3,0.3-8,0.2c-9.3-0.3-14.6-4.5-17.3-13.6
	c-2.2-7.2-1.9-14.5-1.1-21.8c1.3-11.6,2.8-23.1,4.3-34.7c1-7.8,0.1-15.2-4.3-22c-1.9-3-3.8-6.6-4.1-10.1c-0.5-5.7-3.6-6.2-8-5.9
	c-12,0.8-24,1-35.9,2.3c-13.3,1.4-26.2,4.2-38.6,9.6c-3.4,1.5-4.5,2.9-3.1,6.7c6.7,18.4,8.1,37.7,7.7,57.1
	c-0.2,11.8,0.9,22.4,8.1,32.7c7.4,10.6,3.9,18.1-8.2,23.7c-6,2.8-12.2,5.2-17.8,8.9c-8.1,5.4-16.3,4.6-24.3-0.5
	c-6.4-4-10.8-9.8-14.4-16.3c-7-12.6-9.4-26.2-9.1-40.4c0.3-15.1-2.3-29.7-7.3-43.8c-2.5-0.2-4.3,0.5-6.2,1.2
	c-16.4,5.4-33,10.2-50,13.6c-10.8,2.2-21.5,4.6-32.5,5.3c-5.1,0.4-7.2,2.7-6.3,7.8c0.3,1.6,0.5,3.3,0.6,5
	c0.9,11.8,6.4,22.3,9.6,33.5c3,10.6,5.7,21.2,5,32.4c-1,15.5-9.9,24.4-25.3,25.5c-2.6,0.2-5.3,0.3-8,0.1
	c-11.4-0.7-16.8-5.1-19.5-16.3c-0.6-2.6-0.9-5.2-1.2-7.9c-1.4-13.3-3.9-26.2-9.1-38.7c-4.4-10.5-6.7-21.7-6.1-33.1
	c0.3-5-1-6.2-5.8-6.4c-17.3-0.9-34.3-4.3-51.1-8.6c-7.8-2-8-2.1-10.2,5.4c-4,13.7-7.5,27.6-11.5,41.3c-3.1,10.6-6.9,20.8-13.2,30
	c-6.7,9.8-15.9,14.2-27.6,11.7c-10.1-2.2-20-5-29.8-8.1c-6.5-2-8.6-6.2-8-13.2c0.4-5.5,3-10.2,5.2-15c4.4-9.3,9.7-18.3,11.7-28.5
	c3.3-17.4,10.6-32.8,22.1-46.3c0.4-0.4,0.3-1.2,0.4-1.8c-10.7-6.8-21.4-13.6-32.1-20.2c-20.5-12.5-41.7-23.5-64.3-31.7
	c-6.7-2.4-6.9-2.4-9.8,3.9c-6.3,13.7-10.8,27.9-10.1,43.3c0.2,5,0,10-0.6,15c-1.7,13.5-9.3,21.8-22.5,24.7
	c-3.6,0.8-7.2,1.3-10.9,1.6c-12.5,0.8-19.3-3.9-23.1-15.8c-0.9-2.8-1.5-5.8-1.7-8.8c-2.1-23.8,3.4-46.2,11.5-68.3c1-2.6,3.5-5,2-8.6
	c-3.3,0-6.6,0.3-9.9-0.1c-6-0.6-8.9,2-10.5,7.8c-2.7,9.6-6.2,19-10.4,28c-2.3,4.9-4.7,9.6-8.6,13.3c-5,4.8-10.7,6-17.4,3.3
	c-6.5-2.6-10.4-7-10.8-14.1c-0.3-5,0.5-9.9,2.2-14.7c0.8-2.2,3.5-4.3,1.4-7.2c-6.2,2.5-9.3,7-9.8,13.7c-0.3,4.6-1.7,9.1-2.5,13.7
	c-7.5,44.9-10.7,89.8-2.8,135.1c5.8,33.7,15.3,66.1,33.7,95.3c21.2,33.7,50.7,55.9,89.8,64.8c5.2,1.2,10.5,2.2,15.7,2.7
	c3.4,0.4,3.4,2.2,3.3,4.7c-0.1,3.3-1.9,3.8-4.6,3.5c-2.3-0.3-4.6-0.6-6.9-1c-50.4-8.8-86.7-37-110.9-81.5
	c-17.2-31.7-25.9-66.1-30.3-101.7c-1.2-10.1-2-20.2-3.2-31.8c-4.6,5.5-5.1,10.9-6.4,15.8c-17.7,66.5-31,134.1-44.1,201.6
	c-2.2,11.5-4.7,22.6-11.2,32.7c-5.3,8.4-9,17.8-11.7,27.4c-1.7,6.1-3.5,12.3-2.7,18.6c2.8,22.3,10.7,42.4,24.8,60.1
	c11.6,14.4,25.3,26.4,40.5,36.8c1.7,1.2,3.2,3.8,6.4,1.8c-0.4-20.7-5-41.2-8.6-62.2c8.4,0.5,13.8,4.5,18.3,10.1
	c4,5,6.5,10.8,8.5,16.8c5,15,6.3,30.6,7.3,46.2c0.5,7.7,0.4,7.7,9.4,9.4c6.3-20.3,11.2-41,12.6-62.3c1.3-20.3,11.7-34.3,30.1-42.3
	c6.4-2.8,13.2-4.6,19.9-6.4c2.8-0.8,6-0.3,8.9-0.3c1.4,0,2.6,0.4,2.7,2.1c0.1,1.8-0.4,3.4-2.3,3.9c-1.6,0.4-3.3,0.7-4.9,0.7
	c-10.4,0.3-16.2,6.8-20.3,15.3c-2.1,4.5-4.1,9.1-5.4,13.9c-7.8,29-7.3,58.6-6.7,88.3c0.1,3.2,1.5,4.7,4.4,5.7
	c13.6,4.5,27,9.3,40.6,13.7c5.6,1.8,5.9,1.3,6.7-4.9c3.8-29.4,1.7-57.8-15.5-83.4c-0.2-0.3-0.3-0.6-0.5-0.9c-1.7-2-1.2-3.6,0.7-5
	c1.6-1.2,3-0.8,4.2,0.8c0.8,1.1,1.8,2,2.6,3c22.1,27,39.8,56.5,50.7,89.9c0.7,2.1,0.5,4.6,3.6,5.8c0.8-6.6,1.5-13.1,2.4-19.6
	c1.3-9.9,2.7-19.8,6.6-29.1c2-4.9,4.7-9.7,12.2-9.2c-0.6,5.2-1.1,10.1-1.7,15c-1.8,16.6-3.3,33.1-3.1,49.8c0,4.1,1.6,5.8,5.5,6.8
	c3.8,1,5.5-0.4,7.1-3.5c3.6-7.2,7.1-14.3,7-22.6c0-2.6,1.5-3.6,3.6-3.8c2-0.2,2.6,1.6,3.1,3.3c2,7.4,4.8,14.6,6,22.1
	c1.4,8.1,5,11.9,13.5,12.5c5.1,0.4,7.7,0.1,9.6-5.1c4.9-13.5,9.5-27,12-41.1c1.7-9.9,1.8-19.8-3.2-29.2c-2.8-5.4-4.9-11.3-7.8-18.3
	c12.7,11.3,14,13.4,18,27.3c0.7,2.6,1.8,5,2.7,7.5c6.6,18.5,12.2,37.3,15,56.8c1.5,10.1,0.5,9.4,10.6,10.7c33,4.3,66.1,7.9,99.4,9.6
	c39,2,77.9,0.9,116.9,0.6c16.3-0.1,32.6-1.4,48.9-1.4c5.4,0,7-2.3,7.4-6.8c0.2-2,0.3-4,0.6-6c2.5-19.1,5.7-38.1,11.9-56.5
	c2.9-8.6,6.2-16.9,12.1-23.9c6.6-7.7,11-8.5,21.4-3.6c-14.4,3.4-20,13.2-21.2,26.2c-2.1,22.3,2.7,43.7,7.9,65.1
	c0.6,2.4,1.9,3.1,4.1,3.4c16.2,2.1,19.4-1.1,16.8-17.2c-0.1-0.3-0.2-0.6-0.3-1c-1.1-8.6-3.3-17-7.4-24.7c-1.2-2.3-0.6-3.8,1.2-5
	c1.7-1.2,3.1-0.5,4.3,0.9c1.3,1.5,2.6,3,3.9,4.6c7.9,10.1,13.3,21.6,16.8,33.7c1.5,5.2,3.5,7,8.9,6.4c10.3-1.2,20.6-2.1,30.9-2.6
	c6.1-0.2,9.3-2.3,11.3-8.5c6-17.7,14.2-34.4,23.3-50.7c2.1-3.7,3.7-7.9,8.4-12c-7.6,21.3-4.3,40.9,0.1,60.5c0.9,4.3,2.6,5.9,7.4,5.5
	c10.4-0.9,10.7-0.8,10.4-10.8c-0.1-2-0.2-4-0.3-6c-3.1-38.5-9.5-76.5-16.9-114.4c-1.7-8.7-3.5-17.4-5.3-26.7
	c9.7,0.3,15.9,4.8,21,11.3c6.1,7.7,10,16.5,13.2,25.6c9.6,26.8,14,54.7,18,82.7c1.5,10.6,1.4,21.5,4.5,32c4.4-0.9,3.9-4.3,4.5-6.5
	c6.2-21.2,15.4-41.1,26.6-60c14.3-24.3,32.7-45.4,52-65.6c6.5-6.8,15.1-10.2,24-13.2c-4,4.4-8.3,8.4-13,11.9
	c-10.8,8.2-17.3,18.9-21.3,31.8c-5,16-7.7,32.3-9.2,48.9c-1.2,13.5-2.9,27.1-1.7,41.3c21.4-4.1,41.7-10.2,61.8-17.1
	c2.9-1,3.5-3.4,3.9-6.3c1.8-13.4,1.7-26.6-4.1-39.1c-0.9-1.9-1.7-3.7,0.5-5.2c3-2.1,4.1,0.5,5.3,2.4c5,7.8,9.5,16,13.5,24.5
	c1.2,2.5,1.6,5.6,6.2,7.8c0-9.3-0.1-17.5,0-25.7c0.3-21,1.4-41.9,6.2-62.5c1.2-5.2,2.8-10.3,6.1-14.6c2.4-3,5.5-5.4,9.4-4.2
	c3.9,1.2,2.4,5.1,2.4,7.8c0,25.7,1.1,51.3,2.7,76.9c0.2,3.2-0.7,6.6,2.4,10c4.8-2.9,8.6-6.9,12.3-11.1
	c14.9-16.9,26.6-35.7,34.8-56.7c15.4-39.6,17.2-80.3,8.9-121.7c-4.9-24.3-12-47.9-25.3-68.9c-6.6-10.3-11-21.2-13.7-32.9
	c-7.8-33.1-11.3-66.9-14.1-100.7c-0.4-4.2-0.5-8.4-2.1-13c-4.8,2.8-8.9,5.5-13.3,7.7c-15.9,7.7-28.3,4.1-37.7-10.7
	c-3.4-5.3-6-11.2-8.2-17.1c-4-10.9-7-22.2-9.7-33.5c-4.4-19.1-10-38-10.4-57.8c-0.7-28.1,2.5-55.8,6.9-83.4
	c7.4-47,18.7-93.2,31.6-139c1.1-4,1.5-7.8,0.9-11.8c-7-44.7-14-89.3-21.1-134c-3.6-22.6-3.7-45.1,1.5-67.5
	c8.2-35.3,28.2-60.4,63.1-72.5c1-0.4,2.8,0,2.5-2.1c-0.4-0.5-0.8-1.2-1.3-1.5c-36.1-16.9-72.6-33.2-111.2-43.8
	c-28.2-7.8-56.8-10.8-86-7.2c-22.8,2.8-45.2,8-67.4,13.6c-76.9,19.5-155,32.1-234,38.4c-47.2,3.7-94.4,5.9-141.7,6.6
	c-47,0.8-93.9-1.1-140.5-7.8c-10.1-1.5-20.2-2.8-30.2-4.1c-0.3,1.3-0.7,1.9-0.6,2.5c4.9,29.2,8.8,58.5,10.8,88.1
	c0.8,12,0.9,23.9,0,35.9c-1.3,18.2-9.8,33.6-18,49.3c-1.9,3.6-4.7,6.8-5.9,12.3c33.5-16.5,67.3-15.7,101.4-8.3
	c33.6,7.4,65.3,20.5,96.5,34.6c3.6,1.6,7,4,10,6.5c11,9,11.5,19.8,1.5,30c-6.4,6.5-14.3,10.8-22.4,14.7c-3,1.4-6,2.7-8.6,4.9
	c-14.1,12-30.8,16.7-48.9,17.3c-19.6,0.7-38.4-3.7-56.5-10.7c-10.1-3.8-20-4.3-30.3-1.9c-16.9,4-32.7,12.1-52.1,13.5
	c7.6,5.6,14.8,5.9,21.3,5.4c12.4-1,24.7,0.3,36.9,1.7c14.7,1.8,29.6,1.6,44.2,5.5c19.6,5.3,39.9,7.2,60,10.2c4.8,0.7,8-0.6,10.7-4.9
	c5.8-8.9,12.2-17.5,18.5-26.1c4.1-5.6,4.2-5.5,9.9,0.3c-13.8,19.1-27.5,38.4-40.3,58.3c-9.5,14.9-18.6,29.9-26,46
	c-4.2,9.1-6.3,18-1.4,27.6c1.9,3.8,2.7,8.2,4.1,12.3c4.9,13.8,13.9,24,26.8,30.9c6.2,3.3,12.7,5.9,19.4,7.6
	c26.7,7,53.9,8.6,81.3,5.5c12.3-1.4,24.2-4.9,34.5-12.1c10-6.9,16.6-16,18.2-28.5c2.5-19.8-7.7-39.1-26-47.3
	c-9-4-12.3-10.5-12.3-19.6c0-5.8,1.7-11.1,3.5-16.5c0.7-2.2,1.6-3.6,4.2-2.4c2,1,4.8,1.2,3.8,4.6c-0.6,1.9-1.2,3.8-1.7,5.7
	c-3.3,13.3-2.1,15.7,9.5,22.2c18.2,10.2,27,26.4,27.7,46.7c0.7,19.3-8.7,33.7-25,43.7c-8,4.9-16.8,8-25.9,10
	c-23.1,5-46.3,3.7-69.5,0.8c-13.6-1.7-26.8-4.8-39.4-10.3c-18.8-8.2-31.6-21.6-37.8-41.3c-1.7-5.4-3.3-10.8-5.5-16
	c-1.8-4.6-2.1-9-0.6-13.6c1.7-5.3,3.3-10.6,4.8-15.4c-1.4-1.9-2.8-1.6-4.1-1.8c-26.1-2.8-39.2-16.7-40.4-43
	c-0.4-9,0.3-17.8,2.1-26.8c-1.5-0.6-2.7-1.3-4-1.5c-18.5-2.3-36.9-4.8-55.6-4.4c-16.5,0.3-33.1-0.2-41.7-19.8
	c-34,66.3-57.7,134.8-73,208.5c7-5,14.1-5.7,17.5-12.5c8.3-16.3,16.7-32.6,23.1-49.7c5.6-14.8,9.2-29.8,8.2-45.8
	c-0.4-6.6-0.2-13.3,1.3-19.9c3.2-14.4,11.4-19.3,25.6-15.2c4.2,1.2,6.6,3.1,7.3,8c1.7,10.6,2.7,21.2,2.8,31.8c0.1,22-3,43.1-18,60.8
	C723.1,1277.4,719.5,1285.7,717.2,1294.8z M954.2,825.1c53-1.6,105.9-3.8,158.6-9.1c45.4-4.6,90.5-11,135.3-19.9
	c37.8-7.6,75-17.9,112.9-25.5c31-6.2,62-7.4,93.3-1.2c26.9,5.4,52.6,14.2,77.9,24.6c62.2,25.6,121.6,57,181.1,88.1
	c2.6,1.4,4.9,3.4,7.4,5.1c69.6,47.7,145,63.1,226.9,39.9c45.6-12.9,85-37.5,120.9-67.9c3.8-3.3,7.9-6,12.4-8.3
	c24.3-12.7,47.1-27.5,68.2-45c22.5-18.6,42.5-39.4,56.9-65.1c10.3-18.3,16.6-37.8,16.9-58.9c0.9-61-42-111.4-103.7-122.2
	c-26.8-4.7-53.7-4.6-80.7-3.1c-19.6,1.1-39.2,2.8-58.9,2.7c-14.4-0.1-28.2-2.8-41.7-8.5c-75.8-32.1-153.2-59.2-234.4-73.9
	c-33.5-6.1-67.2-9.8-101.3-5.6c-3.7,0.5-6.3-0.8-9.1-2.8c-23.2-17-48.3-30.7-74.2-42.8c-94.2-43.8-193.9-64.9-296.9-71.9
	c-46.3-3.1-92.5-3-138.8-0.2c-6.3,0.4-12.7,0.5-19,0.2c-42.3-1.5-84.6-3.1-126.8-4.8c-80.9-3.1-161.9-4.3-242.8-3
	c-25.6,0.4-51.3,1.7-76.8,4c-7,0.6-13.6,1.3-20.7-0.5c-87.4-22.8-175.9-39.8-266.3-45c-35.7-2.1-71.3-1.4-106.5,5.3
	c-19.4,3.7-38.1,9.4-54.9,20.2c-14.8,9.5-25.6,22.2-30.2,39.5c-1.8,7-4,14.2-2,21.6c5,18.6,9.2,37.5,13.2,56.3
	c0.4,1.9,0.3,4.3,3,4.5c3.3,0.2,3.4-2.6,3.7-4.7c1.9-13.9,2.8-28,1.3-41.9c-3-28,20.5-49.6,47.6-42.6c17.9,4.6,33.2,13.5,44.7,28.3
	c8.6,11.1,16.1,22.8,23.4,34.8c18.4,30.1,36.4,60.4,55.9,89.8c39.5,59.4,84.9,113.6,139.8,159.5c96.5,80.7,208.6,124.9,332.2,141.9
	C852.3,824.4,903.1,826.6,954.2,825.1z M1507.5,1333.5c0.9,30,10.5,65.2,22.8,99.7c1.8,5,4.6,9.6,8.3,13.6c3.9,4.2,8.6,6.7,14.3,5.5
	c11.8-2.5,22.6-8,28.6-18.4c17.4-30,32.2-61.2,41.5-94.8c5.8-20.7,8.8-41.8,4.1-63.1c-2.3-10.4-5.3-20.6-8.3-30.8
	c-4.7-15.7-3.5-31,3.7-45.6c12.1-24.5,28.6-45.8,49.4-63.3c18.7-15.8,34-14.3,50.6,3.4c2.9,3.2,5.7,6.5,8.3,10
	c6.5,8.8,12.9,17.8,19.4,26.6c23.8,32.5,53,59.7,83.9,85.2c18.2,15,39.4,23.3,62.9,25.4c15.4,1.4,30.6,0,45.7-2.7
	c36.6-6.5,71.1-19.5,105.1-34c18.4-7.8,36.4-16.2,53.3-27.1c5.9-3.8,11.6-7.8,15.9-13.5c4.7-6.2,4-9.2-2.9-12.3
	c-5.5-2.4-11.4-3.5-17.4-4c-23.4-1.8-46.5,0.9-69.5,5c-21.3,3.8-42.7,7-64.4,6.5c-31.3-0.7-57.5-12.3-78-36.3
	c-9.8-11.4-18-23.9-25.5-36.9c-21.9-37.9-47.5-73.1-78.4-104.3c-4.1-4.1-8.6-7.3-13.9-9.5c-20-8.3-40.5-14.8-62.2-17.4
	c-31.9-3.7-61.8,1.9-88.6,19.7c-34.1,22.5-56.2,54.5-68.6,92.9c-11.7,36.1-20,73.1-27.3,110.3
	C1513.6,1257.6,1508.3,1291.8,1507.5,1333.5z M648.3,1334.7c0.9-5.1,1.5-8.4,2.1-11.6c9.3-47.4,22.1-93.8,39.1-139
	c2.5-6.7,2.5-6.8-4.6-9.8c-16.6-6.8-33.5-12.9-50.8-17.8c-42.2-12-84.7-20.5-128.9-15.1c-24.9,3.1-47.9,10.9-67.9,26.4
	c-26.1,20.3-38.6,47.7-36.6,80.2c2.7,43.9,22,79.4,58.9,104.9c26,17.9,48.7,39.3,66.8,65.3c7.4,10.7,13.5,22.2,16.3,35.1
	c4,19.2-1.5,34.8-17.5,46.5c-9,6.6-19.1,10.9-29.8,13.5c-11.9,3-24,5.2-36,8.1c-10.3,2.5-20.7,5.2-29.9,10.8
	c-7.9,4.8-8.1,8.9-1,14.5c6.1,4.8,13.1,8,20.3,10.5c33.7,11.7,68.5,16.8,104,15.5c13-0.5,25.8-2.9,37.6-9c5.4-2.8,8.4-6.2,9.8-12.6
	c8.1-37.7,15.7-75.5,27.3-112.3c4.7-14.8,3.8-28.6-1.6-42.8c-6.7-17.6-16.5-33.4-27.4-48.5c-15.7-21.6-33.8-41.2-53-59.7
	c-7.4-7.2-15-14.2-21.2-22.5c-2.9-3.9-6.8-7.9-3.9-13.4c1.9-3.6,7.1-4,14.6-0.4c20.4,10,40.4,20.6,52.6,41.2c0.8,1.4,2,2.7,3.2,3.8
	C607.6,1312.2,627.5,1322.9,648.3,1334.7z M508.2,717.3c-0.9-2.6-2.8-3.4-4.4-4.5c-57.6-40.8-106.5-90.3-148.9-146.6
	c-29.9-39.7-55.9-81.9-81.4-124.4c-9.4-15.7-19-31.3-30.3-45.8c-10.8-13.8-25.3-21.4-41.8-25.3c-10.4-2.5-19.9,0-26.8,8.9
	c-4.8,6.2-7.8,13.2-8.4,21c-2.2,29.9-3.1,59.9-7.3,89.6c-0.4,2.9,0.2,6,0.6,8.9c2.7,21.1,5.8,42.2,7.2,63.5
	c0.9,14.6,2,29.2,3.5,43.8c2,19.6,7.8,37.7,22.8,51.8c20,18.8,34.1,41.7,43.7,67.2c7.1,18.8,20.6,29.5,39.5,34.7
	c23,6.2,46.2,5.2,69.4,2.5c40.1-4.8,78.9-15.5,117.1-28.4C478,729,493.3,723.8,508.2,717.3z M1005.5,341.5c-5-3.8-10.8-5.3-16.5-5.6
	c-7.8-0.4-12.2-3.6-15.4-11c-8-18.1-19.5-34-34-47.7c-14.3-13.5-30.7-23.3-50.1-27.4c-25.1-5.4-48.9-0.8-72.1,9
	c-20.4,8.6-38.7,20.6-56.1,34.2c-2.6,2-4.8,5.3-8.8,5.3c-4-21.4-11.3-40.9-24.4-57.8c-14.6-18.9-33.7-29.6-57.8-31.1
	c-12.4-0.8-24.6,0.6-36.6,3.7c-22.1,5.7-42.7,15-61.8,27.3c-8.6,5.5-15.8,6.7-25.5,3.1c-18.8-7-38.6-10.5-58.8-9.2
	c-26.3,1.6-46.9,12-56.1,38.6c-1.6,4.5-4.1,4.7-8.3,4.4c-23.2-1.7-45,2.7-64.8,15.3c-1.7,1.1-4.6,1.5-4.2,4.9
	c20.5,2.3,41,4.2,61.3,7c61.6,8.7,122.5,20.9,182.7,36.8c4.5,1.2,9,1.5,13.8,1c27.2-2.6,54.4-4,81.8-4.5
	c101.6-1.7,203.1,1.1,304.6,4.9C1000.6,342.7,1003,343.8,1005.5,341.5z M723.3,228c8.9,9.5,15.4,19.1,20.7,29.5
	c5.2,10.3,8.1,21.5,12,32.3c5-1.1,7.6-4.3,10.8-6.6c18.3-13.4,37.7-24.9,59.2-32.5c20.1-7.1,40.8-9.7,61.9-5.7
	c26.3,5,47.1,19.3,64.4,39.2c3.3,3.7,6.3,5.8,11.7,5.8c55.6-0.2,111.2-0.1,166.8-0.2c1.7,0,4.1,1.2,5-2.1
	c-8.7-8.1-18.5-14.9-29.1-20.5c-15.9-8.4-32.6-13.3-50.8-10.4c-3.2,0.5-4.8-0.5-6.5-2.9c-15.5-21.9-37.8-30.4-63.6-31.8
	c-20.2-1.2-39.8,2.7-58.9,8.9c-5.5,1.8-8.2,0.6-11.5-3.7c-13-16.6-28-31.3-46.3-42.1c-32.3-19.1-60.3-14.2-83.9,14.8
	c-4,5-8.5,7.9-14.4,9.8C754.9,214.6,739.5,220.5,723.3,228z M690.5,1070.5c12.6-1.1,22.9-5.7,33.2-10.2c15.7-6.8,30.8-6.3,46.1,1.5
	c15.9,8.2,32.2,15.8,48.7,22.8c17.5,7.4,35.2,14,54.2,16.1c20.1,2.2,39.3,0,56.1-12.2c5.1-3.8,10.3-7.1,16.1-9.7
	c5.4-2.5,10.6-5.6,15.2-9.5c9.9-8.5,9.7-14.9-1-22.1c-3.3-2.2-6.8-4.1-10.5-5.7c-17.6-7.8-35.4-15.2-53.6-21.4
	c-26.2-8.9-52.8-15.7-80.9-15.1c-17.9,0.4-35.1,3.7-50.8,12.4c-23,12.7-44.3,28-65.4,43.7C695.1,1063.2,692,1065.3,690.5,1070.5z
	 M1223.9,1413.6c0-11.3-0.5-22.6-2.6-33.8c-2.3-12.5-4.7-25.1-13.9-34.7c-15.4-16.1-21.3-35.7-21.9-57.3c-0.1-4,0.3-8-0.9-11.9
	c-2-6-5.1-8-11.4-6.7c-7.9,1.6-14.5,5.6-18.3,12.7c-9.3,17.9-11.8,36.8-3.4,55.6c10.7,23.8,20.5,47.7,22.8,74c0.7,7.9,0.2,16,1,23.9
	c1.4,13.6,5.9,25.9,16.3,35.4c4.4,4,10,6.9,15.5,3.8c7.8-4.5,16-8.1,24.1-12c4-1.9,4.9-5.1,2.6-9.1c-0.8-1.4-1.2-3.3-2.3-4.4
	c-8.1-8-9-17.9-7.8-28.5C1224.1,1418.3,1223.9,1416,1223.9,1413.6z M725.3,1368.1c0,2.7-0.1,5.3,0,8c1,18.1,6.4,22.3,24,19.2
	c11-1.9,16.4-7.3,17.8-18.4c0.7-5.3,0.5-10.6,0.5-15.9c0.3-26.8,10.8-49.7,27.5-70c4.7-5.7,10.8-9.7,18.1-11.8
	c17.3-4.9,35.2-31,34.5-49.3c-0.2-4-1.7-5.9-5.8-6.6c-10.7-1.7-21.3-1.2-31.8,0.3c-9.8,1.5-20.8,14.1-22.1,24.2
	c-0.5,4.4-2.1,8.4-4.2,12.2c-7.1,12.7-16.5,23.6-29.3,30.7c-6.9,3.8-11.2,9.2-14.3,15.9C731.5,1326.1,726.1,1346.6,725.3,1368.1z
	 M1321.7,1420.8c0.4,2.9,0.6,6.3,1.4,9.5c1.6,7.1,4,9.2,11,9.1c21.3-0.5,26.5-9,27.1-25.5c0.1-2.3,0.1-4.7,0-7
	c-1.1-15.6-2.3-31.2-4.7-46.7c-1.8-12.2-3.4-24.3-2-36.8c2.1-18.2,8.5-34.8,16.7-50.9c1.8-3.5,4-6.9,4.5-11c1-7.2-0.3-9.5-7.2-12
	c-3.4-1.3-6.9-2.4-10.4-3.5c-11.6-3.6-15.9-1.6-21.2,9.7c-1,2.1-2,4.2-2.6,6.5c-5.6,19.8-12,39.5-15.9,59.8
	c-1.8,9.5-2.9,19.5,2.5,28.2c6.5,10.3,7.1,21.1,5.5,32.7C1324.6,1395.2,1323.2,1407.8,1321.7,1420.8z M956.4,1354
	c0.6-19.5-2.7-23.4-18.8-25.7c-0.7-0.1-1.3-0.2-2-0.3c-11.5-1.2-16.3,2.1-17.8,13.5c-1.2,8.9-4.8,16.5-10.3,23.4
	c-4.2,5.2-8.4,10.3-12.7,15.4c-7.1,8.6-12.4,18.2-14.6,29.2c-2.3,11.9-6.7,22.9-12,33.7c-2.3,4.8-4.6,9.6-6.5,14.6
	c-1.5,4-0.7,6.9,4.3,8c7.1,1.6,14.1,3.9,21.1,5.8c13.6,3.7,19.4,1.4,26.4-10.7c5.6-9.6,8.8-20.1,11.7-30.6
	c3.4-12.2,6.5-24.4,10-36.5c2.8-9.6,6.5-19.2,14.2-25.9C955.3,1363,956.4,1357.6,956.4,1354z M1018.7,1410.2
	c0.3,10.9,2.5,20.6,6.3,29.9c3.7,9,6.2,18.2,7.3,27.9c0.7,6.3,1.8,12.5,2.9,18.7c0.7,4.3,3.1,7.2,7.5,8.4
	c17.1,4.8,29.3-4.9,28.5-22.7c-0.1-2-0.5-4-0.7-5.9c-1.4-10.6-4.5-20.8-8.4-30.7c-5.2-13.2-7.2-27-6.2-41.1c1-15,4.3-29.5,9.2-43.8
	c3.6-10.5,5.1-21.4,2.9-32.4c-1.4-7-2.8-8-10.1-8.3c-2-0.1-4-0.1-6,0c-9.6,0.2-13.6,3.4-16.7,12.5c-1.8,5.5-1.4,11.2-1.5,16.8
	c-0.5,17.4-1.9,34.5-10.6,50.2C1019.4,1396.3,1018.9,1403.7,1018.7,1410.2z M738.4,1207.6c-0.3-4.8-0.7-11.8-1.2-18.8
	c-0.2-2-1-3.9-1-5.9c-0.2-4.4-2.8-5.5-6.6-5.6c-5.8-0.3-8.1,1.3-9.7,7.7c-1.8,7.5-1.9,15.2-1.8,22.8c0.2,8.3-0.1,16.6-2,24.8
	c-4.8,20.6-13.8,39.5-23.1,58.3c-5.8,11.6-11.8,23.1-17.6,34.7c-2.3,4.5-4,9.1-3.9,14.3c0.1,4.2,1.8,6.7,5.9,8.2
	c3.8,1.4,6.5,0.2,8.9-2.4c3.4-3.7,5.6-8.3,7.4-12.9c4.1-10.9,8.1-21.8,12-32.7c5.2-14.4,11-28.5,20.9-40.6c3.6-4.4,5.7-9.7,7.5-15.1
	C737.8,1233,738.3,1221.4,738.4,1207.6z M801.6,1088.4c0.1-0.6,0.3-1.2,0.4-1.8c-14.7-6.9-29.2-14-44-20.6
	c-7.2-3.2-14.8-3.1-22.4-0.7c-15,4.7-29,12.4-46.4,14.3c7.1,7.2,14.6,9.9,22.2,11.9c12.2,3.3,24.4,6.4,36.6,9.5
	c4.9,1.2,9.8,0.9,14.8-0.6C775.7,1096.2,788.6,1092.3,801.6,1088.4z M1672.9,870.5c-20.1-10.2-40.6-19.7-60.2-30.7
	c-10.1-5.6-19.3-5.4-29.3-1.6c-5.9,2.2-11.7,4.7-17,8.2c-1.7,1.1-4.4,1.6-4.2,4.7C1597.4,865.9,1633.3,876.5,1672.9,870.5z
	 M638.5,1404.8c2.2-17.3,4.1-34.5,6.8-51.6c1.6-9.9,1.4-9.9-7-14.6c-12.2-6.8-24.4-13.8-35.7-22c-6.3-4.5-12.4-3.8-19.9-2.2
	C606.4,1342.3,627.7,1370.2,638.5,1404.8z M842.7,1161.1c-1.1,1.3-0.8,2.7-0.5,3.9c3.9,17.8,15.2,26.4,34.4,27
	c4.5,0.1,7.1-1.2,9.5-5.3c7.1-12.4,14.8-24.5,22.2-36.7c1.5-2.5,4-4.5,3.9-8.1c-2.3-0.3-4.6-0.4-6.8-1c-9.4-2.6-15.9-1.4-22,8.3
	c-9.3,15-21.4,17.8-38,12.4C844.5,1161.3,843.5,1161.3,842.7,1161.1z M2130,1631.8c3.7-6.7,3.2-12.5,3.9-18
	c1.9-15.2,1.9-30.6-0.1-45.8c-0.3-2.3,0.4-5.8-3.4-6.3c-4.9-0.8-9.9-1.4-14.8-2.1c-3.1-0.4-4.2,1.3-4.3,4c-0.1,2.7-0.5,5.3-0.4,8
	C2111.5,1593,2120.2,1611.8,2130,1631.8z M530.8,1258.5c2.7,5.7,5.6,8.4,8.4,11.2c10.2,10.4,21,20.4,30.7,31.2
	c5.3,5.8,10.6,7.6,17.5,5.7C575.1,1283.8,555.3,1270.2,530.8,1258.5z M2178.6,1568.1c-11-0.5-19.7-3.9-29.3-2.6
	c2,12.6,3.9,24.7,5.8,36.8C2161.4,1590.2,2169.4,1580.1,2178.6,1568.1z M880.7,1138c-6.9-3.1-13.2-3.6-19.3,1.9
	c-3.8,3.4-8.9,4.1-14.1,3.7c-1.9-0.1-4.8-2.5-5.6,1.4c-0.6,2.8,0.2,4.9,2.9,6.7c7.8,5.4,17.6,5.7,25.2,0.1
	C874.5,1148.3,878.6,1144.1,880.7,1138z M1888.9,1032.6c6.7-10.8,9.8-24.3,8.5-36.1c-0.2-2.1,0.7-5-3.1-4.9
	c-3.2,0.1-6.2,0.8-6.4,4.6c-0.5,7.6-0.8,15.2-0.7,22.7C1887.2,1023.3,1886.5,1028,1888.9,1032.6z M1230.1,1936.1
	c1.8,12.6,6,24.1,10.5,28.8c2.5-9.6,5.5-18.9,5.2-29.3C1240.3,1935.1,1235.3,1935.1,1230.1,1936.1z M1361.9,1957
	c4.5-7.9,3.9-15.9,4.4-23.7c0.5-8.9,0.2-8.8-8.6-8.1c-5,0.4-5.3,2.7-4.1,6.5C1356.4,1940.1,1359.1,1948.6,1361.9,1957z
	 M1874.7,1015.5c0.6-0.2,1.1-0.4,1.6-0.6c0.8-6.3,1.6-12.7,2.4-19.4c-5.6-0.3-10,1.1-14.8,2.9
	C1867.8,1004.5,1871.2,1010,1874.7,1015.5z M858.3,1940.1c2.6-7.3,6.6-12.4,7.3-18.8c-3.8-1.2-6.8-2.4-10.7-1.4
	C856.1,1926.3,855.4,1932.6,858.3,1940.1z M1935.9,1536.3c-3.4-0.6-6.2-1.9-8.9,0.2c-0.1,5.9,1.7,11.2,4.1,16.4
	C1933.5,1547.6,1935.8,1542.6,1935.9,1536.3z M660.2,1876.2c5.7-13.1,5.7-13.1,0-15.4C660.2,1865.4,660.2,1870,660.2,1876.2z
	 M854.3,1134.3c-1.2-3.3-3.6-2.6-5.4-2.9c-1.6-0.2-4.2-2.6-4.8,0.6c-0.5,2.4,2.1,3,4.1,3.3C850.1,1135.6,852.1,1135.7,854.3,1134.3z
	 M291.2,1380.7c0-1.3-0.6-2-1.7-1.9c-0.4,0-1.1,0.8-1,1.2c0.1,1.3,1.2,1.9,2.3,2.2C290.9,1381.6,291.1,1381.1,291.2,1380.7z
	 M198.3,1389.3c-1.1,0.5-1.7,0.9-1.2,2.1c0.5,1.1,0.8,2.4,2.3,2.1c0.9-0.2,1.6-0.8,1-2C200,1390.4,199.6,1389.3,198.3,1389.3z
	 M2090.5,945.6c-0.4-1.6-1.1-2.6-2.6-2.3c-0.9,0.2-1.6,0.9-1.1,2c0.5,1.1,0.8,2.4,2.4,2C2090.2,947.2,2090.9,946.4,2090.5,945.6z"/>
<path class="st1" d="M2129.8,273.4c4-0.3,8.5-0.6,13-0.8c13.4-0.7,26.7-0.1,39.6,3.8c8.1,2.5,15.5,6.5,17.2,16.1
	c1,5.3,0.9,7.8-6.3,7.7c-32-0.3-64,0.1-95.9-0.3c-7.1-0.1-11,2-15.2,8c-41.8,60-99.7,87.9-172.4,81.1c-56.9-5.3-101.5-33.7-133.6-81
	c-4-5.9-8-8.1-15.2-8.1c-107.3,0.3-214.5,0.2-321.8,0.2c-18.5,0-33.3-8.6-46-20.7c-8.6-8.2-8.1-17.8,0-26.5
	c6.4-7,14.7-11.4,23.1-15.3c21.2-9.9,43.6-16.4,66.3-21.3c11.9-2.6,21-7.4,29.3-16.6c19.2-21.3,41-39.9,65.4-55.3
	c15.9-10,32.5-18.1,51.2-21.5c10.9-2,22.1-2.5,32.6,1.3c8.3,3,16.8,4,25.3,5.1c20.8,2.6,41.4,6.2,61.9,10.6
	c8.8,1.9,8.7,1.8,12.6-6.8c19.3-43.1,50.4-74.8,93.5-94.1c107.5-48.3,233,17.1,255,132.7c3.3,17.1,4.5,34.3,2.6,51.6
	c-0.4,3.4,0.1,5.6,3.1,7.6c14.1,9.6,19.1,22.5,13.7,39c-0.2,0.6-0.2,1.3-0.2,2C2128.7,272.1,2129,272.4,2129.8,273.4z M2120.4,278.5
	c1.4-3.2,2-4.7,2.7-6.2c7.2-17.5,3.2-29.8-13.1-39.8c-8.3-5.1-17.4-8.2-26.8-10.6c-24.3-6.3-49.2-8.4-74.2-8.6
	c-7.1,0-13.6-0.7-19.9-4.7c-4.1-2.6-9.3-3.6-14.2-4.5c-14.2-2.7-28.5-2.6-42.8-1.3c-18.9,1.7-37.6,4.7-56.1,9.2
	c-4,1-6.6,1.3-8.2-3.7c-3.1-9.5-9.8-16.5-17.3-22.7c-11.4-9.4-24.4-16.1-37.9-21.7c-39.1-16.1-80.2-23.9-121.7-29.9
	c-10.5-1.5-21-2.2-31.2-5.9c-9.5-3.5-19.7-3-29.6-1.3c-16.3,2.9-31.1,9.6-45.2,18c-23.9,14.2-44.8,32.2-64.4,51.8
	c-6.3,6.4-11.6,14.5-19.1,18.7c-7.5,4.3-17.2,4.5-25.9,6.8c-21.2,5.7-42.3,11.4-62,21.5c-6.5,3.4-12.9,7.1-17.7,12.7
	c-5.9,6.9-6.3,13.3,0.2,19.5c11.7,11.3,25.3,19.9,42.2,19.9c249.8,0.1,499.5,0.1,749.3,0c2.5,0,5.2,0.9,8-1.2
	c-0.7-8.9-7.5-12-14.4-14.2c-12.9-3.9-26.2-4.5-39.6-3.5C2134.9,277.4,2128.3,277.9,2120.4,278.5z M1762.4,142.9c4.1,1.1,7.6,2,11,3
	c22.4,6.4,44.5,13.7,64.7,25.6c13.7,8.1,26,17.6,32.8,32.5c2,4.5,4.6,3.4,8,2.7c26.7-5.8,53.7-10.1,81.2-8.9
	c12.1,0.5,23.9,2.4,34.6,8.5c2.8,1.6,5.5,2,8.5,2.1c10.7,0.4,21.3,0.6,31.9,1.4c19.6,1.4,39,4.3,57.9,10.1c4.7,1.4,8.9,4.4,13.9,4.7
	c10.8-68.8-32.4-165.2-131.9-191.3C1874.2,7.1,1787.6,69.9,1762.4,142.9z M1778,300.6c20.2,49.5,95.3,88.5,163.3,85.1
	c66.3-3.4,122.1-48.4,139-85.1C1979.8,300.6,1879.4,300.6,1778,300.6z"/>
<path class="st1" d="M361.5,905.3c1.9-1.2,1.9-3,2.3-4.5c1.6-6.5,3.8-12.8,6.6-18.8c15.8-34.7,44.4-47.7,81-37
	c15.5,4.5,29.8,11.6,43,20.7c5.4,3.7,9.7,3.8,15.6,1.7c15.5-5.6,31.4-8.7,48-6.3c16.4,2.4,28.6,10.7,35.1,26.1
	c1.9,4.6,4.3,5.8,8.9,5.8c28.3-0.1,50.2,11.1,64.2,36.3c1.6,2.9,3.5,4.4,6.9,4.5c6,0.2,11.8,2,17.1,4.9c9.5,5.2,13.4,13.8,11.1,24.4
	c-0.4,1.9-1.1,3.8-1.8,5.7c-5.8,15.6-7.8,17.1-24.3,17.1c-165.6,0-331.2,0-496.8,0c-12.7,0-12.7,0-12.4-12.4
	c0.5-18.8,11.2-31.8,30.2-35.5c5.4-1,7.8-3.3,10-8c6.2-13.8,14.4-26.2,25.3-36.9c22.4-21.9,48.4-27.8,78.1-18
	c16,5.3,30,14.1,43.3,24.2C355.7,901.3,358,904.2,361.5,905.3z M365.3,913.8c-4.2-1.2-6.2-4.1-8.7-6.2c-14.8-12-30.4-22.7-48.7-28.7
	c-27.9-9.2-52.5-3.6-73.5,17c-10.8,10.6-19.1,23.1-24.9,37c-2.3,5.5-5.3,8-11.4,8.9c-15.2,2.1-24.1,11-27.2,25.3
	c-2.8,13-1.8,14.3,11.2,14.3c164.9,0,329.7,0,494.5,0c2.3,0,4.7,0,7,0c2.1,0.1,4-0.2,5.2-2.1c4.4-6.8,8.3-13.7,8.6-22
	c0.2-6.6-3.1-11.4-8.8-14.6c-5.6-3.1-11.7-5-18.1-5.1c-3.9,0-5.8-1.7-7.6-5.1c-13.6-25.7-35.6-36.7-64.1-35.3
	c-5.5,0.3-7.4-1.7-9-6.3c-5.5-15.2-16.6-23.4-32.5-25.8c-17-2.6-33.2,1.2-48.9,6.9c-5.7,2.1-9.7,1.4-14.6-1.9
	c-13.8-9.3-28.5-17-44.7-21.6c-33.7-9.6-59.8,2.3-74.6,34.1C370.1,892.5,367.2,902.7,365.3,913.8z"/>
<path class="st1" d="M1755.6,1853.2c-26.4,37-46.7,76.6-53.5,122.1c-0.5,2.9-0.5,6-0.8,8.9c-0.2,2.2,0.6,4.9-3,5.1
	c-4.2,0.3-3.8-2.8-4-5.4c-1-11.9-2.4-23.8-5-35.6c-3.1-14-7-27.8-14.3-40.2c-4.7-8.1-10-15.8-19-19.8c-1.2-1.2-2.7-2.6-4.1-1.2
	c-1,1,0.6,2.2,1.6,3c24,40.5,27.4,85.2,27.3,132.8c-13.1-9.8-21.4-21.1-28.6-33.3c-7.3-12.4-11.7-26-14.8-41.2
	c-2.6,2.6-3.2,4.9-4,7.1c-4.6,12.2-8.7,24.4-10.7,37.3c-1,6.4-1.7,12.6,1,18.6c1.1,2.6,1.2,4.6-1.5,5.7c-3.3,1.3-3.8-1.9-4.6-3.7
	c-2.8-6.3-2.6-13.1-1.6-19.6c4.2-25.5,14-49.1,26.3-72.3c-1.3,32.6,8.6,60.9,29.6,84.6c1.8,0.3,2.3,0,2.3-0.9
	c-0.4-30.4-3.7-60.3-14.8-89c-6.9-17.8-13.7-27.4-27.4-38.4c8.6-2.3,16-0.5,23.3,2.5c9.6,3.9,16.6,11,22.2,19.4
	c9.4,14.1,14.3,29.9,18,46.2c0.7,2.9,0.8,5.9,2.5,8.5c2.2-0.2,2.2-2.2,2.6-3.5c8.8-33.9,24.8-64.4,43.9-93.4
	c16.1-24.6,34.3-47.5,54.4-68.9c1.9-2,3.4-7.1,7.4-4c4.4,3.4-0.5,5.8-2.3,7.9c-35.2,43.3-55,92.8-60.9,148.2
	c-2.2,20.6-2.8,41.1-0.1,61.7c0.3,1.9,0.7,3.9-2.1,4.6c-3.5,0.9-4-1.3-4.3-3.8c-0.4-3.3-0.9-6.6-1.1-9.9
	c-2.6-45.8,3.7-90.2,20.9-133c0.5-1.2,0.6-2.5,1-3.8c2.8-3.9,4.4-8.4,6.3-14.4C1759.5,1846.5,1757.1,1849.6,1755.6,1853.2z"/>
<path class="st1" d="M345.5,1467c4.6-18.3,12.8-35.8,4.6-55.8c5,0.4,5.5,4.6,7.3,7.2c2,2.9,3.5,6.2,5.4,9.8c3.3-2,2.4-4.8,2.4-7.1
	c0.2-12,0.3-24,2.6-35.8c0.9-4.6,1.8-9.2,5.2-12.7c1-1,2.4-1.5,3.6-1.2c1.5,0.4,1.6,1.8,1.6,3.2c0.4,10,1,20,1.3,29.9
	c0.3,14,1.2,27.9,4.9,41.5c0.3,1,0.3,1.9-1.7,2.8c-5.9-11.1-5-23.5-6.1-35.3c-1.2-11.7-1-23.5-2.4-35.3c-8.1,24.8-5.5,50.5-6.9,76
	c-3.2-8.4-3.2-17.6-9.4-26.5C354.9,1442.2,353.6,1455.8,345.5,1467z"/>
<path class="st0" d="M294.9,1381.4c-1.2-9-1.9-18.1-4.8-26.8c5.7,6.2,6.3,13.9,7.4,21.4c0.5,2.9,1.2,4.4,4.2,2.9
	C300.4,1382.3,297.4,1381.1,294.9,1381.4z"/>
<path class="st0" d="M1781.6,1463.4c0.2-3,0.3-6.1,0.6-10.8c3.4,5.8,2.9,10.3,2.6,14.7C1783.8,1466,1782.7,1464.7,1781.6,1463.4z"/>
<path class="st0" d="M1755.6,1853.2c1.5-3.7,3.9-6.7,7.9-10.8c-1.9,6.1-3.5,10.5-6.3,14.4
	C1757.2,1855.4,1756.9,1854.1,1755.6,1853.2z"/>
<path class="st0" d="M310.3,1351.4c0.5-3.1,2.5-5.2,5.5-8.9c-1.6,5.3-2.8,9-3.9,12.7C311.8,1353.8,311.6,1352.4,310.3,1351.4z"/>
<path class="st0" d="M1917.6,1495.3c-0.2-2.7,1.7-4.6,2.7-7c1.1,2.6,1,4.9-0.4,7.2C1919.1,1495.4,1918.3,1495.4,1917.6,1495.3z"/>
<path class="st0" d="M761.6,1831.4c-1.5-1.8-1.8-3.9-1.5-6.2c2.2,0.4,3.2,1.9,3.5,4C762.9,1829.9,762.2,1830.7,761.6,1831.4z"/>
<path class="st0" d="M292.1,1391c1.1-0.4,2.2-0.8,3.2-1.2c0,1.2,0.1,2.6-1.4,2.7C293.4,1392.5,292.7,1391.5,292.1,1391z"/>
<path class="st1" d="M2003.4,1067.9c2.5-9.4,2.2-19,1.8-28.5c-0.3-9.6-2.7-19-4.2-29.2c7.9,0.8,10.8,6.3,13.1,12.1
	c3.5,9.1,4,18.8,4.7,28.4c0.2,3.3,0,6.6,0,10.2c3.4-0.3,3.3-3,3.9-4.8c4-12,6.4-24.4,7.9-37c1.8-15.4,14.9-25,31.2-23.3
	c0.7,2.2-1.4,1.9-2.2,2c-7,0.5-10.4,5.1-12.7,11.1c-3.9,10.1-4.8,20.7-5.3,31.3c-0.7,13.7,0.4,27.3,1.6,40.9c0.2,1.9,0,3.9,0,5.9
	c-3.7,0.4-2.7-2.5-2.8-3.9c-2.3-23.3-3.6-46.5,1.4-69.6c0.4-1.9,1.7-4.1-0.8-5.2c-2.9-1.3-4.1,1.3-5.1,3.3c-2,3.9-2.3,8.2-2.8,12.6
	c-2.2,20.3-8.6,39.2-17.8,59.7c0-9,0.1-15.9,0-22.7c-0.1-7.3,0.2-14.7-0.7-21.9c-0.9-7-1.1-14.5-7.9-21.6
	C2006.9,1035.5,2013,1052.3,2003.4,1067.9z M2044.5,1002.3c-2.2,2-4.4,2.4-4,5c0.1,0.4,0.9,1.1,1.3,1.1
	C2044.7,1007.9,2045.1,1006,2044.5,1002.3z"/>
<path class="st0" d="M717.2,1294.8c2.3-9.2,6-17.5,11.7-24.2c15-17.8,18.2-38.8,18-60.8c-0.1-10.6-1.1-21.2-2.8-31.8
	c-0.8-4.9-3.2-6.8-7.3-8c-14.2-4.2-22.4,0.7-25.6,15.2c-1.5,6.6-1.7,13.3-1.3,19.9c1,16-2.6,31-8.2,45.8
	c-6.5,17.2-14.9,33.4-23.1,49.7c-3.4,6.8-10.5,7.5-17.5,12.5c15.3-73.7,39-142.2,73-208.5c8.6,19.6,25.1,20.1,41.6,19.8
	c18.7-0.4,37.1,2.2,55.6,4.5c1.3,0.1,2.5,0.9,4,1.5c-1.8,9-2.5,17.8-2.1,26.8c1.2,26.3,14.2,40.2,40.4,43c1.3,0.1,2.7-0.1,4.1,1.8
	c-1.5,4.8-3.1,10.1-4.8,15.4c-1.5,4.6-1.2,9.1,0.6,13.6c2.1,5.2,3.8,10.7,5.5,16c6.2,19.7,19,33.1,37.8,41.3
	c12.6,5.5,25.9,8.6,39.4,10.3c23.2,2.9,46.4,4.2,69.5-0.8c9.2-2,17.9-5,25.9-10c16.3-10,25.7-24.4,25-43.7
	c-0.7-20.3-9.5-36.5-27.7-46.7c-11.6-6.4-12.8-8.9-9.5-22.2c0.5-1.9,1.2-3.8,1.7-5.7c1-3.4-1.7-3.7-3.8-4.6
	c-2.6-1.2-3.5,0.2-4.2,2.4c-1.8,5.4-3.5,10.7-3.5,16.5c0,9.2,3.3,15.7,12.3,19.6c18.3,8.2,28.5,27.5,26,47.3
	c-1.6,12.5-8.2,21.6-18.2,28.5c-10.4,7.2-22.2,10.7-34.5,12.1c-27.4,3.1-54.5,1.5-81.3-5.5c-6.8-1.8-13.2-4.4-19.4-7.7
	c-12.9-6.8-22-17-26.8-30.9c-1.4-4.1-2.2-8.5-4.1-12.3c-4.8-9.6-2.8-18.5,1.4-27.6c7.4-16.1,16.5-31.1,26-46
	c12.7-19.9,26.4-39.2,40.3-58.3c-5.7-5.8-5.8-5.9-9.9-0.3c-6.3,8.6-12.7,17.2-18.5,26.1c-2.8,4.3-5.9,5.6-10.7,4.9
	c-20.1-3-40.4-4.9-60-10.2c-14.6-3.9-29.5-3.7-44.2-5.5c-12.2-1.5-24.4-2.8-36.8-1.7c-6.6,0.5-13.7,0.3-21.3-5.4
	c19.4-1.4,35.2-9.5,52.1-13.5c10.3-2.5,20.2-2,30.3,1.9c18.1,6.9,36.9,11.3,56.5,10.7c18.1-0.6,34.8-5.3,48.9-17.3
	c2.6-2.2,5.6-3.4,8.6-4.9c8.1-3.9,16-8.2,22.4-14.7c10-10.2,9.5-21-1.5-30c-3.1-2.5-6.5-4.8-10-6.5c-31.3-14.1-62.9-27.2-96.5-34.6
	c-34.1-7.5-67.9-8.2-101.4,8.3c1.2-5.5,4-8.7,5.9-12.3c8.2-15.6,16.7-31.1,18-49.3c0.8-12,0.8-23.9,0-35.9
	c-2-29.6-5.9-58.9-10.8-88.1c-0.1-0.5,0.3-1.2,0.6-2.5c10,1.4,20.1,2.7,30.2,4.1c46.6,6.7,93.5,8.5,140.5,7.8
	c47.3-0.8,94.5-2.9,141.7-6.6c79.1-6.3,157.1-18.9,234-38.4c22.2-5.6,44.6-10.8,67.4-13.6c29.2-3.6,57.8-0.5,86,7.2
	c38.6,10.6,75,26.9,111.2,43.8c0.5,0.3,0.8,1,1.3,1.5c0.3,2.1-1.4,1.7-2.5,2.1c-34.9,12.1-54.9,37.2-63.1,72.5
	c-5.2,22.3-5.1,44.9-1.5,67.5c7.1,44.7,14,89.3,21.1,134c0.6,4,0.3,7.8-0.9,11.8c-12.9,45.8-24.2,91.9-31.6,139
	c-4.4,27.6-7.6,55.4-6.9,83.4c0.5,19.8,6,38.7,10.5,57.8c2.6,11.3,5.6,22.6,9.7,33.5c2.2,5.9,4.7,11.7,8.1,17.1
	c9.4,14.8,21.9,18.4,37.7,10.7c4.4-2.1,8.5-4.9,13.3-7.7c1.6,4.5,1.8,8.8,2.1,13c2.9,33.8,6.4,67.5,14.1,100.7
	c2.8,11.7,7.1,22.6,13.7,32.9c13.4,21,20.5,44.6,25.3,68.9c8.3,41.3,6.6,82.1-8.9,121.7c-8.2,21-19.9,39.8-34.8,56.7
	c-3.7,4.1-7.5,8.2-12.3,11.1c-3.1-3.4-2.2-6.8-2.4-10c-1.7-25.6-2.7-51.2-2.7-76.9c0-2.7,1.5-6.6-2.4-7.8c-4-1.2-7.1,1.1-9.4,4.2
	c-3.3,4.3-4.9,9.4-6.1,14.6c-4.7,20.6-5.8,41.5-6.2,62.5c-0.1,8.2,0,16.4,0,25.7c-4.6-2.2-5-5.3-6.2-7.8c-4-8.4-8.4-16.6-13.5-24.5
	c-1.2-1.9-2.3-4.5-5.3-2.4c-2.2,1.5-1.3,3.4-0.5,5.2c5.8,12.6,6,25.7,4.1,39.1c-0.4,2.9-0.9,5.3-3.9,6.3
	c-20.1,6.8-40.4,13-61.8,17.1c-1.3-14.3,0.5-27.8,1.7-41.3c1.5-16.6,4.2-32.9,9.2-48.9c4-12.8,10.5-23.6,21.3-31.8
	c4.6-3.5,9-7.5,13-11.9c-8.9,3-17.5,6.4-24,13.2c-19.3,20.3-37.7,41.4-52,65.6c-11.2,19-20.4,38.8-26.6,60c-0.6,2.2-0.1,5.6-4.5,6.5
	c-3.1-10.5-2.9-21.4-4.5-32c-4-28-8.4-55.9-18-82.7c-3.3-9.1-7.2-17.9-13.2-25.6c-5.1-6.4-11.3-11-21-11.3c1.9,9.3,3.6,18,5.3,26.7
	c7.4,37.9,13.8,75.9,16.9,114.4c0.2,2,0.3,4,0.3,6c0.3,9.9,0,9.9-10.4,10.8c-4.8,0.4-6.4-1.3-7.4-5.5c-4.4-19.6-7.8-39.3-0.1-60.5
	c-4.7,4.1-6.3,8.3-8.4,12c-9.1,16.3-17.4,33-23.3,50.7c-2.1,6.2-5.2,8.2-11.3,8.5c-10.3,0.4-20.6,1.4-30.9,2.6
	c-5.3,0.6-7.4-1.2-8.9-6.4c-3.5-12.2-8.9-23.7-16.8-33.7c-1.2-1.6-2.5-3.1-3.9-4.6c-1.2-1.4-2.7-2.1-4.3-0.9c-1.8,1.3-2.4,2.7-1.2,5
	c4,7.7,6.3,16.1,7.4,24.7c0,0.3,0.2,0.6,0.3,1c2.6,16.1-0.6,19.3-16.8,17.2c-2.3-0.3-3.5-1-4.1-3.4c-5.3-21.4-10-42.8-7.9-65.1
	c1.2-13,6.9-22.8,21.2-26.2c-10.4-4.9-14.8-4.1-21.4,3.6c-5.9,7-9.3,15.3-12.1,23.9c-6.2,18.4-9.3,37.4-11.9,56.5
	c-0.3,2-0.4,4-0.6,6c-0.4,4.5-1.9,6.8-7.4,6.8c-16.3,0.1-32.6,1.3-48.9,1.4c-39,0.3-78,1.4-116.9-0.6c-33.3-1.7-66.4-5.3-99.4-9.6
	c-10.2-1.3-9.1-0.6-10.6-10.7c-2.9-19.5-8.4-38.3-15-56.8c-0.9-2.5-1.9-5-2.7-7.5c-4-13.9-5.3-15.9-18-27.3c3,7,5,12.9,7.8,18.3
	c5,9.4,4.9,19.3,3.2,29.2c-2.5,14.1-7.1,27.6-12,41.1c-1.9,5.2-4.5,5.5-9.6,5.1c-8.5-0.6-12.1-4.3-13.5-12.5c-1.3-7.5-4-14.7-6-22.1
	c-0.5-1.7-1.1-3.4-3.1-3.3c-2.1,0.2-3.7,1.2-3.6,3.8c0.2,8.3-3.4,15.5-7,22.6c-1.5,3.1-3.3,4.5-7.1,3.5c-3.8-1-5.4-2.7-5.5-6.8
	c-0.1-16.7,1.3-33.3,3.1-49.8c0.5-4.9,1.1-9.8,1.7-15c-7.6-0.5-10.2,4.3-12.2,9.2c-3.9,9.3-5.3,19.2-6.6,29.1
	c-0.9,6.4-1.6,12.9-2.4,19.6c-3-1.2-2.9-3.7-3.6-5.8c-10.8-33.4-28.6-62.9-50.7-89.9c-0.8-1-1.8-2-2.6-3c-1.2-1.6-2.5-2-4.2-0.8
	c-1.9,1.4-2.5,3-0.7,5c0.2,0.3,0.3,0.6,0.5,0.9c17.1,25.6,19.2,54,15.4,83.4c-0.8,6.2-1.1,6.7-6.7,4.9c-13.6-4.4-27.1-9.2-40.6-13.7
	c-3-1-4.3-2.6-4.4-5.7c-0.6-29.7-1.1-59.3,6.7-88.3c1.3-4.8,3.2-9.4,5.4-13.9c4.1-8.5,9.9-15,20.3-15.3c1.7-0.1,3.3-0.3,4.9-0.7
	c1.9-0.5,2.4-2.1,2.3-3.9c-0.1-1.7-1.4-2.1-2.7-2.1c-3,0-6.1-0.4-8.9,0.3c-6.7,1.8-13.6,3.6-19.9,6.4c-18.4,8-28.7,22-30.1,42.3
	c-1.4,21.4-6.3,42-12.7,62.3c-9-1.7-8.9-1.7-9.4-9.4c-1-15.6-2.3-31.2-7.3-46.2c-2-6.1-4.5-11.8-8.5-16.8
	c-4.5-5.6-9.9-9.5-18.3-10.1c3.6,21,8.1,41.4,8.6,62.2c-3.2,2-4.7-0.7-6.4-1.8c-15.2-10.4-28.9-22.4-40.5-36.8
	c-14.1-17.6-22-37.8-24.8-60.1c-0.8-6.4,1-12.5,2.7-18.6c2.7-9.7,6.3-19.1,11.7-27.4c6.5-10.1,8.9-21.2,11.2-32.7
	c13.1-67.5,26.4-135.1,44.1-201.6c1.3-4.9,1.8-10.3,6.4-15.8c1.1,11.6,2,21.7,3.2,31.8c4.4,35.6,13.1,70,30.3,101.7
	c24.2,44.5,60.4,72.7,110.9,81.5c2.3,0.4,4.6,0.7,6.9,1c2.7,0.3,4.5-0.2,4.6-3.5c0-2.6,0-4.4-3.3-4.7c-5.3-0.6-10.5-1.5-15.7-2.7
	c-39-9-68.6-31.2-89.8-64.8c-18.4-29.2-27.9-61.6-33.7-95.3c-7.8-45.2-4.6-90.2,2.8-135.1c0.8-4.6,2.1-9.1,2.5-13.7
	c0.5-6.7,3.6-11.2,9.8-13.7c2.1,2.9-0.7,5-1.4,7.2c-1.7,4.8-2.5,9.6-2.2,14.7c0.4,7.1,4.2,11.5,10.8,14.1c6.7,2.7,12.4,1.5,17.4-3.3
	c3.9-3.7,6.4-8.5,8.6-13.3c4.2-9.1,7.7-18.5,10.4-28c1.6-5.8,4.5-8.4,10.5-7.8c3.3,0.3,6.6,0.1,9.9,0.1c1.5,3.6-1,6-2,8.6
	c-8.1,22.1-13.6,44.5-11.5,68.3c0.3,3,0.8,5.9,1.7,8.8c3.8,12,10.7,16.7,23.1,15.8c3.6-0.3,7.3-0.8,10.8-1.6
	c13.2-2.9,20.8-11.2,22.5-24.7c0.6-4.9,0.8-10,0.6-15c-0.7-15.4,3.8-29.6,10.1-43.3c2.9-6.3,3.1-6.3,9.8-3.9
	c22.6,8.2,43.8,19.2,64.3,31.7c10.8,6.6,21.4,13.5,32.1,20.2c-0.1,0.6-0.1,1.4-0.4,1.8c-11.5,13.5-18.8,28.8-22.1,46.3
	c-1.9,10.2-7.3,19.2-11.7,28.5c-2.3,4.8-4.8,9.5-5.2,15c-0.5,7,1.6,11.2,8.1,13.2c9.8,3.1,19.8,5.9,29.8,8.1
	c11.6,2.5,20.8-1.8,27.6-11.7c6.3-9.2,10.1-19.5,13.2-30c4-13.7,7.5-27.6,11.5-41.3c2.2-7.5,2.4-7.3,10.2-5.4
	c16.8,4.3,33.8,7.7,51.1,8.6c4.8,0.3,6,1.5,5.8,6.4c-0.6,11.4,1.7,22.6,6.1,33.1c5.2,12.5,7.7,25.4,9.1,38.7
	c0.3,2.6,0.6,5.3,1.2,7.9c2.8,11.2,8.1,15.7,19.5,16.3c2.6,0.2,5.3,0.1,8-0.1c15.4-1.1,24.2-10,25.3-25.5c0.7-11.1-2-21.8-5-32.4
	c-3.2-11.2-8.7-21.7-9.6-33.5c-0.1-1.7-0.3-3.3-0.6-5c-0.9-5,1.2-7.4,6.3-7.8c11-0.8,21.7-3.1,32.5-5.3c16.9-3.5,33.5-8.3,50-13.6
	c1.9-0.6,3.7-1.4,6.2-1.2c5,14.1,7.6,28.7,7.3,43.8c-0.3,14.2,2.1,27.8,9.1,40.4c3.6,6.5,8.1,12.3,14.4,16.3
	c8,5.1,16.2,5.9,24.3,0.5c5.6-3.7,11.8-6.1,17.8-8.9c12.1-5.6,15.6-13.2,8.2-23.7c-7.3-10.3-8.3-20.9-8.1-32.7
	c0.4-19.3-1.1-38.6-7.7-57.1c-1.4-3.8-0.3-5.2,3.1-6.7c12.3-5.4,25.3-8.2,38.6-9.6c11.9-1.2,23.9-1.5,35.9-2.3
	c4.4-0.3,7.5,0.2,8,5.9c0.3,3.5,2.2,7,4.1,10.1c4.4,6.9,5.2,14.2,4.3,22c-1.5,11.5-3,23.1-4.3,34.7c-0.8,7.3-1.1,14.6,1.1,21.8
	c2.7,9,8.1,13.3,17.3,13.6c2.7,0.1,5.3,0.1,8-0.2c18.3-1.8,28.1-12.2,28.8-30.8c0.7-19.7-2-39.2-4.7-58.6
	c-0.8-5.6-1.6-11.1-1.3-16.4c10.7,0,20.9-0.6,31,0.1c19.9,1.3,39.8,2.7,59.7,5c12,1.3,20.4,7.4,26.9,16.9c8,11.8,11.8,25.2,14.5,39
	c2.8,14.7,4.3,29.6,4.2,44.7c0,1.7,0.1,3.3,0,5c-0.2,3.5,1.5,4.7,4.8,4.6c3.5-0.1,3.4-2.4,3.5-4.8c0.2-15.3-0.8-30.6-3.4-45.8
	c-2.2-12.8-5.3-25.4-10.9-37.2c-3.5-7.3-7.8-13.9-13.6-19.6c-9.5-9.3-21.5-11.1-34-12.2c-25.2-2.2-50.5-4.1-75.8-5.2
	c-7.7-0.3-7.6-0.5-7.1-7.8c1.3-17.3,7.9-32.8,15.6-48c2.6-5.1,5.2-10,5.6-15.9c0.7-9.5-2.8-15.5-11.5-18.7c-5.6-2-11.4-3.8-17.1-5.3
	c-9.8-2.5-16.6,0.1-22.5,8.4c-3.5,4.9-5.9,10.5-7.5,16.3c-5.8,21.8-13.7,43.1-16.4,65.7c-0.5,4.3-2.8,4.6-6,4.5
	c-14.4-0.1-28.6,1.3-42.8,2.9c-12.3,1.4-24.2,4.4-35.5,9.4c-4,1.8-6,1.3-9.2-2c-15.5-15.7-21.5-34.8-21.6-56.2c0-4.3,0-8.6-1.5-12.8
	c-3.6-10.1-10.6-14.2-21-11.9c-11.4,2.5-20.5,8.8-25.2,19.4c-9.1,20.4-11.6,41.4-1.5,62.5c4.1,8.7,8.2,17.4,11.4,27.8
	c-29.5,10.6-59.3,18-91,21.4c0.1-14,4-26.2,7.9-38.4c4-12.5,6-25.3,2.8-38.3c-2.4-9.7-6.9-13.2-16.9-13.5c-1.7-0.1-3.3,0-5,0
	c-17.5,0-26.9,8.7-28.3,26.5c-0.8,10.6-0.6,21.3-1.8,31.9c-1.3,11.2-6.2,20.9-10.4,31c-1.5,3.6-4.4,2.4-6.8,2.3
	c-15.3-0.8-30.4-3.5-45.3-7.1c-3.8-0.9-7.7-1.5-11.6-3.7c2-4.9,5.1-8.9,9.2-11.7c3.8-2.6,4.6-5.9,5.3-10.1
	c1.2-7.7,1.3-15.2-0.4-22.8c-2.2-10.1-7.1-14.9-17.3-16.6c-4.6-0.8-9.2-1.7-13.8-1.8c-13.1-0.4-20.7,5.8-22.8,18.8
	c-1.1,6.7-2.9,12.9-6.7,18.5c-2.6,3.9-5,5.9-9.5,2.4c-2.6-2.1-5.7-3.4-8.5-5.2c-28.4-18.6-57.8-35.5-91.4-47.3
	c6-8.7,11.5-16.8,22-19.3c11-2.7,19.1-9.1,25.4-18.1c6.6-9.3,10.9-19.8,14-30.7c1.1-3.8,1.2-7.9,0.8-11.9c-0.7-6.1-3.8-9.9-9.7-11.2
	c-13.2-2.9-26.6-2.5-39.7,0.2c-12.2,2.4-25.2,18-26.7,30.5c-0.6,4.8-2.7,8.9-5.1,12.8c-6.7,10.5-15.2,19.4-26.2,25.6
	c-1.5,0.8-3.4,1.3-4.2,2.5C737.6,1297.5,727.3,1294.9,717.2,1294.8z M1177.6,1014c-8,0.4-19.7,0.5-31.3,1.8
	c-18.2,2-36.3,4.9-52.4,14.8c-3.4,2.1-7,1.9-10.6,2c-15.3,0.7-30.6,2-45.6,4.9c-13.1,2.5-26.1,5.6-37.6,12.8
	c-16.4,10.3-18.8,25.5-6.6,40.6c4.7,5.8,10.3,10.5,16.6,14.2c3.7,2.2,5.8,5,6.9,9.1c2.9,11.2,9.8,19.4,19.1,26
	c7.7,5.5,16.2,9.2,25.3,11.5c4.3,1.1,5.9,3,5.6,7.6c-0.6,8.9,3.6,16.1,9.2,22.5c5.1,5.8,11.2,10.4,17.9,14.3
	c14.5,8.5,29.9,14.5,46.2,18.3c30.8,7.3,55.4-4.3,69.5-32.7c4.8-9.6,8.3-19.7,9.7-30.3c0.7-5.4,2.9-6.3,7.8-6.2
	c10.6,0.3,21.3,0.4,32-0.2c12.3-0.7,24.5-2.1,36-7.2c6.6-2.9,12.7-6.6,14.4-14.1c1.1-4.8,3.9-4.7,7.4-3.9c6.1,1.5,12.1,3.5,18.3,4.8
	c9.8,2.2,19.6,4,29.7,2.6c13.9-2,19.5-10.9,15.4-24.3c-0.8-2.5-1.7-5-2.9-7.4c-6.5-12.9-14.9-24.4-26.2-33.7
	c-12.7-10.5-27-18.3-42.2-24.4C1268.1,1021,1225.1,1015,1177.6,1014z M1124.5,1659.9c-8.7,0-17.3,0-26,0c-2.7,0-5.3-0.4-5.5,3.7
	c-0.3,4.6,2.5,4.7,5.7,4.7c2.3,0,4.7,0.2,7,0c17.6-0.9,35.3-1,52.9-2.5c43.6-3.6,86.5-10.7,128.5-22.5c49.3-13.8,96-33.6,137.8-63.6
	c2.4-1.8,4.8-3.6,7.2-5.3c2.2-1.6,1.5-3.2,0.2-5c-3.2-4.6-5.7-1.1-8.2,0.7c-26.6,19.8-55.6,35.2-86.3,47.4
	C1269.4,1644.5,1197.8,1656.4,1124.5,1659.9z"/>
<path class="st0" d="M954.2,825.1c-51,1.5-101.9-0.7-152.5-7.7c-123.6-17-235.7-61.3-332.2-141.9C414.6,629.6,369.2,575.3,329.7,516
	c-19.6-29.4-37.5-59.7-55.9-89.8c-7.3-11.9-14.8-23.7-23.4-34.8c-11.5-14.9-26.8-23.7-44.7-28.3c-27.1-7-50.7,14.6-47.6,42.6
	c1.5,13.9,0.6,28-1.3,41.9c-0.3,2.2-0.4,5-3.7,4.7c-2.7-0.2-2.6-2.6-3-4.5c-3.9-18.9-8.2-37.7-13.2-56.3c-2-7.4,0.2-14.6,2-21.6
	c4.5-17.3,15.4-30,30.2-39.5c16.8-10.8,35.5-16.6,54.9-20.2c35.2-6.6,70.8-7.4,106.5-5.3c90.4,5.2,178.8,22.2,266.3,45
	c7,1.8,13.7,1.1,20.7,0.5c25.6-2.4,51.2-3.6,76.8-4c81-1.3,161.9-0.1,242.8,3c42.3,1.6,84.6,3.3,126.8,4.8c6.3,0.2,12.7,0.1,19-0.2
	c46.3-2.9,92.6-3,138.8,0.2c103.1,7,202.8,28.1,296.9,71.9c26,12.1,51.1,25.8,74.2,42.8c2.8,2.1,5.5,3.3,9.1,2.8
	c34.1-4.3,67.8-0.5,101.3,5.6c81.2,14.8,158.6,41.8,234.4,73.9c13.5,5.7,27.3,8.5,41.7,8.5c19.7,0.1,39.3-1.6,58.9-2.7
	c27-1.5,53.9-1.6,80.7,3.1c61.6,10.8,104.6,61.2,103.7,122.2c-0.3,21.1-6.6,40.6-16.9,58.9c-14.4,25.7-34.4,46.5-56.9,65.1
	c-21.1,17.5-44,32.3-68.2,45c-4.5,2.3-8.5,5.1-12.4,8.3c-35.9,30.4-75.3,55-120.9,67.9c-81.9,23.2-157.3,7.8-226.9-39.9
	c-2.5-1.7-4.7-3.7-7.4-5.1c-59.5-31.2-118.9-62.5-181.1-88.1c-25.2-10.4-51-19.2-77.8-24.6c-31.2-6.2-62.2-5.1-93.3,1.2
	c-37.8,7.6-75,17.9-112.9,25.5c-44.8,8.9-89.8,15.4-135.3,19.9C1060,821.3,1007.1,823.5,954.2,825.1z"/>
<path class="st0" d="M1507.5,1333.5c0.8-41.8,6.1-75.9,12.8-109.9c7.3-37.2,15.7-74.2,27.3-110.3c12.4-38.5,34.6-70.4,68.6-92.9
	c26.9-17.8,56.7-23.4,88.6-19.7c21.7,2.5,42.2,9.1,62.2,17.4c5.3,2.2,9.8,5.3,13.9,9.5c30.8,31.3,56.5,66.4,78.4,104.3
	c7.5,13,15.7,25.5,25.5,36.9c20.5,24,46.7,35.6,78,36.3c21.8,0.5,43.2-2.7,64.4-6.5c23-4.1,46.1-6.8,69.5-5c6,0.5,11.9,1.5,17.4,4
	c7,3.1,7.6,6.1,2.9,12.3c-4.3,5.7-10.1,9.7-15.9,13.5c-16.8,10.9-34.9,19.3-53.3,27.1c-34,14.5-68.5,27.5-105.1,34
	c-15.1,2.7-30.4,4.1-45.7,2.7c-23.5-2.1-44.7-10.5-62.9-25.4c-30.9-25.4-60.2-52.6-83.9-85.1c-6.5-8.9-12.8-17.8-19.4-26.6
	c-2.6-3.5-5.4-6.8-8.3-10c-16.6-17.7-31.9-19.2-50.6-3.4c-20.8,17.6-37.3,38.8-49.4,63.3c-7.2,14.6-8.4,29.9-3.7,45.6
	c3,10.2,6,20.4,8.3,30.8c4.6,21.4,1.6,42.4-4.1,63.1c-9.3,33.5-24.1,64.8-41.5,94.8c-6,10.4-16.8,15.9-28.6,18.4
	c-5.6,1.2-10.4-1.3-14.3-5.5c-3.6-4-6.5-8.6-8.3-13.6C1518,1398.7,1508.4,1363.5,1507.5,1333.5z"/>
<path class="st0" d="M648.3,1334.7c-20.9-11.8-40.7-22.5-57.4-38.1c-1.2-1.1-2.4-2.4-3.2-3.8c-12.2-20.6-32.2-31.2-52.6-41.2
	c-7.5-3.7-12.7-3.2-14.6,0.4c-2.9,5.5,1,9.5,3.9,13.4c6.2,8.3,13.8,15.3,21.2,22.5c19.2,18.6,37.3,38.1,53,59.7
	c11,15.1,20.8,30.9,27.4,48.5c5.4,14.2,6.3,27.9,1.6,42.8c-11.7,36.8-19.2,74.7-27.3,112.3c-1.4,6.4-4.4,9.8-9.8,12.6
	c-11.8,6.1-24.6,8.5-37.6,9c-35.6,1.3-70.4-3.8-104-15.5c-7.2-2.5-14.2-5.8-20.3-10.5c-7.1-5.6-6.9-9.6,1-14.4
	c9.2-5.6,19.5-8.3,29.9-10.8c12-2.9,24-5.2,36-8.1c10.7-2.7,20.8-6.9,29.8-13.5c15.9-11.7,21.5-27.3,17.5-46.5
	c-2.7-12.9-8.8-24.4-16.3-35.1c-18.1-26.1-40.8-47.4-66.8-65.3c-36.9-25.4-56.2-60.9-58.9-104.8c-2-32.5,10.4-59.9,36.6-80.2
	c20-15.6,43-23.4,67.9-26.4c44.2-5.4,86.8,3.1,128.9,15.1c17.3,4.9,34.2,11,50.8,17.8c7.1,2.9,7.1,3,4.6,9.8
	c-17.1,45.2-29.9,91.6-39.1,139C649.8,1326.3,649.3,1329.5,648.3,1334.7z"/>
<path class="st0" d="M508.2,717.3c-14.8,6.5-30.2,11.7-45.5,16.8c-38.2,12.9-76.9,23.6-117.1,28.4c-23.2,2.8-46.5,3.8-69.4-2.5
	c-18.9-5.1-32.4-15.9-39.5-34.7c-9.6-25.6-23.7-48.4-43.7-67.2c-15-14.1-20.8-32.1-22.8-51.8c-1.5-14.6-2.6-29.2-3.5-43.8
	c-1.3-21.3-4.5-42.4-7.2-63.5c-0.4-2.9-1-6-0.6-8.9c4.2-29.7,5.1-59.7,7.3-89.6c0.6-7.8,3.7-14.9,8.4-21c6.9-8.9,16.4-11.4,26.8-8.9
	c16.5,3.9,31.1,11.5,41.8,25.3c11.3,14.5,20.8,30.1,30.3,45.8c25.6,42.5,51.5,84.7,81.4,124.4c42.4,56.3,91.4,105.8,148.9,146.6
	C505.3,713.9,507.3,714.7,508.2,717.3z"/>
<path class="st0" d="M1005.5,341.5c-2.5,2.3-4.8,1.2-7,1.1c-101.5-3.9-203-6.6-304.6-4.9c-27.3,0.5-54.6,1.9-81.8,4.5
	c-4.8,0.5-9.2,0.2-13.8-1c-60.2-15.9-121.1-28.1-182.7-36.8c-20.3-2.9-40.8-4.7-61.3-7c-0.4-3.3,2.5-3.8,4.2-4.9
	c19.8-12.6,41.7-17,64.8-15.3c4.2,0.3,6.7,0.1,8.3-4.4c9.2-26.6,29.8-37,56.1-38.6c20.2-1.3,40,2.2,58.8,9.2
	c9.8,3.7,17,2.4,25.5-3.1c19.1-12.2,39.7-21.6,61.8-27.3c12-3.1,24.2-4.5,36.6-3.7c24.1,1.5,43.2,12.2,57.8,31.1
	c13.1,16.9,20.4,36.4,24.4,57.8c4,0,6.2-3.3,8.8-5.3c17.4-13.5,35.7-25.6,56.1-34.2c23.1-9.8,47-14.3,72.1-9
	c19.4,4.2,35.8,14,50.1,27.4c14.4,13.6,26,29.5,34,47.7c3.3,7.4,7.6,10.6,15.4,11C994.7,336.2,1000.5,337.7,1005.5,341.5z"/>
<path class="st0" d="M723.3,228c16.2-7.5,31.6-13.4,47.4-18.4c5.9-1.9,10.4-4.8,14.4-9.8c23.6-29,51.6-33.9,83.9-14.8
	c18.3,10.8,33.3,25.5,46.3,42.1c3.4,4.3,6.1,5.5,11.6,3.7c19.1-6.2,38.6-10,58.9-8.9c25.7,1.5,48.1,9.9,63.6,31.8
	c1.7,2.5,3.3,3.5,6.5,2.9c18.2-2.9,34.9,2,50.8,10.4c10.6,5.6,20.4,12.4,29.1,20.5c-0.9,3.3-3.3,2.1-5,2.1
	c-55.6,0.1-111.2,0-166.8,0.2c-5.4,0-8.4-2.1-11.7-5.8c-17.3-19.8-38-34.2-64.4-39.2c-21.1-4-41.7-1.4-61.9,5.7
	c-21.5,7.6-40.9,19.1-59.2,32.5c-3.1,2.3-5.8,5.5-10.8,6.6c-3.9-10.8-6.8-22-12-32.3C738.7,247.1,732.2,237.5,723.3,228z"/>
<path class="st0" d="M690.5,1070.5c1.4-5.3,4.6-7.4,7.4-9.4c21.1-15.6,42.3-31,65.4-43.7c15.7-8.7,32.9-12,50.8-12.4
	c28-0.6,54.7,6.2,80.9,15.1c18.2,6.2,36,13.5,53.6,21.4c3.6,1.6,7.2,3.5,10.5,5.7c10.7,7.3,10.9,13.6,1,22.1
	c-4.6,3.9-9.7,7-15.2,9.5c-5.8,2.6-10.9,6-16,9.7c-16.8,12.2-36.1,14.4-56.1,12.2c-19-2.1-36.8-8.7-54.2-16.1
	c-16.5-7-32.8-14.6-48.7-22.8c-15.3-7.8-30.3-8.4-46.1-1.5C713.5,1064.8,703.2,1069.4,690.5,1070.5z"/>
<path class="st0" d="M1223.9,1413.6c0,2.3,0.2,4.7,0,7c-1.3,10.6-0.3,20.5,7.8,28.5c1.1,1.1,1.5,2.9,2.3,4.4c2.3,4,1.4,7.2-2.6,9.1
	c-8.1,3.9-16.2,7.5-24.1,12c-5.5,3.1-11.1,0.3-15.5-3.8c-10.4-9.5-14.9-21.9-16.3-35.4c-0.8-7.9-0.4-16-1-23.9
	c-2.3-26.3-12.1-50.2-22.8-74c-8.5-18.8-5.9-37.7,3.4-55.6c3.7-7.1,10.3-11.2,18.3-12.7c6.3-1.2,9.4,0.7,11.4,6.7
	c1.3,3.9,0.8,7.9,0.9,11.9c0.6,21.6,6.4,41.2,21.9,57.3c9.2,9.6,11.6,22.2,13.9,34.7C1223.3,1391,1223.9,1402.3,1223.9,1413.6z"/>
<path class="st0" d="M725.3,1368.1c0.8-21.5,6.1-42,15-61.6c3.1-6.8,7.4-12.1,14.3-15.9c12.8-7.1,22.2-17.9,29.3-30.7
	c2.1-3.8,3.6-7.8,4.2-12.2c1.3-10.2,12.3-22.7,22.1-24.2c10.5-1.6,21.2-2,31.8-0.3c4.1,0.7,5.6,2.6,5.8,6.6
	c0.8,18.3-17.2,44.4-34.5,49.3c-7.4,2.1-13.4,6.1-18.1,11.8c-16.8,20.3-27.2,43.2-27.5,70c-0.1,5.3,0.1,10.7-0.5,16
	c-1.4,11.1-6.9,16.5-17.8,18.4c-17.7,3.1-23-1.1-24-19.2C725.2,1373.5,725.3,1370.8,725.3,1368.1z"/>
<path class="st0" d="M1321.7,1420.8c1.6-13,2.9-25.6,4.6-38.1c1.6-11.5,1-22.3-5.5-32.6c-5.5-8.7-4.4-18.8-2.5-28.2
	c3.9-20.3,10.3-39.9,15.9-59.8c0.6-2.2,1.7-4.4,2.6-6.5c5.3-11.3,9.6-13.3,21.2-9.7c3.5,1.1,7,2.3,10.4,3.5c6.9,2.5,8.2,4.9,7.2,12
	c-0.6,4.1-2.7,7.5-4.5,11c-8.2,16.1-14.6,32.8-16.7,50.9c-1.4,12.4,0.2,24.6,2,36.8c2.3,15.5,3.6,31.1,4.7,46.7c0.2,2.3,0.1,4.7,0,7
	c-0.6,16.5-5.8,25-27.1,25.5c-7,0.2-9.3-2-11-9.1C1322.3,1427,1322.1,1423.7,1321.7,1420.8z"/>
<path class="st0" d="M956.4,1354c0,3.5-1.1,9-6.6,13.8c-7.7,6.7-11.4,16.3-14.2,25.9c-3.6,12.1-6.7,24.3-10,36.5
	c-2.9,10.6-6.2,21.1-11.7,30.6c-7.1,12.2-12.8,14.5-26.4,10.7c-7-1.9-14-4.2-21.1-5.8c-5-1.1-5.8-4-4.3-8c1.9-5,4.1-9.8,6.5-14.6
	c5.3-10.8,9.7-21.8,12-33.7c2.1-11,7.5-20.5,14.6-29.2c4.2-5.1,8.5-10.3,12.7-15.4c5.5-6.9,9.1-14.4,10.3-23.4
	c1.5-11.4,6.3-14.7,17.8-13.5c0.7,0.1,1.3,0.2,2,0.3C953.7,1330.6,957,1334.6,956.4,1354z"/>
<path class="st0" d="M1018.7,1410.2c0.3-6.5,0.7-13.9,4.3-20.4c8.7-15.7,10.1-32.8,10.6-50.2c0.2-5.6-0.3-11.3,1.5-16.8
	c3-9.1,7.1-12.3,16.7-12.5c2,0,4-0.1,6,0c7.3,0.3,8.7,1.3,10.1,8.3c2.2,11.1,0.7,21.9-2.9,32.4c-4.9,14.2-8.2,28.8-9.2,43.8
	c-1,14.1,1.1,27.9,6.2,41.1c3.9,9.9,6.9,20.1,8.4,30.7c0.3,2,0.6,3.9,0.7,5.9c0.8,17.8-11.3,27.5-28.5,22.7
	c-4.3-1.2-6.7-4.1-7.5-8.4c-1.1-6.2-2.2-12.4-2.9-18.7c-1.1-9.7-3.7-18.9-7.3-27.9C1021.1,1430.8,1018.9,1421.1,1018.7,1410.2z"/>
<path class="st0" d="M738.4,1207.6c-0.1,13.8-0.6,25.4-4.4,36.6c-1.8,5.4-3.9,10.7-7.5,15.1c-9.9,12-15.7,26.1-20.9,40.6
	c-3.9,10.9-7.9,21.9-12,32.7c-1.8,4.7-3.9,9.2-7.4,12.9c-2.4,2.6-5.1,3.8-8.9,2.4c-4-1.5-5.8-4-5.9-8.2c-0.1-5.2,1.6-9.8,3.9-14.3
	c5.9-11.6,11.9-23.1,17.6-34.7c9.3-18.8,18.3-37.7,23.1-58.3c1.9-8.2,2.2-16.5,2-24.8c-0.2-7.7-0.1-15.3,1.8-22.8
	c1.6-6.4,3.9-7.9,9.7-7.7c3.8,0.2,6.4,1.2,6.6,5.6c0.1,2,0.9,3.9,1,5.9C737.7,1195.8,738,1202.7,738.4,1207.6z"/>
<path class="st0" d="M801.6,1088.4c-12.9,4-25.9,7.9-38.8,11.9c-4.9,1.5-9.8,1.9-14.8,0.6c-12.2-3.1-24.5-6.2-36.6-9.5
	c-7.7-2.1-15.1-4.8-22.2-11.9c17.3-2,31.3-9.7,46.4-14.3c7.6-2.4,15.2-2.5,22.4,0.7c14.8,6.6,29.3,13.7,44,20.6
	C801.8,1087.1,801.7,1087.8,801.6,1088.4z"/>
<path class="st0" d="M1672.9,870.5c-39.6,6.1-75.5-4.6-110.8-19.5c-0.2-3,2.5-3.6,4.2-4.7c5.3-3.5,11.1-6,17-8.2
	c10-3.8,19.2-4,29.3,1.6C1632.3,850.7,1652.8,860.3,1672.9,870.5z"/>
<path class="st0" d="M638.5,1404.8c-10.8-34.6-32.2-62.6-55.7-90.4c7.5-1.6,13.6-2.3,19.9,2.2c11.3,8.2,23.5,15.2,35.7,22
	c8.4,4.7,8.5,4.7,7,14.6C642.7,1370.3,640.7,1387.5,638.5,1404.8z"/>
<path class="st0" d="M842.7,1161.1c0.8,0.2,1.8,0.2,2.6,0.5c16.6,5.4,28.8,2.6,38-12.4c6-9.8,12.5-11,21.9-8.3
	c2.2,0.6,4.5,0.7,6.8,1c0,3.6-2.4,5.7-3.9,8.1c-7.4,12.2-15.1,24.3-22.2,36.7c-2.3,4.1-5,5.4-9.5,5.3c-19.2-0.6-30.5-9.3-34.4-27
	C841.9,1163.8,841.6,1162.4,842.7,1161.1z"/>
<path class="st0" d="M2130,1631.8c-9.8-20-18.5-38.8-19.1-60.4c-0.1-2.7,0.2-5.3,0.4-8c0.1-2.7,1.3-4.4,4.3-4
	c4.9,0.7,9.9,1.4,14.8,2.1c3.8,0.6,3.1,4,3.4,6.3c2,15.3,2,30.6,0.1,45.8C2133.2,1619.3,2133.7,1625.1,2130,1631.8z"/>
<path class="st0" d="M530.8,1258.5c24.5,11.8,44.3,25.4,56.6,48.2c-6.9,1.9-12.2,0.1-17.5-5.7c-9.8-10.8-20.5-20.8-30.7-31.2
	C536.5,1266.9,533.5,1264.2,530.8,1258.5z"/>
<path class="st0" d="M2178.6,1568.1c-9.2,12-17.2,22.1-23.5,34.1c-1.9-12.1-3.8-24.1-5.8-36.8
	C2158.9,1564.3,2167.6,1567.7,2178.6,1568.1z"/>
<path class="st0" d="M880.7,1138c-2.1,6-6.2,10.3-11,13.9c-7.5,5.6-17.4,5.3-25.2-0.1c-2.6-1.8-3.5-3.9-2.9-6.7
	c0.9-3.9,3.8-1.6,5.6-1.4c5.2,0.4,10.3-0.3,14.1-3.7C867.5,1134.4,873.7,1134.9,880.7,1138z"/>
<path class="st0" d="M1888.9,1032.6c-2.4-4.6-1.7-9.2-1.8-13.6c-0.1-7.6,0.3-15.2,0.7-22.7c0.2-3.8,3.2-4.5,6.4-4.6
	c3.8-0.1,2.8,2.9,3.1,4.9C1898.8,1008.3,1895.6,1021.8,1888.9,1032.6z"/>
<path class="st0" d="M1230.1,1936.1c5.1-0.9,10.2-1,15.7-0.6c0.3,10.4-2.7,19.8-5.2,29.3C1236.2,1960.2,1232,1948.7,1230.1,1936.1z"
	/>
<path class="st0" d="M1361.9,1957c-2.8-8.4-5.5-16.9-8.3-25.3c-1.2-3.8-0.9-6.1,4.1-6.5c8.7-0.7,9.1-0.9,8.6,8.1
	C1365.8,1941.1,1366.4,1949.1,1361.9,1957z"/>
<path class="st0" d="M1874.7,1015.5c-3.4-5.5-6.9-11-10.7-17.1c4.8-1.8,9.2-3.2,14.8-2.9c-0.8,6.7-1.6,13-2.4,19.4
	C1875.8,1015.1,1875.2,1015.3,1874.7,1015.5z"/>
<path class="st0" d="M858.3,1940.1c-2.9-7.5-2.2-13.8-3.4-20.2c3.9-1,6.9,0.3,10.7,1.4C864.9,1927.7,860.9,1932.8,858.3,1940.1z"/>
<path class="st0" d="M1935.9,1536.3c-0.1,6.3-2.4,11.3-4.8,16.6c-2.4-5.2-4.2-10.5-4.1-16.4
	C1929.7,1534.3,1932.4,1535.7,1935.9,1536.3z"/>
<path class="st0" d="M807.9,1895.1c-0.8-9,1.8-17.7,3.1-26.5c0,8.8,0,17.7,0,26.5C810,1895.1,809,1895.1,807.9,1895.1z"/>
<path class="st0" d="M1757.8,1469.9c-0.9-7.2,0.4-14.1,3.1-22.5c0,8.4,0,15.2,0,21.9C1759.8,1469.5,1758.8,1469.7,1757.8,1469.9z"/>
<path class="st0" d="M660.2,1876.2c0-6.2,0-10.8,0-15.4C665.9,1863.2,665.9,1863.2,660.2,1876.2z"/>
<path class="st0" d="M285.8,1356.5c2.7,3.5,3.2,7.7,4,11.8c0.5,2.6-1.2,3.5-3.3,3.8c-2.2,0.3-2.5-1.3-2.9-3
	c-0.8-3.5-1.8-6.9-1.2-10.6C283.6,1357.9,284.7,1357.2,285.8,1356.5z"/>
<path class="st0" d="M854.3,1134.3c-2.2,1.3-4.2,1.3-6.2,1c-1.9-0.3-4.6-0.9-4.1-3.3c0.7-3.2,3.2-0.8,4.8-0.6
	C850.6,1131.7,853,1131,854.3,1134.3z"/>
<path class="st0" d="M155.5,455.2c0.7,3.3,0.1,6.5-0.3,10.3c-2.9-3-3.2-6.2-3-9.7C153.3,455.6,154.3,455.4,155.5,455.2z"/>
<path class="st0" d="M2127,1515.4c-2.2-2.9-3-6.3-4-10.5c3.8,2.5,5.5,5.1,6.1,8.4C2128.5,1514,2127.8,1514.7,2127,1515.4z"/>
<path class="st0" d="M807.9,1895.1c1,0,2.1,0,3.1,0c-0.2,2.5,2.3,7.1-1.7,7C805.3,1902.1,808,1897.7,807.9,1895.1z"/>
<path class="st0" d="M291.2,1380.7c-0.1,0.4-0.3,1-0.5,1.6c-1.1-0.4-2.2-0.9-2.3-2.2c0-0.4,0.6-1.2,1-1.2
	C290.6,1378.6,291.2,1379.4,291.2,1380.7z"/>
<path class="st0" d="M1885.7,986.2c0-2.1,0-4.2,0-7.5c1.6,3.3,1.2,5.3-0.2,7.2C1885.5,985.9,1885.7,986.2,1885.7,986.2z"/>
<path class="st0" d="M198.3,1389.3c1.3,0,1.7,1.1,2.1,2.2c0.5,1.2-0.2,1.8-1,2c-1.5,0.3-1.9-1-2.3-2.1
	C196.6,1390.2,197.3,1389.8,198.3,1389.3z"/>
<path class="st0" d="M1757.8,1469.9c1-0.2,2.1-0.4,3.1-0.6c0.3,1.8,1.6,4.2-1.5,4.4C1757.2,1473.8,1757.5,1471.6,1757.8,1469.9z"/>
<path class="st0" d="M2127,1515.4c0.7-0.7,1.4-1.4,2.1-2.1c1.6,1.5,2.4,3.3-0.1,4.4C2127.9,1518.3,2127,1516.9,2127,1515.4z"/>
<path class="st0" d="M2090.5,945.6c0.4,0.9-0.3,1.6-1.2,1.8c-1.6,0.4-1.9-0.9-2.4-2c-0.5-1.2,0.2-1.9,1.1-2.1
	C2089.4,943,2090.1,944,2090.5,945.6z"/>
<path class="st0" d="M1892,987.2c-2.6,0.7-3.2-0.3-2-2.6C1890.7,985.4,1891.3,986.3,1892,987.2z"/>
<path class="st0" d="M155.5,455.2c-1.1,0.2-2.2,0.4-3.3,0.6c-0.6-1.3-0.3-2.6,1.1-2.9C154.6,452.7,155.4,453.8,155.5,455.2z"/>
<path class="st0" d="M706.8,1758.1c0.9-0.6,1.7-1.9,3-0.9c1.3,1,0.6,2-0.3,2.9C708.7,1759.4,707.7,1758.7,706.8,1758.1z"/>
<path class="st0" d="M2120.4,278.5c7.9-0.6,14.5-1.1,21.1-1.6c13.4-0.9,26.7-0.4,39.6,3.5c6.9,2.1,13.7,5.3,14.4,14.2
	c-2.8,2.1-5.5,1.2-8,1.2c-249.8,0-499.5,0.1-749.3,0c-16.9,0-30.5-8.6-42.2-19.9c-6.5-6.3-6.1-12.6-0.2-19.5
	c4.8-5.7,11.2-9.4,17.7-12.7c19.7-10.1,40.8-15.8,62-21.5c8.7-2.3,18.4-2.5,25.9-6.8c7.5-4.2,12.8-12.4,19.1-18.7
	c19.6-19.6,40.5-37.6,64.4-51.8c14.1-8.4,28.9-15.1,45.2-18c9.9-1.8,20.1-2.2,29.6,1.3c10.2,3.7,20.7,4.4,31.2,5.9
	c41.5,6,82.6,13.8,121.7,29.9c13.6,5.6,26.5,12.3,37.9,21.7c7.6,6.2,14.2,13.3,17.3,22.7c1.6,5,4.3,4.7,8.2,3.7
	c18.4-4.5,37.2-7.5,56.1-9.2c14.3-1.3,28.6-1.4,42.8,1.3c4.9,0.9,10.1,2,14.2,4.5c6.3,4,12.8,4.6,19.9,4.7c25,0.2,49.8,2.3,74.2,8.6
	c9.4,2.4,18.5,5.6,26.8,10.6c16.3,10,20.3,22.2,13.1,39.8C2122.5,273.8,2121.8,275.3,2120.4,278.5z"/>
<path class="st0" d="M1762.4,142.9c25.3-73,111.8-135.9,212.6-109.5c99.5,26,142.8,122.4,131.9,191.3c-5.1-0.3-9.3-3.2-13.9-4.7
	c-18.9-5.9-38.2-8.8-57.9-10.1c-10.6-0.7-21.3-1-31.9-1.4c-3-0.1-5.7-0.6-8.5-2.1c-10.7-6-22.5-7.9-34.6-8.5
	c-27.5-1.3-54.4,3.1-81.2,8.9c-3.4,0.7-6,1.8-8-2.7c-6.8-14.9-19.1-24.5-32.8-32.5c-20.2-12-42.3-19.2-64.7-25.6
	C1769.9,145,1766.4,144,1762.4,142.9z"/>
<path class="st0" d="M1778,300.6c101.3,0,201.7,0,302.3,0c-16.9,36.7-72.7,81.7-139,85.1C1873.3,389.1,1798.2,350.1,1778,300.6z"/>
<path class="st0" d="M365.3,913.8c1.9-11.2,4.8-21.4,9.3-31.1c14.9-31.8,40.9-43.7,74.6-34.1c16.1,4.6,30.8,12.3,44.7,21.6
	c4.9,3.3,8.8,4,14.6,1.9c15.7-5.7,31.8-9.5,48.9-6.9c15.9,2.4,27,10.6,32.5,25.8c1.6,4.6,3.6,6.5,9,6.3c28.5-1.4,50.5,9.6,64.1,35.3
	c1.8,3.3,3.7,5,7.6,5.1c6.4,0.1,12.5,1.9,18.1,5.1c5.7,3.2,9,7.9,8.8,14.6c-0.3,8.3-4.2,15.3-8.6,22c-1.2,1.9-3.2,2.2-5.2,2.1
	c-2.3-0.1-4.7,0-7,0c-164.9,0-329.7,0-494.5,0c-13,0-14-1.3-11.2-14.3c3.1-14.3,12-23.2,27.2-25.3c6.2-0.9,9.1-3.4,11.4-8.9
	c5.8-13.9,14.1-26.4,24.9-37c21-20.6,45.5-26.2,73.5-17c18.3,6,33.9,16.7,48.7,28.7C359.1,909.7,361.1,912.6,365.3,913.8z"/>
<path class="st0" d="M1653.4,1890.3c-1.1-0.8-2.6-2-1.6-3c1.4-1.4,2.9-0.1,4.1,1.2C1655.1,1889.1,1654.3,1889.7,1653.4,1890.3z"/>
<path class="st0" d="M2044.5,1002.3c0.6,3.7,0.2,5.7-2.7,6.1c-0.4,0.1-1.3-0.7-1.3-1.1C2040.1,1004.7,2042.3,1004.3,2044.5,1002.3z"
	/>
<path class="st1" d="M1177.6,1014c47.5,1,90.5,7,131.5,23.5c15.2,6.1,29.5,13.8,42.2,24.4c11.2,9.3,19.6,20.8,26.1,33.7
	c1.2,2.4,2.2,4.9,2.9,7.4c4.1,13.4-1.5,22.2-15.4,24.3c-10.1,1.5-19.9-0.4-29.7-2.6c-6.2-1.3-12.2-3.3-18.3-4.8
	c-3.4-0.8-6.3-0.9-7.4,3.9c-1.7,7.5-7.8,11.2-14.4,14.1c-11.5,5.1-23.7,6.5-36,7.2c-10.6,0.6-21.3,0.6-31.9,0.2
	c-4.9-0.2-7.1,0.8-7.8,6.2c-1.4,10.6-4.9,20.7-9.7,30.3c-14.2,28.3-38.8,40-69.5,32.7c-16.3-3.9-31.7-9.9-46.2-18.3
	c-6.7-3.9-12.8-8.5-17.9-14.3c-5.7-6.4-9.8-13.6-9.2-22.5c0.3-4.6-1.3-6.5-5.6-7.6c-9.1-2.3-17.6-6-25.3-11.5
	c-9.2-6.6-16.2-14.8-19.1-26c-1-4.1-3.2-6.9-6.9-9.1c-6.3-3.7-12-8.5-16.6-14.2c-12.2-15.1-9.8-30.3,6.6-40.6
	c11.5-7.2,24.4-10.2,37.6-12.8c15.1-2.9,30.3-4.2,45.6-4.9c3.6-0.2,7.2,0.1,10.6-2c16-9.9,34.2-12.8,52.4-14.8
	C1157.9,1014.5,1169.6,1014.4,1177.6,1014z M1086.3,1174.7c-1.9-1.3-3.4-3.8-6.3-2.4c0.7,1.9,1.7,3.4,3.5,4.3
	c1.3,1.5,2.4,3.2,3.9,4.4c19.7,15,41.8,24.2,66.5,26.8c11.2,1.2,22-1.2,31-8.3c17.9-14,24.2-33.7,27.4-55.6
	c-12.8-2.2-24.6-4.2-36.3-6.1c-7.8-1.2-8-1.1-9.9,6.5c-4.7,18.3-16.6,29-34.6,33.2C1116.1,1181.1,1101,1179.8,1086.3,1174.7z
	 M1355.3,1119.4c2.3,0,3.3,0,4.3,0c13.4-0.6,16.9-5.8,11.4-18c-5.7-12.6-13.6-23.6-24.2-32.6c-11.8-10-25.1-17.6-39.4-23.1
	c-56.4-22-114.7-27.8-174.5-19.7c-11.2,1.5-22.6,3.8-32,10.2c-5.7,3.9-11.5,4.6-17.8,4.8c-20.7,0.6-41.1,3-61.1,8.7
	c-7,2-13.9,4.7-19.8,9.2c-9.1,6.8-10.5,14.8-4.1,24.2c3.4,5,7.8,9.2,12.8,12.5c26,17.3,54.4,26,85.8,23.9c7.1-0.5,13.9-2.4,19.2-7.4
	c6.3-6,13.8-9,22.1-10.7c18.7-3.8,37.7-4.2,56.7-3.3c23,1,45.9,2.7,68.6,5.7c24,3.2,48.3,5.4,71.7,12.2
	C1342,1118,1349.3,1118.9,1355.3,1119.4z M1026.3,1114.8c3.3,9.6,9.2,14.9,15.9,19.4c7.2,5,15.3,7.8,23.7,10.2
	c4.1,1.2,7.6,1,11.6-0.5c11.8-4.6,23.8-8.5,36-11.5c16.9-4.2,33.9-7.1,51.4-4.5c14.5,2.2,28.9,4.7,43.3,7
	c24.6,3.9,49.1,3.6,73.5-1.3c5.9-1.2,11.6-3.1,16.4-6.9c2.4-1.9,4.5-4.4,3.6-7.7c-0.8-2.8-3.9-1.8-6-2.4c-2.2-0.7-4.6-0.8-6.9-1
	c-20.8-2.5-41.6-5.6-62.4-7.2c-25.5-2-51.1-4.2-76.8-0.7c-11,1.5-21.4,3.7-30,11.9c-5.9,5.6-14,7.6-22.1,8.2
	c-14,1.1-27.8,0-41.6-3.4C1046.4,1121.9,1037.3,1118,1026.3,1114.8z M1158.8,1135.9c-7.2-1.8-14.5-0.4-21.7,0
	c-2.9,0.2-4.3,1.9-5.6,4.7c-8.4,19-15.8,20.9-32.5,9.1c-4.3-3-12.4-2.4-15.1,1.3c-2.8,3.7-1.3,10.6,3.3,14.1c2.9,2.3,6.4,3.5,10,4.3
	c9.8,2,19.7,2.6,29.6,0.7C1146,1166.2,1155.9,1155.9,1158.8,1135.9z M1105.9,1143.6c9.6,7.6,13.2,6.6,16-4.3
	C1116.3,1139.7,1111.1,1141,1105.9,1143.6z"/>
<path class="st1" d="M1124.5,1659.9c73.3-3.5,144.9-15.3,213.4-42.5c30.7-12.2,59.7-27.6,86.3-47.4c2.4-1.8,5-5.3,8.2-0.7
	c1.3,1.9,2,3.4-0.2,5c-2.4,1.8-4.8,3.6-7.2,5.3c-41.9,30-88.5,49.8-137.8,63.6c-42.1,11.8-85,19-128.5,22.5
	c-17.6,1.4-35.3,1.5-52.9,2.5c-2.3,0.1-4.7,0-7,0c-3.2,0-6-0.1-5.7-4.7c0.3-4.1,2.8-3.7,5.5-3.7
	C1107.2,1659.9,1115.9,1659.9,1124.5,1659.9z"/>
<path class="st0" d="M1355.3,1119.4c-6-0.5-13.3-1.4-20.3-3.5c-23.4-6.8-47.7-9-71.7-12.2c-22.8-3-45.7-4.7-68.6-5.7
	c-19-0.9-37.9-0.5-56.7,3.3c-8.3,1.7-15.8,4.7-22.1,10.7c-5.3,5-12.1,6.9-19.2,7.4c-31.4,2.1-59.8-6.6-85.8-23.9
	c-5-3.3-9.4-7.5-12.8-12.5c-6.4-9.4-5-17.4,4.1-24.2c5.9-4.4,12.8-7.1,19.8-9.2c19.9-5.8,40.4-8.2,61.1-8.7
	c6.4-0.2,12.1-0.9,17.8-4.8c9.5-6.4,20.9-8.7,32.1-10.2c59.8-8.1,118.1-2.2,174.4,19.7c14.3,5.6,27.6,13.2,39.4,23.1
	c10.6,9,18.6,20,24.2,32.6c5.5,12.2,1.9,17.4-11.4,18C1358.6,1119.4,1357.6,1119.4,1355.3,1119.4z"/>
<path class="st0" d="M1026.3,1114.8c11,3.3,20.1,7.1,29.8,9.5c13.7,3.4,27.6,4.4,41.6,3.4c8.1-0.6,16.2-2.5,22.1-8.2
	c8.6-8.2,19-10.4,30-11.9c25.6-3.5,51.2-1.3,76.8,0.7c20.9,1.7,41.6,4.8,62.4,7.2c2.3,0.3,4.7,0.4,6.9,1c2.1,0.6,5.2-0.5,6,2.4
	c0.9,3.3-1.2,5.7-3.6,7.7c-4.8,3.8-10.5,5.7-16.4,6.9c-24.4,4.9-48.9,5.3-73.5,1.3c-14.4-2.3-28.9-4.8-43.3-7
	c-17.4-2.6-34.5,0.2-51.4,4.4c-12.3,3.1-24.3,6.9-36,11.6c-4,1.6-7.5,1.7-11.6,0.5c-8.4-2.4-16.5-5.2-23.7-10.2
	C1035.5,1129.6,1029.6,1124.3,1026.3,1114.8z"/>
<path class="st0" d="M1086.3,1174.7c14.8,5.1,29.8,6.4,45.1,2.8c18-4.2,29.9-15,34.6-33.2c1.9-7.6,2.1-7.7,9.9-6.5
	c11.8,1.8,23.5,3.9,36.3,6.1c-3.2,21.9-9.4,41.6-27.4,55.6c-9.1,7.1-19.8,9.5-31,8.3c-24.6-2.6-46.8-11.8-66.5-26.8
	c-1.5-1.2-2.6-2.9-4-4.4C1084.3,1176,1085.3,1175.3,1086.3,1174.7z"/>
<path class="st0" d="M1158.8,1135.9c-2.9,19.9-12.8,30.3-32,34.1c-10,1.9-19.8,1.3-29.6-0.7c-3.6-0.7-7-2-10-4.3
	c-4.6-3.5-6.1-10.4-3.3-14.1c2.8-3.6,10.9-4.3,15.1-1.3c16.7,11.9,24,9.9,32.4-9.1c1.2-2.8,2.7-4.6,5.6-4.7
	C1144.4,1135.5,1151.6,1134.2,1158.8,1135.9z"/>
<path class="st0" d="M1105.9,1143.6c5.2-2.5,10.4-3.9,16-4.3C1119.1,1150.2,1115.5,1151.2,1105.9,1143.6z"/>
<path class="st0" d="M1083.4,1176.6c-1.8-0.9-2.8-2.4-3.5-4.3c3-1.4,4.5,1,6.3,2.4C1085.3,1175.3,1084.3,1176,1083.4,1176.6z"/>
</svg>
