<?xml version="1.0" encoding="utf-8"?>
<!-- Generator: Adobe Illustrator 24.2.1, SVG Export Plug-In . SVG Version: 6.00 Build 0)  -->
<svg version="1.1" id="Layer_1" xmlns="http://www.w3.org/2000/svg" xmlns:xlink="http://www.w3.org/1999/xlink" x="0px" y="0px"
	 viewBox="0 0 2550 3299.9" style="enable-background:new 0 0 2550 3299.9;" xml:space="preserve">
<style type="text/css">
	.svgfill{fill:#FFFFFF;}
	.st2{fill:#040404;}
</style>
<path class="svgfill" d="M0,1157.9C0,772.1,0,386.2,0-0.1c687.3,0,1374.7,0,2062,0c-3.3,4-8.3,5.2-12.6,7.4
	c-186.7,93.9-276.8,309.7-208.9,510.9c1.9,5.7,7.9,12,4,17.1c-3.5,4.5-11.5,4.4-17.6,5.9c-0.3,0.1-0.7,0.1-1,0.2
	c-4.4,1.1-7.3,0-9.7-4.4c-8.2-14.9-16.9-29.5-25.5-44.1c-1.6-2.8-2.5-6.3-5.9-7.9c-4,10.6-5.2,21.9-9.7,32.6c-6.3-1.8-12.7-2-18,1.5
	c-4.7,3.1-6.4,0.7-8.6-2.6c-5-7.5-10.2-15-15.4-22.7c-2.7,2.7-2.6,5.1-3,7.4c-3.3,17.3-6.8,34.6-9.8,52c-0.8,4.9-2.7,7.1-7.4,7.3
	c-2,0.1-3.9,0.8-5.9,1c-41.6,4.4-80.9-19.9-95.3-59.3c-2.4-6.5-4-13.4-5.7-20.1c-4.2-16.5-8.3-33-12.7-50.8
	c-4.4,7.1-6,13.6-8.5,19.7c-16.5,40.8-46.4,65.7-89.3,74.9c-16.8,3.6-33.7,7.1-50.6,10.7c1.2,2.9,3.8,2.8,5.9,3.3
	c16.2,4,32.3,8.2,48.5,11.8c11.8,2.6,20.5,8.9,26.6,19.3c4.5,7.8,9.4,15.3,14.3,22.9c1.4,2.1,1.9,5.1,5.1,5.6
	c5.8-4,11.4-8.2,17.4-11.8c17.7-10.7,35.6-10.3,52.6,1.3c18.5,12.6,30.3,29.3,30.9,53c0.4,13.8,3,27.4,4.7,41.3
	c3.9-0.9,4.5-3.8,5.9-5.9c6.9-10.2,13.3-20.8,20.5-30.8c16.2-22.5,46.7-26.1,67.7-8.3c7.1,6,13.8,12.6,19.4,20.1
	c6.6,8.8,13.6,17.3,20.6,25.8c4.5,5.5,11.4,4.1,13.8-2.7c3.7-10.3,7.5-20.6,10.8-31.1c2.8-9,7-17.3,11.7-25.3
	c11.5-19.7,33.7-27.8,55.2-20.5c4.9,1.7,8.6,4.5,11.5,9c9.8,15.2,20.8,29.3,32.6,43c1.4,1.6,3.9,2.8,3,6.1c-6.9,0-14,0-22.8,0
	c4.2,2.4,6.6,3.9,9.2,5.3c13.5,7.2,27.2,14.2,40.5,21.7c13,7.4,23.7,16.8,27.3,32.6c2,8.7,5.5,17.1,7.9,25.7
	c1.1,3.9,2.8,4.7,6.4,3.3c7.8-2.9,15.4-6.3,23.6-8c4.5-0.9,8.3-0.7,12.3,1.7c11.1,6.7,22.7,12.5,34.6,17.9c2.1,1,4.2,1.8,5.7,3.8
	c9.7,13.2,16.8,27.2,14.2,44.4c-1.4,9.2-2.7,18.5-3.6,27.7c-0.9,9.1-3.4,18.1-2.9,28.7c2.1-1.8,3.3-2.8,4.4-3.8
	c10.1-9.2,20-18.6,30.4-27.5c23.2-19.9,56-15.4,73.3,9.7c5.5,8,10.5,16.2,14.2,25.2c4.5,10.8,9.5,21.3,14.2,31.9
	c1.5,3.4,3.6,4.1,7.3,4.8c5.4,1,6.2-2.8,8.1-5.5c11.7-16.6,21.3-34.6,35.6-49.3c22.1-22.8,54.9-21.8,75.3,2.7
	c6.8,8.2,13.2,16.8,19.9,25c2.6,3.2,4.7,7,9.3,10.2c0.6-19.2,1.4-37,1.8-54.9c0.3-13.3,4.9-24.7,13.7-34.5c2.9-3.2,5.8-6.5,8.8-9.6
	c17.2-17.8,41.2-21.5,63.1-9.6c5.8,3.2,11.5,6.6,18,10.3c5.4-10.5,10.9-20.3,15.5-30.6c6.1-13.4,15.9-21.7,29.9-25.7
	c10.5-3,20.8-6.9,31.2-10.4c0,858,0,1716,0,2574c-104,0-208,0-312,0c2.1-2.8-0.3-4.8-1.3-6.9c-17.2-38.6-34.5-77.2-51.8-115.7
	c-0.9-2-1.1-4.7-4.2-5.5c-4.6,3.5-9.4,7.1-14.2,10.7c-26.7,19.9-53.8,39.3-82.5,56.3c-8,4.8-16.2,9.2-24.9,12.7
	c-3.8,1.5-6.3,0.9-7.1-3.6c-1.2-6.9-3-13.7-4-20.6c-4.4-30-7-60.2-8.4-90.5c-0.3-5.1-0.2-10.4-2-16.1c-31,20-60.4,40.6-92.3,61
	c7.8-59.2,15.3-116,23.1-175c-10.1,8.3-18.2,15.1-26.3,21.8c-7.9,6.6-15.9,13.2-23.8,19.8c-8.2,6.8-16.3,13.7-24.6,20.5
	c-8,6.5-15.7,13.6-25.5,20.6c0-6.1,0-10,0-14c0-368.6,0-737.2,0-1105.8c0-23.1-2-45.9-5.8-68.6c-16.9-101.7-63.4-187.9-137.1-259.4
	c-48.8-47.3-105.2-83.7-166.3-112.7c-106.5-50.6-218.8-72-336.4-66.1c-7,0.3-7.1,0.4-8.7-7.3c-19.9-94.1-39.9-188.1-59.7-282.2
	c-1.3-5.9-3.7-9.9-9-13.2c-26.8-16.1-53.3-32.8-80.1-49c-5-3-7.7-6.6-8.8-12.2c-4.6-21.5-9.4-42.9-14.5-64.3c-1.2-5-1-10.6-4.7-15.1
	c-21.9,9.6-43.6,18.9-65.1,28.6c-5.1,2.3-8.6,2.7-13.2-1.6c-8.8-8.2-18.5-15.3-28.9-21.4c-4.9-2.9-5.8-5.6-4.3-11.2
	c9.5-37.1,18.4-74.3,27.4-111.4c1.8-7.6,4.6-15.1,5-23.8c-9.5,4.4-17,10.4-25,15.7c-42.8,28.2-85.5,56.6-128.4,84.8
	c-10.2,6.7-6.9,6.7-16.5-1.3c-10.5-8.8-20.9-17.6-31.1-26.7c-3.4-3.1-6.4-3.7-10.8-2.4c-13.7,4-27.6,7.4-41.4,11.2
	c-37.9,10.3-76.2,19.1-113.5,31.1c-146.3,46.9-292.3,94.7-438.5,142.2c-9.5,3.1-18.8,6.8-28.8,8.2c-39.5,5.8-79,11.6-118.6,17.3
	C3.5,1159.1,1.5,1160.2,0,1157.9z M1959.7,946.4c-6.3-2-11.3-1.7-16.2-1.9c-23.6-0.9-47.3-1.5-70.9-2.6
	c-54.5-2.5-96.6-26.7-126.2-72.5c-6.1-9.5-11.6-19.4-17.4-29.1c-1.2-2-2.1-4.4-5.1-6.3c-0.6,5.9-1.2,10.9-1.5,15.8
	c-2,26.2-3.6,52.5-5.9,78.7c-5.3,59.7-53.7,105-113.6,106.8c-8.5,0.3-8.5,0.3-11.5-7.6c-9.1-24.3-18.1-48.6-27.3-72.9
	c-0.9-2.5-1.3-5.5-3.3-7.3c-2.5,1.3-2.7,3.1-3.4,4.5c-5.3,11.5-10.7,22.9-15.8,34.5c-1.8,4.2-3.7,7.1-8.8,4
	c-2.6-1.5-5.2-1.3-6.4,2.1c-0.6,1.6-2.1,2.3-2.7,0.9c-2.1-4.8-5.1-4.2-8.8-2.3c-3.1,1.6-4.9,0.3-6.2-2.6c-3.3-7.3-6.6-14.5-10-21.8
	c-3.1-6.6-6.2-13.2-10-21.4c-9.5,25.6-18.3,49.3-27.1,72.9c-6.7,18-6.7,18-26,15.9c-51.8-5.6-94.1-46.2-101.8-97.8
	c-2.2-14.5-2.6-29.2-3.7-43.8c-1.5-19.4-2.9-38.8-4.4-58.2c-7.6,9.8-13.6,20-19.8,30.1c-30.1,49.8-74.3,75.7-132.5,77.5
	c-24,0.8-48,1.7-71.9,2.7c-3.4,0.1-7-0.4-11,2.1c28,12.1,55,24,82.3,35.4c14.1,5.9,23.7,15.4,29,29.7c5,13.4,10.9,26.5,16.1,39.8
	c1.6,3.9,3.2,5.1,7.3,2.9c7.7-4,15.6-7.6,23.5-11c25.4-10.9,52.8-4.1,70.3,17.2c2.8,3.3,5.2,6.9,8,10.2c11.2,13.4,16.2,28.7,15,46.3
	c-1.4,20.3-2.3,40.6-3.4,60.9c-0.3,5.1-0.5,10.1-0.7,16c4.6-2.3,6.4-5.2,8.6-7.5c13.3-14.1,26.1-28.5,39.7-42.2
	c24.6-24.8,63.5-22.5,85.5,4.5c7.8,9.6,14.9,19.6,20.6,30.6c6.4,12.4,13.5,24.5,20.1,36.8c2.3,4.2,4.4,7.6,9.6,3.6
	c1.8-1.3,3.9-1,5.6,0.3c5.1,3.9,6.7,0.1,8.7-3.6c8-14.6,16-29.2,24-43.8c5.6-10.3,12.8-19.6,20.7-28.1c21.8-23.4,59.2-23.3,82.2,0.1
	c13.5,13.8,26.4,28.2,39.7,42.3c2.2,2.3,3.9,5.2,6.8,6.4c0.8-0.6,1.2-0.8,1.2-1c-1.3-25.3-2.5-50.6-4-75.9
	c-0.9-15.2,2.7-29,11.7-41.3c3.2-4.3,6.4-8.5,9.8-12.7c18.9-23.7,46.7-30.5,74.2-18.1c7,3.2,14,6.2,20.7,9.8c4.6,2.6,6.3,1,8-3.3
	c5.6-14.2,11.5-28.3,17.3-42.5c4.8-11.7,12.8-20,24.5-24.9c12.3-5.2,24.4-10.6,36.6-15.8C1926,961,1942.1,954,1959.7,946.4z"/>
<path class="svgfill" d="M0,1295.9c0-32.7,0-65.3,0-98c35.5-5.3,71.1-10.6,106.7-16.1c13.1-2.1,26.5-2.7,39.3-6.8
	c96.8-31.4,193.6-62.8,290.4-94.4c98.6-32.3,197.2-64.9,298.1-89.7c6.3-1.5,10.4-0.8,15.2,3.5c12.1,11,24.6,21.5,37.1,32
	c7.2,6.1,4.8,6.5,13.2,1c29.5-19.4,58.9-39,88.4-58.4c3-2,5.6-4.8,10.9-5.5c-14.3,58.4-28.4,116.3-43.1,176.3
	c53-23.2,104-45.5,155.6-68.1c3.8,16.9,7.7,32.8,10.9,48.8c1.4,7,4.6,11.6,10.9,15.4c26.3,15.7,52.2,32.1,78.4,48
	c4.9,3,7.6,6.3,8.8,12.2c12.2,58.7,24.7,117.2,37.2,175.8c6,28.3,12,56.6,18,85c2.1,9.9,2,9.8-7.5,11c-7.9,1-15.8,2.3-23.7,3.6
	c-106.3,17.6-203.1,57.8-290.5,120.9c-2,1.5-4.7,2.4-5.9,5.8c21.1,17.9,42.3,35.9,64.6,54.8c-33.3,8.7-64.8,16.8-96.2,25.2
	c-4.7,1.3-6.6-0.3-8.4-4.1c-2.4-5.1-5.2-10.1-7.9-15c-7.4-13-3.1-12.5-17.7-5.3c-4.6,2.3-4.7,4.4-2.4,8.4c4,7.1,7.6,14.4,11.8,22.4
	c-22,5.8-42.6,11.2-63.2,16.6c-1.9-3.6-2.1-6.6-2.6-9.5c-5.1-29.9-10.2-59.7-15.4-89.5c-2.4-13.6-2.5-13.4-16.2-10.5
	c-4.2,0.9-4.5,2.7-3.9,6.2c2.8,15.7,5.3,31.5,8.1,47.2c3,17.4,6.3,34.7,9,52.1c1.5,9.7,2.1,9.3-7.1,11.5c-13.3,3.2-26.4,7-39.5,10.5
	c-1.9,0.5-3.8,1.2-6.4,0c-1.6-9.8-3.3-19.9-5-30.1c-2.4-14.4-2.4-14.3-16.7-11.1c-3.3,0.7-4.4,1.9-3.7,5.4c2.1,11.5,3.9,23,5.9,34.5
	c1.3,7.7,1.4,7.8-6.6,9.9c-19,5.1-37.9,10.2-56.9,15.2c-7.8,2.1-7.9,2.1-10.8-5.4c-9.6-24.8-19.1-49.7-28.6-74.5
	c-0.9-2.4-1.2-5.2-4-6.7c-2.8,1-5.6,2.1-8.3,3.2c-8.2,3.2-8.2,3.2-4.9,11.7c9.1,23.9,18.3,47.8,27.4,71.8c2.6,6.8,2.5,7-4,8.8
	c-26.3,7.2-52.7,14.3-78.9,21.6c-5.2,1.4-8.1,0.4-9.7-4.9c-1-3.5-2.8-6.7-4.3-10.1c-6.8-15.5-13.7-31-20.8-47.2
	c-5.9,2.6-11.2,5-17.3,7.7c8.9,20.5,17.6,40.4,26.7,61.3c-23.7,6.5-46.5,12.8-69.6,19.2c-0.8-3.3-1.5-5.6-1.8-7.9
	c-4.8-28.5-9.8-57.1-14.4-85.7c-2.9-17.4-2.7-17.5-19.8-13.7c-0.5,0.1-1,0.8-1.6,1.4c0.8,4.8,1.6,9.7,2.5,14.6
	c5.1,30.2,10.1,60.4,15.3,90.6c0.8,4.5,0.1,6.4-4.7,7.6c-21.2,5.7-42.3,11.6-63.4,17.9c-4.6,1.4-6.5,0.2-8.5-3.7
	c-5.6-11-11.5-21.8-17.3-32.6c-5.5-10.4-3.7-9.6-13.5-4.4c-8.1,4.3-8.1,4.3-3.9,12.2c4.8,9.1,9.8,18.2,14.5,27.3
	c1.3,2.5,3.6,4.8,2.9,8.4c-5.3,1.5-10.8,3.1-16.2,4.6c-14.3,4.1-14.1,4-9,17.8c1.2,3.2,2.4,4.2,5.7,3.2c8.3-2.6,16.6-4.8,24.9-7.4
	c3.8-1.2,6.1-0.3,8,3.3c4.3,8.6,9,17.1,13.6,25.6c8,14.9,8,14.9,22.5,5.7c0.5-0.3,0.7-1.1,1.2-1.8c-6.8-13-13.8-26.1-20.9-39.7
	c21.6-6.1,41.8-11.8,61.9-17.4c6.5-1.8,6.7-1.7,7.7,4.5c4,23.6,7.9,47.3,12.1,70.9c2.9,16.2-0.5,13.5,16.6,10.9
	c3-0.4,4.1-1.7,3.6-4.6c-0.4-2.6-0.8-5.3-1.3-7.9c-4.2-24.6-8.5-49.2-12.6-73.8c-1.2-7-1.1-7.1,5.5-9c20.5-5.7,41.1-11.1,61.5-17.1
	c5.6-1.7,7.5,0.2,9.5,4.9c5.7,13.8,11.9,27.5,17.9,41.2c7.3,16.7,7.3,16.7,23.7,6.7c-8.5-19.6-17.1-39.3-25.9-59.6
	c29.3-7.9,57.6-15.4,85.8-23.3c4.8-1.3,6.3,0.3,7.8,4.4c6.5,17.5,13.3,34.8,19.9,52.2c6.4,16.6,6.4,16.6,23.5,8.1
	c-8.9-23.4-17.8-46.9-27-71.1c23.4-6.2,45.8-12.2,68.7-18.3c2.1,11.7,4,22.5,5.9,33.2c2.3,12.4,2.3,12.4,14.5,10.1
	c6.2-1.2,6.2-1.2,5.1-7.7c-1.9-11.5-3.6-23-5.9-34.4c-1-4.6-0.1-6.7,4.5-7.8c14.5-3.7,29-7.4,43.4-11.5c4.7-1.3,5.9,0.5,6.5,4.4
	c1.9,11.5,4,22.9,5.8,34.5c2.3,14.9-0.6,11.9,15.6,10c4.3-0.5,5.2-2.6,4.4-6.9c-2.6-13.7-4.6-27.6-7.3-41.3
	c-1.1-5.5,0.9-7.7,5.9-8.9c18.4-4.6,36.7-9.6,55-14.3c8.4-2.2,8.4-2.2,12.7,5.8c9.1,17,18.2,34,27.6,51.7c5.8-3.2,11.6-5.3,16.6-9.3
	c-9.9-18.7-19.4-36.8-29.3-55.4c33.3-8.7,65.2-17,97.1-25.3c4.1-1.1,8.3-5,12.1-2.9c4,2.2,2.5,7.9,3.2,12
	c1.9,10.7,4.5,21.3,5.1,32.5c-4.5,0-8.5,0.1-12.4,0c-7.7-0.3-15.3-0.9-23-1.2c-10.7-0.4-10.9-0.4-11.5,9.9
	c-1.2,20.6-2.1,41.3-3.3,61.9c-0.6,11.3-1.4,22.5-2.1,34.7c-49.5-5.6-98.3-11.1-147.3-16.6c-0.2,4.3,1.8,7,3.1,10.1
	c6.8,16.3,13.8,32.5,20.5,48.8c2.3,5.5,1.9,6.3-3.7,7.3c-9.1,1.8-18.4,3.2-27.5,4.8c-52.5,9-104.9,18.1-157.3,27.1
	c-53.1,9.1-106.3,18.1-159.5,27.2c-35.4,6.1-70.8,11.6-106,19.1c-20.2,4.3-40.6,7.3-61,10.9c-33.1,5.8-66.3,11.4-99.4,17.3
	c-5,0.9-6.9,0.2-7.9-5.3c-9.7-56.1-19.8-112.1-29.7-168.1c-10.3-58.3-20.6-116.7-30.9-175c-10.4-58.7-21-117.3-31.2-176
	c-5-28.9-10.2-57.6-21.2-85c-4.9-12.3-8.7-25.2-13-37.8c-3.3-9.8-6.7-19.5-10.1-29.2C3.2,1296.3,2.8,1293.4,0,1295.9z M998.8,1323.9
	c3.5-4.3,4.4-9,6.6-13c1.7-3.2,0.5-4.9-2.5-6.1c-1.5-0.6-3.1-1.3-4.6-2c-78-34-156.1-68-234.1-102.1c-1.8-0.8-3.6-1.7-5.5-2.4
	c-1.3-0.5-2.9-0.6-3.5,0.8c-2.3,4.7-6,9.4-5.7,14.6c0.2,3.7,5.9,3.4,8.8,5.4c0.7,0.5,1.2,1.2,2,2.1c-11.3,6-20.8,13.6-29,23.1
	c-12.7,14.8-22,31.7-28.6,50c-12.2,34.2-17.1,69-6.7,104.8c19.6,67.6,87.5,110.7,156.7,99.3c35.8-5.9,65.5-23.4,91.6-47.7
	c16.3-15.1,29.7-32.4,36.6-54c8-25.2,4.1-48-14.9-67.4c-7.7-7.9-15.6-15.5-23.2-23.4c-1.7-1.7-5.7-3.1-3.7-6.1c1.8-2.7,4.8,0.1,7,1
	C963.4,1308.5,980.8,1316.1,998.8,1323.9z M137.1,1483.5c2.8,1.9,2.5,3.7,2.9,5.3c20.1,76,95.8,120.6,171.9,101.2
	c71.8-18.3,117.9-91.1,102.3-163.4c-10.3-47.8-37.9-84.5-77.5-112.4c-4.9-3.4-10.3-6.1-15.8-8.5c-16.3-7.3-33-10.2-50.4-3.8
	c-0.8,0.3-1.9,0-3,0c-0.1-3.9,2.8-6,4.6-8.6c7.8-11.2,15.9-22.2,23.6-33.5c3-4.3,8.8-8.3,7.9-13.2c-1-4.9-7.8-6.6-12-9.8
	c-0.5-0.3-1.2-0.3-2.6-0.6c-61,86-122.2,172.3-183.5,258.7c5.4,4.2,10,7.9,15.7,10.8c2.7-3.8,5.2-7.3,7.7-10.8
	C131.6,1491.3,134.3,1487.5,137.1,1483.5z M161.5,1570.9c1.4,1.7,2.3,3.1,3.5,4.2c44.4,45.2,97.8,62.2,159.4,47.8
	c49.9-11.7,81.3-45.6,99.8-92.3c1-2.4,2.7-5.1-1.4-6.4c-3.5-1.1-6.6-1.6-7.4,3.4c-0.3,1.6-1.1,3.1-1.8,4.6
	c-26.1,60.3-79.7,94.8-152.3,84c-34.8-5.2-64-21.5-88.5-46.5C168.3,1565.2,168.2,1565.3,161.5,1570.9z M715.6,1476.8
	c30.8,36.8,68.5,60.2,116.8,58.4c67.5-2.5,115.9-36.4,145.5-97.1c0.6-1.2,1.1-2.4,1.6-3.7c0.8-2.2,0.1-3.5-2.3-4.5
	c-4.8-2.2-6.1,0.4-7.9,4.2c-15.8,34.2-40.1,60.3-74.1,76.6c-31,14.8-63.3,20.3-97,11.1c-28.1-7.6-51.2-23.5-70.3-45.2
	C722.9,1471,722.9,1471,715.6,1476.8z"/>
<path class="svgfill" d="M236,3299.9c-78.6,0-157.3,0-236,0c0-630,0-1260,0-1890c3.8,0.4,3.4,3.6,3.8,6c6.1,34.1,12.1,68.2,18.1,102.3
	c10.4,58.7,20.8,117.3,31.2,176c11,61.9,21.9,123.9,32.9,185.8c7.7,43.6,15.5,87.2,23.3,130.7c1.5,8.1,1.6,8.2,9.3,6.8
	c51.2-8.9,102.3-17.9,153.4-26.9c19-3.3,38-6.5,56.7-9.7c2.5,3.3,2.6,6.7,3.1,9.9c4.3,25.6,8.6,51.2,13,76.8
	c9,52.8,18,105.7,27,158.5c9.7,56.8,19.2,113.6,28.9,170.3s19.4,113.5,29.1,170.3c8.8,51.8,17.6,103.7,26.2,155.6
	c0.9,5.5,3.2,6.4,8,5.5c13.4-2.5,26.9-4.6,40.4-6.9c17.1-2.9,34.1-5.7,51.1-8.9c5.2-1,7.4,0.8,7.8,5.7c0.1,1.3,0.3,2.6,0.5,4
	c3.3,19.4,6.7,38.7,9.8,58.1c0.6,3.9,2,5.1,5.8,4.4c6.5-1.2,13.1-2.2,19.7-3.3c13.1-2.2,26.2-4.6,39.4-6.8c2.5-0.4,5.9-1.6,6.4,2.4
	c1.2,9.3,5.5,18,6.4,27.1c1,10.7,1.9,10.4-9,12.2c-37.1,6.2-74.2,12.5-111.3,18.8c-53.2,9.1-106.3,18.2-159.5,27.2
	c-14.4,2.5-28.8,5.1-43.3,7.4c-3.6,0.6-5.5,1.8-4.5,5.7c0.4,1.6,0.4,3.3,0.7,5c17,99.7,34.1,199.5,51,299.3
	c1.2,6.9,3.7,13.8,2.2,22.7c-31.1-31.7-61.3-62.3-92.5-94.1c-6.4,24.8-12.2,47.5-18.1,70.3C256.8,3218.7,246.4,3259.3,236,3299.9z"
	/>
<path class="st2" d="M236,3299.9c10.4-40.6,20.8-81.2,31.2-121.8c5.8-22.8,11.7-45.6,18.1-70.3c31.2,31.8,61.3,62.4,92.5,94.1
	c1.5-8.9-1.1-15.8-2.2-22.7c-16.9-99.8-34-199.5-51-299.3c-0.3-1.6-0.3-3.3-0.7-4.9c-1-4,0.9-5.2,4.5-5.7
	c14.5-2.3,28.9-4.9,43.3-7.4c53.2-9.1,106.3-18.2,159.5-27.2c37.1-6.3,74.2-12.6,111.3-18.8c10.9-1.8,10-1.5,9-12.2
	c-0.9-9.2-5.1-17.8-6.3-27.1c-0.5-4-4-2.8-6.4-2.4c-13.1,2.2-26.2,4.5-39.4,6.8c-6.6,1.1-13.2,2.1-19.7,3.3
	c-3.8,0.7-5.2-0.5-5.8-4.4c-3.1-19.4-6.5-38.7-9.8-58.1c-0.2-1.3-0.4-2.6-0.5-4c-0.4-4.9-2.6-6.7-7.8-5.7c-17,3.2-34.1,6-51.1,8.9
	c-13.5,2.3-26.9,4.4-40.4,6.9c-4.9,0.9-7.1,0-8-5.5c-8.6-51.9-17.4-103.7-26.2-155.6c-9.7-56.8-19.4-113.5-29.1-170.3
	c-9.7-56.8-19.2-113.6-28.9-170.3c-9-52.8-18-105.7-27-158.5c-4.4-25.6-8.7-51.2-13-76.8c-0.5-3.2-0.6-6.6-3.1-9.9
	c-18.8,3.2-37.8,6.4-56.7,9.7c-51.2,8.9-102.3,17.9-153.4,26.9c-7.7,1.3-7.9,1.3-9.3-6.8c-7.8-43.6-15.5-87.2-23.3-130.7
	c-11-61.9-21.9-123.9-32.9-185.8c-10.4-58.7-20.8-117.3-31.2-176c-6-34.1-12-68.2-18.1-102.3c-0.4-2.4,0-5.6-3.8-6c0-38,0-76,0-114
	c2.8-2.5,3.2,0.4,3.8,1.9c3.5,9.7,6.8,19.5,10.1,29.2c4.3,12.6,8,25.4,13,37.8c11,27.4,16.2,56.1,21.2,85
	c10.2,58.7,20.8,117.3,31.2,176c10.3,58.3,20.6,116.7,30.9,175c9.9,56,20,112.1,29.7,168.1c1,5.5,2.9,6.2,7.9,5.3
	c33.1-5.9,66.2-11.5,99.4-17.3c20.3-3.5,40.8-6.5,61-10.9c35.1-7.6,70.6-13.1,106-19.1c53.1-9.1,106.3-18.1,159.5-27.2
	c52.5-9,104.9-18,157.3-27.1c9.2-1.6,18.4-3,27.5-4.8c5.7-1.1,6-1.8,3.7-7.3c-6.8-16.3-13.7-32.5-20.5-48.8c-1.3-3-3.3-5.8-3.1-10.1
	c49,5.5,97.8,11,147.3,16.6c0.8-12.2,1.5-23.5,2.1-34.7c1.1-20.6,2.1-41.3,3.3-61.9c0.6-10.2,0.8-10.3,11.5-9.8
	c7.7,0.3,15.3,0.9,23,1.2c3.9,0.2,7.9,0,12.4,0c-0.5-11.2-3.2-21.8-5.1-32.5c-0.7-4.1,0.7-9.8-3.2-12c-3.8-2.1-8,1.8-12.1,2.9
	c-31.9,8.3-63.7,16.6-97.1,25.3c9.8,18.6,19.4,36.7,29.3,55.4c-5,4-10.7,6.2-16.6,9.3c-9.4-17.7-18.5-34.7-27.6-51.7
	c-4.3-8-4.3-8-12.7-5.8c-18.3,4.8-36.7,9.7-55,14.3c-5.1,1.3-7,3.4-5.9,8.9c2.7,13.7,4.7,27.6,7.3,41.3c0.8,4.2,0,6.4-4.4,6.9
	c-16.2,1.8-13.3,4.9-15.6-10c-1.8-11.5-3.9-23-5.8-34.5c-0.6-3.9-1.9-5.8-6.5-4.4c-14.4,4.1-28.9,7.9-43.4,11.5
	c-4.6,1.2-5.4,3.2-4.5,7.8c2.4,11.4,4,23,5.9,34.4c1.1,6.5,1.1,6.5-5.1,7.7c-12.2,2.3-12.3,2.3-14.5-10.1c-2-10.8-3.9-21.5-5.9-33.2
	c-22.9,6.1-45.3,12.1-68.7,18.3c9.2,24.2,18.1,47.7,27,71.2c-17.1,8.5-17.1,8.5-23.5-8.1c-6.7-17.4-13.4-34.8-19.9-52.2
	c-1.5-4.1-3-5.7-7.8-4.4c-28.2,7.9-56.5,15.4-85.8,23.3c8.8,20.3,17.4,40,25.9,59.6c-16.4,10-16.4,10-23.7-6.7
	c-6-13.7-12.2-27.3-17.9-41.2c-2-4.8-3.8-6.6-9.5-4.9c-20.4,6-41,11.4-61.5,17.1c-6.6,1.8-6.7,2-5.5,9c4.2,24.6,8.4,49.2,12.6,73.8
	c0.5,2.6,0.8,5.3,1.3,7.9c0.5,2.9-0.6,4.2-3.6,4.6c-17.1,2.5-13.8,5.3-16.6-10.9c-4.2-23.6-8-47.3-12.1-70.9
	c-1.1-6.2-1.2-6.3-7.7-4.5c-20.2,5.6-40.3,11.3-61.9,17.4c7.2,13.6,14.1,26.7,20.9,39.7c-0.5,0.7-0.7,1.5-1.2,1.8
	c-14.5,9.2-14.5,9.2-22.5-5.7c-4.5-8.5-9.2-17-13.6-25.6c-1.8-3.7-4.2-4.5-8-3.3c-8.3,2.6-16.6,4.8-24.9,7.4c-3.3,1-4.5,0-5.7-3.2
	c-5.1-13.8-5.2-13.8,9-17.9c5.4-1.5,10.9-3.1,16.2-4.6c0.8-3.6-1.6-5.9-2.9-8.4c-4.7-9.2-9.7-18.2-14.5-27.3
	c-4.2-7.9-4.2-7.9,3.9-12.2c9.8-5.2,8-6,13.5,4.4c5.8,10.9,11.8,21.7,17.3,32.6c2,3.9,3.8,5.1,8.5,3.7c21-6.3,42.2-12.2,63.4-17.9
	c4.7-1.3,5.4-3.2,4.7-7.7c-5.3-30.2-10.3-60.4-15.3-90.6c-0.8-4.9-1.7-9.8-2.5-14.6c0.7-0.6,1.1-1.3,1.6-1.4
	c17.1-3.8,16.9-3.7,19.8,13.7c4.7,28.6,9.6,57.1,14.4,85.7c0.4,2.3,1,4.5,1.8,7.9c23.1-6.4,45.9-12.7,69.6-19.2
	c-9.1-20.9-17.8-40.8-26.7-61.3c6.1-2.7,11.5-5.1,17.3-7.7c7.2,16.2,14,31.7,20.8,47.2c1.5,3.4,3.3,6.6,4.3,10.1
	c1.6,5.3,4.5,6.3,9.7,4.9c26.3-7.3,52.6-14.4,78.9-21.6c6.5-1.8,6.6-1.9,4-8.8c-9.1-24-18.3-47.9-27.4-71.8
	c-3.3-8.6-3.3-8.6,4.9-11.7c2.8-1.1,5.6-2.1,8.3-3.2c2.8,1.5,3.1,4.3,4,6.7c9.5,24.8,19,49.7,28.6,74.5c2.9,7.5,3,7.5,10.8,5.4
	c19-5,37.9-10.1,56.9-15.2c8-2.1,7.9-2.2,6.6-9.9c-2-11.5-3.7-23-5.9-34.5c-0.7-3.5,0.5-4.7,3.7-5.4c14.3-3.2,14.3-3.3,16.7,11.1
	c1.7,10.1,3.4,20.3,5,30.1c2.5,1.2,4.5,0.5,6.4,0c13.2-3.5,26.3-7.3,39.5-10.5c9.2-2.2,8.6-1.9,7.1-11.5c-2.8-17.4-6-34.8-9-52.1
	c-2.7-15.7-5.3-31.5-8.1-47.2c-0.6-3.5-0.3-5.3,3.9-6.2c13.7-2.9,13.8-3.1,16.2,10.5c5.2,29.8,10.3,59.7,15.4,89.6
	c0.5,2.9,0.8,5.9,2.6,9.5c20.6-5.4,41.3-10.8,63.2-16.6c-4.2-8-7.8-15.3-11.8-22.4c-2.3-4-2.2-6.1,2.4-8.4
	c14.6-7.2,10.4-7.7,17.7,5.3c2.8,4.9,5.5,9.9,7.9,15c1.8,3.8,3.8,5.3,8.4,4.1c31.4-8.5,62.9-16.6,96.2-25.2
	c-22.3-18.9-43.5-36.9-64.6-54.8c1.2-3.4,3.9-4.3,5.9-5.8c87.3-63.1,184.2-103.3,290.5-120.9c7.9-1.3,15.8-2.6,23.7-3.6
	c9.5-1.2,9.5-1.1,7.5-11c-6-28.3-12-56.7-18-85c-12.5-58.6-25.1-117.2-37.2-175.8c-1.2-5.9-3.9-9.2-8.8-12.2
	c-26.2-15.9-52.1-32.3-78.4-48c-6.3-3.8-9.5-8.3-10.9-15.4c-3.2-16-7.1-31.8-10.9-48.8C960,1094.5,909,1116.8,856,1140
	c14.7-60,28.8-117.9,43.1-176.3c-5.3,0.8-7.9,3.6-10.9,5.5c-29.5,19.4-58.9,38.9-88.4,58.4c-8.3,5.5-5.9,5.1-13.2-1
	c-12.5-10.5-25-21-37.1-32c-4.8-4.3-9-5.1-15.2-3.5c-100.9,24.8-199.4,57.4-298.1,89.7c-96.8,31.6-193.6,63-290.4,94.4
	c-12.8,4.2-26.2,4.8-39.3,6.8c-35.5,5.5-71.1,10.7-106.7,16.1c0-13.3,0-26.7,0-40c1.5,2.2,3.5,1.2,5.4,0.9
	c39.5-5.8,79-11.6,118.6-17.3c10-1.4,19.3-5.1,28.8-8.2c146.1-47.4,292.2-95.3,438.5-142.1c37.3-12,75.7-20.8,113.5-31.1
	c13.8-3.7,27.7-7.2,41.4-11.1c4.4-1.3,7.4-0.7,10.8,2.4c10.1,9.1,20.6,18,31.1,26.7c9.6,8,6.3,8,16.5,1.3
	c42.8-28.2,85.5-56.6,128.4-84.8c8-5.3,15.5-11.3,25-15.7c-0.4,8.7-3.2,16.2-5,23.8c-9,37.2-17.9,74.4-27.4,111.5
	c-1.4,5.6-0.5,8.3,4.3,11.2c10.3,6.1,20.1,13.2,28.9,21.4c4.6,4.3,8.2,3.9,13.2,1.6c21.5-9.7,43.2-19,65.1-28.6
	c3.7,4.5,3.5,10.1,4.7,15.1c5.1,21.4,9.9,42.8,14.5,64.3c1.2,5.6,3.9,9.2,8.8,12.2c26.8,16.2,53.3,32.9,80.1,49
	c5.4,3.2,7.8,7.2,9,13.2c19.8,94.1,39.7,188.2,59.7,282.2c1.6,7.7,1.7,7.6,8.7,7.3c117.6-5.8,230,15.6,336.5,66.1
	c61.2,29,117.6,65.4,166.3,112.7c73.7,71.5,120.2,157.7,137.1,259.4c3.8,22.7,5.8,45.6,5.8,68.6c0,368.6,0,737.2,0,1105.8
	c0,3.9,0,7.9,0,14c9.8-7,17.5-14,25.5-20.6c8.3-6.8,16.4-13.6,24.6-20.5c7.9-6.6,15.9-13.2,23.8-19.8c8.1-6.8,16.3-13.5,26.4-21.8
	c-7.8,59.1-15.3,115.9-23.1,175c32-20.3,61.4-41,92.4-61c1.8,5.7,1.7,10.9,2,16.1c1.4,30.3,4,60.5,8.4,90.5c1,6.9,2.8,13.7,4,20.6
	c0.8,4.6,3.3,5.2,7.1,3.6c8.7-3.5,16.9-7.9,24.9-12.7c28.7-17,55.7-36.4,82.5-56.3c4.8-3.6,9.6-7.2,14.2-10.7
	c3.1,0.7,3.3,3.4,4.2,5.4c17.3,38.5,34.6,77.1,51.8,115.7c0.9,2.1,3.3,4.2,1.3,6.9C1570.7,3299.9,903.3,3299.9,236,3299.9z
	 M1039.9,1735.7c-2.1,2.7-3.8,1.7-5.3,1.7c-33-1.6-65.9-3.3-98.8-4.9c-7.3-0.4-14.7-0.5-22-0.8c-2.9-0.2-4.3,0.9-4.3,3.9
	c0,2-0.3,4-0.4,6c-1.6,29.6-3.3,59.2-4.9,88.8c-0.5,9.3-0.4,9.2-9.2,8.2c-36.7-4.2-73.5-8.4-110.2-12.4c-5.3-0.6-10.8-2.1-17-1.2
	c5.4,12.7,10.2,24.7,15.6,36.5c2.2,4.9,1.9,8.1-1.7,12.4c-21.9,26-43.9,51.9-64.7,78.8c-10.5,13.5-21.8,23.2-39.3,25.9
	c-9.2,1.4-7.4,1.4-7.4,9.9c0,136.3,0,272.7-0.1,409c0,5.1,1.7,8.8,4.8,12.6c12.3,14.9,24.2,30.2,36.6,45c4.1,4.8,5.1,9.1,3.5,15.4
	c-14.4,57.4-28.5,115-42.6,172.5c-1.4,5.8-2.2,11.7-2.2,17.8c0.1,204,0.1,408,0.1,612c0,12.6-1.4,11.2,11.2,11.2
	c207.3,0,414.6,0,622,0.2c8,0,12.4-2.3,16.3-9.3c34.4-60.5,69.3-120.7,104.1-180.9c1.7-2.9,2.9-6.3,6.7-9.3
	c6.2,36.9,12.2,72.5,18.5,109.9c7.7-6.5,14.2-12,20.7-17.5c6.8-5.8,13.7-11.7,20.5-17.5c6.6-5.6,13.2-11.2,19.8-16.9
	c6.8-5.8,13.7-11.7,20.5-17.5c6.6-5.6,13.1-11.4,19.8-16.8c6.8-5.4,12.5-12.3,21.7-16.9c0,48.9,0,96.5,0,144.1
	c0,0.2,0.3,0.5,0.5,0.7c0.3,0.2,0.6,0.3,1.4,0.8c50.9-32.6,102-65.3,154.2-98.7c1.4,6.5,2.6,11.6,3.7,16.7
	c8.2,40.4,16.3,80.9,24.7,121.3c1.8,8.8,0.5,7.6,9.6,7.7c25,0.1,50,0.1,75,0c7.6,0,7.6-0.1,7.8-7.6c0-1,0-2,0-3
	c0.1-59.3,0.3-118.6,0.3-178c0-375,0-750,0-1124.9c0-30.4-3.4-60.5-10.2-90.2c-23.1-100.6-74.9-184-154.6-249.1
	c-110.4-90.1-237.8-138.6-379.7-148.5c-55-3.8-109.8-0.6-164.2,9.1c-90.3,16.1-173.9,49.1-250.7,99.4c-3.6,2.3-7.5,4.3-10.9,8.3
	C932.6,1644.8,986.3,1690.3,1039.9,1735.7z M723.8,1913.9c-5.1-1.1-8.6-0.1-12,0.5c-21.7,3.6-43.3,7.5-64.9,11.2
	c-90.2,15.4-180.4,30.8-270.7,45.9c-10.4,1.7-9.1,2.5-7.7,11.5c3.5,21.3,7.4,42.6,11.1,63.9c17.6,104,35.2,208,52.8,312
	c16.6,97.8,33.2,195.5,50,293.3c1.9,11.1,2.9,22.4,6.4,33.3c51.5-8.8,102.6-17.5,153.8-26.2c8.2-1.4,8.1-1.6,9.2-10.4
	c0.3-2.3,0.9-4.6,1.5-6.8c13.7-55.9,27.3-111.8,41.2-167.6c1.5-5.9,0.4-9.8-3.4-14.3c-11.8-14-23-28.5-34.7-42.6
	c-3.4-4.1-4.8-8.2-4.8-13.5c0.1-143.3,0.1-286.6,0.1-429.9c0-8.2,0.1-8.2,8.2-10.5c9.9-2.8,21.1-3.7,29.4-9.1
	c8.3-5.4,13.7-15.2,20.3-23.2C714.1,1925.8,718.6,1920.2,723.8,1913.9z M502.4,2878.6c7,41,14,81.6,20.9,122.2c1,5.9,2,11.7,5.1,17
	c24.2,42.1,48.2,84.3,72.3,126.4c1.1,1.9,1.6,4.6,4.4,4.6c6.3-7.3,7.8-15.1,6-24.9c-8.8-48.7-16.7-97.6-25-146.5
	c-5.9-34.7-12-69.4-17.6-104.2c-0.9-5.8-3.2-6.3-7.9-5.4c-9.5,1.7-19.1,2.9-28.5,4.8C522.2,2874.8,512.1,2875,502.4,2878.6z
	 M479.5,3156c11-39.9,21.5-79.4,32.7-118.8c3.3-11.5,4.2-22.4,2-34.3c-7.2-39.3-13.7-78.7-20.1-118.1c-0.8-4.6-2.6-5.5-6.6-4.7
	c-7.9,1.5-15.7,2.7-23.6,4.1c-12.4,2.2-24.8,4.4-37.4,6.6c0.3,2,0.4,3.3,0.6,4.6c4.9,28.9,9.9,57.7,14.7,86.6
	c8.9,52.8,17.9,105.6,26.7,158.4C469.6,3147.1,472.2,3152.4,479.5,3156z M619.8,3121.4c0.6,0.1,1.3,0.2,1.9,0.4
	c6.4-10.5,12.1-21.3,19.2-31.3c8.5-11.9,12.2-24.4,11-39.1c-1.1-13.2,1.2-26.8-0.8-39.8c-7.7-49.6-16.7-99-24.9-148.5
	c-0.8-5-2.9-5.9-7.3-5.2c-12.4,2.2-24.9,4.3-37.4,6.2c-4.3,0.7-5.3,2.3-4.5,6.7c2.3,11.4,4,22.9,5.9,34.4
	c9,53.1,18,106.2,27.1,159.2C613.3,3083.4,616.5,3102.4,619.8,3121.4z M366.4,2901c1.3,8,2.5,15.1,3.7,22.3
	c8.5,49.5,17,99,25.2,148.5c0.9,5.3,2.9,9.1,6.8,12.7c16.6,15.4,33,31,49.5,46.5c1.8,1.6,2.9,4.5,6.7,4c-1.7-10.2-3.3-20.4-5-30.5
	c-9.1-53.4-18.2-106.9-27.3-160.3c-2.6-15.4-5.3-30.8-7.9-46.2c-0.4-2.5-0.1-5.8-4.3-5.1C398.1,2895.5,382.4,2898.2,366.4,2901z
	 M628.3,2700c-8.5,1.4-17,2.8-25.5,4.2c-2.5,0.4-3.2,2.1-2.8,4.3c1.6,9.8,3.2,19.6,4.8,29.4c0.5,2.7,1.9,3.9,4.9,3.3
	c7.8-1.5,15.7-2.7,23.5-4.1c2.7-0.5,5.3-1.1,4.5-4.9c-1.8-9.4-3.5-18.9-5.1-28.4C632.2,2701.3,631.4,2699.3,628.3,2700z
	 M983.9,1715.9c0.3-0.7,0.5-1.3,0.7-2c-9.8-8.2-19.5-16.4-31.1-26.1c1.6,9,3.1,15.5,3.8,22c0.4,4.1,2.6,4.8,5.9,5
	C970.1,1715.2,977,1715.5,983.9,1715.9z"/>
<path class="svgfill" d="M2550,233.9c0,98.7,0,197.3,0,296c-5.1-2.1-4.1,3.2-5,4.9c-15.7,30.8-35.2,58.8-59,83.9
	c-16.1,16.9-33.6,32.1-53.3,45.6c-11.8-12.7-17.3-28.7-26.3-44.7c-1,5.7-1.8,9.3-2.3,12.9c-2.6,16.1-5.3,32.2-7.6,48.3
	c-0.6,4-1.8,6.6-5.6,8.5c-35.8,17.9-73.6,29-113.2,34.1c-3.7,0.5-5.2-0.6-6.3-4.3c-2.1-6.6-2.8-13.8-6.9-20.8
	c-2.6,4.5-5.2,8.1-6.7,12.1c-4.6,12-12.1,18.5-25.7,14.9c-1.2-0.3-2.6,0.2-4,0.2c-7.7,0.1-7.5,0-10.6-7.4c-3.1-7.8-5-16.1-9.2-23.5
	c-0.9,0.5-1.3,0.7-1.4,0.9c-2.9,6-5.9,11.9-8.7,17.9c-4.6,9.7-4.6,9.8-14.7,8.2c-29-4.7-56.8-13.5-84.2-24.2
	c-12.4-4.8-16.7-12.8-17.3-24.6c-0.3-6-0.7-12-0.6-18c0-17,0.2-34,0.4-51c0-2.9,0-5.7,0-8.6c-5.9,5.1-10,10.9-14.2,16.7
	c-10.7,14.8-23.9,26.8-39.6,36.1c-3.8,2.2-6.4,2.1-9.7-0.8c-9.6-8.3-19-16.8-27.8-25.8c-23.6-24.3-43.1-51.5-59-81.5
	c-2.7-5.2-2.2-8.3,2.1-11.9c12.5-10.7,26.7-14.5,42.8-11.2c4.9,1,9.6,2.6,14.5,3.8c7.2,1.9,7.3,1.9,9-5.6c2.1-9.1,4.3-18.1,6.1-27.3
	c2.2-11.2,8.2-19.4,17.7-25.4c7.6-4.8,15-9.9,22.7-14.6c4.1-2.6,7.7-6.3,12.8-7.2c1.9,4.6,3.6,8.9,5.5,13.4
	c6.2-1.8,11.4-5.2,17.3-6.1c20.9-3.2,41.7,17.7,39.6,39.7c-0.9,9.8-1.9,19.5-2.9,29.3c7.1-4.6,12.6-10.3,18.4-15.6
	c14.6-13.5,33.2-11.8,45.1,4c6.3,8.3,10,18,14.9,27c1.5,2.7,1.5,6.9,5.7,7.4c5,0.5,5.4-4.3,7.2-7.1c5.9-8.9,10.6-18.5,18-26.4
	c12.5-13.2,30.6-13.5,43.3-0.3c4.4,4.6,8.2,9.6,12.5,14.3c1.4,1.5,2,4.4,5.3,3.7c0-8,0.4-15.9-0.1-23.8c-0.8-12.5,3.4-22.7,12-31.6
	c10.5-11,23.5-13.8,37.2-7.4c10.8,5.1,11.6,5.4,15.6-5.6c4.9-13.3,13.5-21.5,27.1-25.4c7.2-2,14.3-4.5,22.3-9.3
	c-11.5-1-21.2-1.8-31-2.7c-25.7-2.3-45.2-14.5-58.6-36.5c-2.2-3.6-4.2-7.3-6.6-11.4c-2,3.4-2.1,6.4-2.4,9.4
	c-0.8,8-1.6,15.9-2.6,23.8c-3.6,31-26.8,52.8-56.3,53.1c-5.4,0-8.4-1.1-10-7c-2.8-10.5-6.6-20.6-10.1-30.9c-2.6,1.2-3.3,3.1-4,5
	c-2.8,8.4-7.3,12.8-17.3,10.7c-4-0.8-5.5-1.8-6.9-5.1c-1.7-4-2.3-8.7-6.4-12c-3.5,8.2-6.8,15.8-10,23.5c-6.3,14.9-6.3,15-21.8,11
	c-1.3-0.3-2.5-0.8-3.8-1.3c-22.9-7.8-37.9-28.1-38.9-52.9c-0.5-11.5-0.5-23-0.8-34.6c-3.9,0.2-4.2,3.1-5.5,4.7
	c-3.3,4.2-6.1,8.8-9.7,12.7c-14.4,15.3-32.1,23.4-53.2,23.6c-10.4,0.1-20.8,0-31.3,0c2.7,3.1,5.5,4.6,8.4,6
	c7.2,3.5,14.5,6.7,21.5,10.6c4.1,2.3,8.7,4.8,8.5,11.1c-15.3,2-30.1,4.8-45,5.7c-38.6,2.3-71.1-11.1-97.2-39.8
	c-5.1-5.6-9.9-11.4-14.8-17.1c-0.4,12.4,0.9,24.2,1.7,36c0.9,11.9,3.5,23.8,2.2,35.8c-1.2-3.1-2.2-6.3-2.7-9.5
	c-8.1-48.2-7.3-96.2,4.8-143.7c44.1-173.9,210.2-284.6,387.4-256.7c94.3,14.9,169.4,62.6,225.9,139.6c11.3,15.3,20.8,31.7,29.3,48.7
	C2546.6,232.5,2546.4,235.9,2550,233.9z"/>
<path class="st2" d="M2550,233.9c-3.6,2-3.4-1.4-4.3-3.1c-8.5-17-18.1-33.4-29.3-48.7c-56.4-77-131.6-124.7-225.9-139.6
	c-177.1-27.9-343.3,82.7-387.4,256.7c-12.1,47.5-12.9,95.5-4.8,143.7c0.5,3.2,1.6,6.4,2.7,9.5c1.3-12.1-1.3-23.9-2.2-35.8
	c-0.8-11.8-2.2-23.6-1.7-36c4.9,5.7,9.8,11.5,14.8,17.1c26.1,28.7,58.7,42,97.2,39.8c14.9-0.9,29.7-3.7,45-5.7
	c0.2-6.3-4.4-8.8-8.5-11.1c-7-3.9-14.3-7.1-21.5-10.6c-2.9-1.4-5.7-3-8.4-6c10.4,0,20.8,0.1,31.3,0c21.1-0.3,38.8-8.3,53.2-23.6
	c3.6-3.8,6.4-8.5,9.7-12.7c1.3-1.7,1.6-4.5,5.5-4.7c0.2,11.6,0.3,23.1,0.8,34.6c1,24.8,16,45,38.9,52.9c1.3,0.4,2.5,0.9,3.8,1.3
	c15.5,3.9,15.5,3.9,21.8-11c3.2-7.7,6.5-15.3,10-23.5c4.1,3.2,4.7,8,6.4,12c1.4,3.3,2.9,4.3,6.9,5.1c10,2,14.5-2.3,17.3-10.7
	c0.6-1.8,1.4-3.8,4-5c3.4,10.3,7.3,20.5,10.1,30.9c1.6,5.9,4.6,7,10,7c29.4-0.3,52.7-22,56.3-53.1c0.9-7.9,1.7-15.9,2.6-23.8
	c0.3-3,0.5-6,2.4-9.4c2.4,4.1,4.4,7.8,6.6,11.4c13.4,22,32.9,34.2,58.6,36.5c9.8,0.9,19.5,1.7,31,2.7c-8,4.8-15.2,7.3-22.3,9.3
	c-13.6,3.8-22.2,12-27.1,25.4c-4,11-4.7,10.7-15.6,5.6c-13.7-6.4-26.7-3.6-37.2,7.4c-8.6,9-12.8,19.1-12,31.6
	c0.5,7.9,0.1,15.8,0.1,23.8c-3.3,0.7-3.9-2.2-5.3-3.7c-4.3-4.7-8.1-9.8-12.5-14.3c-12.6-13.2-30.8-12.9-43.3,0.3
	c-7.4,7.8-12.1,17.5-18,26.4c-1.8,2.8-2.2,7.6-7.2,7.1c-4.3-0.4-4.3-4.7-5.7-7.4c-4.9-9.1-8.7-18.7-14.9-27
	c-11.9-15.7-30.6-17.5-45.1-4c-5.8,5.3-11.3,11-18.4,15.6c1-9.8,2-19.5,2.9-29.3c2.1-22.1-18.6-42.9-39.6-39.7
	c-5.9,0.9-11.1,4.2-17.3,6.1c-1.9-4.6-3.6-8.8-5.5-13.4c-5,0.9-8.6,4.6-12.8,7.2c-7.6,4.8-15.1,9.8-22.7,14.6
	c-9.5,6-15.5,14.3-17.7,25.4c-1.8,9.1-4,18.2-6.1,27.3c-1.7,7.5-1.8,7.6-9,5.6c-4.8-1.3-9.6-2.9-14.5-3.8
	c-16-3.3-30.3,0.5-42.8,11.2c-4.3,3.7-4.8,6.8-2.1,11.9c15.9,29.9,35.4,57.2,59,81.5c8.8,9.1,18.2,17.6,27.8,25.8
	c3.3,2.9,5.9,3,9.7,0.8c15.7-9.3,29-21.3,39.6-36.1c4.2-5.8,8.3-11.6,14.2-16.7c0,2.9,0,5.7,0,8.6c-0.1,17-0.3,34-0.4,51
	c0,6,0.3,12,0.6,18c0.6,11.8,4.9,19.8,17.3,24.6c27.4,10.6,55.2,19.5,84.2,24.2c10.1,1.6,10.1,1.5,14.7-8.2c2.9-6,5.8-12,8.7-17.9
	c0.1-0.2,0.5-0.3,1.4-0.9c4.1,7.5,6,15.8,9.2,23.5c3,7.4,2.9,7.5,10.6,7.4c1.3,0,2.8-0.5,4-0.2c13.6,3.6,21.1-2.9,25.7-14.9
	c1.5-4,4.1-7.5,6.7-12.1c4.2,7,4.8,14.1,6.9,20.8c1.1,3.7,2.7,4.8,6.3,4.3c39.6-5.1,77.4-16.2,113.2-34.1c3.8-1.9,5-4.5,5.6-8.5
	c2.3-16.2,5-32.2,7.6-48.3c0.6-3.6,1.3-7.2,2.3-12.9c8.9,16,14.5,32,26.3,44.7c19.7-13.5,37.2-28.7,53.3-45.6
	c23.8-25,43.4-53.1,59-83.9c0.9-1.8-0.1-7,5-4.9c0,43.3,0,86.7,0,130c-14.6,17-31.3,32-49.2,47.6c17.5,3.3,33.3,4.8,49.2,6.4
	c0,4,0,8,0,12c-10.4,3.5-20.7,7.3-31.2,10.4c-14,4.1-23.9,12.3-29.9,25.7c-4.6,10.3-10.2,20.1-15.5,30.6c-6.4-3.7-12.1-7.1-18-10.3
	c-21.9-11.9-45.9-8.3-63.1,9.6c-3,3.1-5.9,6.4-8.8,9.6c-8.8,9.8-13.4,21.2-13.7,34.5c-0.4,17.9-1.1,35.7-1.8,54.9
	c-4.6-3.2-6.8-7-9.3-10.2c-6.7-8.3-13.1-16.8-19.9-25c-20.4-24.5-53.2-25.4-75.3-2.7c-14.3,14.7-23.9,32.8-35.6,49.3
	c-1.9,2.7-2.7,6.5-8.1,5.5c-3.7-0.7-5.8-1.4-7.3-4.8c-4.6-10.7-9.7-21.2-14.2-31.9c-3.7-9-8.7-17.2-14.2-25.2
	c-17.3-25.1-50.1-29.6-73.3-9.7c-10.4,8.9-20.3,18.3-30.4,27.5c-1.2,1.1-2.4,2.1-4.4,3.8c-0.5-10.6,2-19.6,2.9-28.7
	c0.9-9.3,2.3-18.5,3.6-27.7c2.6-17.2-4.6-31.2-14.2-44.4c-1.5-2-3.6-2.9-5.7-3.8c-11.8-5.4-23.4-11.2-34.6-17.9
	c-4.1-2.4-7.9-2.6-12.3-1.7c-8.2,1.7-15.8,5.1-23.6,8c-3.6,1.4-5.3,0.6-6.4-3.3c-2.4-8.6-6-17-8-25.7c-3.5-15.7-14.2-25.2-27.3-32.6
	c-13.3-7.5-27-14.5-40.5-21.7c-2.6-1.4-5-2.9-9.2-5.3c8.9,0,15.9,0,22.8,0c0.9-3.3-1.6-4.5-3-6.1c-11.7-13.7-22.8-27.8-32.6-43
	c-2.9-4.5-6.6-7.3-11.5-9c-21.5-7.3-43.6,0.8-55.2,20.5c-4.7,8-8.8,16.4-11.7,25.3c-3.3,10.5-7.1,20.8-10.8,31.1
	c-2.4,6.8-9.3,8.1-13.8,2.7c-7-8.5-13.9-17-20.6-25.8c-5.7-7.5-12.3-14-19.4-20.1c-21-17.9-51.5-14.3-67.7,8.3
	c-7.2,10-13.6,20.5-20.5,30.8c-1.4,2-2,5-5.9,5.9c-1.6-13.9-4.3-27.6-4.7-41.3c-0.7-23.6-12.4-40.3-30.9-53
	c-17-11.6-34.9-11.9-52.6-1.3c-6,3.6-11.6,7.8-17.4,11.8c-3.2-0.5-3.8-3.5-5.2-5.6c-4.9-7.5-9.8-15.1-14.3-22.9
	c-6.1-10.4-14.8-16.7-26.6-19.3c-16.2-3.6-32.3-7.8-48.5-11.8c-2.2-0.5-4.7-0.4-6-3.3c16.9-3.6,33.8-7.1,50.6-10.7
	c43-9.2,72.8-34.1,89.3-74.9c2.5-6.1,4-12.6,8.5-19.7c4.5,17.8,8.5,34.3,12.7,50.8c1.7,6.8,3.3,13.6,5.7,20.1
	c14.4,39.3,53.7,63.7,95.3,59.3c2-0.2,3.9-0.9,5.9-1c4.8-0.2,6.6-2.5,7.5-7.3c2.9-17.4,6.5-34.7,9.8-52c0.4-2.3,0.3-4.7,3-7.4
	c5.2,7.7,10.4,15.2,15.4,22.7c2.2,3.3,3.9,5.8,8.6,2.6c5.3-3.5,11.7-3.3,18-1.5c4.5-10.7,5.7-22,9.7-32.6c3.5,1.7,4.3,5.1,5.9,7.9
	c8.6,14.6,17.3,29.3,25.5,44.1c2.4,4.4,5.3,5.5,9.7,4.4c0.3-0.1,0.7-0.1,1-0.2c6.1-1.5,14.1-1.4,17.6-5.9c4-5.1-2.1-11.5-4-17.1
	c-68-201.3,22.2-417,208.9-510.9c4.3-2.2,9.3-3.4,12.6-7.4c116.7,0,233.3,0,350,0c1.8,3.7,5.8,4.1,8.9,5.6
	c49.4,24.4,92.6,57.1,129.1,98.4C2550,147.3,2550,190.6,2550,233.9z M1944.4,673.4c0,0.7,0.1,1.5,0.1,2.2c2.6,1.4,5.1,3.1,7.8,4.2
	c19,7.9,30.4,21.9,35,41.9c1.5,6.3,3.2,12.6,6.4,18.6c5.1-1.7,9.4-3.4,13.9-4.6c19.9-5.5,39.1-3.1,54.5,10.7
	c21.6,19.2,34.8,42.8,28.8,73.4c-1.4,7.2-1.9,14.6-3.1,24.3c6.6-5.9,11.1-10.2,15.8-14.3c28.3-24.4,67.6-19.1,88.8,11.7
	c9.2,13.3,15.2,28,21.8,42.5c1.8,3.8,2.7,8.2,6.6,11.7c5.9-8.8,11.7-17.3,17.2-25.9c5.7-9.1,12.7-17.2,20.1-24.8
	c24.4-24.8,63.9-23.2,86.8,3.5c4.4,5.2,8.6,10.5,12.8,15.7c2.7-1.7,1.9-3.6,1.9-5.1c0.2-6.3,0.4-12.7,0.4-19
	c-0.3-31.2,17.2-51.6,41.8-66.9c12.2-7.6,26.3-8.7,40.6-5.6c9.7,2,17.7,7.4,27,11.8c4.2-8.1,8.5-16,12.3-24.1
	c6.4-13.4,16.7-22.1,30.8-26.6c5.4-1.7,10.8-3.7,16.7-5.7c-3.5-2.9-6.6-2.5-9.5-2.8c-44.9-4.5-79.9-25.4-104.7-63.3
	c-1.1-1.7-1.3-4.9-4.7-3.9c-2.1,12.9-3.9,25.7-6.4,38.5c-10.1,52.8-59.1,89.7-112.8,85.2c-13.8-1.2-13.8-1.2-17.6-14.7
	c-3.6-12.6-7.3-25.3-11.5-40.2c-3.5,6.2-5.8,10.5-8.3,14.7c-3.5,6-3.7,6.3-9.7,2.9c-7.1-4-14-5.9-21.6-1.8c-0.3,0.2-0.7,0.2-1,0.3
	c-4.5,1.8-7.3,1.1-8.8-4.3c-1.4-5-2.8-10.1-6.3-15.3c-6.9,14.6-13.8,28.6-20.1,42.9c-2.1,4.7-4.7,6.3-9.8,6.2
	c-57.8-1.1-104.4-47.8-104.9-105.7c-0.1-10.3,0.2-20.7,0.1-31c0-2,1.4-4.7-1.7-6.2C2037.2,663,1994.7,678.2,1944.4,673.4z
	 M1789.2,509.1c-3.7,4.4-3.8,9.2-4.8,13.5c-1.1,4.5-2.9,6.8-7.4,5.2c-8.7-3.3-16.2-1.4-23.2,4.2c-3,2.4-5.1,2-7.2-1.3
	c-2.8-4.3-5.1-9.1-9.9-12.9c-2.7,14-5.8,27-7.5,40.1c-1,7.7-4.6,10.4-11.7,11.8c-52.1,10.3-103.4-21.1-117.5-72.4
	c-3.1-11.2-5.7-22.5-9-35.7c-7.4,14.4-15.3,26.7-25.5,37.1c-10.6,10.8-22.8,19.3-36.3,26.1c-13,6.6-27.4,9-41.2,13.6
	c3.9,1.7,7.6,2.8,11.5,3.5c15.7,3,27.5,11.2,35.3,25.3c3.7,6.6,8.1,12.8,12.3,19.4c3.4-2.3,6.2-4.2,8.9-6
	c22.6-14.7,49.9-12.9,70.3,4.7c3.3,2.8,6.4,5.8,9.6,8.8c10.9,10.2,16.9,22.7,18.6,37.6c1,8.1,0.9,16.5,4,26c3.8-5.8,6.8-10.5,10-15
	c20.2-29.1,57.7-33.5,84.5-10.2c12,10.4,21.1,23.1,31,35.1c2,2.4,3.2,5.9,7.4,6.8c1.6-4.7,3.3-9.3,4.9-13.9
	c4.5-12.5,8.6-25.1,15.1-36.9c18.1-32.6,55-40.9,85-18.7c4.2,3.1,8,6.9,13.9,9.5c-2-8.7-3.7-16.4-5.5-24.1
	c-2.6-11.2-3-22.4,0.9-33.5c3.6-10.1,8.2-19.8,14.9-28.1c14.5-18.2,33.5-25.5,56.6-21.3c2.6,0.5,5.2,1.1,7.7,1.9
	c4.2,1.4,6.8,1.1,7.5-4.3c0.6-5.3,2.7-10.3,3.4-15.6c2.5-16.7,11.2-28.8,25.7-37.2c3.5-2,7.6-3.7,10.6-8.3
	c-47.6,9.3-88.5-2.1-124.5-36.5c0.6,6.4,1.1,10.6,1.4,14.8c0.8,10.6,2.6,21.3,2.2,31.8c-1.8,50.3-38.2,90.2-88,97.3
	c-8.6,1.2-8.7,1.2-13.3-6.7C1803.1,533,1796.3,521.3,1789.2,509.1z M2308.9,384.7c-1.1,8.4-2,14.2-2.6,20.1
	c-3.4,30.4-24.2,52-54.4,56.5c-15.5,2.3-17.1,1.1-22.1-13.5c-1.8-5.3-2.3-11.4-6.4-16.1c-0.8,1-1.3,1.5-1.6,2.1
	c-1.3,2.3-2.1,5.2-4,6.9c-2.9,2.7-5.3-1.1-8.1-1.7c-1.7-0.3-3.1-0.6-4.8-0.3c-8,1.5-7.9,1.4-11.2-5.4c-0.6-1.2-1.5-2.1-2.6-3.8
	c-2.5,5.7-4.8,10.8-6.9,16c-6,14.1-7.8,15.1-23,11.8c-2.9-0.6-5.8-1.5-8.6-2.5c-24.1-8.6-39.9-30.4-40.9-56.2
	c-0.3-6.7,0.5-13.6-2-21.4c-18.7,23.7-42.9,32.9-72.3,32.1c2.8,4.1,6.3,4.7,9.1,6.2c3.6,1.9,7.3,3.8,9.4,7.2c3.4,5.7,7.4,9.7,15.8,7
	c-9.2,8.3-9.2,8.3-3.5,17.5c7.4-2.7,14.8-5.7,23.1-4.4c18.5,3,34.8,21.8,34.8,40.8c0,6.9-0.9,13.8-1.4,21.2
	c4.5-1.8,6.9-5.7,10.1-8.4c15.7-13.6,37.6-11.5,50.2,5c3.6,4.8,6.9,9.8,9.4,15.3c2.5,5.5,5.5,10.9,8.6,17c1.5-2.2,2.5-3.6,3.4-5
	c5-7.5,9-15.6,14.8-22.5c16.6-19.5,38.9-19.8,55.8-0.8c1.8,2.1,3.3,4.7,6.9,6.2c0-6.6,0.3-12.2-0.1-17.8c-1.1-15.5,16-35.1,28.4-39
	c7.9-2.5,15.7-2.5,23.5,0.1c3.4,1.1,6.5,4.8,9.8,3.6c3.8-1.5,4.4-6.4,5.8-10c4-10.4,11-17.2,21.6-20.5c2.1-0.6,4.6-1,6.2-4
	C2350,422.7,2326.4,411.1,2308.9,384.7z"/>
<path class="svgfill" d="M2550,103.9c-36.6-41.3-79.7-73.9-129.1-98.4c-3.1-1.5-7.1-1.9-8.9-5.6c46,0,92,0,138,0
	C2550,34.6,2550,69.3,2550,103.9z"/>
<path class="svgfill" d="M2550,713.9c-15.9-1.6-31.7-3.1-49.2-6.4c17.9-15.6,34.5-30.6,49.2-47.6C2550,677.9,2550,695.9,2550,713.9z"/>
<path class="st2" d="M1959.7,946.4c-17.6,7.6-33.7,14.6-49.8,21.6c-12.2,5.3-24.4,10.7-36.6,15.8c-11.7,4.9-19.7,13.3-24.5,24.9
	c-5.8,14.2-11.7,28.3-17.3,42.5c-1.7,4.2-3.3,5.8-8,3.3c-6.7-3.7-13.8-6.7-20.7-9.8c-27.5-12.4-55.3-5.6-74.2,18.1
	c-3.3,4.2-6.6,8.4-9.8,12.7c-9.1,12.3-12.7,26.1-11.7,41.3c1.5,25.3,2.7,50.6,4,75.9c0,0.2-0.4,0.4-1.2,1c-2.9-1.1-4.6-4.1-6.8-6.4
	c-13.3-14.1-26.1-28.5-39.7-42.3c-23.1-23.5-60.4-23.5-82.2-0.1c-7.9,8.5-15.1,17.8-20.7,28.1c-8,14.6-16.1,29.1-24,43.8
	c-2,3.7-3.6,7.5-8.7,3.6c-1.7-1.3-3.8-1.6-5.6-0.3c-5.3,4-7.3,0.6-9.6-3.6c-6.6-12.3-13.7-24.4-20.1-36.8c-5.7-11-12.8-21-20.6-30.6
	c-22-27-60.9-29.3-85.5-4.5c-13.6,13.7-26.5,28.2-39.7,42.2c-2.2,2.4-4,5.2-8.6,7.5c0.3-5.9,0.5-10.9,0.7-16
	c1.1-20.3,2-40.6,3.4-60.9c1.2-17.5-3.8-32.8-15-46.3c-2.8-3.3-5.3-6.9-8-10.2c-17.5-21.3-44.9-28.1-70.3-17.2
	c-7.9,3.4-15.8,7-23.5,11c-4.2,2.2-5.8,1-7.3-2.9c-5.3-13.3-11.1-26.4-16.1-39.8c-5.4-14.3-14.9-23.8-29-29.7
	c-27.3-11.3-54.3-23.3-82.3-35.4c4-2.5,7.6-2,11-2.1c24-1,47.9-1.9,71.9-2.7c58.2-1.8,102.4-27.7,132.5-77.5
	c6.1-10.1,12.1-20.4,19.8-30.1c1.5,19.4,2.8,38.8,4.4,58.2c1.2,14.6,1.6,29.3,3.7,43.8c7.7,51.6,50.1,92.2,101.8,97.8
	c19.3,2.1,19.3,2.1,26-15.9c8.8-23.7,17.6-47.3,27.1-72.9c3.8,8.2,7,14.8,10,21.4c3.3,7.3,6.7,14.5,10,21.8c1.3,2.9,3.1,4.2,6.2,2.6
	c3.6-1.9,6.7-2.5,8.8,2.3c0.6,1.4,2.2,0.7,2.7-0.9c1.3-3.3,3.8-3.6,6.4-2.1c5.1,3,6.9,0.1,8.8-4.1c5.1-11.6,10.5-23,15.8-34.5
	c0.7-1.4,0.8-3.3,3.4-4.5c2,1.9,2.3,4.8,3.3,7.3c9.1,24.3,18.1,48.6,27.3,72.9c3,7.9,3,7.9,11.5,7.6c60-1.8,108.4-47.1,113.6-106.8
	c2.3-26.2,3.9-52.5,5.9-78.7c0.4-5,1-9.9,1.5-15.8c3,1.9,3.9,4.3,5.1,6.3c5.8,9.7,11.3,19.6,17.4,29.1c29.6,45.8,71.8,70,126.2,72.5
	c23.6,1.1,47.3,1.6,70.9,2.6C1948.3,944.7,1953.3,944.4,1959.7,946.4z M1491.3,996.4c-2.4,2.2-2.8,4.5-3.7,6.7
	c-5.4,14.7-11,29.3-16.4,44c-1.5,4.2-3.4,6.3-8.4,6.8c-67,6.3-128.2-36.3-145.3-101.4c-4-15.3-4.5-30.9-5.7-46.5
	c-0.3-3.8,0.3-7.9-2.1-12.4c-34.4,42.9-79,65.2-133.7,67.8c1.5,3,3.3,3.2,4.8,3.8c18.9,7.3,31.4,20.6,38.5,39.5
	c2.5,6.9,5.8,13.4,8.2,20.3c1.7,4.9,4,6.5,8.6,3.4c0.8-0.6,1.8-0.8,2.7-1.2c35.1-15.7,72.2-6.8,96.1,23.1c2.7,3.4,5.3,6.9,8,10.3
	c14.3,17.8,20.1,37.9,17.9,60.6c-0.7,7-0.1,14.1-0.1,22.3c4.2-4.4,7.6-8.1,11.1-11.6c33.3-33.7,85.5-30.9,115.3,5.8
	c11.4,14.1,20.2,29.7,28.8,45.5c2.7,4.9,4.8,10.2,9,14.7c5-9,10.1-17.6,14.6-26.5c6.2-12.3,14.2-23.3,22.7-34
	c7.2-9,15.8-16.2,26.2-21.3c29.4-14.5,64.8-8.2,88.5,15.4c3.9,3.9,6.8,8.9,12.3,11.5c-0.5-10.8-1.1-21.2-1.3-31.5
	c-0.4-16.9,4.8-32.2,14.5-45.9c4.4-6.3,9.1-12.4,14.1-18.2c15.7-18.1,35.5-27.5,59.6-27.8c12.6-0.2,24.3,2.9,35.7,8.2
	c7.1,3.3,7.2,3.2,10.3-4.4c3.1-7.4,6.2-14.7,9.2-22.1c6.5-16.3,17.9-27.8,33.9-34.9c2.5-1.1,5.5-1.5,7.6-5.5
	c-26.8-0.8-51.5-6.9-74.7-18.7c-23.1-11.7-42.3-28.2-58.6-48.5c-2.3,2.9-1.5,5.3-1.8,7.5c-2,16.2-1.7,32.6-5.5,48.6
	c-15.8,66.2-78.5,110.8-146.3,103.9c-4.4-0.4-6.6-2.1-7.8-6.1c-0.6-2.2-1.5-4.4-2.3-6.6c-5.5-14.7-11.1-29.5-16.9-45
	c-4.3,5.3-5.9,10.8-8.2,15.9c-1.8,4.1-4,5-7.6,2.9c-12.5-7.4-25-7.1-37.4,0.2c-4.1,2.4-5.9,0.1-7.4-3.4
	C1496.2,1006.8,1493.8,1002,1491.3,996.4z"/>
<path class="st2" d="M998.8,1323.9c-18-7.8-35.3-15.4-52.8-22.9c-2.2-1-5.2-3.7-7-1c-2,2.9,2,4.3,3.7,6.1
	c7.7,7.9,15.5,15.5,23.2,23.4c18.9,19.3,22.8,42.1,14.9,67.4c-6.8,21.6-20.3,38.9-36.6,54c-26.1,24.3-55.9,41.8-91.6,47.7
	c-69.2,11.4-137.1-31.7-156.7-99.3c-10.4-35.8-5.5-70.6,6.7-104.8c6.5-18.3,15.8-35.2,28.5-50c8.1-9.5,17.7-17.1,29-23.1
	c-0.8-0.9-1.3-1.6-2-2.1c-2.9-2-8.6-1.7-8.8-5.4c-0.2-5.2,3.4-9.8,5.7-14.6c0.7-1.4,2.2-1.3,3.5-0.8c1.8,0.8,3.6,1.6,5.5,2.4
	c78,34,156.1,68,234.1,102.1c1.5,0.7,3,1.4,4.6,2c3,1.2,4.3,2.9,2.5,6.1C1003.2,1314.9,1002.2,1319.6,998.8,1323.9z M931.7,1295.5
	l0,0.4l0.2-0.3c1.8,1.8,3.1,4.5,6.8,4.5C937.5,1295.7,934,1296.6,931.7,1295.5z M920.9,1315.3c10.6,23,14.1,45.9,8.1,69.8
	c-6,23.9-18.8,43.2-39.1,57.3c-33.5,23.4-78.2,22.3-111.2-2.4c-34.3-25.7-48.4-70.9-34.6-111.7c7.5-22.3,21.3-39.9,41.5-52.1
	c19.9-12,41.5-16.1,64.9-13.4c-0.6-1.2-1.4-1.7-2.3-2.2c-16.2-9.3-33.1-17.1-50.3-24.2c-6.3-2.6-12.9-2.7-19.6-1.2
	c-13.7,3.2-24.3,11.1-32.7,21.7c-29.7,37.8-42.3,80.8-33.4,128.3c12.1,64.6,79.2,107.8,143.1,93.2c40-9.1,71.4-31.6,95.5-64.6
	c5.1-7,8.9-14.8,11.7-23c6.1-18.1,3.2-34.1-10.4-47.9c-7.9-8.1-16-16.1-24.1-24C926.7,1317.4,925.4,1315.2,920.9,1315.3z
	 M835.9,1334.6c-15.4-0.1-28,12.3-28.2,27.7c-0.3,16,12.2,28.9,28,29c15.3,0.1,28-12.4,28.3-27.8
	C864.3,1347.6,851.7,1334.7,835.9,1334.6z M920.6,1312.7c-0.1,0.2-0.3,0.4-0.3,0.6c0.1,0.3,0.5,0.6,0.5,0.6c0.7-0.3,0.8-0.8,0.3-1.2
	C921.1,1312.6,920.8,1312.7,920.6,1312.7z"/>
<path class="st2" d="M137.1,1483.5c-2.9,4-5.5,7.8-8.2,11.5c-2.5,3.5-5,7-7.7,10.8c-5.7-2.9-10.3-6.6-15.7-10.8
	c61.3-86.5,122.5-172.7,183.5-258.7c1.3,0.3,2.1,0.2,2.6,0.6c4.2,3.3,11,5,12,9.8c1,4.9-4.9,8.9-7.9,13.2
	c-7.7,11.3-15.8,22.3-23.6,33.5c-1.8,2.6-4.7,4.7-4.6,8.6c1.1,0,2.2,0.3,3,0c17.4-6.4,34.1-3.4,50.4,3.8c5.5,2.4,10.9,5.1,15.8,8.5
	c39.6,27.9,67.2,64.6,77.5,112.4c15.6,72.3-30.5,145.2-102.3,163.4c-76.1,19.4-151.8-25.2-171.9-101.2
	C139.6,1487.2,139.9,1485.4,137.1,1483.5z M398.2,1453c0.2-9.4-1-20-4.2-30.3c-11.7-37.8-33.6-68.4-65.9-91.3
	c-7.6-5.4-15.9-9.6-25-12c-15.8-4.3-29.7-1.5-41,10.9c-31.7,35.1-62.4,71-88.9,110.3c-5.2,7.7-10,15.7-13.9,24.2
	c-2.3,5-2.9,9.8-1.7,15.3c13.1,60.8,72,102.3,133.8,94.2C352.8,1566.3,398,1515.5,398.2,1453z"/>
<path class="st2" d="M161.5,1570.9c6.7-5.7,6.8-5.7,11.4-1c24.5,25,53.6,41.3,88.5,46.5c72.6,10.8,126.2-23.8,152.3-84
	c0.7-1.5,1.5-3,1.8-4.6c0.8-5,4-4.5,7.4-3.4c4.1,1.3,2.3,4,1.4,6.4c-18.5,46.7-49.9,80.6-99.8,92.3c-61.6,14.4-115-2.6-159.4-47.8
	C163.8,1574,162.9,1572.6,161.5,1570.9z"/>
<path class="st2" d="M715.6,1476.8c7.3-5.8,7.3-5.8,12.3-0.2c19.2,21.7,42.2,37.6,70.3,45.2c33.7,9.1,66,3.7,97-11.1
	c34.1-16.3,58.4-42.4,74.1-76.6c1.8-3.9,3-6.5,7.9-4.2c2.3,1.1,3,2.3,2.3,4.5c-0.4,1.3-1,2.5-1.6,3.7c-29.6,60.7-78,94.5-145.5,97.1
	C784.1,1537,746.4,1513.6,715.6,1476.8z"/>
<path class="svgfill" d="M1039.9,1735.7c-53.7-45.5-107.3-91-161-136.5c3.4-4,7.3-6,10.9-8.3c76.7-50.3,160.3-83.3,250.7-99.4
	c54.4-9.7,109.2-12.9,164.2-9.1c142,9.9,269.3,58.4,379.8,148.5c79.7,65.1,131.5,148.4,154.6,249.1c6.8,29.6,10.2,59.8,10.2,90.2
	c0.1,375,0.1,750,0,1124.9c0,59.3-0.2,118.6-0.3,178c0,1,0,2,0,3c-0.2,7.5-0.2,7.6-7.8,7.6c-25,0.1-50,0.1-75,0
	c-9.2,0-7.8,1.1-9.6-7.7c-8.4-40.4-16.5-80.9-24.7-121.3c-1-5.1-2.2-10.2-3.7-16.7c-52.2,33.4-103.3,66.1-154.2,98.7
	c-0.9-0.4-1.2-0.6-1.4-0.8c-0.2-0.2-0.5-0.4-0.5-0.7c0-47.6,0-95.2,0-144.1c-9.2,4.5-14.9,11.4-21.7,16.8
	c-6.8,5.4-13.2,11.2-19.8,16.8c-6.8,5.8-13.7,11.7-20.5,17.5c-6.6,5.6-13.2,11.2-19.8,16.9c-6.8,5.8-13.7,11.7-20.5,17.5
	c-6.5,5.5-13,11-20.7,17.6c-6.3-37.4-12.3-73-18.5-109.9c-3.8,3.1-5,6.4-6.7,9.3c-34.8,60.3-69.6,120.5-104.1,180.9
	c-4,7-8.4,9.3-16.3,9.3c-207.3-0.2-414.7-0.2-622-0.2c-12.6,0-11.2,1.4-11.2-11.2c0-204,0-408-0.1-612c0-6.1,0.8-11.9,2.2-17.8
	c14.1-57.5,28.2-115,42.6-172.5c1.6-6.2,0.5-10.5-3.5-15.4c-12.4-14.8-24.3-30-36.6-45c-3.1-3.8-4.8-7.5-4.8-12.6
	c0.1-136.3,0.1-272.7,0.1-409c0-8.5-1.8-8.5,7.4-9.9c17.4-2.7,28.8-12.4,39.3-25.9c20.8-26.9,42.9-52.8,64.7-78.8
	c3.6-4.3,3.9-7.5,1.7-12.4c-5.4-11.8-10.2-23.8-15.6-36.5c6.2-0.9,11.7,0.6,17,1.2c36.8,3.9,73.5,8.2,110.2,12.4
	c8.8,1,8.7,1.1,9.2-8.2c1.6-29.6,3.2-59.2,4.8-88.8c0.1-2,0.4-4,0.4-6c0-3,1.4-4.1,4.3-3.9c7.3,0.4,14.7,0.5,22,0.8
	c32.9,1.6,65.9,3.3,98.8,4.9C1036.1,1737.5,1037.9,1738.4,1039.9,1735.7z M977.5,2299.4c-1.4-7.4-2.8-14.2-3.8-21.1
	c-0.7-4.8-3.3-6.3-8-6.5c-9.3-0.5-18.6-1.7-27.8-2.9c-7.4-1-7.5-1.3-7.6-8.5c-0.4-23.6-0.9-47.3-1.1-70.9c0-5.6-2.4-12.6,1.2-16.3
	c3.5-3.7,10.7-1.7,16.2-2.7c5.3-0.9,9.3,0.5,13,4.9c7.5,8.9,15.6,17.4,23.6,25.9c29.7,31.5,59.5,63,92.3,91.4
	c6.1,5.2,12.3,10.3,19.3,14.2c2.6,1.5,5.1,3.5,8.3,3.1c12.1-1.7,24.2-3.6,37.8-5.6c-47.8-47.6-83.9-102.2-119.9-157.2
	c3.5-2.6,6.2-4.5,8.8-6.5c16.5-12.3,30.4-27,39.3-45.8c13.3-27.9,4.5-55.7-22.2-71.3c-7.8-4.6-16.2-7.6-25-9.8
	c-22.1-5.5-44.8-7-67.4-7.3c-40.3-0.6-80.6-0.2-120.9-0.1c-5.6,0-12.8-2.5-16.4,1.1c-3.9,3.9,0.6,10.6,0.8,16.1c0,1,0.3,2,0.3,3
	c0,5.1,2.8,6.8,7.6,7c9.3,0.5,18.6,1.6,27.9,2.3c8.8,0.7,9,0.7,9.3,10c0.5,17.3,0.9,34.6,0.9,51.9c0.2,51.3,0.7,102.6-0.8,153.9
	c-0.5,16.9-0.8,16.6-18.2,18.4c-8.2,0.8-16.5,0.7-24.5,3c-2.6,7.9-3.6,16.2-5.1,24.4c-0.1,0.5,0.4,1.1,0.6,1.8
	C869.5,2296.9,923.3,2297,977.5,2299.4z M1680.3,2299.3c-0.3-7.5-3.2-13.7-4.2-20.2c-0.8-5.1-3.1-7.2-8.5-7.4
	c-10.6-0.5-21.2-1.9-31.8-3.1c-12.3-1.4-12.4-1.5-12.7-13.9c-1.5-55-1-110-0.9-164.9c0-16,0.7-32,0.8-48c0.1-4.8,1.9-6.4,6.7-5.8
	c9.9,1.2,19.9,2.1,29.3,5.6c17.7,6.5,28.9,18.7,31.4,37.8c4.1,31.8-10.5,54.2-32.9,66c-7.1,3.8-14.5,7-22.4,8.2
	c-6.3,0.9-8.3,4.3-8.7,9.9c-0.1,2-0.6,4-0.5,6c0.4,4.6-4.1,10.1-0.7,13.2c3.7,3.3,9.6,0,14.3-0.9c27.2-4.7,52.8-13.7,75.5-29.7
	c20.8-14.7,35.8-33.6,41.7-59c7.1-30.2-3-53.7-29.8-69.5c-7.2-4.3-14.9-7.5-22.9-9.7c-18.1-5.1-36.6-7.1-55.3-7.9
	c-45.3-2.2-90.6-0.3-135.9-0.4c-1.6,0-3.3-0.1-4.5,1.6c0.8,5.5,1.6,11.1,2.6,16.7c1.4,7.8,1.4,7.7,8.9,8.5c9.9,1,19.9,2.3,29.8,3
	c4.7,0.3,6.6,2.2,6.1,6.8c-0.2,1.6,0.1,3.3,0.1,5c1.1,53.6,1.3,107.3,0.6,160.9c-0.2,17.7-0.6,35.3-0.7,53c0,5-1.6,6.9-6.8,7.3
	c-10.3,0.8-20.5,2.3-30.8,3.6c-2.7,0.3-5.6,0.2-6.1,3.7c-1,7.8-3.9,15.3-4,23.6C1565.6,2296.9,1622.5,2297.1,1680.3,2299.3z
	 M1389.6,2299.5c-0.7-3.1-1.2-5.7-1.8-8.3c-1.1-4.5-2.7-9-3.4-13.5c-0.7-4-2.3-5.6-6.5-5.9c-7-0.4-14-1.1-20.9-2
	c-20.1-2.7-16.2,0.4-16.5-18c-1.1-65.7-0.9-131.3-0.3-197c0.1-5.9-2.1-13.5,2-17.3c3.5-3.2,10.6-2.5,16.2-3.4
	c8.2-1.3,16.5-1.4,24.5-3.8c2.2-8.3,4.3-16.7,6.5-25c0.1-0.3-0.1-0.6-0.2-1c-54.8,2.7-109.6,2.4-165.2,0c2,7.7,4.1,15,5.6,22.4
	c0.8,3.7,2.5,4.8,6,5.1c10.3,1,20.5,2.6,30.8,3.5c4.6,0.4,6.3,2,6.3,6.7c0.1,12.7,0.9,25.3,1,38c0.3,56.6,0.9,113.3-0.7,169.9
	c-0.2,5.6,1.8,12.7-1.8,16.4c-3.8,3.9-11.2,2.9-17,3.6c-7.9,0.9-15.8,1.9-23.7,2.9c-2.8,7.9-3.8,16.2-5.2,24.4
	c-0.1,0.5,0.4,1.2,0.7,2.2C1280.3,2296.9,1334.8,2296.9,1389.6,2299.5z"/>
<path class="svgfill" d="M723.8,1913.9c-5.2,6.4-9.8,12-14.4,17.5c-6.6,7.9-12,17.8-20.3,23.2c-8.3,5.4-19.4,6.3-29.4,9.1
	c-8.1,2.3-8.2,2.3-8.2,10.5c0,143.3,0,286.6-0.1,429.9c0,5.3,1.4,9.5,4.8,13.5c11.7,14.1,22.9,28.6,34.7,42.6
	c3.8,4.5,4.8,8.4,3.4,14.3c-14,55.8-27.5,111.7-41.2,167.6c-0.5,2.3-1.2,4.5-1.5,6.8c-1,8.9-0.9,9-9.2,10.4
	c-51.1,8.8-102.2,17.4-153.8,26.2c-3.5-11-4.5-22.3-6.4-33.3c-16.8-97.7-33.4-195.5-50-293.3c-17.6-104-35.2-208-52.8-312
	c-3.6-21.3-7.6-42.6-11.1-63.9c-1.5-9-2.7-9.8,7.7-11.5c90.3-15,180.5-30.5,270.7-45.9c21.7-3.7,43.3-7.6,64.9-11.2
	C715.2,1913.8,718.7,1912.7,723.8,1913.9z"/>
<path class="svgfill" d="M502.4,2878.6c9.8-3.5,19.8-3.8,29.5-5.8c9.4-2,19-3.1,28.5-4.9c4.7-0.9,7-0.3,7.9,5.4
	c5.6,34.8,11.7,69.5,17.6,104.2c8.3,48.8,16.2,97.7,25,146.5c1.8,9.8,0.3,17.6-6,24.9c-2.8-0.1-3.3-2.7-4.4-4.6
	c-24.1-42.1-48.1-84.4-72.3-126.4c-3.1-5.4-4.1-11.1-5.1-17C516.3,2960.2,509.4,2919.6,502.4,2878.6z"/>
<path class="svgfill" d="M479.5,3156c-7.4-3.6-9.9-8.9-11-15.5c-8.8-52.8-17.8-105.6-26.7-158.4c-4.9-28.9-9.8-57.7-14.7-86.6
	c-0.2-1.3-0.3-2.6-0.6-4.6c12.6-2.2,25-4.4,37.4-6.6c7.9-1.4,15.8-2.6,23.6-4.1c4-0.7,5.9,0.2,6.6,4.7
	c6.5,39.4,12.9,78.8,20.1,118.1c2.2,11.9,1.3,22.8-2,34.3C501,3076.5,490.5,3116,479.5,3156z"/>
<path class="svgfill" d="M619.8,3121.4c-3.3-19-6.5-38-9.8-56.9c-9-53.1-18-106.2-27.1-159.2c-2-11.5-3.6-23-5.9-34.4
	c-0.9-4.4,0.1-6,4.5-6.7c12.5-1.9,24.9-4,37.4-6.2c4.4-0.8,6.4,0.1,7.3,5.1c8.2,49.5,17.2,98.9,24.9,148.5c2,13-0.3,26.6,0.8,39.9
	c1.2,14.7-2.5,27.2-11,39.1c-7.1,9.9-12.8,20.8-19.2,31.3C621,3121.6,620.4,3121.5,619.8,3121.4z"/>
<path class="svgfill" d="M366.4,2901c16.1-2.8,31.7-5.5,47.4-8.2c4.2-0.7,3.8,2.6,4.3,5.1c2.7,15.4,5.3,30.8,7.9,46.2
	c9.1,53.4,18.2,106.9,27.3,160.3c1.7,10.1,3.3,20.3,5,30.5c-3.7,0.5-4.9-2.4-6.7-4c-16.6-15.4-32.9-31.1-49.5-46.5
	c-3.8-3.6-5.9-7.4-6.8-12.7c-8.2-49.5-16.8-99-25.2-148.5C368.8,2916.1,367.7,2908.9,366.4,2901z"/>
<path class="svgfill" d="M628.2,2700c3.2-0.7,3.9,1.3,4.4,3.8c1.6,9.5,3.3,18.9,5.1,28.4c0.8,3.9-1.8,4.5-4.5,4.9
	c-7.8,1.4-15.7,2.6-23.5,4.1c-3,0.6-4.5-0.6-4.9-3.3c-1.7-9.8-3.3-19.6-4.8-29.5c-0.4-2.2,0.3-3.9,2.8-4.3
	C611.2,2702.8,619.7,2701.4,628.2,2700z"/>
<path class="svgfill" d="M983.9,1715.9c-6.9-0.4-13.8-0.8-20.7-1.1c-3.3-0.2-5.5-0.9-5.9-5c-0.7-6.5-2.2-13-3.8-22
	c11.5,9.7,21.3,17.9,31.1,26.1C984.4,1714.6,984.2,1715.2,983.9,1715.9z"/>
<path class="svgfill" d="M1944.4,673.4c50.4,4.8,92.8-10.4,125.8-49c3.2,1.5,1.7,4.2,1.7,6.2c0.1,10.3-0.2,20.7-0.1,31
	c0.5,57.8,47.1,104.7,104.9,105.7c5.1,0.1,7.7-1.5,9.8-6.2c6.3-14.3,13.2-28.3,20.1-42.9c3.5,5.1,4.9,10.3,6.3,15.3
	c1.5,5.4,4.3,6.1,8.8,4.3c0.3-0.1,0.7-0.1,1-0.3c7.6-4,14.5-2.2,21.6,1.8c6,3.4,6.2,3,9.7-2.9c2.4-4.2,4.8-8.4,8.3-14.7
	c4.3,14.9,8,27.5,11.5,40.2c3.8,13.5,3.8,13.5,17.6,14.7c53.7,4.5,102.7-32.4,112.8-85.2c2.5-12.7,4.3-25.6,6.4-38.5
	c3.3-1,3.6,2.3,4.7,3.9c24.8,37.9,59.8,58.8,104.7,63.3c2.9,0.3,6.1-0.2,9.5,2.8c-6,2-11.3,4-16.7,5.7
	c-14.1,4.5-24.4,13.2-30.8,26.6c-3.9,8.1-8.2,15.9-12.3,24.1c-9.3-4.4-17.3-9.7-27-11.8c-14.4-3-28.4-2-40.6,5.6
	c-24.6,15.3-42.1,35.7-41.8,66.9c0,6.3-0.2,12.7-0.4,19c-0.1,1.5,0.7,3.3-1.9,5.1c-4.2-5.2-8.4-10.5-12.8-15.7
	c-22.9-26.7-62.4-28.3-86.8-3.5c-7.5,7.6-14.4,15.7-20.1,24.8c-5.4,8.7-11.3,17.1-17.2,25.9c-3.9-3.5-4.8-7.8-6.6-11.7
	c-6.7-14.5-12.7-29.2-21.8-42.5c-21.2-30.8-60.5-36.1-88.8-11.7c-4.7,4.1-9.3,8.4-15.8,14.3c1.2-9.7,1.7-17.1,3.1-24.3
	c6-30.7-7.2-54.2-28.8-73.4c-15.4-13.7-34.6-16.2-54.5-10.7c-4.4,1.2-8.8,2.9-13.9,4.6c-3.2-5.9-5-12.3-6.4-18.6
	c-4.7-19.9-16.1-34-35-41.9c-2.7-1.1-5.2-2.8-7.8-4.2C1944.4,674.9,1944.4,674.1,1944.4,673.4z"/>
<path class="svgfill" d="M1789.2,509.1c7.1,12.2,13.9,24,20.8,35.7c4.6,7.9,4.6,7.9,13.3,6.7c49.9-7.1,86.3-47,88.1-97.3
	c0.4-10.6-1.4-21.2-2.2-31.8c-0.3-4.2-0.8-8.4-1.4-14.8c35.9,34.4,76.8,45.8,124.5,36.5c-3,4.6-7.1,6.3-10.6,8.3
	c-14.5,8.4-23.2,20.5-25.7,37.2c-0.8,5.3-2.8,10.3-3.4,15.6c-0.7,5.4-3.3,5.7-7.5,4.3c-2.5-0.8-5.1-1.4-7.7-1.9
	c-23.1-4.2-42.1,3-56.6,21.3c-6.6,8.3-11.3,18-14.9,28.1c-3.9,11-3.5,22.2-0.9,33.5c1.8,7.7,3.5,15.4,5.5,24.1
	c-6-2.6-9.7-6.4-13.9-9.5c-30-22.1-66.9-13.9-85,18.7c-6.5,11.7-10.6,24.3-15.1,36.9c-1.6,4.6-3.3,9.2-4.9,13.9
	c-4.2-0.8-5.4-4.3-7.4-6.8c-10-12-19.1-24.8-31-35.1c-26.8-23.3-64.3-18.9-84.5,10.2c-3.2,4.6-6.2,9.3-10,15c-3-9.5-3-17.9-4-26
	c-1.7-14.9-7.7-27.4-18.6-37.6c-3.2-3-6.3-6-9.6-8.8c-20.4-17.6-47.7-19.5-70.3-4.7c-2.8,1.8-5.5,3.7-8.9,6
	c-4.3-6.7-8.7-12.8-12.3-19.4c-7.8-14.1-19.6-22.3-35.3-25.3c-3.8-0.7-7.5-1.9-11.5-3.5c13.8-4.6,28.2-7,41.2-13.6
	c13.5-6.8,25.7-15.3,36.3-26.1c10.3-10.5,18.2-22.7,25.5-37.1c3.3,13.2,6,24.5,9,35.7c14,51.2,65.4,82.7,117.5,72.4
	c7.1-1.4,10.7-4.2,11.7-11.8c1.7-13.1,4.8-26.1,7.5-40.1c4.8,3.8,7.1,8.6,9.9,12.9c2.2,3.3,4.2,3.8,7.2,1.3
	c6.9-5.6,14.5-7.5,23.2-4.2c4.5,1.7,6.3-0.7,7.4-5.2C1785.4,518.3,1785.4,513.4,1789.2,509.1z"/>
<path class="svgfill" d="M2308.9,384.7c17.5,26.5,41.1,38,70.4,39.3c-1.6,3-4.1,3.3-6.2,4c-10.6,3.2-17.6,10.1-21.6,20.5
	c-1.4,3.6-2,8.6-5.8,10c-3.3,1.3-6.5-2.4-9.8-3.6c-7.9-2.6-15.7-2.6-23.5-0.1c-12.4,3.9-29.5,23.6-28.4,39
	c0.4,5.6,0.1,11.2,0.1,17.8c-3.6-1.5-5-4.2-6.9-6.2c-16.9-19-39.2-18.6-55.8,0.8c-5.9,6.9-9.9,15-14.8,22.5c-0.9,1.4-1.8,2.7-3.4,5
	c-3.1-6.1-6.1-11.4-8.7-17c-2.5-5.5-5.8-10.5-9.4-15.3c-12.7-16.5-34.5-18.6-50.2-5c-3.2,2.8-5.6,6.6-10.1,8.4
	c0.5-7.3,1.4-14.3,1.4-21.2c0-19-16.2-37.8-34.8-40.8c-8.3-1.3-15.7,1.7-23.2,4.4c-5.7-9.2-5.7-9.2,3.5-17.5
	c-8.4,2.7-12.3-1.3-15.8-7c-2.1-3.4-5.8-5.3-9.4-7.2c-2.8-1.5-6.2-2.1-9.1-6.2c29.3,0.8,53.6-8.3,72.3-32.1c2.5,7.8,1.7,14.7,2,21.4
	c1.1,25.8,16.9,47.6,40.9,56.2c2.8,1,5.7,1.9,8.6,2.5c15.2,3.3,17,2.3,22.9-11.8c2.2-5.1,4.4-10.2,6.9-16c1.2,1.7,2,2.6,2.6,3.8
	c3.3,6.8,3.3,6.9,11.2,5.4c1.7-0.3,3.2,0,4.8,0.3c2.7,0.6,5.2,4.3,8.1,1.7c1.9-1.7,2.7-4.6,4-6.9c0.3-0.6,0.8-1,1.6-2.1
	c4.1,4.7,4.6,10.7,6.4,16.1c5,14.6,6.6,15.8,22.1,13.5c30.3-4.5,51-26,54.4-56.5C2306.9,398.9,2307.8,393,2308.9,384.7z"/>
<path class="svgfill" d="M1491.3,996.4c2.6,5.6,4.9,10.4,7,15.3c1.5,3.5,3.4,5.8,7.4,3.4c12.5-7.3,24.9-7.6,37.4-0.2
	c3.6,2.2,5.8,1.2,7.6-2.9c2.3-5.1,3.9-10.6,8.2-15.9c5.8,15.5,11.4,30.3,16.9,45c0.8,2.2,1.7,4.3,2.3,6.6c1.1,4,3.4,5.7,7.8,6.1
	c67.8,6.8,130.6-37.8,146.3-103.9c3.8-16,3.5-32.4,5.5-48.6c0.3-2.2-0.5-4.6,1.8-7.5c16.3,20.3,35.5,36.8,58.6,48.5
	c23.2,11.8,47.8,17.9,74.7,18.7c-2.1,4-5.2,4.4-7.7,5.5c-16,7.1-27.4,18.5-33.9,34.9c-3,7.4-6.1,14.8-9.2,22.1
	c-3.2,7.6-3.2,7.7-10.3,4.4c-11.3-5.3-23.1-8.3-35.7-8.2c-24.1,0.3-43.9,9.7-59.6,27.8c-5,5.8-9.7,11.9-14.1,18.2
	c-9.7,13.7-14.8,29-14.5,45.9c0.2,10.3,0.9,20.6,1.3,31.5c-5.5-2.7-8.5-7.6-12.3-11.5c-23.6-23.7-59-29.9-88.5-15.4
	c-10.3,5.1-19,12.3-26.1,21.3c-8.5,10.7-16.5,21.7-22.7,34c-4.5,8.9-9.6,17.4-14.6,26.5c-4.2-4.5-6.4-9.8-9-14.7
	c-8.6-15.8-17.4-31.4-28.8-45.5c-29.8-36.7-82-39.5-115.3-5.8c-3.5,3.5-6.8,7.2-11.1,11.6c0-8.2-0.6-15.3,0.1-22.3
	c2.1-22.7-3.7-42.9-17.9-60.6c-2.7-3.4-5.3-6.9-8-10.3c-23.9-29.8-61-38.7-96.1-23.1c-0.9,0.4-1.9,0.7-2.7,1.2
	c-4.6,3.1-6.9,1.5-8.6-3.4c-2.4-6.9-5.7-13.5-8.2-20.4c-7-18.9-19.6-32.2-38.5-39.5c-1.4-0.5-3.3-0.8-4.8-3.8
	c54.7-2.6,99.2-24.9,133.7-67.8c2.4,4.5,1.8,8.5,2.1,12.4c1.2,15.6,1.7,31.2,5.7,46.5c17.1,65.1,78.3,107.7,145.3,101.4
	c4.9-0.5,6.9-2.6,8.4-6.8c5.3-14.7,10.9-29.3,16.3-44C1488.4,1000.9,1488.9,998.6,1491.3,996.4z"/>
<path class="svgfill" d="M920.9,1315.3c4.5-0.1,5.8,2.1,7.3,3.7c8.1,7.9,16.1,15.9,24.1,24c13.5,13.8,16.5,29.8,10.4,47.9
	c-2.8,8.3-6.6,16-11.7,23c-24.1,32.9-55.5,55.4-95.5,64.6c-63.9,14.6-131-28.6-143.1-93.2c-8.9-47.5,3.7-90.4,33.4-128.3
	c8.3-10.6,19-18.6,32.7-21.7c6.8-1.6,13.3-1.5,19.6,1.2c17.2,7.2,34.1,14.9,50.3,24.2c0.9,0.5,1.7,1,2.3,2.2
	c-23.4-2.7-45.1,1.3-64.9,13.4c-20.2,12.2-33.9,29.8-41.5,52.1c-13.8,40.8,0.3,86,34.6,111.7c32.9,24.7,77.6,25.7,111.2,2.4
	c20.3-14.1,33.1-33.4,39.1-57.3C935,1361.2,931.5,1338.3,920.9,1315.3z"/>
<path class="svgfill" d="M835.9,1334.6c15.8,0.1,28.3,13,28,28.9c-0.3,15.3-13,27.8-28.3,27.7c-15.8-0.1-28.2-13-28-29
	C808,1346.8,820.5,1334.5,835.9,1334.6z M844.9,1363.2c0.2-4.8-3.5-8.9-8.3-9.3c-5.1-0.4-9.8,3.7-10,8.8c-0.2,4.9,4.4,9.5,9.5,9.4
	C840.7,1371.9,844.7,1367.9,844.9,1363.2z"/>
<path class="svgfill" d="M931.7,1295.5c2.4,1.1,5.9,0.2,7.2,4.7c-3.8,0-5-2.8-6.8-4.5L931.7,1295.5z"/>
<path class="svgfill" d="M932,1295.7l-0.2,0.3c0,0,0-0.4,0-0.4C931.7,1295.5,932,1295.7,932,1295.7z"/>
<path class="svgfill" d="M920.6,1312.7c0.2,0,0.5-0.1,0.6,0c0.5,0.4,0.4,0.8-0.3,1.2c-0.1,0-0.4-0.3-0.5-0.6
	C920.3,1313.2,920.5,1312.9,920.6,1312.7z"/>
<path class="svgfill" d="M398.2,1453c-0.2,62.4-45.4,113.3-106.7,121.4c-61.8,8.1-120.7-33.5-133.8-94.2c-1.2-5.6-0.6-10.3,1.7-15.3
	c3.9-8.5,8.7-16.5,13.9-24.2c26.5-39.3,57.3-75.2,88.9-110.3c11.2-12.4,25.2-15.2,41-10.9c9.1,2.5,17.4,6.6,25,12
	c32.3,23,54.2,53.5,65.9,91.3C397.2,1433,398.4,1443.6,398.2,1453z M304.6,1453.4c-0.2-16.1-12.9-28.1-29.1-27.7
	c-15.4,0.4-27.6,13.2-27.4,28.6c0.3,15.8,13.2,28.2,29.2,27.7C292.9,1481.5,304.8,1469,304.6,1453.4z"/>
<path class="st2" d="M977.5,2299.4c-54.2-2.3-108-2.4-161.8,0c-0.2-0.7-0.7-1.3-0.6-1.8c1.5-8.2,2.5-16.4,5.1-24.4
	c8-2.3,16.3-2.2,24.5-3c17.4-1.8,17.7-1.6,18.2-18.4c1.5-51.3,1-102.6,0.8-153.9c-0.1-17.3-0.5-34.6-0.9-51.9
	c-0.3-9.3-0.5-9.2-9.3-10c-9.3-0.8-18.6-1.8-27.9-2.3c-4.8-0.3-7.6-1.9-7.6-7c0-1-0.3-2-0.3-3c-0.3-5.5-4.7-12.2-0.8-16.1
	c3.6-3.6,10.8-1.1,16.4-1.1c40.3-0.1,80.6-0.5,120.9,0.1c22.6,0.3,45.3,1.8,67.4,7.3c8.8,2.2,17.2,5.2,25,9.8
	c26.7,15.6,35.4,43.4,22.2,71.3c-8.9,18.8-22.8,33.4-39.3,45.8c-2.7,2-5.3,3.9-8.8,6.5c36,55,72.1,109.6,119.9,157.2
	c-13.5,2-25.7,3.9-37.8,5.6c-3.2,0.4-5.7-1.6-8.3-3.1c-7-4-13.2-9-19.3-14.2c-32.8-28.4-62.6-59.9-92.3-91.4
	c-8-8.5-16.1-16.9-23.6-25.9c-3.7-4.4-7.7-5.9-13-4.9c-5.5,1-12.7-1.1-16.2,2.7c-3.6,3.8-1.2,10.8-1.2,16.3
	c0.2,23.7,0.7,47.3,1.1,70.9c0.1,7.2,0.2,7.5,7.6,8.5c9.2,1.3,18.5,2.4,27.8,2.9c4.8,0.3,7.3,1.7,8.1,6.5
	C974.7,2285.1,976.2,2292,977.5,2299.4z M1009,2130.9c0.6-0.4,1.3-0.8,1.9-1.2c11.1-5.8,19.8-14.4,28-23.7
	c6.8-7.8,12.4-16.4,15.5-26.5c3.9-12.7,1.1-24-8.5-32.8c-15.9-14.7-36.2-16.6-56.4-18.1c3.1,2.8,6.5,4.8,9.7,7
	c19.8,13.8,28.9,32.1,25.4,56.6c-1.9,13.3-7.9,24.5-14.9,35.4c-1.2,0.3-1.9,1-1.7,2.3c-0.9,0.1-2,0.6-1.7,1.3
	C1007.2,2132.8,1008.1,2131.5,1009,2130.9z M1092.3,2280.4l0-0.4l-0.2,0.3c-0.7-1-1.8-1.9-1-3.3c-1.5,0.6-1.8-0.8-2.5-1.5
	c-34.5-42.6-65.4-87.7-93.9-134.8c-8.3,6.4-18,9.8-27.8,14c1.8,2.2,3,3.8,4.3,5.3c30.6,33.8,61.9,66.9,94.9,98.4
	c6,5.7,12.2,11.3,18.5,16.8c1.2,1.1,2.9,3.4,4.3,0.1c-0.3,0.5-1.1,1.4-1,1.5c1,1.1,2.1,1.1,3.2,0.1
	C1090.2,2278.5,1090.9,2279.6,1092.3,2280.4z M881.4,2025c1.2,43.7,1.9,85.3,1.6,126.9c-0.3,41.8-0.8,83.7-1.2,126.4
	c6.9,0,13.9,0,20.8,0c11.3,0,9.5,0.5,9.1-9.8c-2.5-60.9-1.8-121.8-1.3-182.8c0.1-18.3,0.9-36.6,1.5-54.9c0.2-4.2-1-6-5.5-5.9
	C898.2,2025.2,889.9,2025,881.4,2025z M930.2,2088.9c-0.4,0-0.8,0-1.2,0c0,15.3,0.1,30.6-0.1,45.8c-0.1,4.3,1.1,5.9,5.6,5.6
	c14.4-1,28.3-3.9,41.2-10.5c6.8-3.5,12.8-8.2,17.9-14.1c21.9-25.2,15.4-55.8-14.7-69.7c-13.2-6.1-27.2-8.5-41.5-9.8
	c-7-0.6-7.2-0.4-7.3,6.8C930.1,2058.4,930.2,2073.6,930.2,2088.9z"/>
<path class="st2" d="M1680.3,2299.3c-57.8-2.2-114.6-2.5-172,0c0.1-8.3,3-15.8,4-23.6c0.5-3.6,3.5-3.4,6.1-3.7
	c10.3-1.2,20.5-2.8,30.8-3.6c5.2-0.4,6.7-2.3,6.8-7.3c0-17.7,0.4-35.3,0.7-53c0.7-53.7,0.5-107.3-0.6-160.9c0-1.7-0.3-3.4-0.1-5
	c0.5-4.7-1.4-6.5-6.1-6.9c-10-0.8-19.9-2-29.8-3c-7.5-0.7-7.5-0.7-8.9-8.5c-1-5.6-1.7-11.2-2.6-16.7c1.2-1.6,2.9-1.6,4.5-1.6
	c45.3,0,90.6-1.8,135.9,0.4c18.7,0.9,37.2,2.9,55.3,7.9c8.1,2.3,15.7,5.5,22.9,9.7c26.8,15.8,36.8,39.3,29.8,69.5
	c-5.9,25.3-20.9,44.3-41.7,59c-22.7,16-48.3,25-75.5,29.7c-4.8,0.8-10.6,4.2-14.3,0.9c-3.4-3.1,1-8.6,0.7-13.2c-0.2-2,0.4-4,0.5-6
	c0.3-5.6,2.4-8.9,8.7-9.9c7.9-1.2,15.3-4.5,22.4-8.2c22.3-11.8,37-34.2,32.9-66c-2.5-19-13.7-31.2-31.4-37.8
	c-9.5-3.5-19.4-4.4-29.3-5.6c-4.8-0.6-6.6,1-6.7,5.8c-0.1,16-0.8,32-0.8,48c-0.1,55-0.6,110,0.9,164.9c0.3,12.3,0.4,12.4,12.7,13.9
	c10.6,1.2,21.2,2.5,31.8,3.1c5.4,0.3,7.7,2.4,8.5,7.4C1677.1,2285.7,1680,2291.8,1680.3,2299.3z M1604.5,2024
	c-8.1,0-15.7-0.1-23.3,0c-7.2,0.1-7.3,0.3-7,8c2.9,60.6,1.7,121.2,1.4,181.9c-0.1,19.6-0.9,39.3-1.5,58.9c-0.1,2.7-0.6,5.6,3.6,5.4
	c8.9-0.3,17.9,0.7,26.8-0.6C1602.9,2193.1,1602,2109,1604.5,2024z M1678.5,2028.2c42,34.3,38.8,73.4,13.7,115.6
	c6.9-3.3,12.4-7.1,17.5-11.4c15.3-12.7,26.1-28.2,29.5-48.2c2.9-17.2-2.6-30.7-16.7-40.8C1709.5,2034.2,1694.8,2030.2,1678.5,2028.2
	z"/>
<path class="st2" d="M1389.6,2299.5c-54.8-2.6-109.3-2.5-163.7-0.1c-0.3-1-0.8-1.6-0.7-2.2c1.5-8.2,2.5-16.5,5.2-24.4
	c7.9-1,15.8-1.9,23.7-2.9c5.9-0.7,13.2,0.4,17-3.5c3.6-3.7,1.6-10.8,1.8-16.4c1.6-56.6,1-113.3,0.7-169.9c-0.1-12.7-0.9-25.3-1-38
	c0-4.7-1.7-6.3-6.3-6.7c-10.3-0.9-20.5-2.5-30.8-3.5c-3.5-0.3-5.3-1.5-6-5.1c-1.6-7.4-3.7-14.7-5.6-22.4c55.5,2.4,110.4,2.7,165.2,0
	c0.1,0.5,0.3,0.8,0.2,1c-2.1,8.3-4.3,16.7-6.5,25c-8,2.4-16.3,2.5-24.5,3.8c-5.5,0.9-12.7,0.2-16.2,3.4c-4.1,3.8-1.9,11.3-2,17.3
	c-0.7,65.7-0.9,131.3,0.3,197c0.3,18.3-3.7,15.3,16.5,18c6.9,0.9,13.9,1.7,20.9,2c4.1,0.2,5.8,1.9,6.5,5.9c0.8,4.6,2.3,9,3.4,13.5
	C1388.4,2293.8,1388.9,2296.4,1389.6,2299.5z M1322.2,2277.8c-2.1-84.1-2.7-167.7,0-252.2c-5.4,0-10.3-0.2-15.3,0
	c-5.2,0.2-10.6-0.9-15.6,0.8c2.5,83.9,1.9,167.5,0.1,251.3C1302.1,2277.8,1311.9,2277.8,1322.2,2277.8z"/>
<path class="st2" d="M844.9,1363.2c-0.2,4.8-4.2,8.7-8.9,8.8c-5,0.1-9.6-4.5-9.5-9.4c0.2-5,4.9-9.2,10-8.8
	C841.4,1354.2,845,1358.3,844.9,1363.2z"/>
<path class="st2" d="M304.6,1453.4c0.2,15.6-11.7,28.2-27.2,28.6c-16,0.4-29-11.9-29.2-27.7c-0.3-15.4,12-28.2,27.4-28.6
	C291.7,1425.2,304.4,1437.3,304.6,1453.4z M285.7,1454.1c0.2-4.8-4.5-9.7-9.3-9.6c-4.6,0.1-8.6,4.1-8.8,8.9c-0.2,5,3.2,8.9,8.1,9.3
	C280.8,1463.2,285.5,1459.1,285.7,1454.1z"/>
<path class="svgfill" d="M881.4,2025c8.5,0,16.8,0.2,25-0.1c4.4-0.1,5.6,1.7,5.5,5.9c-0.7,18.3-1.4,36.6-1.5,54.9
	c-0.5,60.9-1.2,121.8,1.3,182.8c0.4,10.3,2.2,9.8-9.1,9.8c-6.9,0-13.9,0-20.8,0c0.4-42.7,0.9-84.5,1.2-126.4
	C883.3,2110.3,882.6,2068.7,881.4,2025z"/>
<path class="svgfill" d="M930.2,2088.9c0-15.3-0.1-30.6,0-45.9c0.1-7.2,0.3-7.5,7.3-6.8c14.3,1.3,28.3,3.7,41.5,9.8
	c30.2,14,36.6,44.5,14.7,69.7c-5.1,5.8-11.1,10.5-17.9,14.1c-12.9,6.7-26.8,9.5-41.2,10.5c-4.5,0.3-5.7-1.3-5.6-5.6
	c0.2-15.3,0.1-30.6,0.1-45.8C929.4,2088.9,929.8,2088.9,930.2,2088.9z"/>
<path class="svgfill" d="M1088.8,2275.2c-1.5,3.3-3.2,1-4.4-0.1c-6.2-5.5-12.4-11-18.4-16.8c-33-31.5-64.3-64.6-94.9-98.4
	c-1.3-1.5-2.5-3.1-4.3-5.3c9.8-4.2,19.5-7.6,27.8-14c28.5,47.1,59.5,92.2,93.9,134.8L1088.8,2275.2z"/>
<path class="svgfill" d="M1009.6,2127.6c7-10.9,13-22.1,14.9-35.4c3.5-24.4-5.7-42.8-25.4-56.6c-3.2-2.2-6.6-4.2-9.7-7
	c20.2,1.5,40.5,3.4,56.4,18.1c9.6,8.8,12.4,20.1,8.5,32.8c-3.1,10.1-8.6,18.7-15.5,26.5c-8.1,9.3-16.9,17.9-28,23.7
	C1010.5,2128.9,1010,2128.3,1009.6,2127.6z"/>
<path class="svgfill" d="M1088.6,2275.4c0.7,0.8,1,2.1,2.5,1.5l0,0c-1.1,0.9-2.3,1-3.2-0.1c-0.1-0.1,0.6-1,1-1.6
	C1088.8,2275.2,1088.6,2275.4,1088.6,2275.4z"/>
<path class="svgfill" d="M1092.3,2280.4c-1.4-0.8-2.1-1.9-1.3-3.5l0,0c-0.9,1.4,0.3,2.3,1,3.3L1092.3,2280.4z"/>
<path class="svgfill" d="M1092,2280.2l0.2-0.3c0,0,0,0.4,0,0.5C1092.3,2280.4,1092,2280.2,1092,2280.2z"/>
<path class="svgfill" d="M1010.9,2129.6c-0.6,0.4-1.3,0.8-1.9,1.2c-0.3-0.3-0.7-0.7-1-1c-0.2-1.3,0.5-2,1.7-2.3
	C1010,2128.3,1010.5,2128.9,1010.9,2129.6z"/>
<path class="svgfill" d="M1009,2130.9c-0.9,0.7-1.8,2-2.7,0.3c-0.4-0.7,0.8-1.3,1.7-1.3C1008.3,2130.2,1008.6,2130.5,1009,2130.9z"/>
<path class="svgfill" d="M1604.5,2024c-2.5,85-1.6,169.1,0,253.7c-8.9,1.3-17.8,0.3-26.8,0.6c-4.2,0.1-3.7-2.7-3.6-5.4
	c0.5-19.6,1.4-39.3,1.5-58.9c0.3-60.6,1.5-121.3-1.4-181.9c-0.4-7.8-0.3-7.9,7-8C1588.8,2023.9,1596.4,2024,1604.5,2024z"/>
<path class="svgfill" d="M1678.5,2028.2c16.3,2,31,6,44,15.2c14.2,10,19.7,23.6,16.7,40.8c-3.4,20.1-14.3,35.5-29.5,48.2
	c-5.1,4.3-10.6,8-17.5,11.4C1717.3,2101.6,1720.6,2062.5,1678.5,2028.2z"/>
<path class="svgfill" d="M1322.2,2277.8c-10.3,0-20.1,0-30.8,0c1.9-83.7,2.4-167.4-0.1-251.3c5-1.8,10.4-0.6,15.6-0.8
	c4.9-0.2,9.8,0,15.3,0C1319.6,2110.1,1320.2,2193.7,1322.2,2277.8z"/>
<path class="svgfill" d="M285.7,1454.1c-0.2,5-4.9,9.1-10,8.6c-5-0.4-8.3-4.3-8.1-9.3c0.2-4.8,4.2-8.8,8.8-8.9
	C281.2,1444.4,285.9,1449.3,285.7,1454.1z"/>
</svg>
