<?xml version="1.0" encoding="utf-8"?>
<!-- Generator: Adobe Illustrator 24.2.1, SVG Export Plug-In . SVG Version: 6.00 Build 0)  -->
<svg version="1.1" id="Layer_1" xmlns="http://www.w3.org/2000/svg" xmlns:xlink="http://www.w3.org/1999/xlink" x="0px" y="0px"
	 viewBox="0 0 2350.8 1326.8" style="enable-background:new 0 0 2350.8 1326.8;" xml:space="preserve">
<style type="text/css">
	.svgfill{fill:#FEFEFE;}
	.st1{fill:#0C0C0C;}
</style>
<path class="svgfill" d="M-1.1,1045.6c0-347.1,0-694.1-0.1-1041.2c0-4.3,1.2-4.7,5-4.7c780.7,0.1,1561.3,0.1,2342,0c4.4,0,5,1.2,5,5.2
	c-0.1,215.6-0.1,431.2-0.1,646.8c-0.3,0-0.5,0-0.8,0c-1-12.8-0.7-25.6-2.1-38.4c-1.8-15.9-7.6-29.6-19.9-40.5
	c-19-16.7-41.7-25.5-65.8-31.1c-40.9-9.6-82.5-13.8-124.3-16c-18.1-1-35.9-2.8-53-9.7c-51.5-20.6-101.4-44.6-151.2-69
	c-3.3-1.6-5.1-3.6-5.8-7.1c-6.5-30.9-16.5-60.9-24.6-91.3c-3.5-13.2-11-24-19.2-34.6c-5.9-7.6-12.6-13.1-21.9-15.5
	c-6.3-1.6-12.5-3.3-18.8-5.1c-9.3-2.7-16.9-9.3-26.3-12c-4.3-1.2-7-2.9-6.2-8.3c0.7-5-2.1-6.5-6.9-4.4c-2.1,0.9-4.1,2.1-6.1,3.4
	c-3.4,2.1-5.3,1.4-6.5-2.5c-1.3-4.3,0.7-8.1,1.5-12.1c0.6-2.9,2.2-2.9,4.4-1.8c1.7,0.8,3.5,1.6,5.4,0.8c5.8,0.6,11.6,0.2,17.4-0.6
	c14.2-1.8,24.6-10.3,27.3-23.1c1.7-7.9-0.2-15.5-3-22.9c-3.9-10.4-4.1-20.9-2-31.8c3.8-19.3,6.8-38.7,2.4-58.3
	c-1-4.3-1.1-7.1,4.2-7.7c1.1-0.1,2.3-1.3,3.2-2.3c6.3-7.1,10.7-19,1.1-29.1c-3.9-4.1-8.3-7.7-12.4-11.6c-5.3-5.1-9.3-10.7-9.2-18.6
	c0-10.8-3.8-19.8-12.8-26.1c-0.5-0.4-1-0.9-1.4-1.4c-6.3-6.8-5.6-13,2.1-18.2c1.8-1.2,4.2-1.5,5.6-3.9c-9.5-0.6-18.5,0.3-27,3.2
	c-10.7,3.6-18,10.3-18.4,22.6c-0.2,4.8-2.8,8-7.7,9.1c-4.7,1.1-9.4,1.9-14.3,2c-2.2-0.4-2.9,1.6-4.1,2.7c-1.5-1-3.2-1-4.8-0.6
	c-10.4,2.1-20.9,3.9-30.7,8c-12.2,5.1-22.9,12.3-30.2,23.5c-6.9,10.6-5.2,21.2,4.6,29.2c1.7,1.4,1.9,2.5,1.6,4.6
	c-2.5,16.3-3.2,32.4,4.8,47.7c0.5,1,1.5,2.3-0.3,2.7c-2.8,0.6-1.8,2.1-1.2,3.7c5.8,15.9,15.4,28.6,31.4,35.5
	c2.8,1.2,5.3,2.7,7.2,5.2c4.9,6.7,9.7,13.5,14.7,20.1c1.2,1.7,1.5,3.3,1,5.2c-1.5,5.9-3.1,11.8-5.5,17.5c-7.5,18-21,30.5-37,40.6
	c-11.9,7.5-24.3,14.2-36.2,21.8c-15.5,9.8-27,22.9-31.8,41.2c-2.9,10.9-2.4,22.1-2.3,33.2c0,3.7-1,4.7-4.8,4.5
	c-37.1-1.8-74.2-3.7-111.3-5c-50.3-1.7-100.6-2.9-150.8-4.4c-46.8-1.4-93.6-1.2-140.4,0.3c-13.1,0.4-26.3,1.1-39.3,3.1
	c-30.3,4.8-59.4,13.8-87.7,25.4c-72.2,29.7-143.2,62.1-212.5,98c-48.8,25.3-98.5,49.2-143,82.1c-5.6,4.1-11.8,5.8-18.7,5.3
	c-11.8-0.9-23.6-1.8-35.4-2c-63.6-1.5-127.2-0.2-190.8,3.8c-29.6,1.9-57.8,8.7-84.6,21.6c-85.2,41.1-168.2,86.2-249.4,134.7
	c-40.6,24.3-80.4,49.8-118.8,77.5c-23,16.5-32.3,38.5-29.6,66.5c1.6,16.8,4.9,33.1,9.4,49.2c5.8,20.7,10.1,41.8,18.4,61.7
	c4.3,10.2,4.3,10-6,13.7C26.1,1021.8,8.9,1028.5-1.1,1045.6z"/>
<path class="svgfill" d="M2350.7,690.7c0,214.1,0,428.2,0.1,642.3c0,3.6-0.5,4.7-4.5,4.7c-781-0.1-1561.9-0.1-2342.9,0
	c-3.8,0-4.5-1-4.5-4.6c0.1-94.1,0.1-188.3,0.1-282.4c2.8,4.4,5,9.2,8.7,13c6,6.2,11.8,12.8,18,18.7c29.9,28.6,64.3,50.8,100.6,70.3
	c24.7,13.3,50.1,24.8,78,29.6c9,1.6,18.1,3.6,25.2,9.7c13.9,11.7,29.6,20.1,46.3,26.8c67.1,26.9,137.3,42.6,208.1,55.8
	c27.4,5.1,54.8,10,82.2,14.6c24,4.1,48.1,7.9,72.3,11.3c20.6,2.9,41.2,5.4,61.8,7.4c20.9,2.1,41.8,3.9,62.7,4.6
	c28.7,1,57.2-1,85.6-4.7c25-3.2,49.8-7.5,74.7-11.8c25.6-4.5,51.3-9,76.9-13.2c27.3-4.5,54.6-9,81.3-16.2c4.5-1.2,5.8-0.3,6.5,4.2
	c1.7,10.7,4.7,21,10.1,30.4c4,6.9,9.4,12,17.8,12.8c5.4,0.5,10.8,1.5,16.3,1.6c17.7,0.5,35.3,0.9,53,1c6,0,11.8,1.1,17.9-1.6
	c4.3-1.9,10.2-0.3,15.3-0.2c41.7,1,83-1.8,123.4-13.3c31.8-9.1,59.5-24.5,78-53.1c33.1-51.3,51.5-107.3,52-168.6
	c0.4-42.3,0.5-84.6-0.2-127c-0.1-4.7,0-9.4,0-14.1c1.2,1.3,1.8,2.6,2,4c4,25.8,6.8,51.7,7.3,77.9c0.6,30.5-0.2,60.9-2.9,91.3
	c-1.7,18.9-3.8,37.7-6.3,56.4c-0.8,6.1,0.4,7.2,6.2,5.1c3.9-1.4,7.8-2.8,11.8-4c12.6-3.8,25.9-4.3,38.6-7.7
	c39.7-10.5,79.4-21,119.3-30.8c17.4-4.3,35.7-5,52.3-12.5c3.1-1.4,2.7,0.9,2.9,2.7c2.3,25,4.9,49.9,8.3,74.8
	c0.9,6.5-0.8,11.8-3.8,17c-2.5,4.5-5.6,8.6-8,13.2c-5.3,9.7-4.4,17.9,4,25.1c9.6,8.2,16.6,18,22.8,28.7c11.9,20.7,29.8,34.5,50.7,45
	c5.9,3,12.2,5,18.8,6.1c14.6,2.5,23.1-6.5,19.1-20.7c-2.3-8-6.1-15.4-10.6-22.3c-12.7-19.5-24.8-39.4-38.5-58.1
	c-13-17.8-15.8-36.9-12.3-58c3.5-21.4,6-43,8.8-64.6c1-7.9,1.2-8.3,9.1-8.8c12.9-0.8,25.3-3,37.3-8.3c7.9-3.5,16.1-6.3,24.4-8.7
	c19-5.4,38.1-10.1,57.4-14c3.6-0.7,4.7-0.2,5.7,3.2c7.5,26.5,15.3,53,22.9,79.5c4.5,15.8,8.8,31.7,7.2,48.4
	c-0.8,8.4-1.9,16.8-2.5,25.3c-1,14.7,5.3,23.7,18,25.4c8.4,1.1,17,0.8,25.4-0.3c17-2.2,34-3.8,51.2-4.6c18.1-0.8,36.3-1.5,54.2-4.1
	c6.5-0.9,13.1-2.4,18.8-5.9c5.4-3.3,6.1-7.5,2.1-12.5c-2.7-3.3-6.3-5.4-10.3-6.7c-8.6-3-17.5-4.8-26.4-6.9
	c-19.5-4.6-39.3-7.9-58.6-13c-14.4-3.8-23.9-12.6-26.5-27.6c-1.1-6.5-1.7-13.2-2.3-19.8c-1.3-15.6-2.4-31.2-3.6-46.8
	c-1.2-15.6-2.2-31.2-3.4-46.8c-0.2-2.6,0.7-3.6,3.1-4.6c15.3-6.6,31.5-10.1,47.5-14.4c16.2-4.4,33.1-5.8,49.1-10.9
	c14-4.5,28.3-7.3,42.9-9.2c12.6-1.6,24.6-5,36.1-10.8c6.1-3.1,7.3-7,7.4-12.8c0.1-5.8,0.9-11.7,1.4-18.2c2.1,1.7,2.2,3.4,2.7,4.9
	c2.5,8.8,5.2,17.5,7.6,26.4c2.9,10.5,9.7,18.1,17.6,24.9c1.3,1.1,2.7,1.9,4.4,2.1c19.2,1.9,38.5,2.8,57.8,1.9
	c16-0.7,29.3-6.6,39.3-19.3c1.9-2.5,4.1-4.9,5.7-7.5c17.4-27.9,31.5-57.4,42.5-88.5c5-14.2,7.6-29,10.5-43.5
	c3.2-16,3.4-32.7,4.7-49.1c1.7-21.2,3.4-42.5,4.6-63.7c1.4-23.8,2.2-47.6,3.3-71.3h0.4L2350.7,690.7z"/>
<path class="st1" d="M2349.9,690.7c-1.1,23.8-1.9,47.6-3.3,71.3c-1.2,21.3-2.9,42.5-4.6,63.7c-1.3,16.4-1.5,33.1-4.7,49.1
	c-2.9,14.5-5.5,29.3-10.5,43.5c-11,31-25.1,60.5-42.5,88.5c-1.7,2.7-3.8,5-5.7,7.5c-10,12.8-23.2,18.6-39.3,19.3
	c-19.3,0.9-38.6,0-57.8-1.9c-1.8-0.2-3.2-1.1-4.4-2.1c-8-6.8-14.8-14.4-17.6-24.9c-2.4-8.8-5.1-17.6-7.6-26.4
	c-0.4-1.5-0.6-3.2-2.7-4.9c-0.5,6.5-1.3,12.3-1.4,18.2c-0.1,5.8-1.3,9.7-7.4,12.8c-11.5,5.8-23.5,9.2-36.1,10.8
	c-14.6,1.9-28.9,4.7-42.9,9.2c-16,5.2-32.9,6.5-49.1,10.9c-16,4.4-32.2,7.8-47.5,14.4c-2.4,1-3.3,2-3.1,4.6
	c1.2,15.6,2.3,31.2,3.4,46.8c1.2,15.6,2.3,31.2,3.6,46.8c0.6,6.6,1.2,13.3,2.3,19.8c2.6,15,12.1,23.8,26.5,27.6
	c19.4,5.1,39.1,8.5,58.6,13c8.8,2.1,17.8,3.9,26.4,6.9c4,1.4,7.6,3.4,10.3,6.7c4,4.9,3.4,9.1-2.1,12.4c-5.8,3.6-12.3,5-18.8,5.9
	c-18,2.6-36.1,3.3-54.2,4.1c-17.1,0.8-34.2,2.4-51.2,4.6c-8.4,1.1-17,1.4-25.4,0.3c-12.7-1.7-18.9-10.7-18-25.4
	c0.6-8.4,1.7-16.9,2.5-25.3c1.7-16.7-2.7-32.6-7.2-48.4c-7.5-26.5-15.3-53-22.9-79.5c-1-3.4-2.1-3.9-5.7-3.2
	c-19.3,3.9-38.4,8.7-57.4,14c-8.3,2.3-16.5,5.2-24.4,8.7c-11.9,5.3-24.4,7.5-37.3,8.3c-7.9,0.5-8.1,0.9-9.1,8.8
	c-2.8,21.6-5.3,43.2-8.8,64.6c-3.4,21.1-0.7,40.1,12.3,58c13.7,18.8,25.8,38.6,38.5,58.1c4.5,6.9,8.4,14.3,10.6,22.3
	c4,14.2-4.4,23.2-19.1,20.7c-6.6-1.1-12.8-3.2-18.8-6.1c-20.9-10.4-38.8-24.3-50.7-45c-6.2-10.7-13.2-20.6-22.8-28.7
	c-8.4-7.2-9.2-15.4-4-25.1c2.5-4.5,5.5-8.7,8.1-13.2c3-5.2,4.7-10.6,3.8-17c-3.4-24.8-6-49.8-8.3-74.8c-0.2-1.8,0.3-4.1-2.9-2.7
	c-16.6,7.5-34.9,8.3-52.3,12.5c-39.9,9.7-79.6,20.2-119.3,30.8c-12.7,3.4-26,3.9-38.6,7.7c-4,1.2-7.9,2.6-11.8,4
	c-5.8,2.1-7,1-6.2-5.1c2.5-18.8,4.6-37.6,6.3-56.4c2.7-30.4,3.5-60.8,2.9-91.3c-0.5-26.2-3.3-52.1-7.3-77.9c-0.2-1.4-0.8-2.7-2-4
	c0,4.7-0.1,9.4,0,14.1c0.7,42.3,0.6,84.6,0.2,127c-0.5,61.4-18.9,117.3-52,168.6c-18.5,28.6-46.2,44.1-78,53.1
	c-40.3,11.5-81.7,14.3-123.4,13.3c-5.2-0.1-11-1.6-15.3,0.2c-6.2,2.7-12,1.6-17.9,1.6c-17.7-0.1-35.3-0.5-53-1
	c-5.4-0.2-10.9-1.1-16.3-1.6c-8.4-0.8-13.9-5.9-17.8-12.8c-5.4-9.4-8.4-19.8-10.1-30.4c-0.7-4.5-2-5.4-6.5-4.2
	c-26.7,7.2-54,11.7-81.3,16.2c-25.7,4.2-51.3,8.7-76.9,13.2c-24.8,4.4-49.7,8.6-74.7,11.8c-28.4,3.7-57,5.7-85.6,4.7
	c-21-0.7-41.8-2.5-62.7-4.6c-20.7-2-41.3-4.5-61.8-7.4c-24.1-3.5-48.2-7.3-72.3-11.3c-27.5-4.6-54.8-9.5-82.2-14.6
	c-70.8-13.3-140.9-28.9-208.1-55.8c-16.7-6.7-32.4-15.1-46.3-26.8c-7.2-6-16.2-8.1-25.2-9.7c-27.9-4.8-53.3-16.4-78-29.6
	c-36.3-19.5-70.7-41.7-100.6-70.3c-6.3-6-12-12.5-18-18.7c-3.7-3.8-5.9-8.6-8.7-13c0-1.7,0-3.3,0-5c10-17.1,27.2-23.8,44.5-30.1
	c10.3-3.8,10.2-3.5,6-13.7c-8.3-19.9-12.6-41-18.4-61.7c-4.5-16.1-7.8-32.5-9.4-49.2c-2.7-28,6.6-49.9,29.6-66.5
	c38.4-27.7,78.2-53.3,118.8-77.5c81.2-48.5,164.2-93.6,249.4-134.7c26.8-12.9,55-19.8,84.6-21.6c63.5-4,127.1-5.3,190.8-3.8
	c11.8,0.3,23.6,1.2,35.4,2c7,0.5,13.1-1.2,18.7-5.3c44.5-32.9,94.2-56.8,143-82.1c69.3-35.9,140.3-68.3,212.5-98
	c28.3-11.6,57.4-20.6,87.7-25.4c13-2,26.2-2.7,39.3-3.1c46.8-1.6,93.6-1.7,140.4-0.3c50.3,1.5,100.6,2.6,150.8,4.4
	c37.1,1.3,74.2,3.2,111.3,5c3.8,0.2,4.8-0.8,4.8-4.5c0-11.1-0.5-22.3,2.3-33.2c4.8-18.2,16.3-31.3,31.8-41.1
	c11.9-7.6,24.3-14.3,36.2-21.8c16.1-10.1,29.5-22.6,37-40.6c2.4-5.7,3.9-11.6,5.5-17.5c0.5-1.8,0.3-3.5-1-5.1
	c-5-6.7-9.8-13.4-14.7-20.1c-1.8-2.5-4.4-4-7.2-5.2c-16-6.9-25.5-19.6-31.4-35.5c-0.6-1.6-1.6-3.1,1.2-3.7c1.8-0.4,0.9-1.7,0.3-2.7
	c-8-15.2-7.3-31.4-4.8-47.7c0.3-2.1,0.1-3.1-1.6-4.6c-9.7-8-11.5-18.6-4.6-29.2c7.3-11.2,18.1-18.4,30.2-23.5
	c9.8-4.1,20.3-5.9,30.7-8c1.6-0.3,3.3-0.4,4.8,0.6c-0.9,0.1-1.8,0.2-2.7,0.4c-14.2,2.8-28.2,5.8-40.6,13.7c-8.9,5.7-16,13-18.9,23.5
	c-3,11,3.9,23.4,14.2,24.6c18.7,2.1,36.8,0,54.1-8.2c14-6.7,29-9.9,44.4-9.6c14.3,0.2,26.3,5.4,33.9,18.4c0.7,1.3,2.1,2.1,3,3.3
	c2.7,3.5,5.2,2.7,7.7-0.2c6.6-7.5,7-17.1,0.9-25.1c-4.2-5.5-9.2-10.2-14.9-14c-7.5-5-10.3-11.8-8.8-20.6c1.4-8.1-1.8-14.3-8.1-19.1
	c-2.3-1.7-4.6-3.3-6.8-5.1c-5.9-5.1-5.8-11,0.4-16c1.5-1.2,3.2-2.1,5.1-3.4c-3.2-0.9-5.9,0.5-8.6,0.6c-12.7,0.8-21.7,9.1-23.4,21.5
	c-1.1,7.7-3,10-10.6,11.8c-5.1,1.2-10.3,1.8-15.5,2.5c-0.9,0.1-1.1-1-0.9-1.9c4.8,0,9.6-0.9,14.3-2c4.9-1.1,7.5-4.3,7.7-9.1
	c0.4-12.3,7.7-19,18.4-22.6c8.5-2.9,17.5-3.8,27-3.2c-1.4,2.5-3.9,2.8-5.6,3.9c-7.7,5.1-8.4,11.4-2.1,18.2c0.4,0.5,0.9,1,1.4,1.4
	c9.1,6.4,12.9,15.4,12.8,26.1c0,7.8,3.9,13.5,9.2,18.6c4.1,3.9,8.5,7.5,12.4,11.6c9.7,10.1,5.2,22-1.1,29.1c-0.8,1-2.1,2.1-3.2,2.3
	c-5.3,0.6-5.2,3.4-4.2,7.7c4.4,19.6,1.4,39-2.4,58.3c-2.1,10.9-2,21.4,2,31.8c2.8,7.4,4.8,15,3,22.9c-2.8,12.7-13.2,21.3-27.3,23.1
	c-5.8,0.7-11.6,1.2-17.4,0.6c-1-1.6,0.1-1.6,1.2-1.4c4,0.7,8,0.1,12-0.3c13.6-1.1,24.3-9.9,26.7-22.3c1.5-8.1-0.6-15.8-3.1-23.4
	c-2.6-7.8-4-15.7-2.7-24c0.8-4.8,1.3-9.7,2-14.7c-6.9,5.3-6.9,5.3-10.5,4.2c6.8-2.4,9.3-7.7,10.5-13.7c1.1-6-2.4-9.6-8.1-8.9
	c0.5,1.6,1.1,3.1,1.6,4.7c2.1,7.1-0.8,12.9-7.7,15.5c-4,1.6-7.2,0.7-9.4-2.9c-2.5-4.1-2.4-11.1,0.1-13.3c3.9-3.3,8.2-5.5,13.3-6.1
	c4.8-0.6,9.1,0.5,13.1,5c0.4-10.2,0.9-19.2-0.3-28.3c-0.7-5.1-0.3-11-3.6-14.7c-4-4.4-6.7-9.4-9.7-14.3c-1.4-2.2-2.6-4.9-5.9-4.7
	c-2.7,0.2-5.3-0.4-7.9-1c-17.4-4.1-33.8,0.2-49.5,6.7c-10.5,4.4-21,8.3-32.4,9.5c-2.9,0.3-3.6,1.4-3.1,4.1c3.4,18.4,4.2,37,4.8,55.6
	c0,1.1,0.9,3-0.9,3.4c-1.3,0.3-3,0.3-4.2-0.9c-1-1.1-2-2.2-2.9-3.4c-4.1-5.4-9.9-7-16.3-6.8c-6.1,0.2-7.3,2.5-4.5,7.8
	c5,9.6,12.2,16.9,21.9,21.8c7.1,3.6,13,8.5,17,15.6c2.7,4.8,5.9,9.2,8.9,13.8c6.2,9.6,13.3,18.3,22.2,25.4c1.6,1.3,3.2,2.5,4.8,3.8
	c-10.7-3.9-17.4-12.4-24.5-21.3c-2,8.7-4.1,16.3-7.8,23.4c-1.4,2.8-0.2,3.9,1.8,5.2c6.6,4.5,13.1,9,19.8,13.5
	c2.4,1.6,3.9,3.4,4.1,6.4c0.2,3.3,0.9,6.6,1.4,10.3c2.1-2.1,2.3-4.3,3-6.3c1.7-4.3,1.8-9.6,8-10.6c1.9-0.3,1.3-2.1,1.2-3.3
	c-0.2-4.1,1.7-7.7,1.9-11.7c0.1-1.4,1.2-2,1.9-1.6c2.2,1.2,5.3,0.5,6.7,3.3c-2.2-1.1-3.8-1.1-4.4,1.8c-0.9,4-2.8,7.9-1.5,12.1
	c1.2,3.8,3.1,4.5,6.5,2.5c2-1.2,4-2.5,6.1-3.4c4.8-2,7.6-0.5,6.9,4.4c-0.7,5.5,1.9,7.1,6.2,8.3c9.3,2.7,17,9.3,26.3,12
	c6.2,1.8,12.5,3.5,18.8,5.1c9.3,2.4,16,7.9,21.9,15.5c8.2,10.6,15.8,21.4,19.2,34.6c8,30.5,18.1,60.4,24.6,91.3
	c0.7,3.5,2.5,5.5,5.8,7.1c49.8,24.4,99.7,48.4,151.2,69c17.1,6.8,34.9,8.7,53,9.7c41.8,2.3,83.4,6.5,124.3,16
	c24.1,5.6,46.8,14.4,65.8,31.1c12.3,10.8,18.1,24.5,19.9,40.5c1.4,12.8,1.2,25.6,2.1,38.4C2349.9,664.7,2349.9,677.7,2349.9,690.7z
	 M2270.3,1013.2c-1.7,0.7-3.3,1.5-5.1,2c-4.3,1.1-8.4,3.6-12.9,3.1c-8.5-1-16.4-4-23.3-9.4c-14.6-11.7-24.9-26.5-31.4-44
	c-8-21.8-12.4-44.4-13.9-67.4c-2.2-32.4,0.5-64.4,9.9-95.7c9.3-31,24.8-58.5,45.8-83c10.7-12.5,28.3-19.3,46-7.4
	c8,5.4,13.7,12.2,18.8,20.2c9,14.2,13.9,29.7,15.4,46.2c2.4,25.7,2.5,51.6,1.9,77.4c-0.4,18.6-1.8,37.2-4.6,55.7
	c-1.6,10.6-3.6,21.2-5.3,31.8c3.4-5.1,5.4-10.8,7.5-16.4c7.2-19.5,13.9-39.1,13.3-60.3c-1.1-35.6-4.4-71-12-105.8
	c-4.3-19.9-9.7-39.5-20.6-57.1c-2.5-4.1-5.1-8.2-9.1-11.2c-17.3-13-39-12.2-56.2,1.1c-15.2,11.8-23.8,28.4-31.7,44.7
	c-17.9,37.1-27.3,77.2-36.2,117.2c-5.5,24.6-9.2,49.5-12.9,74.5c-2,13.5-2.5,27,1.1,40.3c2.9,10.7,6.3,21.4,9.2,32.1
	c2.5,9.4,8.3,16.6,15.4,22.8c2.3,2,4.9,3.5,8,3.8c16.4,1.6,32.8,3.7,49.3,2.1c13.3-1.3,25.8-5,34.4-16.3c0-0.4,0.1-0.9,0.1-1.3
	C2271,1012.9,2270.7,1013.1,2270.3,1013.2z M1121.2,400.2c20.6,1.4,41.1,1.2,61.6,1.7c49.8,1.1,99.6,1.8,149.4,3.8
	c30.3,1.3,60.6,2.6,90.8,4.2c32.6,1.7,65,5.4,97.6,6.9c6.6,0.3,13.3,1,19.4,3.8c6.5,3,10,7.9,9.9,15.3c-0.2,8.1-2.1,15.8-4.6,23.3
	c-9.6,29-22.6,56.5-36.5,83.6c-14.8,28.9-30.3,57.5-48.5,84.4c-13.4,19.8-31.1,29.9-56,28.3c-23.9-1.5-47.9-2.7-71.8-4
	c-17.1-0.9-34.2-2-51.3-3.1c-23.6-1.5-47.2-3.1-70.8-4.8c-15.1-1-30.2-2.1-45.3-3.3c-19.9-1.5-39.8-3.1-59.7-4.7
	c-17.4-1.4-34.8-2.8-52.2-4.3c-17.1-1.5-34.1-3.1-51.2-4.6c-15.9-1.4-31.8-2.8-47.7-4.3c-19-1.8-38.1-3.7-57.1-5.8
	c-16-1.7-32-3.7-48-5.5c-18.3-2.1-36.6-4.3-54.9-6.4c-17.8-2.1-35.5-4.4-52-12c-1.9-0.9-3.7-1.1-5.8-0.6c-4.9,1.2-10,1-14.9,0.3
	c-17-2.4-34.1-3.4-51.3-3.5c-51.3-0.5-102.6,0.1-153.8,4c-15.2,1.1-30.4,2.9-45.5,5.4c-22.7,3.8-44.1,11.9-64.4,22.3
	c-82.1,42.2-163.5,85.7-242.5,133.4c-37.4,22.6-74.3,46-109.3,72.1c-13.8,10.3-24.8,22.7-27.2,40.7c-1.6,12-1.2,24,0.9,35.8
	c5.7,32,13.9,63.3,24.7,93.9c1.7,4.8,5.6,10.4,4.3,14.3c-1.4,4.1-8.7,4.2-13.4,6.2c-11.6,5-23.1,10.3-32.1,19.5
	c-7.7,7.9-8,14.7-1.2,23.4c4.7,6.1,10.1,11.5,15.6,16.9c36.1,35.5,78.4,61.8,123.6,83.7c19.8,9.6,40.3,17.6,62.4,20.5
	c7.8,1,15.3,3,21.3,8.7c8.9,8.4,19,15,30.1,20.2c30.4,14.1,62.3,23.8,94.5,32.7c40.4,11.1,81.2,20.1,122.3,28.3
	c29.4,5.8,58.9,11.3,88.5,15.9c21.1,3.3,42.3,6.7,63.5,9.7c18.9,2.7,37.9,5,56.9,7.2c18.5,2.1,37.1,3.8,55.7,4.6
	c23.1,1,46.3,1.2,69.4-0.9c20.8-1.8,41.6-4.6,62.3-7.6c24.7-3.5,49.3-6.6,74-10.4c27.7-4.3,55.3-9,82.7-14.7
	c15.2-3.2,30.4-6.6,45.6-10c6.1-1.3,9.3-5.2,9.9-11.4c0.4-4.6,1.3-9.2,1.8-13.8c2.8-24.8,5.1-49.6,8.3-74.3
	c4.9-37.8,11-75.4,19.9-112.6c14.9-62.6,34.8-123,70.1-177.8c15.6-24.2,34.9-44.7,58.5-59.9c24-15.3,50-27.5,80.2-26.4
	c10.9,0.4,21.9-0.4,32.8,1.2c22.5,3.3,42.7,11.9,59.8,27c21.8,19.2,35.2,43.9,44.5,70.9c14.6,42.4,19.5,86.6,21,131.2
	c0.7,22,0.5,44-1,65.9c-1.2,18.6-3.2,37.1-4.6,55.7c-0.7,9.1-2.1,18.1-3.5,27.5c6.4-2,12.1-4.2,18.1-5.3c10.2-1.8,20.4-3.2,30.4-5.7
	c38.7-9.8,77.1-20.4,115.9-29.7c18.5-4.4,37-9.2,55.5-13.5c4.3-1,5.4-3,4.9-7.2c-0.8-6.8-1.1-13.6-1.3-20.4
	c-0.1-3.5-1.6-3.6-4.3-2.9c-21.8,5.4-43.7,10.8-65.5,16.2c-43.2,10.6-86.4,21.1-129.6,31.8c-2.5,0.6-4,0.4-4.5-2
	c-0.5-2.5,1.8-2.1,3.3-2.5c39-9.6,78-19.3,117-28.8c26.3-6.5,52.7-12.8,79-19.3c1.7-0.4,4.3,0,4.1-3.6c-0.4-7.3-0.1-14.6-0.1-22.1
	c-1.2,0.1-2.3,0.1-3.2,0.3c-13.3,3.4-26.6,6.9-39.8,10.3c-41.8,10.8-83.5,21.6-125.3,32.4c-6.7,1.7-7.6,1-7.6-6.1
	c0-85.1,0-170.3-0.1-255.4c0-4.3-0.4-8.6-0.6-13c-0.1-1.9-0.7-2.4-2.8-1.8c-8.2,2.2-16.4,4-24.6,6c-13.1,3.1-26.2,6.3-39.7,9.6
	c1.4-2.4,3-2.8,4.9-3.2c19.3-4.6,38.6-9.3,57.9-13.9c2.7-0.6,4.4-1.2,3.9-4.8c-3.2-23.5-8.3-46.6-15.5-69.2
	c-5.3-16.7-11.4-33.1-17.7-49.6c3.1-1,4.7-0.3,5.8,2.8c3.6,10.1,7.7,20,11.2,30.2c9.5,27.4,17.5,55.2,20.5,84.2
	c0.5,4.5,2.7,3.8,5.6,3c51.2-12.6,102.4-25.2,153.7-37.7c10.8-2.7,10.8-2.6,9.6-13.7c-0.2-1.8-0.4-3.6-0.6-5.5
	c-2.3-18.6-5.5-37.2-5.4-56c0.1-14.7,1.3-29.2,3.7-43.7c0.3-1.9,1.5-4.6-2.7-3.8c-23.2,4.9-46.6,8.7-70,12.4
	c-19.7,3.2-39.4,5.7-59.1,8.4c-13.5,1.8-27,3.4-40.6,4.8c-9.9,1-19.7,3.6-29.7,1.2c-6.6-1.6-9.6-5.9-8.3-12.4
	c0.6-3.1,1.5-6.1,2.4-9.1c9.8-31.6,24.2-61.2,39.2-90.5c16.9-33,34-66,54.3-97.1c16.3-25,37.9-42.5,68.6-46.4c6.3-0.8,6.2-1.2,4-7.4
	c-3.7-10.1-11.5-18.4-12.8-29.6c-0.3-2.1-2-1.4-3.1-1.4c-33.9-2-67.8-4.2-101.7-5.8c-36.8-1.7-73.6-3-110.4-4
	c-69.1-1.9-138.3-1.4-207.4,0.9c-18.6,0.6-37.1,2.5-55.1,7.8C1147.5,389.8,1134.1,394.3,1121.2,400.2z M745.2,590.3
	c6.5,2.9,13,4.8,19.5,6.3c15.5,3.7,31.4,5.3,47.3,6.7c16.1,1.4,32,3.5,48,5.3c16.5,1.8,33,3.6,49.6,5.3c18.8,2,37.7,3.9,56.6,5.7
	c16.2,1.5,32.5,2.9,48.7,4.3c18.1,1.6,36.1,3.2,54.2,4.7c17.4,1.5,34.8,2.8,52.2,4.2c20.2,1.6,40.5,3.2,60.7,4.8
	c15.9,1.2,31.9,2.2,47.8,3.3c24.1,1.6,48.2,3.2,72.2,4.7c17.8,1.1,35.6,2.1,53.3,3.3c20.1,1.4,40.2,2.6,60.4,2
	c10.8-0.3,19.1-4.8,26.2-12.3c7.7-8.1,14.6-16.8,20.8-26.1c29.5-44.1,52.7-91.5,73-140.4c4.3-10.3,7.6-20.8,9.6-31.7
	c2-11-1.6-16.6-11.7-17.6c-9.6-1-19.2-2.2-28.8-2.9c-31-2.1-62.1-4.4-93.2-6c-39.9-2-79.8-3.8-119.8-4.9
	c-59.6-1.7-119.2-2.9-178.8-4.3c-2.9-0.1-5.5,0.3-8.2,1.4c-92.7,37.6-182.4,81.6-270.5,128.8C803.7,551.3,772.8,567.5,745.2,590.3z
	 M2002.6,707.9c0,1.6,0.2,3.1,0,4.6c-2.8,19.5-6.3,38.9-11.5,58c-13.4,49.4-27,98.8-40.6,148.2c-0.8,2.9-0.8,5.6-0.4,8.4
	c2.4,17.6,4.3,35.3,5.7,53c0.2,3.1,0.9,4,4.1,3.2c9.1-2.5,18.2-4.8,27.3-7.1c7.3-1.9,14.5-3.8,22.1-4.4c-0.1,1.1-0.7,1-1.1,1.1
	c-15.5,4-31,8.2-46.6,11.9c-4,1-5.3,2.5-4.8,6.6c1,7.4,1.5,14.8,2.2,22.1c0.5,0.1,0.7,0.1,0.9,0.1c52.2-12.8,104.3-25.7,156.5-38.5
	c2.3-0.5,5.4-2,6.2,1.6c0.8,3.5-3.3,1.6-4.6,3c-0.2,0.2-0.7,0.1-1,0.1c-51.5,12.7-103.1,25.3-154.6,37.9c-2.5,0.6-3.2,1.5-2.9,4
	c0.6,5.8,1,11.6,1.3,17.4c0.3,6.8,0.3,7,6.6,4.2c15.7-7.1,31.9-12.1,49-15c14.7-2.5,29.7-4.3,43.9-9c14.1-4.7,28.7-7.3,43.3-9.3
	c12.6-1.7,24.7-4.9,35.9-11.3c2.8-1.6,4.2-3.3,4.2-6.5c-0.2-16.2,2.3-32.2,4.3-48.1c3.4-27.3,7.9-54.5,12.6-81.6
	c8.5-48.9,21.1-96.5,45.3-140.4c4.9-8.8,9.8-17.3,15.8-25.3c6.8-9.1,15.8-14.6,26.8-16.9c4.7-1,9.4-2,14.2-2.6
	c13-1.6,24.4,2.8,32.9,12.2c11.4,12.5,17.9,28.1,23.3,44c10.3,30.3,14.6,61.8,17.1,93.8c2.1-5.1,2.3-10.2,2.6-15.3
	c1.6-23.9,3.3-47.8,4.3-71.8c1.8-41.1,3.8-82.2-0.3-123.3c-2.1-20.8-10.9-37.7-29.1-49c-11.2-6.9-22.9-12.6-35.3-17
	c-43.5-15.7-88.9-20.1-134.6-21.7c-27.4-0.9-53.6-4.7-78.6-16.6c-33.2-15.8-67-30.2-100-46.2c-11.4-5.5-22.8-11-34.8-16.8
	c1.4,8.9,3.4,17,3.4,25.3c0,2.9,1.1,4.5,3.5,5.8c8.8,4.9,17.8,9.7,26.3,15.2c11.3,7.2,23.5,13.2,33.4,22.6
	c8.2,7.8,8.2,13.8,0.1,21.6c-7,6.8-15.3,11.7-23.4,16.9c-22.4,14.3-46.4,25.4-70.7,36c-2.2,1-4.7,1.4-4.1,5
	c1.6,10.3,2.5,20.8,4.4,31c5.3,28,11,55.9,16.5,83.8c0.6,3.2,1.4,4.7,5.4,3.7c35.9-9.6,71.9-19,107.9-28.3
	c61.6-16,122.7-33.7,184-50.6c29.8-8.2,59.6-16.3,87.1-31c0.8-0.4,1.6-1.2,2.6-0.1c-1,2-3.1,2.4-4.8,3.3
	c-14.3,7.3-29.1,13.4-44.4,18.2c-45.6,14.3-91.9,25.8-137.9,38.9c-64.5,18.4-129.5,35-194.5,51.8c-3,0.8-3.9,1.7-3.3,4.6
	c7.2,35.4,14.5,70.7,21.4,106.1c4.4,22.8,9.7,45.6,6.7,69.1c-0.1,0.6,0,1.3,1.2,1.4c0.3-0.8,0.8-1.6,1.1-2.5
	c11.2-40.5,22.4-80.9,33.3-121.4c5.5-20.5,9.9-41.2,12.3-62.3C1998.2,711,1998.3,708,2002.6,707.9z M1752.9,577.5
	c-10.7,6.3-21.5,9.1-33.1,4.6c-3.4-1.3-4.3-0.1-5.4,3.1c-6.2,18.3-10.8,37-14.2,56c-5,28.1-7.8,56.4-4.3,85
	c7.8,62.4,17.6,124.6,24.3,187.1c2.2,20.6,3.1,41.1-2.8,61.4c-10.6,36.2-13.2,73.2-11,110.7c1.4,24.3,3.3,48.5,5.2,72.8
	c0.5,6.3,1.4,11.3,8.1,13.9c3.2,1.2,6,3.6,8.9,5.5c4.1,2.6,8.6,3.3,13.4,3.1c4.3-0.3,6.4-1.6,6.6-6.5c0.7-18.7,3-37.2,5.5-55.7
	c6.8-50,16.7-99.4,25.3-149c7.7-44.3,13.5-88.8,15.3-133.9c2-52.9,4-105.9,6-158.8c0.1-2.9,0.4-5.7,1.5-8.3c1.5-3.7,3.9-7,8.3-6.8
	c4.3,0.1,4.6,4.2,5.5,7.3c19,68.8,38.6,137.5,56.3,206.8c3.8,15,9,29.6,10.1,45.2c0.9,12.7-0.3,25.3-1,37.9
	c-0.7,14.2-1.2,28.3,2.2,42.2c13.6,55.2,30.9,109.3,43.7,164.7c0.3,1.4,0.5,2.8,2.5,3.2c6.4,1.2,12.6,3.2,19.1,3.4
	c5.9,0.2,10.8-2.6,15.2-6.5c1.3-1.2,1.4-2.3,1.3-3.9c-2.9-38-5.6-76.1-8.6-114.1c-2-25.9-4.3-51.8-6.6-77.6
	c-2.1-22.9-5.5-45.7-4-68.7c1.1-17.2-1.1-34.2-3.8-51.2c-7.2-45.5-17.9-90.4-26.9-135.5c-8.2-41.2-18.7-82.1-21.9-124.2
	c-0.2-2.3-1.1-3.5-3.3-4.3c-5.4-1.9-10.1-5-14.2-9.1c-1-1-3.4-2.1-1.7-3.9c1.7-1.8,2.9,0.4,4,1.4c4.2,3.7,8.5,7.1,14.5,8.5
	c-0.7-8.3-1.3-16-2-24.6c-7.2,4.5-14.3,7.3-21.8,8.6c-9.8,1.6-19.9,1.7-29.7,3.4c-9.1,1.6-18.3,0.8-27.5-0.9
	c-10.3-1.8-20.9-1.9-31.2-3.6c-18.2-3-36.1-7.4-53.7-13.2c-2.8-0.9-3.8-0.6-4.4,2.7c-1.2,6.7-2.9,13.3-5,19.8c-1,3.3-0.2,4.2,2.8,5
	c9.7,2.7,18.4,0.1,26.9-4.3C1749.3,575,1751.3,574.3,1752.9,577.5z M1697.7,775.8c-56.2,13.8-111.8,27.4-167.3,40.8
	c-2.9,0.7-2.8,2.3-2.5,4.4c1.4,10.3,0.9,20.6,0.9,31c0,78.8,0.1,157.6-0.1,236.5c0,4.4,0.5,5.5,5.3,4.2
	c53.7-14,107.5-27.8,161.3-41.5c3.4-0.9,5-2.1,5.1-5.8c0.2-21.1,5.1-41.3,10.8-61.5c4.8-16.9,8.1-34,6-51.6
	c-2.5-22.1-5.8-44.1-8.5-66.2C1705,836.2,1701.4,806.2,1697.7,775.8z M1467.5,1025.8c0.6-32.2-0.7-65.2-2-98.1
	c-0.3-8.3-0.7-16.7-2.4-24.8c-5.6-26.2-17.4-49.6-34.2-70.4c-14.1-17.5-31.8-30.5-53.6-36.2c-18.3-4.8-36.7-7.2-56.2-3.3
	c-26.2,5.3-51.2,13.3-72.6,28.9c-23.8,17.4-45.5,37.6-57.6,65.8c-0.7,1.7-1.4,3.9-3.3,4.1c-3.1,0.4-3.9,2.7-5.1,4.8
	c-13.7,24.1-24.5,49.5-33.8,75.5c-14.6,41.3-24.8,83.7-32.8,126.7c-5.5,29.4-8.7,59.1-12.1,88.8c-2.1,18.5-4.1,37-6.8,55.4
	c-1,6.7-4,13.6-3.5,19.9c1,13.2,4.7,26.1,12.3,37.3c4,5.9,9.2,9.5,16.5,10.8c4.2,0.7,7.8-0.6,11.7-0.6c26.3-0.1,52.6,0.6,78.9,1.8
	c42.6,1.8,84.7-0.8,126.1-11.4c37.9-9.8,66.7-30.9,85.7-65.3c12.8-23.1,23.6-47,31.8-72c6.4-19.3,11-39,11.8-59.3
	C1467.6,1078.2,1467.8,1052.4,1467.5,1025.8z M1719.6,536.3c0.9-5.2-1.4-9.6-7.9-12.2c-7.7-3.1-13-9-17.1-16.2
	c-8-14-17.1-27.2-23.3-42.4c-5.1-12.4-12.8-23.7-16.1-36.9c-0.6-2.3-1.8-2.4-4-2.2c-28.7,2.8-50.1,17.2-65.4,41
	c-30.7,47.6-57,97.5-80.1,149.1c-6.8,15.2-14.1,30.3-17.6,46.8c-2.3,10.8,2.5,16.7,13.3,15.8c13.4-1.1,26.8-2.4,40.2-4
	c21.6-2.6,43.1-5.4,64.7-8.6c28.2-4.2,56.2-9.3,84.3-14.3c2.2-0.4,3.6-1.1,4.1-4c3.8-22.5,9.1-44.7,15.6-66.6
	C1714.8,567.4,1719.3,553,1719.6,536.3z M1738.7,266.6c-2.2-0.2-2.8,1.5-3.8,2.5c-3.6,3.8-7.3,7.3-11.3,10.6
	c-10.2,8.4-22.1,14-33.7,20.2c-10.3,5.5-20.3,11.3-28.7,19.6c-11.9,11.7-18,26.4-17.7,42.5c0.2,7.5-0.4,15.4,1.5,23.3
	c1.4,6,1.9,12.2,5.1,17.5c2.7,4.5,5.1,8.9,6.8,13.9c2.6,7.9,4.4,16.2,8.1,23.6c10.8,21.7,20.1,44.2,34,64.4
	c4.4,6.3,9.2,11.8,16.1,15.2c11.4,5.6,23,10.5,35.7,11.9c1.2,0.1,2.5,0.2,3.1,1.3c1.3,2.4,3.4,1.8,5.3,1.3
	c27.5-6.4,53.3-17.7,80-26.5c2.3-0.7,1.9-2.2,1.8-3.9c-1-11-5.4-20.7-11.1-30c-2.3-3.7-4.5-5.7-9.1-4.2c-2.8,0.9-5.9,1.1-8.8,1.6
	c-18.5,3.5-36.6,9-55.3,11.9c-4.7,0.7-6.3-1-7.9-4.4c-8.6-17.8-17.4-35.4-25.7-53.2c-8.9-19.2-16.4-38.9-21.4-60.1
	c4.5,3,4,7.6,5.1,11.4c10.1,35.4,26.7,68,43,100.7c1.3,2.5,2.8,2,4.9,1.5c19.9-4.9,39.7-10.5,60.3-12c5-0.4,4.9-2.9,4.5-6.4
	c-1.5-13.6-4.1-26.9-8.1-39.9c-11.5-37.5-30.2-72.7-36.6-112c-0.7-4.3-6.1-6.1-10.2-4.2c-7.8,3.5-15.7,7.1-24.6,7.3
	c-7,0.1-9.5-2.1-7.2-8.6C1737.1,291.2,1734.8,278.5,1738.7,266.6z M2316.5,838.1c0-12.8,0.4-25.7-0.2-38.5c-0.4-9.3,0-18.7-2.2-27.8
	c-3.1-13.2-7.3-25.8-15-37.5c-5.2-7.9-10.4-14.6-18.6-19.5c-11-6.6-20.7-5.1-30.3,2.5c-12.4,9.7-21.4,22.4-29.2,35.6
	c-21.2,35.8-30.9,75.1-32.2,116.6c-0.7,21.8,1.3,43.5,5.1,65c1.8,10.4,3.1,21.5,8.5,30.4c8.1,13.3,16.2,27.1,28.4,37.2
	c16.9,13.9,32.2,17.5,47.9-1.6c0.5-0.6,1.1-1.3,1.6-1.9c12.9-15.7,19.7-34.3,25.2-53.5C2315.6,910.2,2317.4,874.2,2316.5,838.1z
	 M1873.9,436c0.2-17.6-0.2-34.9-2.7-52.1c-1.7-11.6-4-23.1-7.4-34.4c-0.3-1.1-1.2-2.9,0.6-3.4c1.5-0.4,3,0.2,3.6,1.9
	c0.3,0.9,0.6,1.9,0.9,2.8c8,27,10.4,54.7,9.9,82.7c-0.1,4.5,0.9,8,3.8,11.8c10.4,13.6,11,27.2,2.1,38.9c-4.6,6-10.5,10.6-16.8,14.7
	c-12.4,8.1-26.1,13.4-40,18.3c-3.5,1.2-4.8,3.3-5,6.4c-0.2,2.5,0.2,5,0.3,7.5c0.1,2.8,1.5,3.7,4.4,3.9c29.4,1.9,57.9-3.6,85.9-11.8
	c8.6-2.5,13.8-8.8,15.1-17.5c2.4-15.5,2.4-31.2-0.4-46.7c-4.5-25.6-11.7-50.5-18.7-75.4c-4.7-16.7-10.6-33-17.6-49
	c-2.6-6-8.2-9.6-11.2-15.2c-5-9.3-13.1-14.4-23.2-16.4c-7.5-1.5-14.8-3.8-21.9-6.7c-7.2-3-13.6-7.8-21.2-10.1
	c-5.7-1.8-5.5-1.9-4.9,3.8c0.5,4.8,2,9.4,3.1,14.1c1.5,6.9-2.3,10.5-9.2,9.1c-6-1.2-10.9-4.7-16.2-7.4c-1.4-0.7-2.7-2.7-4.5-0.3
	c-1.5,1.9-4.2,2.1-3.5,6.1c3.5,19,9.5,37.1,16.3,55.1c8.6,22.9,18.2,45.4,23.8,69.3c2.3,9.8,3.3,19.8,4.6,29.5
	c13.6-1.6,23.4-7.9,29-20.2c0.3-0.6,0.7-1.1,1-1.7C1859.3,435,1863.8,433.3,1873.9,436z M1877.7,932.4c0.1-6.5-0.6-13-1.6-19.4
	c-2.7-17-8-33.4-12.5-50c-10.5-39.1-21.3-78.1-31.8-117.2c-0.8-2.8-1.5-3.4-4.3-2.6c-7.2,2-14.4,3.8-21.7,5.4
	c-2.5,0.5-3.1,1.6-3.2,4c-0.9,20.8-1.8,41.6-2.9,62.4c-1,19.5-1.8,38.9-3.3,58.3c-1.5,21-4.2,42-7.6,62.8
	c-5,30.3-9.8,60.5-14.7,90.8c-0.5,3.2-0.4,4.2,3.3,3.2c32.2-8.4,64.3-16.6,96.5-24.7c3.5-0.9,4.5-2.5,3.7-5.8
	c-2.5-10.3-2.7-20.8-2-31.3C1876.2,956.3,1877,944.4,1877.7,932.4z M1715.7,1196.6c-0.1,8.3-3.8,15.3-8.4,21.9
	c-1.4,2-2.7,4.2-3.8,6.4c-5,9.8-3.4,17.5,5.2,24.2c5.2,4.1,9.3,9,12.8,14.5c3.1,4.9,6.1,9.9,9.2,14.8c13.9,21.6,33.1,36.5,57.2,45.4
	c4.4,1.6,8.8,3,13.6,2.8c5.5-0.2,8.2-2.9,8.2-8.5c0-6.3-2.3-12-4.6-17.7c-6.6-16.3-17.2-30.3-27.4-44.5
	c-9.6-13.2-19.7-26.2-25.8-41.3c-2.8-7-4.8-11.6-13.8-10.1c-6.2,1-12.2-2.6-17.7-5.7C1719,1198.1,1717.9,1196.7,1715.7,1196.6z
	 M1927.4,1221.7c0.1,0,0.1,0,0.2,0c0,1.7-0.1,3.3,0,5c0.6,12.4,7,19.2,19.3,20.9c5.1,0.7,10.3,1,15.4,0.3
	c11.1-1.5,22.1-3.4,33.2-4.3c24.8-1.9,49.5-3.3,74.3-4.9c2.7-0.2,5.3-0.5,7.8-1.6c5.3-2.4,9.9-7.2,10.2-12c0.2-3.3-6-6.9-11.1-7.8
	c-0.2,0-0.3-0.1-0.5-0.2c-8.9-2.2-17.7-4.5-26.6-6.5c-19.5-4.3-39.2-7.3-58.2-13.9c-6.6-2.3-12.6-5.4-16.9-10.9
	c-1.8-2.2-2.9-1.6-4.7-0.3c-5.9,4.4-12.7,6.3-20.1,6.1c-5.5-0.2-10.9-1.3-16.2-2.7c-1.3-0.3-2.9-1.3-3.2,1.4
	C1929.4,1200.8,1928.4,1211.2,1927.4,1221.7z M1934.7,483.5c-0.6,8.4-0.9,16-1.9,23.6c-1.3,9.6-5.7,16.4-15.5,19.1
	c-6.9,1.8-13.7,3.9-20.6,5.3c-2.8,0.6-3.1,1.7-2.9,3.9c1.4,17.7,2.9,35.5,4.1,53.2c0.3,4.4,1.9,4.1,5.2,2.6
	c18.7-8.2,36.9-17.1,54.8-26.8c12.4-6.7,24.4-14.2,34.5-24.3c6.7-6.7,6.7-11.1,0.3-17.9c-1-1.1-2.1-2.2-3.2-3.2
	C1973.5,504.2,1954.3,494,1934.7,483.5z M1766.7,1093.4c15.2-0.9,30.3-4.7,44.8-10.5c22.9-9.2,46.3-16.8,71-19.2
	c2.5-0.2,4.8-1.1,7.3-1.6c2.2-0.5,2.8-1.3,2-3.7c-2-6.3-3.6-12.7-5.3-19.1c-0.6-2.1-1.3-2.8-3.8-2.2c-37.2,9.3-74.5,18.4-111.7,27.5
	c-2,0.5-3.1,1.1-3.4,3.5c-1,7.7-2.3,15.4-3.6,23.1C1763.7,1093.1,1764,1094.1,1766.7,1093.4z M1768.9,1060.2
	c10.9-2.7,21-5.1,31.1-7.6c27-6.6,53.9-13.4,80.9-19.8c3.2-0.8,3.5-1.8,2.8-4.6c-1.6-6.1-2.9-12.2-4.1-18.4
	c-0.6-3.2-2.2-3.6-4.9-2.8c-3.5,1-7,1.9-10.5,2.8c-28.8,7.4-57.6,14.8-86.5,22.2c-3.2,0.8-4.9,1.9-5.2,5.8
	C1771.9,1044.9,1770.3,1052,1768.9,1060.2z M1816.5,547c0-2.8,1-6.8-0.3-9.9c-1-2.5-5.5-1.2-8.3-2.1c-1.7-0.6-3.5-1-5.1-1.9
	c-7.6-4.1-14.9-3-22.8,0c-11.3,4.4-23.1,6-35.3,3.7c-6.1-1.2-11.6-4.1-17.4-5.8c-1.5-0.5-3.3-1.4-3.2,1.7c0.1,4.3-0.1,8.6-0.3,13
	c-0.1,1.7,0.1,2.6,2.1,3.2c27.8,8.9,56.2,14.9,85.2,17.8c2.8,0.3,3.4-1.1,3.6-3.4C1815.2,558.2,1815.8,553.1,1816.5,547z
	 M1829.1,565.9c9.6,0.7,18.7-3.2,28.2-3.1c11.3,0.1,21.5-3.4,31.3-8.9c1.4-0.8,1.8-1.5,1.7-3c-0.4-4.5-0.9-8.9-1-13.4
	c-0.1-3.4-1.3-4-4.5-3.3c-8.6,1.9-17.3,3-26.1,3.8c-11,1-21.9,1.3-32.9-0.1c-3.4-0.4-5.5,0.1-5.3,4.5c0.3,4.6-0.6,9.3-0.7,13.9
	c0,3.1-2.5,7.2-0.3,8.9C1821.6,566.7,1825.8,565.7,1829.1,565.9z M1858.1,499.4c5.3-2,9.7-4.9,13.9-7.9
	c14.7-10.5,18.2-22.6,11.7-39.5c-2.4-6.3-5.8-12.2-13.1-12.9c-7.2-0.7-11.2,4.8-14.6,10.3c-2.9,4.8-5.4,10-10.2,13.3
	c-2,1.3-0.6,2.3,0.1,3.2C1853.3,475.6,1857.3,486.6,1858.1,499.4z M1728.8,165.5c-0.6-18.8-1.8-36.4-4.5-53.9
	c-0.3-2.2-1.4-2.9-3.7-2.8c-4.8,0.1-9.7,0-14.4-0.5c-7.5-0.9-7.8-1.1-8.8,6.2c-1.6,12.7-1.1,25.2,4.5,37c0.7,1.4,1,3.3,3.2,3.3
	C1714.1,154.7,1721.2,159.2,1728.8,165.5z M1803,740.1c-0.1,0-0.1,0-0.2,0c0,0.7,0.1,1.4,0,2c-1,5.1,1.2,5.3,5.3,4
	c5.8-1.8,11.8-3.2,17.8-4.4c3.4-0.7,4.4-1.9,3.3-5.6c-3.9-14.2-8.6-28.1-11-42.7c-1.3-8-2.6-16-6.1-23.4c-0.8-1.8-1.9-4-4.3-3.3
	c-2,0.6-1.9,2.9-2,4.7C1804.9,694.2,1803.9,717.2,1803,740.1z M1739.1,309.9c7.7-1.5,15.1-4.3,22.5-7.1c3.3-1.2,6.5-2.2,5.5-6.9
	c-0.2-1.1,0.6-2.6,1.4-3.6c1.5-2,1.1-3.4-0.4-5.2c-4.2-5.1-8.1-10.6-12.4-15.6c-2.6-3-5.1-7.9-9.8-6.3c-4.6,1.5-5.2,6.8-6.1,11.2
	c0,0.2,0,0.3,0,0.5c-1.1,9.5-1,19.2-4.6,28.3C1733.8,308.5,1735.2,310.3,1739.1,309.9z M1804.5,310.1c4.4,0,6.1-2.1,4.9-6.3
	c-2.5-9.4-4.1-18.7-1.5-28.3c0.9-3.5-1.3-4.9-4.6-4.2c-1.7,0.4-3.5,1.2-4.8,2.4c-4.2,3.7-8.3,7.6-12.2,11.6c-2.3,2.3-5,4.4-1.1,7.9
	c1.4,1.2,1.2,3.7,0.7,5.7c-0.2,1.1-0.8,2.5,0.5,3.2C1792.4,305.1,1797.9,309.3,1804.5,310.1z M1747.5,1182.5
	c-13.2,5.4-23.3-1.8-34.1-9.1c0.8,6.3,1.5,11.6,2.3,16.8c0.1,0.8,0.5,1.7,1,2.1c8.4,5.8,17.3,10,27.9,7.3c1.8-0.4,3-1,2.9-3.2
	C1747.4,1191.9,1747.5,1187.4,1747.5,1182.5z M1966.5,1170.8c-6.7,5.8-14.1,6.9-22.2,4.9c-2.7-0.7-5.5-1.2-8.3-1.8
	c-7.1-1.6-7.2-1.6-6.3,5.6c0.2,2-0.9,4.7,2,5.6c9.6,2.7,19.2,5.7,29.2,1.4C1970.1,1182.5,1970.8,1180.7,1966.5,1170.8z M1846,505.6
	c3.2-2.9,8.4-1.6,8.2-7.1c-0.5-11.4-4.3-21.7-11.2-30.8c-1.1-1.5-2.2-2.4-4.2-1.8c-2.9,0.9-5.8,1.7-9.1,2.7
	C1838.2,479.4,1843.9,491.2,1846,505.6z M1777.2,304.8c3-0.1,6.5-4.5,6.5-8.3c0-3.2-3.9-6.7-7.5-6.7c-3.1,0-6.6,4.1-6.4,7.7
	C1769.9,301.2,1773.7,305,1777.2,304.8z M1740,263.4c6.9-3.7,10.8-0.4,14.7,3.7c4.2,4.5,8,9.4,11.8,14.2c0.8,1,1.1,2.8,3.1,2.6
	c-0.1-6.4-0.4-12.4-7.5-15.7c-4.5-2-8.4-5.4-12.4-8.3C1744.3,256.1,1744.3,256.1,1740,263.4z M1827.8,161.4c-0.2-3.6-1-6.8-3.4-8
	c-1.8-0.9-4.4,1.2-5.7,2.8c-2.1,2.6-0.8,5.7,0,8.5c1.1,3.5,3.4,4.2,6.4,2C1827.2,165.2,1828.1,163.3,1827.8,161.4z M1778.7,289.1
	c3.9-3.8,6.7-7.1,10-9.6c3.5-2.6,0.9-4-0.6-5.6c-2.2-2.4-4.7-0.4-5.3,0.9C1780.9,278.8,1779,283,1778.7,289.1z M1818.5,521
	c-6.7,1.1-8.6,4-6.6,10.3c0.9,2.8,3.4,2.3,5.3,2.3c2.7,0.1,1.1-2.1,1.2-3.3C1818.6,527.2,1818.5,524.1,1818.5,521z M1806.7,531.7
	c0-1.9-0.1-3.3,0-4.8c0.1-1.6-0.4-2.8-2.2-2c-2.7,1.2-5.8,1.3-8.5,3.5C1799.5,529.5,1802.7,530.5,1806.7,531.7z"/>
<path class="svgfill" d="M2349.9,690.7c0-13,0-26,0-39c0.3,0,0.5,0,0.8,0c0,13,0,26,0,39h-0.4L2349.9,690.7z"/>
<path class="svgfill" d="M1797.2,255.5c-1.4-2.8-4.5-2-6.7-3.3c-0.7-0.4-1.8,0.2-1.9,1.6c-0.2,4-2.1,7.6-1.9,11.7c0,1.2,0.7,3-1.2,3.3
	c-6.2,0.9-6.4,6.2-8,10.6c-0.7,2-0.9,4.2-3,6.3c-0.5-3.7-1.2-7-1.4-10.3c-0.2-3-1.7-4.8-4.1-6.4c-6.6-4.4-13.2-9-19.8-13.4
	c-1.9-1.3-3.2-2.5-1.8-5.2c3.7-7.1,5.8-14.8,7.8-23.4c7.1,8.9,13.9,17.4,24.5,21.3c-1.6-1.3-3.2-2.6-4.8-3.8
	c-9-7.1-16-15.9-22.2-25.4c-3-4.6-6.2-9-8.9-13.8c-4-7.1-9.8-11.9-17-15.6c-9.6-4.9-16.8-12.3-21.9-21.8c-2.8-5.3-1.6-7.6,4.5-7.8
	c6.4-0.2,12.2,1.3,16.3,6.8c0.9,1.2,1.9,2.3,2.9,3.4c1.2,1.2,2.8,1.2,4.2,0.9c1.8-0.4,0.9-2.3,0.9-3.4c-0.6-18.6-1.4-37.2-4.8-55.6
	c-0.5-2.8,0.3-3.9,3.1-4.1c11.4-1.2,21.8-5.1,32.4-9.5c15.8-6.5,32.2-10.7,49.5-6.7c2.6,0.6,5.2,1.3,7.9,1c3.3-0.3,4.5,2.5,5.9,4.7
	c3.1,4.9,5.8,9.8,9.7,14.3c3.3,3.7,2.9,9.6,3.6,14.7c1.2,9.1,0.7,18.1,0.3,28.3c-4-4.5-8.3-5.6-13.1-5c-5.1,0.6-9.4,2.9-13.3,6.1
	c-2.6,2.2-2.7,9.2-0.1,13.3c2.3,3.6,5.4,4.5,9.4,2.9c6.9-2.7,9.8-8.4,7.7-15.5c-0.5-1.6-1.1-3.1-1.6-4.7c5.8-0.7,9.3,2.9,8.1,8.9
	c-1.1,6-3.6,11.3-10.5,13.7c3.6,1.1,3.6,1.1,10.5-4.2c-0.7,5-1.3,9.9-2,14.7c-1.3,8.3,0.1,16.2,2.7,24c2.5,7.6,4.7,15.4,3.1,23.4
	c-2.3,12.3-13.1,21.1-26.7,22.3c-4,0.3-8,0.9-12,0.3c-1-0.2-2.2-0.2-1.2,1.4C1800.6,257.1,1798.9,256.3,1797.2,255.5z M1806.7,216.5
	c0.3,2.4,2.4,4.8,1.1,5.8c-2.3,1.8-5.4,2.4-8.5,2.3c-2.8-0.1-1.1-2.6-1.6-3.9c-0.4-0.9-0.5-2.2-1.7-2.2c-2,0-1.3,1.7-1.2,2.6
	c0.6,3.3-1.1,4.5-3.8,3.4c-2.4-1-7.6,1.4-6.4-4.8c0.3-1.3,1.5-3.9-1-4.1c-2-0.1-1.7,2.4-2,4c-0.1,0.6-0.2,1.2-0.4,2.4
	c-2.8-1.6-5.3-2.9-7.7-4.2c-1.1-0.7-2-1.2-1.2-3.1c0.8-1.8,4.2-4.2,1.3-5.7c-2.1-1-2.4,3.3-4,4.8c-0.2,0.2-0.4,0.3-0.6,0.4
	c-1.7-0.6-2.5-2.7-5.5-2.4c3.5,3,5.3,5.8,2.7,9.6c-0.7,1-0.3,2.1,0.7,2.5c1.3,0.5,1.4-0.9,1.8-1.7c0.7-1.3,0.5-4,2.8-3.1
	c3.1,1.2,6,2.9,8.5,5c1.6,1.3,0.3,3.8,0.2,5.7c-0.1,1.1-0.5,2.6,1.1,2.8c2.4,0.3,1.1-1.8,1.6-2.8c0.7-1.3-0.4-4.7,2.4-3.6
	c4.3,1.5,10.8-0.2,11.8,7c0.1,0.6,1.1,0.6,1.7,0.4c1-1.9-2.3-4.4,0.3-5.6c2.9-1.4,6.3-2.2,9.6-2.3c2.5-0.1,2,3.4,3.4,4.9
	c0.5,0.5,1.2,1.2,2.1,0.7c-2-7.4-1.9-7.2,3.5-9c3.6-1.2,5.7-0.7,5.9,3.5c0.1,0.8,0.6,1.5,0.9,2.3c0.3,0.9,0.8,1.5,1.8,1.2
	c1.3-0.4,1.2-1.2,0.8-2.3c-0.7-1.8-1.1-3.8-1.6-5.6c2-1.3,4.4,0.3,6.5-1.4c-1.3-1.7-3.1-1.7-4.6-1.7c-1.9,0-3.2-0.7-3.7-2.6
	c-0.3-1.2-0.7-2.4-2.2-2c-1.8,0.5-0.8,1.8-0.5,2.8c0.3,0.9,0.9,1.8-0.6,2.3c-3,0.9-6,2.3-9,2.6c-2.1,0.2-1.1-3.2-2.7-4.2
	C1808.5,216.8,1807.9,216.8,1806.7,216.5z M1786.3,166.6c1-4.2-1.9-5.5-3.5-7.3c-5.9-6.7-12.9-10.8-22.3-9.5
	c-6.6,0.9-12.1,6.1-11.8,11.4c0.3,6.1,11.3,16,17.4,15.7c0.7,0,1.4,0.1,1.6-0.8c0.2-0.7-0.2-1.2-0.9-1.5c-2.2-1-4.8-1.3-6.6-3.7
	c4.4-0.1,8.6,0.2,11.7-3.2c3.1-3.5,1.4-7.8,2.1-12.1C1779,158.3,1782.1,162.7,1786.3,166.6z M1796.6,204.2c-0.1,1.6,1.1,2,2,2.6
	c9.9,6.6,22.1,4.3,31.7-5.7c2.6-2.7,2.9-4.2-0.6-6.3c-12.3-7.4-20.5-18.1-24.5-31.9c-0.7-2.5-1.6-5-2.7-7.4
	c-0.7-1.5-2.2-2.1-3.8-1.4c-1.4,0.6-1.3,1.8-0.8,2.9c3.9,9.7,7.3,19.5,14.2,27.7c3.7,4.4,8.1,7.9,12.8,11.1c2.4,1.7,2.3,2.9,0.4,5
	c-6.4,7-15.1,8.6-23.3,4.1C1800.2,203.7,1798.6,203.1,1796.6,204.2z M1740.7,134.6c-0.3,1.6,0.2,3.4,1.6,3.8
	c2.5,0.8,1.8-1.9,2.2-2.9c4-9.5,9.9-12.7,19.7-9.6c5.2,1.6,10.1,4.1,15.1,6.2c1.1,0.5,2.6,1.8,3.4,0.1c0.6-1.4-0.4-2.8-2-3.5
	c-6.4-2.6-12.6-6-19.3-7.6C1749.2,118.1,1743.2,124.4,1740.7,134.6z M1811.2,134.5c3.7,5.8,14.3,8.5,21.2,6.4
	c3.4-1.1,5.5-3.4,6.9-6.6c0.8-1.9-0.3-2.7-1.5-3.6c-1.4-1.1-1.9-0.1-2.7,0.9c-4.6,6.4-7.5,7.4-15.1,5.4
	C1817.3,136.2,1814.7,135.5,1811.2,134.5z"/>
<path class="svgfill" d="M1757.6,37.7c-0.2,0.9,0,2.1,0.9,1.9c5.2-0.7,10.4-1.3,15.5-2.5c7.6-1.8,9.5-4.1,10.6-11.8
	c1.7-12.4,10.7-20.7,23.4-21.5c2.7-0.2,5.4-1.5,8.6-0.6c-1.9,1.2-3.6,2.2-5.1,3.4c-6.2,4.9-6.3,10.8-0.4,15.9
	c2.1,1.9,4.5,3.4,6.8,5.1c6.3,4.8,9.5,11,8.1,19.1c-1.5,8.8,1.3,15.6,8.8,20.6c5.7,3.8,10.7,8.5,14.9,14c6.1,7.9,5.6,17.6-0.9,25.1
	c-2.5,2.9-5,3.7-7.7,0.2c-0.9-1.2-2.3-2.1-3-3.3c-7.6-13-19.7-18.2-33.9-18.4c-15.5-0.3-30.4,2.9-44.4,9.6
	c-17.2,8.2-35.4,10.3-54.1,8.2c-10.3-1.2-17.2-13.6-14.2-24.6c2.9-10.5,10-17.8,18.9-23.5c12.4-7.9,26.5-11,40.6-13.7
	c0.9-0.2,1.8-0.3,2.7-0.4C1754.8,39.3,1755.4,37.4,1757.6,37.7z"/>
<path class="svgfill" d="M1121.2,400.2c12.9-5.8,26.3-10.4,39.9-14.4c18-5.3,36.5-7.2,55.1-7.8c69.1-2.4,138.3-2.8,207.4-0.9
	c36.8,1,73.6,2.3,110.4,4c33.9,1.6,67.8,3.8,101.7,5.8c1.2,0.1,2.9-0.7,3.1,1.4c1.3,11.1,9.2,19.5,12.8,29.6c2.2,6.2,2.4,6.5-4,7.4
	c-30.7,3.9-52.4,21.4-68.6,46.4c-20.3,31.2-37.4,64.1-54.3,97.1c-15,29.3-29.4,58.9-39.2,90.5c-0.9,3-1.8,6-2.4,9.1
	c-1.3,6.5,1.7,10.9,8.3,12.4c10,2.4,19.9-0.2,29.7-1.2c13.5-1.4,27.1-3,40.6-4.8c19.7-2.6,39.5-5.2,59.1-8.4
	c23.4-3.8,46.8-7.6,70-12.4c4.1-0.9,3,1.8,2.7,3.8c-2.4,14.5-3.6,29-3.7,43.7c-0.1,18.9,3.1,37.4,5.4,56c0.2,1.8,0.4,3.6,0.6,5.5
	c1.2,11.1,1.2,11-9.6,13.7c-51.2,12.5-102.5,25.1-153.7,37.7c-2.9,0.7-5.1,1.5-5.6-3c-3-29-10.9-56.8-20.5-84.2
	c-3.5-10.1-7.7-20.1-11.2-30.2c-1.1-3.1-2.6-3.8-5.8-2.8c6.3,16.5,12.4,32.9,17.7,49.6c7.2,22.6,12.3,45.7,15.5,69.2
	c0.5,3.5-1.2,4.1-3.9,4.8c-19.3,4.6-38.6,9.3-57.9,13.9c-1.8,0.4-3.5,0.9-4.9,3.2c13.6-3.3,26.7-6.4,39.7-9.6c8.2-2,16.4-3.8,24.6-6
	c2.1-0.6,2.7-0.1,2.8,1.8c0.2,4.3,0.6,8.6,0.6,13c0.1,85.2,0.1,170.3,0.1,255.4c0,7.1,0.8,7.8,7.6,6.1
	c41.8-10.8,83.6-21.6,125.3-32.4c13.3-3.4,26.6-6.9,39.8-10.3c0.9-0.2,2-0.2,3.2-0.3c0,7.5-0.3,14.8,0.1,22.1
	c0.2,3.6-2.4,3.2-4.1,3.6c-26.3,6.5-52.7,12.9-79,19.3c-39,9.6-78,19.2-117,28.8c-1.5,0.4-3.8-0.1-3.3,2.5c0.5,2.4,2,2.7,4.5,2
	c43.2-10.7,86.4-21.2,129.6-31.8c21.8-5.3,43.7-10.7,65.5-16.2c2.7-0.7,4.2-0.6,4.3,2.9c0.2,6.8,0.6,13.7,1.3,20.4
	c0.5,4.2-0.6,6.2-4.9,7.2c-18.5,4.3-37,9-55.5,13.5c-38.8,9.3-77.3,19.9-115.9,29.7c-10,2.5-20.3,3.9-30.4,5.7
	c-6,1.1-11.8,3.3-18.1,5.3c1.4-9.4,2.8-18.4,3.5-27.5c1.4-18.6,3.4-37.1,4.6-55.7c1.4-21.9,1.7-43.9,1-65.9
	c-1.4-44.6-6.3-88.7-21-131.2c-9.3-26.9-22.6-51.7-44.4-70.9c-17.2-15.1-37.3-23.7-59.8-27c-10.9-1.6-21.9-0.8-32.8-1.2
	c-30.1-1-56.2,11.1-80.1,26.4c-23.7,15.2-42.9,35.7-58.5,59.9c-35.3,54.7-55.2,115.2-70.1,177.8c-8.8,37.1-14.9,74.8-19.8,112.6
	c-3.2,24.7-5.5,49.5-8.3,74.3c-0.5,4.6-1.4,9.2-1.8,13.8c-0.6,6.3-3.7,10.1-9.9,11.4c-15.2,3.3-30.4,6.8-45.6,10
	c-27.4,5.7-55,10.4-82.7,14.7c-24.6,3.8-49.3,6.9-74,10.4c-20.7,2.9-41.5,5.8-62.3,7.6c-23.1,2-46.3,1.9-69.4,0.9
	c-18.6-0.8-37.2-2.4-55.7-4.6c-19-2.2-37.9-4.5-56.9-7.2c-21.2-3-42.3-6.4-63.5-9.7c-29.7-4.6-59.1-10.1-88.5-15.9
	c-41.1-8.1-81.9-17.2-122.3-28.3c-32.2-8.8-64.1-18.6-94.5-32.7c-11.1-5.1-21.2-11.8-30.1-20.2c-6-5.7-13.5-7.6-21.3-8.7
	c-22.1-2.9-42.6-10.9-62.4-20.5c-45.2-21.9-87.5-48.3-123.6-83.7c-5.5-5.4-10.9-10.8-15.6-16.9c-6.8-8.7-6.5-15.5,1.2-23.4
	c9-9.3,20.5-14.5,32.1-19.5c4.7-2,12-2.1,13.4-6.2c1.3-3.8-2.6-9.5-4.3-14.3c-10.8-30.6-19-62-24.7-93.9
	c-2.1-11.8-2.5-23.8-0.9-35.8c2.4-18,13.4-30.4,27.2-40.7c35-26.1,71.9-49.5,109.3-72.1c79-47.8,160.4-91.2,242.5-133.4
	c20.4-10.5,41.7-18.5,64.4-22.3c15.1-2.5,30.3-4.3,45.5-5.4c51.2-3.9,102.5-4.5,153.8-4c17.1,0.2,34.2,1.1,51.3,3.5
	c4.9,0.7,10,0.8,14.9-0.3c2-0.5,3.8-0.3,5.8,0.6c16.5,7.6,34.3,9.9,52,12c18.3,2.2,36.6,4.3,54.9,6.4c16,1.9,32,3.8,48,5.5
	c19,2,38,3.9,57.1,5.8c15.9,1.5,31.8,2.9,47.7,4.3c17.1,1.5,34.1,3.2,51.2,4.6c17.4,1.5,34.8,2.9,52.2,4.3
	c19.9,1.6,39.8,3.2,59.7,4.7c15.1,1.2,30.2,2.2,45.3,3.3c23.6,1.6,47.2,3.2,70.8,4.8c17.1,1.1,34.2,2.3,51.3,3.1
	c23.9,1.2,47.9,2.5,71.8,4c24.9,1.5,42.6-8.5,56-28.3c18.2-27,33.7-55.5,48.5-84.4c13.9-27.1,26.9-54.6,36.5-83.6
	c2.5-7.5,4.5-15.3,4.6-23.3c0.1-7.4-3.3-12.3-9.9-15.3c-6.2-2.8-12.8-3.5-19.4-3.8c-32.6-1.5-65-5.2-97.6-6.9
	c-30.3-1.6-60.6-2.9-90.8-4.2c-49.8-2.1-99.6-2.7-149.4-3.8C1162.3,401.4,1141.8,401.6,1121.2,400.2z M114.3,869.8
	c-0.1-0.3-0.3-0.5-0.5-0.5c-0.5-0.5-0.9-1-1.4-1.4c-0.4-0.3-0.7-0.7-1.1-1c-0.1-0.2-0.3-0.4-0.5-0.5c-0.6-0.6-1.2-1.2-1.8-1.8
	c-0.3-0.3-0.7-0.7-1-1c-1.2-1.5-2.3-3-3.5-4.6c-1.2-1.5-2.3-2.9-3.5-4.4c-7.3-11.2-11.3-23.8-14.6-36.7c0.8,14,5.9,26.3,13.8,37.5
	c1.2,1.5,2.3,3,3.5,4.4c1.2,1.5,2.4,3.1,3.7,4.7c0.1,0.3,0.3,0.5,0.6,0.6c0.6,0.6,1.2,1.2,1.8,1.8c0.3,0.3,0.7,0.7,1,1
	c0.3,0.3,0.7,0.7,1,1c0.3,0.3,0.7,0.7,1,1s0.7,0.7,1,1s0.7,0.7,1,1s0.7,0.7,1,1c0.4,0.5,0.8,0.9,1.3,1.4
	c11.6,11,24.9,19.3,39.1,26.4c41.3,20.7,85.7,31.1,131,38c32.9,5,66.1,7.4,99.3,8.9c43.4,1.9,86.9,2.9,130.4,3.1
	c49.6,0.3,99.3-0.8,148.9-2.9c27.6-1.2,55.2-2.4,82.8-4.2c31-2.1,62.1-4.4,93-7.7c26.1-2.8,52.3-5.1,78.3-8.3
	c30.8-3.8,61.6-7.7,92.3-12.6c37.6-6,74.9-13.5,111.5-24.3c16.7-4.9,33-10.7,49.1-17.2c2.4-1,4.6-1.8,1.8-4.7
	c-1.7-1.7-3.1-0.1-4.4,0.5c-14.6,5.8-29.4,11-44.4,15.6c-60.5,18.3-122.8,27.1-185.2,35.7c-24.3,3.4-48.8,6.2-73.3,8.3
	c-25,2.2-50,4.8-75,6.7c-23.1,1.8-46.2,2.8-69.3,4.3c-34.9,2.3-69.9,3.6-104.8,4.7c-44.3,1.4-88.6,1.5-132.9,1.3
	c-48.3-0.2-96.6-0.9-144.8-5c-33.4-2.9-66.7-7-99.5-14.2c-44.3-9.8-86.8-23.9-122.8-53c-0.6-0.6-1.2-1.2-1.8-1.7
	c-0.3-0.3-0.6-0.6-1-0.9C115,870.4,114.6,870.1,114.3,869.8z M58.8,922.6c0.2,0.4,0.5,0.8,0.7,1.2c0.5,0.3,1,0.5,1.5,0.8
	c-0.5-0.2-1.1-0.5-1.6-0.7c0.9-0.6,0.5-1.2-0.1-1.8c-0.4-0.5-0.7-1.2-1.4-0.3C57.9,921.8,58.5,922.4,58.8,922.6z M680.3,1235.6
	c9.1-0.1,17.4-0.4,25.6-2c6.3-1.2,8.2-4.6,6.3-10.8c-1.4-4.3-3.7-8.1-6.3-11.8c-6.3-9-12.7-17.9-19-26.9
	c-25.6-36.9-55.6-70.5-81.5-107.2c-2-2.8-4.7-5.2-7.3-7.6c-3.6-3.4-8-5.3-12.9-5.8c-6-0.6-12-1-17.9-1.1
	c-35.2-0.6-70.2,1.9-105.4,2.2c-64.3,0.5-128.5,2.7-192.7,5.7c-17,0.8-33.7,3.1-50,8c-1.6,0.5-4.3,0.5-3.6,3
	c0.7,2.3,3.1,1.3,4.8,0.8c18.6-5.6,37.8-7.1,57-7.8c3.7-0.1,4.7,0.6,4.5,4.5c-0.6,12.2,0.7,24.2,4.4,35.9
	c12.3,38,38.2,62.6,75.4,75.6c39,13.7,80.1,17.4,120.6,24c16.4,2.7,32.9,4.5,49.4,6.5c17.2,2,34.3,3.8,51.5,5.6
	c14.2,1.5,28.5,2.7,42.7,4.4C644.3,1233.2,662.7,1235,680.3,1235.6z M180,980.3c0.3,1.3,1,1.2,1.7,1.4c30.3,6.8,61,11.4,91.8,14.8
	c31.3,3.5,62.6,5.7,94.1,7c45.8,1.9,91.6,2.9,137.4,2c32.1-0.6,64.3-1.5,96.3-3.7c21.7-1.5,43.5-2.5,65.3-4.3
	c22.9-1.9,45.7-4.3,68.5-6.8c23.8-2.6,47.6-5.1,71.3-8.3c26.8-3.6,53.5-7.8,80.3-11.7c30.8-4.5,61.5-9.8,92.2-15.4
	c44.1-8,88.1-16.8,131.9-26.7c11.9-2.7,23.8-5.5,35.9-8.3c-1.8-3-3.8-3-6.4-2.4c-39.6,9.4-79.4,17.9-119.3,25.8
	c-51,10.1-102.3,18.9-153.8,26.6c-31,4.7-62.1,8.7-93.3,12.4c-29.4,3.5-58.8,6.8-88.2,9.5c-30.3,2.8-60.7,5.1-91.1,7
	c-40.7,2.5-81.5,3.7-122.3,3.8c-41.5,0.1-82.9-1.1-124.3-3.8c-14.1-0.9-28.2-2.2-42.3-3.6c-17-1.6-34.1-3.3-51.1-5.3
	c-17.3-2-34.6-4.3-51.9-6.6C195.1,982.9,187.7,981.5,180,980.3z M623.3,897.7c1.4,0,2.3,0.1,3.3,0c13.9-1,27.9-2.1,41.8-2.9
	c34-1.9,68.1-3.7,101.9-8c24-3.1,47.7-7.7,70.9-14.7c43.5-13.2,84.5-32.2,124.8-53c20.2-10.4,40.5-20.7,57.9-35.7
	c9.2-8,8.6-14.5-1.9-20.6c-2.1-1.2-4.4-2.2-6.7-3.2c-8.7-3.7-17.7-6.5-26.9-8.6c-28.5-6.6-56.8-7.5-84.8,2.6
	c-17,6.1-33.8,12.6-49.8,20.8c-76.1,38.9-151.6,78.9-226.8,119.3C625.6,894.5,623.9,895.1,623.3,897.7z M693.6,1274.5
	c10.7,0.5,20.8-0.5,31-1.3c21.7-1.6,43.4-3.6,65.1-5.7c17.4-1.6,34.7-3.4,52.1-5.3c21.1-2.4,42.2-5,63.3-7.6
	c22.3-2.7,44.5-5.3,66.7-8.3c28-3.7,55.9-7.9,83.8-11.7c3.1-0.4,4.3-1.3,4.4-4.5c1-36.6,2.7-73.1,6.7-109.6
	c2.6-23.3,7.6-46,15.9-67.9c11-29.1,26.2-56,41.5-83c0.8-1.4,3.4-3.4,0.7-4.9c-2.5-1.4-3.7,1.1-4.8,3c-4.1,7.4-8.2,14.8-12.4,22.1
	c-26.8,46.2-44.6,95.1-47.8,149c-1.7,29.6-3.3,59.1-4.9,88.7c-0.2,3.9-1.9,4.7-4.9,4.9c-16.9,0.9-33.7,3.6-50.5,5.9
	c-26.8,3.6-53.7,7-80.5,10.3c-32.6,4-65.3,8-98,11.7c-26.2,3-52.5,5.6-78.8,8.3c-24.3,2.5-48.5,2.7-72.8,0.5
	c-1.8-0.2-4.1-0.8-4.5,1.6c-0.5,3.1,2.5,2.6,4.2,2.7C677.5,1274,685.8,1275.2,693.6,1274.5z M1254.3,652.6c-0.3-2.1-1.8-2.1-3.6-1.8
	c-3.6,0.6-7.2,1.2-10.8,1.7c-31.2,4.1-62.2,10-92.9,16.5c-46.7,10-93.1,21.5-139.4,33.6c-84.1,21.9-167.3,47-248.3,79
	c-45.3,17.9-89.8,37.4-131.4,63c-1.4,0.9-2.8,1.8-4.2,2.7c-1,0.7-1.2,1.6-0.6,2.6c0.4,0.8,1.4,1.1,2.2,0.8c1.2-0.4,2.5-1,3.5-1.6
	c32.2-19.9,65.9-36.7,100.7-51.5c67.2-28.4,136.7-50.2,206.6-70.9c66.1-19.6,133-36.2,200.4-50.7c28.3-6.1,56.7-12.1,85.3-16.4
	c9.3-1.4,18.7-2.7,28-4.2C1251.6,655.1,1253.9,655.4,1254.3,652.6z M919.5,1135.4c20.9-2,40.4-4.6,59.7-9.3
	c14.8-3.6,26.1-11.7,34.8-23.9c11.4-16,23-31.8,34.4-47.8c17.4-24.5,34.7-49.2,52-73.8c0.8-1.2,2.8-2.3,1-4.2
	c-1.4-1.4-2.9-2.1-4.9-1.1c-0.7,0.4-1.6,0.5-2.4,0.7c-26.3,7.6-52.1,17.5-78.9,23.1c-25.6,5.4-43.2,19.7-54.1,43
	c-13.8,29.6-29.3,58.3-43.8,87.5C915.5,1133.1,917,1135.4,919.5,1135.4z M1048.8,1136c0.1-2.5,0.2-4.8-3.2-4.3
	c-9.3,1.4-18.7,2.8-28,4.3c-16.6,2.5-33.1,5-49.7,7.6c-14.6,2.2-29.2,4-43.5,7.6c-9.3,2.4-15.3,6.8-19.6,15.7
	c-9.9,20.7-21.1,40.9-31.7,61.3c-0.8,1.6-2.7,3.4-1.1,5.4c1.4,1.8,3.3,0.4,5.1,0.1c4.2-0.8,8.5-1.5,12.8-2.2
	c37-6,73.7-12.9,110.2-21.1c15-3.4,28.3-9.3,35.8-24.1C1043.7,1170.5,1047,1153.3,1048.8,1136z M91.4,1053.4
	c-2.4,0.6-2.2,2.9-2.5,4.6c-2.9,15.1-5.4,30.3-8.5,45.4c-0.8,3.6,0,5.1,3.2,6.3c46.2,16.9,92.3,33.9,138.5,50.8
	c1.2,0.5,2.8,1.8,4.2,0.5c1.5-1.5-0.1-2.8-0.7-4c-7-16.1-14.2-32-21-48.1c-2.6-6-6.6-9.9-12.7-12.5c-32.4-13.7-64.7-27.7-97-41.5
	C93.9,1054.3,92.8,1053.9,91.4,1053.4z M1491,775.1c0.6-0.5,2.7,0.2,2.6-1.7c0-1.6-1.9-1.5-3.1-1.8c-19-3.9-38.2-7.1-57.5-8.9
	c-30.1-2.8-60.1-3.2-90.2,0.7c-24.3,3.1-47.8,8.7-70.4,18.2c-26.6,11.2-49.7,27.2-68.8,48.9c-0.8,1-2.9,2-1.3,3.6
	c1.4,1.3,3.1,0.6,4.4-0.8c0.6-0.6,1.1-1.2,1.7-1.9c19.7-22.2,43.6-38.1,71.1-49c28.8-11.4,58.9-16.5,89.7-18.2
	c31.9-1.8,63.5,0.9,94.9,6C1473,771.8,1481.7,773.5,1491,775.1z M163.5,818.5c0.3,1.9,2,2.6,3.1,3.7c13.8,13,29.8,22.8,47.1,30.3
	c49.7,21.7,102.1,32.1,155.9,36c21.7,1.5,43.6,1.3,65.4,0.1c2.2-0.1,4.4-0.4,6.6-0.7c0-0.4-0.1-0.8-0.1-1.2c-2.4,0-4.8-0.1-7.2,0
	c-31,1.9-62,1.4-92.9-2.4c-30.6-3.7-60.7-10.1-90-19.7c-30.5-10-59.5-22.4-83-45.2C167,818.2,165.5,817.2,163.5,818.5z M61,1023.7
	c0.3,0.7,0.6,1.3,0.8,1.9c4.3,9.5,8.6,18.9,12.8,28.4c0.7,1.5,1.4,3.6,3.3,2.7c2.3-1,0.5-2.8-0.1-4.2c-4-9.1-8-18.1-12.1-27.1
	c-0.6-1.3-1.1-2.8-2.7-3.3C61.5,1021.7,60.9,1022.3,61,1023.7z M57.6,920.7c0-0.3,0.2-0.7,0.1-0.8c-7.7-10.4-13.4-21.6-16.8-34.1
	c-0.5-1.8-1.6-3.1-3.8-3.2C38.2,893.1,49.9,914.8,57.6,920.7z"/>
<path class="svgfill" d="M745.2,590.3c27.6-22.8,58.5-39,89.2-55.4c88.1-47.2,177.8-91.1,270.5-128.8c2.7-1.1,5.3-1.5,8.2-1.4
	c59.6,1.4,119.2,2.5,178.8,4.3c40,1.2,79.9,2.9,119.8,4.9c31.1,1.6,62.1,3.8,93.2,6c9.6,0.7,19.2,1.9,28.8,2.9
	c10.1,1.1,13.7,6.7,11.7,17.6c-2,10.9-5.4,21.5-9.6,31.7c-20.3,48.9-43.5,96.3-73,140.4c-6.2,9.3-13.2,18-20.8,26.1
	c-7.1,7.6-15.4,12-26.2,12.3c-20.2,0.6-40.3-0.6-60.4-2c-17.8-1.2-35.6-2.2-53.3-3.3c-24.1-1.5-48.2-3.1-72.2-4.7
	c-15.9-1.1-31.9-2.1-47.8-3.3c-20.2-1.5-40.5-3.2-60.7-4.8c-17.4-1.4-34.8-2.8-52.2-4.2c-18.1-1.5-36.1-3.1-54.2-4.7
	c-16.2-1.4-32.5-2.8-48.7-4.3c-18.9-1.8-37.7-3.7-56.6-5.7c-16.5-1.7-33-3.5-49.6-5.3c-16-1.8-32-3.9-48-5.3
	c-15.9-1.4-31.7-3-47.3-6.7C758.1,595,751.7,593.2,745.2,590.3z"/>
<path class="svgfill" d="M2002.6,707.9c-4.3,0.1-4.4,3.1-4.7,5.6c-2.4,21.1-6.8,41.9-12.3,62.3c-10.9,40.5-22.2,80.9-33.3,121.4
	c-0.3,0.9-0.7,1.7-1.1,2.5c-1.2-0.1-1.3-0.8-1.2-1.4c2.9-23.5-2.3-46.3-6.7-69.1c-6.9-35.4-14.2-70.8-21.4-106.1
	c-0.6-2.9,0.3-3.8,3.3-4.6c65-16.8,130-33.5,194.5-51.8c45.9-13.1,92.3-24.6,137.9-38.9c15.3-4.8,30.1-10.9,44.4-18.2
	c1.7-0.9,3.8-1.3,4.8-3.3c-1-1.2-1.8-0.3-2.6,0.1c-27.5,14.7-57.3,22.8-87.1,31c-61.3,16.9-122.4,34.6-184,50.6
	c-36,9.3-72,18.8-107.9,28.3c-3.9,1-4.7-0.5-5.4-3.7c-5.5-27.9-11.2-55.8-16.5-83.8c-1.9-10.3-2.8-20.7-4.4-31
	c-0.6-3.6,1.9-4.1,4.1-5c24.3-10.6,48.3-21.6,70.7-36c8.1-5.2,16.4-10.2,23.4-16.9c8.1-7.8,8.1-13.8-0.1-21.6
	c-9.8-9.4-22.1-15.3-33.4-22.6c-8.5-5.5-17.4-10.3-26.3-15.2c-2.5-1.4-3.5-3-3.5-5.8c0-8.3-2.1-16.4-3.4-25.3
	c12,5.8,23.4,11.3,34.8,16.8c33,16.1,66.8,30.4,100,46.2c25,11.9,51.1,15.6,78.6,16.6c45.6,1.6,91.1,6,134.6,21.7
	c12.3,4.4,24.1,10.1,35.3,17c18.2,11.3,27,28.3,29.1,49c4.1,41.1,2.1,82.2,0.3,123.3c-1,24-2.8,47.8-4.3,71.8
	c-0.3,5-0.5,10.2-2.6,15.3c-2.5-32.1-6.7-63.5-17.1-93.8c-5.4-16-11.9-31.5-23.3-44c-8.5-9.4-19.9-13.8-32.9-12.2
	c-4.8,0.6-9.5,1.6-14.2,2.6c-11,2.3-20,7.8-26.8,16.9c-6,8-11,16.5-15.8,25.3c-24.2,43.9-36.8,91.4-45.3,140.4
	c-4.7,27.1-9.2,54.3-12.6,81.6c-2,16-4.5,32-4.3,48.1c0,3.2-1.4,4.9-4.2,6.5c-11.2,6.4-23.3,9.6-35.9,11.3
	c-14.7,2-29.2,4.7-43.3,9.3c-14.3,4.8-29.2,6.5-43.9,9c-17.1,2.9-33.3,7.9-49,15c-6.3,2.8-6.3,2.6-6.6-4.2
	c-0.3-5.8-0.6-11.6-1.3-17.4c-0.3-2.5,0.4-3.4,2.9-4c51.6-12.6,103.1-25.3,154.6-37.9c0.3-0.1,0.8,0,1-0.1c1.3-1.5,5.3,0.5,4.6-3
	c-0.8-3.6-4-2.2-6.2-1.6c-52.2,12.8-104.4,25.6-156.5,38.5c-0.2,0-0.3,0-0.9-0.1c-0.7-7.3-1.2-14.7-2.2-22.1
	c-0.5-4.1,0.8-5.6,4.8-6.6c15.6-3.8,31.1-7.9,46.6-11.9c0.4-0.1,1,0,1.1-1.1c-7.6,0.6-14.8,2.6-22.1,4.4c-9.1,2.3-18.3,4.6-27.3,7.1
	c-3.2,0.9-3.9,0-4.1-3.2c-1.4-17.7-3.2-35.4-5.7-53c-0.4-2.8-0.3-5.5,0.4-8.4c13.6-49.4,27.2-98.8,40.6-148.2
	c5.2-19,8.7-38.4,11.5-58C2002.8,711,2002.6,709.5,2002.6,707.9z M2076.1,543.6c-11.4,0.3-22.1,2.3-32.3,6.4
	c-2.9,1.1-3.7,2.4-2.2,5.5c12.4,25.4,24.7,50.9,36.8,76.4c1.9,4.1,4.1,3.7,6.8,1.3c9.6-8.5,18.3-17.9,25.3-28.7
	c3.3-5,5.9-10.3,7.7-16.1c4.6-15-0.9-29.6-14.4-37.7C2095.2,545.5,2085.6,544,2076.1,543.6z M2024.9,967.3c2.1,0.7,3.4,0.3,4.6-0.1
	c7.1-1.8,7.1-1.8,7.1-9.3c0-27-0.1-53.9-0.1-80.9c0-2.7-0.3-5.4,0.1-8c0.5-2.8,4.4-2,5.8-4.3c-1.8-0.3-3.3,0.4-4.7,0.4
	c-5.3-0.1-6.4,2.5-6.3,7.4c0.4,11,0.1,22,0.1,33c0,15.6-0.1,31.3,0.9,46.9C2032.8,958.1,2032.3,964.2,2024.9,967.3z M2154.9,844.4
	c-0.1-0.6-0.1-1.2-0.2-1.8c-33.8,6.5-67.6,13.1-101.4,19.6C2087.5,858.1,2121,850.3,2154.9,844.4z"/>
<path class="svgfill" d="M1752.9,577.5c-1.6-3.2-3.6-2.5-5.9-1.3c-8.5,4.4-17.2,7-26.9,4.3c-3-0.8-3.8-1.8-2.8-5
	c2.1-6.5,3.7-13.1,5-19.8c0.6-3.3,1.6-3.6,4.4-2.7c17.6,5.7,35.5,10.1,53.7,13.2c10.4,1.7,21,1.8,31.2,3.6
	c9.3,1.6,18.4,2.5,27.5,0.9c9.9-1.8,19.9-1.8,29.7-3.4c7.6-1.3,14.7-4,21.8-8.6c0.7,8.6,1.4,16.3,2,24.6c-6-1.4-10.3-4.8-14.5-8.5
	c-1.2-1-2.3-3.2-4-1.4c-1.7,1.8,0.7,2.9,1.7,3.9c4.1,4,8.8,7.2,14.2,9.1c2.3,0.8,3.1,2,3.3,4.3c3.2,42.1,13.7,83,21.9,124.2
	c9,45.2,19.7,90,26.9,135.5c2.7,17,4.9,34,3.8,51.2c-1.5,23.1,1.9,45.9,4,68.7c2.3,25.9,4.6,51.8,6.6,77.7c3,38,5.7,76,8.6,114.1
	c0.1,1.6,0,2.8-1.3,4c-4.4,3.9-9.3,6.7-15.2,6.5c-6.5-0.2-12.8-2.2-19.1-3.4c-2-0.4-2.2-1.8-2.5-3.2
	c-12.8-55.4-30.2-109.6-43.7-164.7c-3.4-13.9-2.9-28.1-2.2-42.2c0.7-12.6,1.9-25.2,1-37.9c-1.1-15.6-6.3-30.2-10.1-45.2
	c-17.7-69.2-37.3-137.9-56.3-206.8c-0.8-3.1-1.1-7.2-5.5-7.3c-4.4-0.1-6.8,3.1-8.3,6.8c-1.1,2.6-1.4,5.5-1.5,8.3
	c-2,52.9-4,105.9-6,158.8c-1.7,45-7.5,89.5-15.3,133.9c-8.7,49.6-18.6,99.1-25.3,149c-2.5,18.5-4.8,37-5.5,55.7
	c-0.2,4.8-2.3,6.2-6.6,6.5c-4.8,0.3-9.3-0.5-13.4-3.1c-3-1.9-5.7-4.3-8.9-5.5c-6.7-2.6-7.6-7.6-8.1-13.9
	c-1.9-24.2-3.8-48.5-5.2-72.8c-2.1-37.5,0.4-74.5,11-110.7c5.9-20.3,5-40.8,2.8-61.4c-6.7-62.6-16.6-124.7-24.3-187.1
	c-3.6-28.6-0.8-56.8,4.3-85c3.4-19,7.9-37.7,14.2-56c1.1-3.2,2-4.4,5.4-3.1C1731.4,586.6,1742.3,583.8,1752.9,577.5z"/>
<path class="svgfill" d="M1697.7,775.8c3.7,30.3,7.3,60.3,11.1,90.3c2.8,22.1,6,44.1,8.6,66.2c2,17.6-1.3,34.8-6,51.6
	c-5.7,20.1-10.7,40.4-10.8,61.5c0,3.7-1.7,4.9-5.1,5.8c-53.8,13.7-107.6,27.5-161.3,41.5c-4.8,1.3-5.3,0.2-5.3-4.2
	c0.1-78.8,0.1-157.6,0.1-236.5c0-10.3,0.5-20.7-0.9-31c-0.3-2.1-0.4-3.7,2.5-4.4C1586,803.2,1641.5,789.6,1697.7,775.8z"/>
<path class="svgfill" d="M1467.5,1025.8c0.3,26.6,0.1,52.4-1,78.2c-0.8,20.3-5.5,40-11.8,59.3c-8.3,25-19.1,49-31.8,72
	c-19,34.4-47.8,55.5-85.7,65.3c-41.5,10.7-83.6,13.2-126.1,11.4c-26.3-1.1-52.6-1.8-78.9-1.8c-3.9,0-7.6,1.4-11.7,0.6
	c-7.3-1.3-12.6-4.9-16.5-10.8c-7.6-11.3-11.3-24.2-12.3-37.3c-0.5-6.3,2.5-13.2,3.5-19.9c2.7-18.4,4.7-36.9,6.8-55.4
	c3.4-29.7,6.6-59.4,12.1-88.8c8-43,18.2-85.4,32.8-126.7c9.2-26.1,20.1-51.5,33.8-75.5c1.2-2.1,1.9-4.4,5-4.8
	c1.9-0.2,2.6-2.5,3.3-4.1c12.1-28.1,33.8-48.3,57.6-65.8c21.4-15.6,46.4-23.6,72.6-28.9c19.5-3.9,37.9-1.6,56.2,3.3
	c21.8,5.8,39.5,18.7,53.6,36.2c16.8,20.8,28.6,44.2,34.2,70.4c1.7,8.1,2.1,16.5,2.4,24.8C1466.8,960.6,1468.1,993.6,1467.5,1025.8z
	 M1158.7,1086.6c0.8,17.6,1.8,37.2,4.9,56.6c4.4,28.2,13.7,54.4,29.8,78.2c37.2,55.1,111.8,71.8,169.3,31.8
	c30.6-21.3,53.2-48.8,68.1-82.8c17-38.6,22.6-79.5,23.8-121.2c0.4-15.3-1.1-30.6-1.3-45.9c-0.2-15-6.4-29.7-1.8-44.8
	c-3-10.2-2.1-21.4-6.7-31.1c-8.4-17.5-16.2-35.4-28.8-50.5c-5.7-6.8-11.7-13.2-16.8-20.4c-5.6-7.9-12.1-14.5-20.7-19.1
	c-7.2-3.8-14.3-7.9-21.5-11.7c-5.7-3-12-2.7-18.1-3.7c-11-2-21.8-2.4-32.6,0.3c-29.3,7.2-54.2,22.2-75.6,43.1
	c-25.4,24.7-41.7,55.1-53,88.4C1163.4,996.2,1158.5,1040,1158.7,1086.6z"/>
<path class="svgfill" d="M1719.6,536.3c-0.3,16.6-4.9,31.1-9.2,45.5c-6.6,21.9-11.8,44.1-15.6,66.6c-0.5,2.9-1.9,3.6-4.1,4
	c-28.1,5-56.1,10.1-84.3,14.3c-21.5,3.2-43.1,6-64.7,8.6c-13.4,1.6-26.8,2.9-40.2,4c-10.8,0.9-15.6-5-13.3-15.8
	c3.5-16.5,10.8-31.6,17.6-46.8c23.1-51.6,49.4-101.6,80-149.1c15.4-23.9,36.8-38.2,65.4-41c2.2-0.2,3.4-0.2,4,2.2
	c3.3,13.2,11,24.5,16.1,36.9c6.2,15.1,15.3,28.4,23.3,42.4c4.1,7.2,9.4,13.1,17.1,16.2C1718.2,526.8,1720.6,531.1,1719.6,536.3z"/>
<path class="svgfill" d="M1738.7,266.6c-3.9,11.9-1.6,24.6-5.8,36.6c-2.3,6.6,0.2,8.7,7.2,8.6c8.9-0.1,16.7-3.7,24.6-7.3
	c4.1-1.8,9.5-0.1,10.2,4.2c6.4,39.3,25.1,74.5,36.6,112c4,13,6.6,26.3,8.1,39.9c0.4,3.6,0.4,6.1-4.5,6.4c-20.6,1.5-40.4,7.1-60.3,12
	c-2.1,0.5-3.6,1-4.9-1.5c-16.2-32.8-32.8-65.3-43-100.7c-1.1-3.8-0.6-8.4-5.1-11.4c5,21.2,12.6,40.9,21.4,60.1
	c8.3,17.9,17.1,35.5,25.7,53.2c1.6,3.4,3.2,5.1,7.9,4.4c18.7-2.9,36.8-8.4,55.3-11.9c2.9-0.5,6-0.7,8.8-1.6c4.5-1.5,6.8,0.5,9.1,4.2
	c5.7,9.3,10.1,19,11.1,30c0.2,1.7,0.5,3.2-1.8,3.9c-26.7,8.8-52.5,20.1-80,26.5c-1.8,0.4-3.9,1.1-5.3-1.3c-0.6-1.1-1.9-1.2-3.1-1.3
	c-12.8-1.4-24.4-6.3-35.7-11.9c-6.9-3.4-11.8-8.9-16.1-15.2c-13.9-20.1-23.2-42.6-34-64.4c-3.7-7.4-5.5-15.7-8.1-23.6
	c-1.6-4.9-4.1-9.4-6.8-13.9c-3.2-5.3-3.7-11.5-5.1-17.5c-1.8-7.9-1.3-15.8-1.4-23.3c-0.3-16,5.8-30.8,17.7-42.5
	c8.4-8.3,18.4-14.1,28.7-19.6c11.5-6.2,23.4-11.8,33.7-20.2c4-3.3,7.7-6.9,11.3-10.6C1735.8,268.1,1736.4,266.4,1738.7,266.6z"/>
<path class="svgfill" d="M2316.5,838.1c0.9,36.1-0.9,72.1-10.9,107.1c-5.5,19.2-12.4,37.8-25.2,53.5c-0.5,0.6-1.1,1.3-1.6,1.9
	c-15.7,19-31,15.4-47.9,1.6c-12.2-10-20.3-23.9-28.4-37.2c-5.5-8.9-6.7-20-8.5-30.4c-3.7-21.5-5.8-43.2-5.1-65
	c1.4-41.4,11-80.8,32.2-116.6c7.8-13.2,16.8-25.9,29.2-35.6c9.7-7.6,19.3-9.1,30.3-2.5c8.2,4.9,13.4,11.6,18.6,19.5
	c7.7,11.7,11.9,24.2,15,37.5c2.2,9.1,1.8,18.5,2.2,27.8C2316.9,812.4,2316.5,825.3,2316.5,838.1z"/>
<path class="svgfill" d="M1873.9,436c-10-2.7-14.6-1-20,7.2c-0.4,0.6-0.8,1.1-1,1.7c-5.6,12.3-15.4,18.6-29,20.2
	c-1.3-9.7-2.3-19.7-4.6-29.5c-5.6-23.9-15.2-46.4-23.8-69.3c-6.8-18-12.8-36.1-16.3-55.1c-0.7-3.9,2-4.2,3.5-6.1
	c1.9-2.4,3.1-0.4,4.5,0.3c5.3,2.7,10.2,6.2,16.2,7.4c7,1.4,10.7-2.1,9.2-9.1c-1-4.7-2.5-9.3-3.1-14c-0.7-5.7-0.8-5.6,4.9-3.8
	c7.6,2.3,13.9,7.1,21.2,10.1c7.1,3,14.4,5.2,21.9,6.7c10.2,2.1,18.2,7.1,23.2,16.4c3,5.6,8.6,9.2,11.2,15.2
	c6.9,16,12.9,32.2,17.6,49c7,25,14.2,49.9,18.7,75.4c2.8,15.5,2.7,31.1,0.4,46.7c-1.3,8.7-6.5,15-15.1,17.5
	c-28,8.2-56.4,13.7-85.9,11.8c-2.9-0.2-4.3-1-4.4-3.9c-0.1-2.5-0.4-5-0.3-7.5c0.2-3.1,1.4-5.2,5-6.4c13.9-4.9,27.6-10.2,40-18.3
	c6.3-4.1,12.2-8.7,16.8-14.7c8.9-11.7,8.4-25.3-2.1-38.9c-2.9-3.7-3.9-7.3-3.8-11.8c0.6-28-1.9-55.7-9.9-82.7
	c-0.3-0.9-0.5-1.9-0.9-2.8c-0.6-1.7-2.1-2.3-3.6-1.9c-1.8,0.6-1,2.3-0.6,3.4c3.4,11.3,5.7,22.8,7.4,34.4
	C1873.7,401.1,1874.1,418.4,1873.9,436z"/>
<path class="svgfill" d="M1877.7,932.4c-0.7,12-1.5,23.9-2.2,35.9c-0.6,10.5-0.4,21,2.1,31.3c0.8,3.3-0.2,4.9-3.7,5.8
	c-32.2,8.1-64.4,16.4-96.6,24.7c-3.7,1-3.8,0-3.3-3.2c5-30.3,9.8-60.5,14.7-90.8c3.4-20.8,6.1-41.8,7.6-62.8
	c1.4-19.4,2.3-38.9,3.3-58.3c1.1-20.8,2-41.6,2.9-62.4c0.1-2.4,0.7-3.4,3.2-4c7.3-1.6,14.5-3.4,21.7-5.4c2.8-0.8,3.6-0.2,4.3,2.6
	c10.5,39.1,21.2,78.1,31.8,117.2c4.5,16.6,9.8,33,12.5,50C1877.1,919.5,1877.9,925.9,1877.7,932.4z"/>
<path class="svgfill" d="M2271.3,1014.1c-8.7,11.3-21.1,15-34.4,16.3c-16.5,1.6-32.9-0.5-49.3-2.1c-3.1-0.3-5.7-1.8-8-3.8
	c-7.1-6.2-12.9-13.4-15.4-22.8c-2.9-10.8-6.3-21.4-9.2-32.1c-3.6-13.3-3.1-26.8-1.1-40.3c3.7-24.9,7.4-49.8,12.9-74.5
	c8.9-40,18.3-80.1,36.2-117.2c7.9-16.3,16.5-32.9,31.7-44.7c17.2-13.3,38.9-14.1,56.2-1.1c4,3,6.5,7.1,9.1,11.2
	c10.9,17.6,16.3,37.2,20.6,57.1c7.6,34.8,10.9,70.2,12,105.8c0.7,21.2-6.1,40.8-13.3,60.3c-2.1,5.6-4.1,11.3-7.5,16.4
	c1.8-10.7,3.7-21.2,5.3-31.8c2.8-18.5,4.2-37,4.6-55.7c0.6-25.8,0.5-51.7-1.9-77.4c-1.5-16.5-6.4-32-15.4-46.2
	c-5.1-8-10.8-14.8-18.8-20.2c-17.7-11.9-35.3-5-46,7.4c-21,24.5-36.6,52-45.8,83c-9.3,31.3-12,63.3-9.9,95.7
	c1.5,23,5.9,45.7,13.9,67.4c6.4,17.5,16.7,32.3,31.4,44c6.8,5.5,14.7,8.4,23.3,9.4c4.5,0.5,8.6-2,12.9-3.1c1.7-0.4,3.4-1.3,5.1-2
	C2270.6,1013.5,2271,1013.8,2271.3,1014.1z"/>
<path class="svgfill" d="M1715.7,1196.6c2.2,0,3.3,1.5,4.7,2.2c5.6,3.2,11.5,6.8,17.7,5.7c9-1.5,11,3.1,13.8,10.1
	c6.1,15.2,16.3,28.1,25.8,41.3c10.2,14.2,20.7,28.1,27.4,44.5c2.3,5.7,4.6,11.5,4.6,17.7c0,5.6-2.7,8.3-8.2,8.5
	c-4.8,0.2-9.2-1.2-13.6-2.8c-24-8.9-43.3-23.8-57.2-45.4c-3.1-4.9-6.1-9.9-9.2-14.8c-3.5-5.5-7.6-10.4-12.8-14.5
	c-8.6-6.7-10.2-14.5-5.2-24.2c1.1-2.2,2.4-4.4,3.8-6.4C1711.9,1211.9,1715.6,1205,1715.7,1196.6z"/>
<path class="svgfill" d="M1927.4,1221.7c1-10.4,2-20.9,2.9-31.3c0.2-2.7,1.8-1.7,3.2-1.4c5.3,1.4,10.7,2.5,16.2,2.7
	c7.4,0.2,14.2-1.7,20.1-6.1c1.8-1.3,2.9-2,4.7,0.3c4.4,5.5,10.4,8.6,16.9,10.9c18.9,6.6,38.7,9.5,58.2,13.9c8.9,2,17.8,4.3,26.6,6.5
	c0.2,0,0.3,0.1,0.5,0.2c5.1,0.9,11.3,4.6,11.1,7.8c-0.4,4.7-4.9,9.6-10.2,12c-2.4,1.1-5.1,1.4-7.8,1.6c-24.8,1.6-49.6,3-74.3,4.9
	c-11.1,0.9-22.1,2.8-33.2,4.3c-5.2,0.7-10.3,0.4-15.4-0.3c-12.3-1.7-18.6-8.5-19.3-20.9c-0.1-1.7,0-3.3,0-5
	C1927.6,1221.7,1927.5,1221.7,1927.4,1221.7z"/>
<path class="svgfill" d="M1934.7,483.5c19.6,10.5,38.8,20.7,54.9,35.6c1.1,1,2.2,2.1,3.2,3.2c6.4,6.8,6.4,11.2-0.3,17.9
	c-10.1,10.1-22.1,17.6-34.5,24.3c-17.9,9.7-36.2,18.6-54.8,26.8c-3.3,1.5-4.9,1.7-5.2-2.6c-1.3-17.8-2.7-35.5-4.1-53.2
	c-0.2-2.3,0.2-3.4,2.9-3.9c6.9-1.4,13.8-3.5,20.6-5.3c9.8-2.6,14.2-9.4,15.5-19.1C1933.8,499.5,1934.1,491.9,1934.7,483.5z"/>
<path class="svgfill" d="M1766.7,1093.4c-2.7,0.7-3-0.3-2.7-2.3c1.3-7.7,2.6-15.4,3.6-23.1c0.3-2.3,1.3-2.9,3.4-3.4
	c37.3-9.1,74.5-18.2,111.7-27.5c2.6-0.6,3.3,0.1,3.8,2.2c1.7,6.4,3.3,12.8,5.3,19.1c0.8,2.5,0.2,3.3-2,3.7c-2.4,0.5-4.8,1.4-7.3,1.6
	c-24.8,2.3-48.1,10-71,19.2C1797.1,1088.7,1781.9,1092.5,1766.7,1093.4z"/>
<path class="svgfill" d="M1768.9,1060.2c1.4-8.2,3-15.3,3.6-22.5c0.3-3.9,2-5,5.2-5.8c28.8-7.3,57.7-14.8,86.5-22.2
	c3.5-0.9,7.1-1.8,10.5-2.8c2.7-0.8,4.3-0.3,4.9,2.8c1.2,6.2,2.5,12.3,4.1,18.4c0.7,2.8,0.4,3.8-2.8,4.6c-27,6.5-54,13.2-80.9,19.8
	C1789.9,1055,1779.8,1057.5,1768.9,1060.2z"/>
<path class="svgfill" d="M1816.5,547c-0.7,6-1.3,11.1-1.8,16.3c-0.2,2.2-0.8,3.7-3.6,3.4c-29-2.9-57.4-8.9-85.2-17.8
	c-2-0.6-2.1-1.6-2.1-3.2c0.2-4.3,0.4-8.6,0.3-13c-0.1-3.1,1.8-2.2,3.2-1.7c5.9,1.8,11.3,4.6,17.4,5.8c12.2,2.4,24,0.7,35.3-3.7
	c7.9-3,15.1-4.1,22.8,0c1.6,0.8,3.4,1.3,5.1,1.9c2.8,0.9,7.2-0.4,8.3,2.1C1817.4,540.2,1816.5,544.3,1816.5,547z"/>
<path class="svgfill" d="M1829.1,565.9c-3.3-0.1-7.5,0.9-9.7-0.8c-2.2-1.7,0.3-5.8,0.3-8.9c0.1-4.7,0.9-9.3,0.7-13.9
	c-0.2-4.4,1.9-4.9,5.3-4.5c11,1.3,21.9,1,32.9,0.1c8.8-0.8,17.5-1.9,26.1-3.8c3.2-0.7,4.4-0.1,4.5,3.3c0.1,4.5,0.6,9,1.1,13.4
	c0.1,1.5-0.3,2.2-1.7,3c-9.7,5.5-19.9,9-31.3,8.9C1847.8,562.7,1838.7,566.5,1829.1,565.9z"/>
<path class="svgfill" d="M1858.1,499.4c-0.8-12.7-4.8-23.7-12.1-33.5c-0.7-0.9-2.1-1.9-0.1-3.2c4.9-3.3,7.3-8.5,10.2-13.3
	c3.4-5.5,7.3-11,14.6-10.3c7.3,0.7,10.6,6.6,13.1,12.9c6.5,16.9,3,29-11.7,39.5C1867.8,494.5,1863.4,497.3,1858.1,499.4z"/>
<path class="svgfill" d="M1728.8,165.5c-7.6-6.3-14.7-10.8-23.7-10.8c-2.2,0-2.5-1.9-3.2-3.3c-5.6-11.8-6.2-24.3-4.5-37
	c0.9-7.2,1.2-7,8.8-6.2c4.8,0.5,9.6,0.6,14.4,0.5c2.3,0,3.3,0.6,3.7,2.8C1727,129.1,1728.2,146.7,1728.8,165.5z"/>
<path class="svgfill" d="M1803,740.1c0.9-22.9,1.8-45.9,2.8-68.8c0.1-1.8-0.1-4.1,2-4.7c2.4-0.7,3.5,1.5,4.3,3.3
	c3.6,7.4,4.8,15.5,6.1,23.4c2.5,14.5,7.2,28.5,11,42.7c1,3.8,0.1,4.9-3.3,5.6c-6,1.3-12,2.6-17.8,4.4c-4.1,1.3-6.3,1.1-5.3-4
	c0.1-0.6,0-1.3,0-2C1802.9,740.1,1803,740.1,1803,740.1z"/>
<path class="svgfill" d="M1739.1,309.9c-3.9,0.4-5.3-1.4-4-4.7c3.7-9.1,3.5-18.8,4.6-28.3c0-0.2,0-0.3,0-0.5c0.9-4.4,1.5-9.7,6.1-11.2
	c4.7-1.5,7.2,3.3,9.8,6.3c4.3,5.1,8.2,10.5,12.4,15.6c1.5,1.8,1.9,3.2,0.4,5.2c-0.8,1-1.6,2.5-1.4,3.6c1,4.8-2.2,5.7-5.5,6.9
	C1754.2,305.5,1746.8,308.3,1739.1,309.9z"/>
<path class="svgfill" d="M1804.5,310.1c-6.6-0.8-12.1-5-18.1-8.1c-1.3-0.7-0.7-2.1-0.5-3.2c0.4-2,0.7-4.5-0.7-5.7
	c-3.9-3.4-1.2-5.6,1.1-7.9c4-4,8-7.9,12.2-11.6c1.3-1.1,3.1-2,4.8-2.4c3.3-0.8,5.5,0.7,4.6,4.2c-2.6,9.7-1,19,1.5,28.4
	C1810.5,308,1808.9,310.1,1804.5,310.1z"/>
<path class="svgfill" d="M1747.5,1182.5c0,5-0.1,9.4,0,13.9c0.1,2.2-1.2,2.8-2.9,3.2c-10.7,2.7-19.5-1.5-27.9-7.3
	c-0.6-0.4-0.9-1.4-1-2.1c-0.8-5.2-1.4-10.5-2.3-16.8C1724.1,1180.7,1734.3,1187.9,1747.5,1182.5z"/>
<path class="svgfill" d="M1966.5,1170.8c4.3,9.9,3.6,11.7-5.6,15.7c-9.9,4.3-19.6,1.3-29.2-1.4c-2.9-0.8-1.8-3.6-2-5.5
	c-0.9-7.2-0.8-7.2,6.3-5.6c2.8,0.6,5.5,1.1,8.3,1.8C1952.4,1177.7,1959.8,1176.6,1966.5,1170.8z"/>
<path class="svgfill" d="M1846,505.6c-2.1-14.4-7.8-26.1-16.4-37c3.3-1,6.2-1.8,9.1-2.7c2-0.6,3.1,0.3,4.2,1.8
	c6.9,9.1,10.7,19.3,11.2,30.8C1854.4,504,1849.2,502.6,1846,505.6z"/>
<path class="svgfill" d="M1777.2,304.8c-3.5,0.1-7.3-3.6-7.4-7.3c-0.1-3.5,3.3-7.6,6.4-7.7c3.6,0,7.5,3.5,7.5,6.7
	C1783.6,300.3,1780.2,304.7,1777.2,304.8z"/>
<path class="svgfill" d="M1740,263.4c4.3-7.3,4.3-7.2,9.6-3.4c4,2.9,7.9,6.3,12.4,8.3c7.2,3.3,7.4,9.2,7.5,15.6
	c-1.9,0.2-2.3-1.6-3.1-2.6c-3.8-4.8-7.6-9.7-11.8-14.2C1750.8,262.9,1746.9,259.7,1740,263.4z"/>
<path class="svgfill" d="M1827.8,161.4c0.3,1.9-0.7,3.8-2.7,5.3c-3,2.1-5.3,1.4-6.4-2c-0.9-2.8-2.1-5.9,0-8.5c1.3-1.7,3.9-3.8,5.7-2.8
	C1826.8,154.6,1827.7,157.8,1827.8,161.4z"/>
<path class="svgfill" d="M1778.7,289.1c0.4-6.1,2.3-10.3,4.1-14.4c0.6-1.3,3.1-3.3,5.3-0.9c1.5,1.7,4.1,3,0.6,5.6
	C1785.3,282,1782.6,285.3,1778.7,289.1z"/>
<path class="svgfill" d="M1818.5,521c0,3.1,0.1,6.3-0.1,9.4c0,1.2,1.5,3.3-1.2,3.3c-1.9,0-4.5,0.5-5.3-2.3
	C1809.9,525,1811.7,522.1,1818.5,521z"/>
<path class="svgfill" d="M1806.7,531.7c-4-1.2-7.2-2.2-10.7-3.3c2.7-2.3,5.8-2.4,8.5-3.6c1.8-0.8,2.3,0.4,2.2,2
	C1806.6,528.4,1806.7,529.9,1806.7,531.7z"/>
<path class="svgfill" d="M2270.3,1013.2c0.4-0.1,0.7-0.3,1.1-0.4c0,0.4-0.1,0.9-0.1,1.3C2271,1013.8,2270.6,1013.5,2270.3,1013.2z"/>
<path class="st1" d="M1806.7,216.5c1.2,0.3,1.8,0.3,2.2,0.5c1.6,1,0.6,4.4,2.7,4.2c3.1-0.3,6-1.7,9-2.6c1.5-0.5,0.9-1.4,0.6-2.3
	c-0.3-1-1.3-2.3,0.5-2.8c1.5-0.4,1.9,0.8,2.2,2c0.4,1.9,1.7,2.5,3.7,2.6c1.5,0,3.3,0,4.6,1.7c-2.1,1.7-4.4,0.1-6.5,1.4
	c0.5,1.8,0.9,3.8,1.6,5.6c0.4,1.2,0.5,1.9-0.8,2.3c-1,0.3-1.5-0.3-1.8-1.2c-0.3-0.8-0.8-1.5-0.9-2.3c-0.3-4.1-2.3-4.7-5.9-3.5
	c-5.4,1.8-5.5,1.7-3.5,9c-0.9,0.5-1.6-0.2-2.1-0.7c-1.4-1.5-0.9-5-3.4-4.9c-3.2,0.1-6.6,0.9-9.6,2.3c-2.6,1.2,0.8,3.7-0.3,5.6
	c-0.7,0.2-1.6,0.3-1.7-0.4c-1.1-7.1-7.6-5.4-11.8-7c-2.9-1-1.7,2.3-2.4,3.6c-0.5,1,0.8,3.1-1.6,2.8c-1.6-0.2-1.2-1.7-1.1-2.8
	c0.1-1.9,1.4-4.4-0.2-5.7c-2.5-2.1-5.5-3.8-8.5-5c-2.3-0.9-2.1,1.9-2.8,3.1c-0.4,0.8-0.5,2.1-1.8,1.7c-1-0.4-1.5-1.5-0.7-2.5
	c2.7-3.8,0.8-6.6-2.7-9.6c3-0.2,3.9,1.9,5.5,2.4c0.2-0.1,0.4-0.2,0.6-0.4c1.6-1.5,1.8-5.8,4-4.8c2.9,1.4-0.5,3.9-1.3,5.7
	c-0.8,1.9,0.1,2.4,1.2,3.1c2.4,1.4,4.8,2.7,7.7,4.2c0.2-1.2,0.3-1.8,0.4-2.4c0.2-1.6-0.1-4.1,2-4c2.5,0.2,1.2,2.8,1,4.1
	c-1.2,6.2,4,3.8,6.4,4.8c2.7,1.1,4.4-0.1,3.8-3.4c-0.2-0.9-0.8-2.6,1.2-2.6c1.1,0,1.3,1.2,1.7,2.2c0.6,1.3-1.2,3.8,1.6,3.9
	c3,0.1,6.2-0.6,8.5-2.3C1809.1,221.3,1807,218.9,1806.7,216.5z"/>
<path class="st1" d="M1786.3,166.6c-4.2-3.9-7.3-8.3-12.4-11c-0.6,4.3,1,8.7-2.1,12.1c-3.1,3.5-7.3,3.1-11.7,3.2
	c1.8,2.5,4.4,2.7,6.6,3.7c0.7,0.3,1,0.8,0.9,1.5c-0.2,0.9-0.9,0.8-1.6,0.8c-6.2,0.3-17.2-9.7-17.4-15.7c-0.2-5.3,5.3-10.5,11.8-11.4
	c9.4-1.3,16.4,2.8,22.3,9.5C1784.4,161.1,1787.3,162.4,1786.3,166.6z M1769.1,161.4c-0.1-6.2-2-9.6-5.5-9.4
	c-3.8,0.2-8.7,4.4-8.8,7.6c-0.1,3.9,4.2,7.3,9.1,7.4C1767.8,167.1,1769.2,164.9,1769.1,161.4z"/>
<path class="st1" d="M1796.6,204.2c1.9-1.1,3.6-0.4,5.4,0.6c8.2,4.6,16.9,2.9,23.3-4.1c1.9-2.1,2-3.3-0.4-5
	c-4.7-3.2-9.1-6.7-12.8-11.1c-6.9-8.1-10.3-18-14.2-27.7c-0.5-1.2-0.6-2.3,0.8-2.9c1.6-0.7,3.1-0.1,3.8,1.4c1.1,2.4,2,4.9,2.7,7.4
	c4,13.9,12.1,24.6,24.5,32c3.5,2.1,3.2,3.6,0.6,6.3c-9.6,10-21.8,12.4-31.7,5.7C1797.7,206.2,1796.5,205.8,1796.6,204.2z"/>
<path class="st1" d="M1740.6,134.6c2.5-10.2,8.6-16.5,20.7-13.5c6.7,1.6,12.9,5,19.3,7.6c1.6,0.6,2.7,2.1,2,3.5
	c-0.7,1.6-2.2,0.3-3.4-0.1c-5-2.1-9.9-4.5-15.1-6.2c-9.8-3.1-15.7,0.1-19.7,9.6c-0.4,1,0.2,3.7-2.2,2.9
	C1740.8,138,1740.4,136.2,1740.6,134.6z"/>
<path class="st1" d="M1811.2,134.5c3.5,1,6.2,1.8,8.8,2.5c7.6,2,10.5,0.9,15.1-5.4c0.7-1,1.3-2,2.7-0.9c1.2,0.9,2.3,1.7,1.5,3.6
	c-1.4,3.2-3.5,5.5-6.9,6.6C1825.5,143,1814.8,140.2,1811.2,134.5z"/>
<path class="st1" d="M680.3,1235.6c-17.7-0.6-36-2.4-54.4-4.7c-14.2-1.7-28.4-2.9-42.7-4.4c-17.2-1.8-34.4-3.6-51.5-5.6
	c-16.5-2-33-3.8-49.4-6.5c-40.5-6.5-81.6-10.3-120.6-24c-37.2-13-63.1-37.7-75.3-75.6c-3.8-11.7-5-23.7-4.4-35.9
	c0.2-3.9-0.8-4.7-4.5-4.5c-19.3,0.7-38.4,2.2-57,7.8c-1.6,0.5-4.1,1.5-4.8-0.8c-0.7-2.5,2-2.5,3.6-3c16.3-4.9,33-7.3,50-8
	c64.2-3,128.5-5.2,192.7-5.7c35.1-0.3,70.2-2.8,105.4-2.2c6,0.1,12,0.5,17.9,1.1c4.9,0.5,9.3,2.4,12.9,5.8c2.5,2.4,5.3,4.7,7.3,7.6
	c25.9,36.7,55.9,70.3,81.5,107.2c6.3,9,12.7,17.9,19,26.9c2.6,3.7,4.9,7.5,6.3,11.8c1.9,6.2,0.1,9.6-6.3,10.8
	C697.8,1235.2,689.5,1235.5,680.3,1235.6z M459.1,1067.7c0,0.2,0,0.4,0,0.7c-41.8,1.1-83.6,2.2-125.4,3.4
	c-13.8,0.4-27.6,1.2-41.4,1.9c-1.9,0.1-4.2-0.4-4.3,2.7c-0.2,5-1,9.9-0.8,14.9c1.3,29.7,13.2,54.1,37,72.4
	c21.2,16.3,45.6,25.2,71.1,31.8c43.4,11.1,87.9,15,132.1,20.9c26.3,3.5,52.8,6,79.3,8.3c30.2,2.7,60.4,4.9,90.7,5.8
	c3.8,0.1,9.1,2,11.1-1.8c2-3.8-1.6-7.9-3.9-11.3c-7.7-11.3-15.6-22.3-23.6-33.3c-28.1-38.6-57.9-75.9-88-113
	c-1.9-2.4-3.7-3.5-6.9-3.5C543.7,1067.8,501.4,1067.7,459.1,1067.7z"/>
<path class="st1" d="M118,873.4c36,29.1,78.5,43.2,122.8,53c32.8,7.3,66,11.3,99.5,14.2c48.2,4.1,96.5,4.8,144.8,5
	c44.3,0.2,88.6,0.1,132.9-1.3c35-1.1,69.9-2.3,104.8-4.7c23.1-1.5,46.2-2.5,69.3-4.3c25-1.9,50-4.5,75-6.7
	c24.5-2.1,48.9-4.9,73.3-8.3c62.4-8.7,124.7-17.4,185.2-35.7c15-4.5,29.8-9.8,44.4-15.6c1.3-0.5,2.8-2.2,4.4-0.5
	c2.8,2.9,0.5,3.8-1.8,4.7c-16.1,6.5-32.5,12.3-49.1,17.2c-36.6,10.8-73.8,18.3-111.5,24.3c-30.7,4.9-61.4,8.8-92.3,12.6
	c-26.1,3.2-52.2,5.5-78.3,8.3c-30.9,3.3-62,5.6-93,7.7c-27.6,1.8-55.2,3-82.8,4.2c-49.6,2.2-99.2,3.2-148.9,2.9
	c-43.5-0.2-87-1.2-130.4-3.1c-33.2-1.5-66.4-3.9-99.3-8.9c-45.3-6.9-89.7-17.4-131-38c-14.2-7.1-27.5-15.5-39.1-26.4
	C117.4,873.9,117.7,873.7,118,873.4z"/>
<path class="st1" d="M180,980.3c7.7,1.2,15.1,2.6,22.6,3.6c17.3,2.3,34.6,4.6,51.9,6.6c17,2,34,3.7,51.1,5.3
	c14.1,1.3,28.2,2.7,42.3,3.6c41.4,2.6,82.9,3.9,124.3,3.8c40.8-0.1,81.6-1.3,122.3-3.8c30.4-1.9,60.8-4.2,91.1-7
	c29.4-2.7,58.8-6,88.2-9.5c31.2-3.8,62.3-7.8,93.3-12.4c51.5-7.7,102.8-16.5,153.8-26.6c39.9-7.9,79.7-16.5,119.3-25.8
	c2.5-0.6,4.6-0.6,6.4,2.4c-12.1,2.8-24,5.6-35.9,8.3c-43.8,9.9-87.7,18.7-131.9,26.7c-30.7,5.6-61.4,10.9-92.2,15.4
	c-26.8,3.9-53.5,8.1-80.3,11.7c-23.7,3.2-47.5,5.7-71.3,8.3c-22.8,2.5-45.6,4.9-68.5,6.8c-21.7,1.8-43.5,2.8-65.3,4.3
	c-32.1,2.2-64.2,3.1-96.3,3.7c-45.8,0.9-91.6-0.1-137.4-2c-31.4-1.3-62.8-3.4-94.1-7c-30.8-3.5-61.5-8-91.8-14.8
	C181,981.5,180.3,981.7,180,980.3z"/>
<path class="st1" d="M623.3,897.7c0.6-2.6,2.3-3.2,3.7-4c75.2-40.5,150.7-80.5,226.8-119.3c16-8.2,32.9-14.6,49.8-20.8
	c28-10.1,56.3-9.2,84.8-2.6c9.2,2.1,18.2,4.9,26.9,8.6c2.3,1,4.6,2,6.7,3.2c10.5,6,11.1,12.6,1.9,20.6c-17.4,15-37.7,25.3-57.9,35.7
	c-40.3,20.8-81.3,39.8-124.8,53c-23.2,7-46.9,11.6-70.9,14.7c-33.8,4.4-67.9,6.2-101.9,8c-13.9,0.8-27.9,1.9-41.8,2.9
	C625.6,897.8,624.7,897.7,623.3,897.7z M634.8,892.4c0.1,0.3,0.2,0.6,0.3,0.9c2.4,0,4.9,0.1,7.3,0c12.6-0.9,25.2-2,37.8-2.7
	c31.4-1.7,62.7-3.8,93.9-7.9c31.3-4.1,61.8-11.1,91.5-21.8c52.4-18.8,101.6-44.3,149.1-73.1c2.8-1.7,5.6-3.7,7.9-6
	c4.7-4.7,4.3-9.5-0.6-13.7c-3.6-3-7.8-4.9-12.2-6.5c-15.5-5.6-31.8-8-48.1-9.9c-8.9-1-17.8-2.2-26.9-1.5
	c-16.5,1.1-31.7,6.5-46.6,13.1c-71.9,31.9-141.5,68.6-210.7,105.9C663.3,877,649.1,884.7,634.8,892.4z"/>
<path class="st1" d="M693.6,1274.5c-7.8,0.7-16.1-0.5-24.4-1c-1.7-0.1-4.7,0.5-4.2-2.7c0.4-2.4,2.6-1.8,4.5-1.6
	c24.3,2.2,48.5,2,72.8-0.5c26.3-2.7,52.6-5.3,78.8-8.3c32.7-3.7,65.3-7.7,98-11.7c26.8-3.3,53.7-6.7,80.5-10.3
	c16.8-2.3,33.5-4.9,50.5-5.9c3.1-0.2,4.7-1,4.9-4.9c1.5-29.6,3.1-59.2,4.9-88.7c3.2-53.9,21-102.8,47.8-149
	c4.2-7.3,8.3-14.7,12.4-22.1c1.1-1.9,2.3-4.4,4.8-3c2.7,1.5,0.1,3.5-0.7,4.9c-15.3,27-30.5,53.9-41.5,83c-8.3,22-13.3,44.6-15.9,68
	c-4,36.4-5.8,73-6.7,109.6c-0.1,3.2-1.3,4.1-4.4,4.6c-27.9,3.8-55.9,7.9-83.8,11.7c-22.2,3-44.5,5.6-66.7,8.3
	c-21.1,2.6-42.2,5.2-63.3,7.6c-17.3,2-34.7,3.7-52.1,5.3c-21.7,2-43.4,4-65.1,5.7C714.4,1274,704.3,1275,693.6,1274.5z"/>
<path class="st1" d="M1254.3,652.6c-0.5,2.8-2.8,2.5-4.4,2.7c-9.3,1.5-18.7,2.8-28,4.2c-28.7,4.3-57,10.3-85.3,16.4
	c-67.4,14.5-134.3,31.1-200.4,50.7c-69.9,20.7-139.4,42.4-206.6,70.9c-34.8,14.7-68.6,31.5-100.7,51.5c-1.1,0.7-2.3,1.3-3.5,1.6
	c-0.8,0.3-1.7,0-2.2-0.8c-0.5-1-0.4-1.9,0.6-2.6c1.4-0.9,2.8-1.8,4.2-2.7c41.6-25.6,86.1-45.2,131.4-63c81-31.9,164.1-57,248.3-79
	c46.2-12,92.6-23.6,139.3-33.6c30.8-6.6,61.7-12.5,92.9-16.5c3.6-0.5,7.2-1.1,10.8-1.7C1252.5,650.5,1254.1,650.5,1254.3,652.6z"/>
<path class="st1" d="M919.5,1135.4c-2.5-0.1-4-2.3-2.3-5.7c14.6-29.2,30-57.9,43.8-87.4c10.9-23.4,28.5-37.6,54.1-43
	c26.8-5.7,52.6-15.5,78.9-23.1c0.8-0.2,1.7-0.3,2.4-0.7c2-1,3.5-0.3,4.9,1.1c1.8,1.9-0.2,3-1,4.2c-17.3,24.6-34.5,49.3-51.9,73.8
	c-11.4,16-23,31.8-34.4,47.8c-8.7,12.3-20,20.3-34.8,23.9C959.9,1130.9,940.4,1133.4,919.5,1135.4z M1092.3,980.8
	c-23.2,6.5-45.7,15.8-69.3,20.4c-28.4,5.6-47.8,20.8-59.6,47.1c-12.1,26.8-26.1,52.8-39.4,79c-0.6,1.2-1.9,2.4-0.9,4.4
	c16.9-1.4,33.7-3.9,50.4-7.6c17.1-3.8,29.6-13.2,39-27.7c6.9-10.6,14.5-20.7,21.8-31c19.7-27.7,39.7-55.3,58.8-83.5
	c0.1-0.3,0.3-0.7,0.4-1C1093.2,980.9,1092.8,980.9,1092.3,980.8z"/>
<path class="st1" d="M1048.8,1136c-1.8,17.3-5.1,34.5-13.1,50.5c-7.4,14.8-20.7,20.7-35.8,24.1c-36.5,8.3-73.3,15.2-110.2,21.1
	c-4.3,0.7-8.5,1.4-12.8,2.2c-1.7,0.3-3.6,1.7-5.1-0.1c-1.6-2,0.3-3.8,1.1-5.5c10.6-20.4,21.7-40.6,31.7-61.3
	c4.3-9,10.3-13.4,19.6-15.7c14.4-3.7,29-5.4,43.5-7.6c16.6-2.5,33.1-5.1,49.7-7.6c9.4-1.4,18.7-2.8,28-4.3
	C1049,1131.2,1048.9,1133.5,1048.8,1136z M879.1,1228.8c0.4,0,0.8,0.1,1.2,0c19.4-3.4,38.8-6.6,58.2-10.4
	c22.5-4.4,45.3-7.6,67.5-13.9c11.7-3.3,20.2-10.3,25.8-21c6.2-11.9,8.8-24.9,10.8-38c1.3-8.6,1-8.7-7.9-7.9
	c-1.6,0.1-3.3,0.4-4.9,0.7c-19.9,3.5-40,6.2-60.1,8.4c-17.4,2-34.7,4.8-51.3,10.9c-3,1.1-4.9,2.9-6.4,5.7
	c-10.7,21.1-21.1,42.3-32.5,63C879.1,1227.1,878.7,1227.7,879.1,1228.8z"/>
<path class="st1" d="M91.4,1053.4c1.4,0.5,2.5,0.9,3.5,1.4c32.3,13.9,64.6,27.8,97,41.5c6,2.6,10.1,6.4,12.7,12.5
	c6.9,16.1,14.1,32.1,21,48.1c0.5,1.2,2.2,2.6,0.7,4c-1.4,1.4-2.9,0-4.2-0.5c-46.2-16.9-92.3-33.9-138.5-50.8c-3.2-1.2-4-2.6-3.2-6.3
	c3.1-15.1,5.7-30.3,8.5-45.4C89.3,1056.3,89.1,1053.9,91.4,1053.4z M220.9,1157.3c-0.2-1-0.2-1.7-0.5-2.2c-8-16-14.3-32.7-21.6-49
	c-2.1-4.6-5-7.7-9.5-9.3c-8.7-3.2-17.5-6.1-26-9.7c-22-9.2-43.8-18.6-65.6-28.1c-2.8-1.2-3.8-1.2-4.3,2.3
	c-1.7,11.6-2.8,23.4-5.8,34.8c-3.1,11.6-3.1,11.2,8.1,15.1c32,11.5,63.9,23.4,95.9,34.9C201.3,1149.6,210.4,1154.8,220.9,1157.3z"/>
<path class="st1" d="M1491,775.1c-9.3-1.7-18-3.4-26.9-4.8c-31.4-5-63-7.7-94.9-6c-30.8,1.7-60.9,6.8-89.7,18.2
	c-27.5,10.8-51.5,26.7-71.1,49c-0.6,0.6-1.1,1.3-1.7,1.9c-1.3,1.4-3,2.1-4.4,0.8c-1.7-1.6,0.4-2.7,1.3-3.6
	c19.1-21.7,42.3-37.7,68.8-48.9c22.6-9.5,46.1-15,70.4-18.2c30.1-3.9,60.1-3.5,90.2-0.7c19.3,1.8,38.5,5,57.5,8.9
	c1.2,0.3,3,0.2,3.1,1.8C1493.7,775.4,1491.6,774.6,1491,775.1z"/>
<path class="st1" d="M163.5,818.5c2-1.3,3.6-0.3,4.9,0.9c23.5,22.8,52.5,35.2,83,45.2c29.4,9.6,59.4,16,90,19.7
	c30.9,3.7,61.9,4.3,92.9,2.4c2.4-0.2,4.8,0,7.2,0c0,0.4,0.1,0.8,0.1,1.2c-2.2,0.2-4.4,0.6-6.6,0.7c-21.8,1.1-43.6,1.4-65.4-0.1
	c-53.8-3.8-106.2-14.2-155.9-36c-17.3-7.5-33.3-17.3-47.1-30.3C165.4,821.2,163.8,820.4,163.5,818.5z"/>
<path class="st1" d="M61,1023.7c0-1.4,0.6-2,2.1-1.5c1.7,0.5,2.2,1.9,2.7,3.3c4,9,8.1,18.1,12.1,27.1c0.6,1.4,2.3,3.2,0.1,4.2
	c-2,0.9-2.7-1.2-3.3-2.7c-4.3-9.5-8.5-18.9-12.8-28.4C61.6,1025,61.3,1024.4,61,1023.7z"/>
<path class="st1" d="M57.6,920.7c-7.7-5.9-19.4-27.6-20.5-38.1c2.2,0,3.3,1.3,3.8,3.2c3.4,12.5,9.2,23.8,16.8,34.1
	C57.8,920.1,57.6,920.4,57.6,920.7z"/>
<path class="st1" d="M100.2,855.3c-7.9-11.2-13-23.5-13.8-37.5c3.3,12.9,7.2,25.5,14.6,36.7C100.8,854.7,100.5,855,100.2,855.3z"/>
<path class="st1" d="M107.4,864.4c-1.2-1.5-2.4-3.1-3.7-4.7c0.3-0.3,0.5-0.6,0.7-0.8c1.2,1.5,2.3,3,3.5,4.6
	C107.8,863.8,107.6,864.1,107.4,864.4z"/>
<path class="st1" d="M103.8,859.7c-1.2-1.5-2.3-3-3.5-4.4c0.3-0.3,0.5-0.5,0.8-0.8c1.2,1.5,2.3,2.9,3.5,4.4
	C104.3,859.2,104,859.4,103.8,859.7z"/>
<path class="st1" d="M59.4,923.9c0.5,0.2,1.1,0.5,1.6,0.7c-0.5-0.3-1-0.5-1.5-0.8C59.6,923.8,59.4,923.9,59.4,923.9z"/>
<path class="st1" d="M109,864.5c0.6,0.6,1.2,1.2,1.8,1.8c-0.3,0.2-0.7,0.3-1,0.5c-0.6-0.6-1.2-1.2-1.8-1.8
	C108.3,864.8,108.7,864.6,109,864.5z"/>
<path class="st1" d="M117,874.1c-0.4-0.5-0.8-0.9-1.3-1.4c0.2-0.4,0.4-0.7,0.5-1.1c0.6,0.6,1.2,1.2,1.8,1.7
	C117.7,873.7,117.4,873.9,117,874.1z"/>
<path class="st1" d="M112.3,867.8c0.5,0.5,0.9,1,1.4,1.4c-0.3,0.2-0.7,0.4-1,0.6c-0.3-0.3-0.7-0.7-1-1
	C111.9,868.5,112.1,868.1,112.3,867.8z"/>
<path class="st1" d="M111.7,868.8c-0.3-0.3-0.7-0.7-1-1c0.2-0.3,0.4-0.7,0.5-1c0.4,0.3,0.7,0.7,1.1,1
	C112.1,868.1,111.9,868.5,111.7,868.8z"/>
<path class="st1" d="M110.8,866.3c0.2,0.1,0.4,0.3,0.5,0.5c-0.2,0.3-0.4,0.7-0.5,1c-0.3-0.3-0.7-0.7-1-1
	C110.1,866.6,110.4,866.4,110.8,866.3z"/>
<path class="st1" d="M108,863.5c0.3,0.3,0.7,0.7,1,1c-0.3,0.2-0.7,0.3-1,0.5c-0.3-0.1-0.5-0.3-0.6-0.6
	C107.6,864.1,107.8,863.8,108,863.5z"/>
<path class="st1" d="M58.8,922.6c-0.3-0.3-0.9-0.8-0.9-0.8c0.7-0.9,1-0.1,1.4,0.3C59.2,922.3,59,922.5,58.8,922.6z"/>
<path class="st1" d="M115.7,872.8c-0.3-0.3-0.7-0.7-1-1c0.2-0.3,0.4-0.7,0.6-1c0.3,0.3,0.6,0.6,1,0.9
	C116.1,872.1,115.9,872.4,115.7,872.8z"/>
<path class="st1" d="M59.6,923.8c-0.2-0.4-0.5-0.8-0.7-1.2c0.2-0.2,0.3-0.3,0.5-0.5c0.6,0.6,1,1.1,0.1,1.8
	C59.4,923.9,59.6,923.8,59.6,923.8z"/>
<path class="st1" d="M114.7,871.8c-0.3-0.3-0.7-0.7-1-1c0.2-0.3,0.4-0.7,0.6-1c0.3,0.3,0.7,0.7,1,1
	C115.1,871.1,114.9,871.4,114.7,871.8z"/>
<path class="st1" d="M113.7,869.2c0.3,0.1,0.5,0.3,0.5,0.5c-0.2,0.3-0.4,0.7-0.6,1c-0.3-0.3-0.7-0.7-1-1
	C113.1,869.6,113.4,869.4,113.7,869.2z"/>
<path class="st1" d="M2076.1,543.6c9.5,0.4,19.1,1.9,27.7,7.1c13.5,8.1,19,22.7,14.4,37.7c-1.8,5.7-4.4,11.1-7.7,16.1
	c-7.1,10.8-15.7,20.2-25.3,28.7c-2.8,2.4-4.9,2.8-6.8-1.3c-12.1-25.5-24.4-51-36.8-76.4c-1.5-3.1-0.8-4.3,2.2-5.5
	C2054,545.9,2064.7,543.9,2076.1,543.6z M2083.2,630.5c13.7-13.4,26.2-26.7,30.5-45.5c3.6-15.9-2.4-27.2-17.6-33.4
	c-15.2-6.2-30.7-5.5-46.3-1c-3.4,1-4.4,2-2.5,5.6c5.8,11.5,11.2,23.2,16.8,34.8C2070.3,604,2076.6,616.9,2083.2,630.5z"/>
<path class="st1" d="M2024.9,967.3c7.4-3.1,8-9.2,7.6-14.9c-1-15.6-0.9-31.3-0.9-46.9c0-11,0.3-22-0.1-33c-0.2-4.9,1-7.5,6.3-7.4
	c1.4,0,2.9-0.7,4.7-0.4c-1.5,2.3-5.3,1.6-5.8,4.3c-0.5,2.6-0.1,5.3-0.1,8c0,27,0.1,53.9,0.1,80.9c0,7.5,0,7.5-7.1,9.3
	C2028.3,967.6,2027,968,2024.9,967.3z"/>
<path class="st1" d="M2154.9,844.4c-33.9,5.9-67.4,13.8-101.6,17.8c33.8-6.5,67.6-13.1,101.4-19.6
	C2154.8,843.1,2154.8,843.7,2154.9,844.4z"/>
<path class="st1" d="M1158.7,1086.6c-0.2-46.6,4.6-90.4,19-132.9c11.2-33.3,27.6-63.6,53-88.4c21.4-20.9,46.4-35.9,75.6-43.1
	c10.8-2.7,21.5-2.2,32.6-0.3c6.1,1.1,12.5,0.8,18.1,3.7c7.2,3.8,14.3,7.9,21.5,11.7c8.6,4.6,15.1,11.2,20.7,19.1
	c5.1,7.2,11.2,13.6,16.8,20.4c12.7,15.1,20.5,33,28.8,50.5c4.7,9.8,3.7,20.9,6.7,31.1c-4.6,15.1,1.6,29.8,1.8,44.8
	c0.2,15.3,1.8,30.6,1.3,45.9c-1.2,41.7-6.8,82.6-23.8,121.2c-15,34-37.5,61.5-68.1,82.8c-57.5,40-132.1,23.2-169.3-31.8
	c-16.1-23.8-25.3-50-29.8-78.2C1160.6,1123.8,1159.5,1104.3,1158.7,1086.6z M1450.7,1032.8c-0.6-20.5-1.9-39.6-4.2-58.6
	c-1.7-13.7-2.6-27.6-6.4-40.8c-5.3-18.2-15-34.3-26.1-49.6c-4.3-5.9-10.5-10.5-14.1-16.8c-9.3-15.9-23.5-25.4-39.4-33.3
	c-12.1-6.1-24.6-9.5-38.3-9.3c-13.1,0.3-25,4.5-36.7,9.6c-43.4,18.8-72.4,51.8-91.6,94.1c-18.5,40.7-25.4,84.2-29,128.2
	c-2.4,30.6-2.4,61.2,2.9,91.6c4,22.6,10.2,44.5,21.9,64.5c34.4,58,108.6,81.2,169.8,37.7c36.6-26.1,60.9-61.1,75.2-103.3
	C1447.4,1109.4,1451,1070.7,1450.7,1032.8z"/>
<path class="svgfill" d="M1769.1,161.4c0,3.5-1.3,5.7-5.3,5.6c-4.9-0.1-9.2-3.6-9.1-7.4c0.1-3.2,5-7.4,8.8-7.6
	C1767.1,151.8,1769.1,155.2,1769.1,161.4z"/>
<path class="svgfill" d="M459.1,1067.7c42.3,0,84.6,0,126.9-0.1c3.2,0,5,1.1,6.9,3.5c30.1,37.1,59.9,74.4,88,113c8,11,16,22.1,23.6,33.3
	c2.3,3.3,5.9,7.5,3.9,11.3c-2,3.8-7.3,1.9-11.1,1.8c-30.3-0.8-60.5-3.1-90.7-5.8c-26.5-2.3-53-4.8-79.3-8.3
	c-44.2-5.9-88.7-9.8-132.1-20.9c-25.5-6.5-49.9-15.5-71.1-31.8c-23.8-18.3-35.7-42.7-37-72.4c-0.2-4.9,0.6-9.9,0.8-14.9
	c0.1-3.2,2.4-2.6,4.3-2.7c13.8-0.7,27.6-1.5,41.4-1.9c41.8-1.2,83.6-2.3,125.4-3.4C459,1068.2,459,1067.9,459.1,1067.7z"/>
<path class="svgfill" d="M634.8,892.4c14.3-7.7,28.5-15.4,42.8-23.2c69.2-37.4,138.8-74,210.7-105.9c14.9-6.6,30.1-12,46.6-13.1
	c9-0.6,18,0.5,26.9,1.5c16.3,1.8,32.5,4.3,48.1,9.9c4.4,1.6,8.6,3.4,12.2,6.5c5,4.2,5.3,9,0.6,13.7c-2.3,2.3-5.1,4.3-7.9,6
	c-47.5,28.8-96.7,54.3-149.1,73.1c-29.7,10.7-60.2,17.7-91.5,21.8c-31.2,4.1-62.5,6.2-93.9,7.9c-12.6,0.7-25.2,1.8-37.8,2.7
	c-2.4,0.2-4.9,0-7.3,0C635,893.1,634.9,892.8,634.8,892.4z"/>
<path class="svgfill" d="M1093.1,982c-19.1,28.2-39,55.8-58.8,83.5c-7.3,10.3-14.9,20.4-21.8,31c-9.4,14.5-22,23.8-39,27.7
	c-16.7,3.8-33.5,6.3-50.4,7.6c-1-2,0.3-3.2,0.9-4.4c13.3-26.3,27.3-52.2,39.4-79c11.8-26.2,31.2-41.5,59.6-47.1
	c23.6-4.6,46.1-13.9,69.3-20.4C1092.6,981.2,1092.9,981.6,1093.1,982z"/>
<path class="svgfill" d="M1092.3,980.8c0.4,0,0.8,0,1.3,0.1c-0.2,0.3-0.3,0.7-0.4,1C1092.9,981.6,1092.6,981.2,1092.3,980.8z"/>
<path class="svgfill" d="M879.1,1228.8c-0.4-1.1,0-1.7,0.4-2.4c11.4-20.7,21.9-41.9,32.5-63c1.4-2.8,3.3-4.6,6.4-5.7
	c16.6-6.1,33.9-8.9,51.3-10.9c20.1-2.3,40.1-4.9,60.1-8.4c1.6-0.3,3.3-0.5,4.9-0.7c8.9-0.8,9.2-0.7,7.9,7.9
	c-2,13.1-4.6,26.1-10.8,38c-5.6,10.7-14.1,17.8-25.8,21c-22.2,6.2-45,9.5-67.5,13.9c-19.3,3.8-38.8,6.9-58.2,10.4
	C879.9,1228.8,879.5,1228.8,879.1,1228.8z"/>
<path class="svgfill" d="M220.9,1157.3c-10.5-2.5-19.6-7.7-29.3-11.2c-32-11.5-63.9-23.4-95.9-34.9c-11.2-4-11.2-3.6-8.1-15.1
	c3.1-11.4,4.2-23.2,5.8-34.8c0.5-3.4,1.5-3.4,4.3-2.3c21.8,9.4,43.7,18.9,65.6,28.1c8.5,3.6,17.3,6.4,26,9.7
	c4.5,1.7,7.4,4.7,9.5,9.3c7.3,16.3,13.6,33,21.6,49C220.7,1155.6,220.7,1156.3,220.9,1157.3z"/>
<path class="svgfill" d="M2083.2,630.5c-6.6-13.6-12.8-26.5-19.1-39.5c-5.6-11.6-11-23.3-16.8-34.8c-1.8-3.6-0.9-4.6,2.5-5.6
	c15.6-4.5,31-5.2,46.3,1c15.2,6.1,21.2,17.4,17.6,33.4C2109.4,603.8,2096.8,617.2,2083.2,630.5z"/>
<path class="svgfill" d="M1450.7,1032.8c0.3,37.9-3.2,76.6-15.9,114c-14.3,42.2-38.6,77.2-75.2,103.3c-61.2,43.6-135.4,20.4-169.8-37.7
	c-11.8-19.9-17.9-41.8-21.9-64.5c-5.4-30.4-5.4-61-2.9-91.6c3.5-44.1,10.5-87.5,29-128.2c19.2-42.3,48.3-75.3,91.6-94.1
	c11.7-5.1,23.6-9.4,36.7-9.6c13.7-0.3,26.2,3.2,38.3,9.3c15.9,8,30.1,17.4,39.4,33.3c3.6,6.2,9.9,10.8,14.1,16.8
	c11,15.3,20.8,31.5,26.1,49.6c3.8,13.2,4.7,27.1,6.4,40.8C1448.8,993.2,1450,1012.3,1450.7,1032.8z"/>
</svg>
