<?xml version="1.0" encoding="utf-8"?>
<!-- Generator: Adobe Illustrator 24.2.1, SVG Export Plug-In . SVG Version: 6.00 Build 0)  -->
<svg version="1.1" id="Layer_1" xmlns="http://www.w3.org/2000/svg" xmlns:xlink="http://www.w3.org/1999/xlink" x="0px" y="0px"
	 viewBox="0 0 612 792" style="enable-background:new 0 0 612 792;" xml:space="preserve">
<style type="text/css">
	.svgfill{fill:#FEFEFE;}
	.st1{fill:#030303;}
</style>
<path class="svgfill" d="M0.1,379c0-31.99,0-63.98,0-95.98c1.49,0.08,2.98,0.26,4.46,0.24c30.73-0.62,61.46-1.27,92.2-1.89
	c13.46-0.27,26.92-0.51,40.39-0.71c5.79-0.08,11.58-0.01,17.37-0.01c0-0.49,0-0.98,0-1.47c-26.8-13.21-54.56-24.08-82.65-34.23
	c-14.93-5.39-30.04-8.17-45.89-6.91c-8.91,0.71-17.54-0.79-25.87-4.01C0.1,157.39,0.13,80.74,0,4.09C-0.01,0.67,0.67,0,4.1,0
	C205.37,0.11,406.63,0.11,607.9,0c3.42,0,4.1,0.67,4.09,4.09c-0.12,82.98-0.1,165.96-0.1,248.94c-8.56,3.08-17.19,2.64-26,1.04
	c-3.65-0.66-6.2,2.06-7.49,5.45c-0.7,1.85-1.01,3.85-1.5,5.79c-1.65,6.42-6.03,9.38-12.63,8.36c-2.95-0.45-5.85-1.59-8.8-1.69
	c-22.18-0.77-43.96-4.94-65.89-7.78c-10.73-1.39-21.5-3.62-32.13,0.07c-4.38,1.52-4.69-0.2-4.37-3.77
	c1.68-18.44,4.49-36.73,10.23-54.34c4.42-13.55,7.06-27.06,3.81-41.13c-5.97-25.85-23.58-42.61-51.53-42.23
	c-17.13,0.23-23.05,6.97-20.67,23.6c0.02,0.16,0.04,0.33,0.05,0.5c0.56,5.08-1.69,7.93-6.83,8.37c-4.16,0.36-8.32,0-12.44-0.65
	c-14.18-2.23-28.42-3.53-42.78-2.66c-11.33,0.69-22.31,3.51-33.45,5.45c-13.61,2.36-20.06-1.24-25.91-13.7
	c-1.91-4.07-3.78-8.12-6.96-11.46c-17.67-18.6-48.67-17.88-65.87,1.27c-15.36,17.1-17.11,36.51-10.3,57.35
	c3.45,10.56,8.26,20.63,12.17,31.06c4.53,12.09,4.33,22.98-3.14,34.07c-6.44,9.55-10.84,20.28-11.43,32.08
	c-0.96,19.3-5.19,37.84-12.67,55.62c-4.51,10.71-2.16,20.14,4.85,28.84c1.61,2,3.33,3.9,5.25,6.13c-1.06,0.24-1.51,0.43-1.95,0.43
	C122.38,379.07,61.24,379.04,0.1,379z"/>
<path class="st1" d="M0.1,379c61.14,0.03,122.29,0.07,183.43,0.09c0.44,0,0.89-0.19,1.95-0.43c-1.92-2.23-3.65-4.13-5.25-6.13
	c-7.01-8.69-9.36-18.13-4.85-28.84c7.49-17.78,11.72-36.32,12.67-55.62c0.59-11.8,4.99-22.53,11.43-32.08
	c7.47-11.09,7.67-21.98,3.14-34.07c-3.9-10.42-8.72-20.5-12.17-31.06c-6.81-20.84-5.07-40.25,10.3-57.35
	c17.2-19.15,48.2-19.87,65.87-1.27c3.17,3.34,5.05,7.39,6.96,11.46c5.85,12.46,12.3,16.07,25.91,13.7
	c11.13-1.93,22.12-4.76,33.45-5.45c14.36-0.87,28.61,0.43,42.78,2.66c4.13,0.65,8.28,1.01,12.44,0.65c5.14-0.45,7.39-3.29,6.83-8.37
	c-0.02-0.17-0.03-0.33-0.05-0.5c-2.38-16.63,3.54-23.38,20.67-23.6c27.95-0.37,45.56,16.39,51.53,42.23
	c3.25,14.08,0.61,27.58-3.81,41.13c-5.74,17.61-8.55,35.89-10.23,54.34c-0.33,3.57-0.01,5.29,4.37,3.77
	c10.64-3.7,21.4-1.46,32.13-0.07c21.93,2.84,43.7,7.01,65.89,7.78c2.95,0.1,5.85,1.23,8.8,1.69c6.6,1.02,10.98-1.94,12.63-8.36
	c0.5-1.93,0.8-3.93,1.5-5.79c1.29-3.39,3.84-6.12,7.49-5.45c8.81,1.6,17.44,2.04,26-1.04c0,9.33,0,18.66,0,27.99
	c-22.96,0.37-45.92,0.8-68.88,1.08c-28.62,0.35-57.25,0.62-85.87,0.8c-2.81,0.02-3.86,0.71-3.62,3.63
	c1.07,13.47-1.44,26.41-5.66,39.18c-5.73,17.35-10.3,35.03-14.03,53.07c0.92,0.13,1.56,0.3,2.2,0.3
	c58.62-0.02,117.24-0.06,175.86-0.09c0,9,0,18,0,26.99c-29.3,0-58.6,0.1-87.9-0.1c-4.3-0.03-5.46,0.88-5.44,5.35
	c0.19,49.78,0.12,99.56,0.12,149.35c0,0.83-0.04,1.67,0.01,2.5c0.34,6.46,2.54,8.59,8.85,8.59c9.82,0,19.65-0.03,29.47,0.01
	c18.3,0.07,36.6,0.17,54.91,0.26c0,71.98-0.03,143.97,0.1,215.95c0.01,3.42-0.67,4.1-4.1,4.09c-201.27-0.11-402.54-0.11-603.81,0
	c-3.42,0-4.1-0.67-4.1-4.09c0.13-71.98,0.1-143.97,0.1-215.95c19.97-0.09,39.93-0.26,59.89-0.2c3.63,0.01,5.09-0.49,5.08-4.76
	c-0.18-52.11-0.18-104.21-0.01-156.32c0.01-4.19-1.39-4.77-5.04-4.75C40.05,406.08,20.07,406,0.1,406C0.1,397,0.1,388,0.1,379z
	 M372.3,750.63c24.46,1.67,44.79-13.96,47.45-36.96c2.75-23.78,3.33-47.77,4.81-71.66c1.95-31.54,2.26-63.18,5.42-94.65
	c1.6-15.89,3.18-31.82,8.16-47.11c1.26-3.87,2.56-8.68,7.53-8.96c4.72-0.27,7.08,3.88,9.07,7.55c10.07,18.55,13.01,38.19,8.62,58.86
	c-1.37,6.48,0.61,11.85,5.31,16.24c2.64,2.46,6.46,6.69,8.86,5.25c3.31-1.99,0.57-6.92,0.02-10.58c-0.05-0.32-0.26-0.61-0.39-0.92
	c-0.52-1.31-0.94-2.73,0.78-3.36c1.66-0.61,2.43,0.73,2.89,2c1.43,3.97,2.03,8.1,1.5,12.29c-0.27,2.12,0,3.45,2.28,4.1
	c6.47,1.86,12.99,2.74,19.74,2.03c2.79-0.29,2.75-1.22,1.78-3.48c-1.99-4.67-4.71-8.77-8.22-12.4c-1.05-1.08-3.2-2.24-1.19-3.95
	c1.68-1.44,3.07,0.23,4.21,1.4c3.39,3.49,5.99,7.52,8.19,11.86c0.8,1.57,0.44,4.81,2.93,4.32c2.73-0.53,4.96-2.79,5.75-5.74
	c0.67-2.5,0.16-5.01-1.04-7.27c-2.25-4.25-4.4-8.59-7.02-12.62c-17-26.08-30.31-53.85-38.89-83.84
	c-7.4-25.87-20.15-48.4-41.16-65.81c-2.35-1.95-3.25-2.29-4.98,0.69c-3.95,6.82-9.28,12.56-15.4,17.55
	c-10.72,8.74-21.93,16.82-33.37,24.56c-11.46,7.75-23.87,12.96-38.03,13.46c-12.38,0.44-24.56-1.26-36.77-2.65
	c-25.77-2.94-50.76-8.85-74.25-20.18c-12.34-5.95-21.2-14.79-23.79-28.84c-0.42-2.28-1.4-4.44-1.98-6.7
	c-0.74-2.9-2.3-3.32-5.15-2.65c-21.16,4.95-36.89,15.78-43.95,37.56c-3.71,11.44-10.28,21.67-18.4,30.6
	c-7.99,8.79-15.03,18.22-21.32,28.25c-5.55,8.86-9.88,18.56-17.69,25.86c-4.5,4.2-9.18,8.19-13.66,12.41
	c-3.79,3.58-4.04,7.32-1.21,11.04c1.27,1.66,2.3,2.1,3.97,0.49c2.53-2.45,5.59-4.16,8.74-5.7c1.21-0.59,2.26-0.46,3.02,0.75
	c0.94,1.49-0.24,2.09-1.21,2.7c-2.11,1.32-4.24,2.62-6.38,3.88c-2.68,1.56-3.31,3.05-0.07,4.74c5.3,2.78,10.56,5.62,15.82,8.48
	c2.08,1.13,3.08,1.1,3.56-1.72c0.79-4.6,3.6-8.15,7.23-11.03c1.07-0.85,2.33-1.72,3.5-0.38c1.22,1.39,0.11,2.5-0.94,3.33
	c-3.11,2.46-5.23,5.54-6.26,9.38c-0.52,1.94-0.63,3.42,1.84,4.27c5.66,1.95,11.24,4.16,17.28,4.66c8.3,0.7,11.43-2.62,8.94-10.37
	c-4.36-13.53-1.34-20.26,10.88-28.09c6.92-4.43,12.16-10.2,15.4-17.83c4.49-10.57,9.83-20.72,15.67-30.62
	c4.83-8.18,8.77-16.77,11.59-25.88c2.43-7.81,4.04-15.78,5.28-23.84c0.2-1.32-0.22-3.53,1.94-3.46c2.48,0.08,1.8,2.42,1.86,3.9
	c0.1,2.66-0.02,5.33-0.21,7.98c-2.66,36.2-10.35,71.37-21.38,105.89c-3.98,12.46-9.52,24.52-9.99,37.95
	c-0.39,11.11,2.21,21.8,3.93,32.62c2.62,16.43,5.45,32.85,5.41,49.57c-0.03,9.61-3.31,17.66-12.22,22.44
	c-2.46,1.32-5.24,2.07-7.91,2.96c-3.27,1.09-3.84,2.63-1.46,5.36c9.91,11.35,18.16,11.57,28.29,0.62c0.9-0.98,1.62-2.13,2.57-3.06
	c1.27-1.25,2.01-4.49,4.39-2.6c2.21,1.75-0.36,3.56-1.4,5.04c-2.92,4.12-6.68,7.39-10.81,10.26c-1.01,0.7-2.59,0.95-2.65,2.73
	c6.09,2.97,12.25,5.89,18.32,8.98c2.57,1.31,4.04,1.64,5.3-1.82c2.04-5.61,4.76-10.97,7.32-16.38c0.63-1.32,0.91-3.91,3.11-2.93
	c2.25,1.01,1.04,3.07,0.27,4.76c-2.53,5.6-4.88,11.29-7.59,16.81c-1.09,2.22-0.88,3.1,1.48,4.01c5.57,2.16,11.1,4.47,16.51,7.01
	c2.3,1.08,3.14,0.65,3.85-1.67c1.31-4.29,2.84-8.52,4.35-12.74c0.49-1.38,1.05-3.2,3.01-2.57c2.06,0.67,1.2,2.29,0.69,3.73
	c-1.44,4.07-2.64,8.23-4.26,12.23c-1.04,2.58-0.69,3.87,2.1,4.7c5.57,1.66,11.04,3.65,16.84,4.5c8.22,1.21,11.98-0.86,15.18-8.56
	c2.47-5.95,2.67-12.31,3.53-18.57c1.48-10.73-2.97-21.06-2.06-31.75c0.1-1.22-0.98-1.61-1.91-2c-8.06-3.37-12.89-10-16.33-17.47
	c-20.4-44.24-27.61-89.63-12.01-137.14c5.38-16.39,12.37-31.43,27.86-40.52c23.61-13.86,48.05-14.24,71.76-1.09
	c24.37,13.52,37.11,35.04,38.14,63.14c0.77,21.14-5.55,40.67-13.63,59.82c-6.01,14.25-14.53,27.3-19.88,41.88
	c-3.14,8.55-7.52,16.34-16.26,20.58c5.23,5.83,5.07,8.32-0.69,13.75c-2.78,2.63-5.74,5.1-8.33,7.91
	c-4.65,5.06-6.02,10.92-3.66,17.56c0.76,2.14,1.78,2.79,4.25,2.9c10.9,0.52,21.17-1.4,30.88-6.39c1.33-0.68,3.04-1.48,3.94,0.3
	c0.96,1.91-0.98,2.57-2.23,3.22c-4.74,2.47-9.76,4.14-14.98,5.34c-5.74,1.31-11.61,1.13-17.97,1.39c4.26,5.62,8.87,9.91,13.47,14.21
	c1.61,1.5,3.48,1.7,5.56,1.52c9.88-0.86,18.28-4.66,24.81-12.28c1.06-1.24,2.26-3.25,3.96-1.85c2.12,1.75-0.13,3.24-1.23,4.51
	c-4.78,5.55-10.63,9.45-17.66,11.69c-2.51,0.8-5.39,0.56-7.96,2.34c8.65,6.22,17.67,10.63,27.66,13.03c2.31,0.55,4,0.17,5.8-1.6
	c5.17-5.08,9.3-10.86,12.61-17.26c0.74-1.43,1.11-3.74,3.31-2.54c1.9,1.04,0.73,2.87,0.02,4.4
	C382.14,739.24,377.81,744.87,372.3,750.63z M453.14,232.87c-1.3,0.42-1.95,0.57-2.54,0.82c-57.14,24.39-112.21,53.29-169.16,78.1
	c-12.65,5.51-21.2,15.36-29.79,26.6c9.95-2.41,19.06-0.98,28.11,0.19c18.51,2.4,36.96,4.73,55.71,2.73
	c7.67-0.82,13.51,3.2,16.32,10.55c3.18,8.34,3.64,17,0.47,25.4c-4.62,12.26-11.01,23.59-20.97,32.38
	c-17.38,15.32-37.31,22.97-60.26,15.92c-15.01-4.61-26.77-14.01-28.71-31.11c-1.28-11.3-3.14-22.38-6.75-33.16
	c-1.43-4.26-2.26-8.6-0.74-13.23c-24.03,2.08-38.51-10.03-47.04-32.14c-2.1,9.96-4.32,18.52-8.1,26.47
	c-5.46,11.5-3.14,21.35,5.32,30.11c11.28,11.68,18.51,25.46,22.22,41.19c1.8,7.62,6.07,13.57,12.28,18.25
	c4.42,3.33,9.35,5.74,14.36,7.97c29.81,13.26,61.53,17.5,93.65,20.01c14.57,1.14,28.18-1.76,40.61-9.34
	c14.22-8.68,27.57-18.63,40.39-29.26c11.2-9.3,17.73-21.23,20.31-35.61c3.67-20.48,9.01-40.58,15.37-60.37
	c3.23-10.04,6-20.12,6.02-30.71c0.01-7.31-0.89-14.61-1-21.92C449.01,259.55,450.95,246.56,453.14,232.87z M464.96,180.09
	c0.33-9.46-1.46-17.68-4.97-25.55c-9.3-20.87-29.67-31.85-51.07-27.34c-8.21,1.73-14.48,6.17-10.88,16.68
	c0.37,1.09,0.45,2.29,0.55,3.45c0.58,6.48-3.07,10.96-9.62,11.53c-4.15,0.36-8.3,0.06-12.45-0.49c-8.08-1.07-16.16-2.19-24.28-2.9
	c-16.78-1.48-33.14,1.49-49.46,5.01c-17.29,3.74-26.52-0.47-32.98-16.67c-6.81-17.07-33.15-27.21-51.98-18.26
	c-22.27,10.58-32.58,34.88-25.21,60.26c3.71,12.78,10,24.59,14.17,37.23c3.96,12.01,3.66,23.04-3.68,33.76
	c-4.8,7.01-7.85,14.97-10.51,23.04c-0.26,0.8-0.92,1.54,0,2.11c0.73,0.45,1.63,0.22,2.21-0.52c0.62-0.78,1.15-1.64,1.79-2.4
	c9.21-10.9,20.7-17.24,35.21-16.69c17.03,0.65,33.24,4.76,47.86,13.73c10.1,6.2,20.64,7.97,32.01,5.04
	c12.26-3.15,22.94-9.71,33.42-16.41c30.47-19.49,62.72-35.09,98.12-42.95c9.97-2.22,14.95-6.15,16.66-16.19
	C461.38,196.77,465.85,188.55,464.96,180.09z M230.49,580.71c0.4,20.6,5.39,42.58,12.73,64.08c3.39,9.93,7.38,19.63,14.48,27.64
	c6.67,7.53,11.54,8.42,20.07,3.22c10.18-6.21,21.19-8.54,32.96-7.69c11.86,0.85,17.22-2.08,22.75-12.78
	c4.81-9.29,8.2-19.21,13.13-28.49c11.52-21.65,21.02-44.04,23.18-68.95c3.35-38.55-22.31-71.66-60.49-77.59
	c-28.53-4.43-55.43,9.93-65.99,36.16C235.32,536.16,230.54,556.87,230.49,580.71z M264.43,340.48c-5.4,0.05-10.62,0.86-15.78,2.34
	c-10.54,3.02-13.09,7.27-9.65,17.62c3.65,10.96,5.85,22.16,6.81,33.63c0.44,5.3,2.22,10.06,5.7,14.1
	c10.79,12.52,24.44,18.31,40.84,15.97c29.32-4.17,46.77-22.57,56.93-49.08c2.46-6.42,1.9-13.16,0-19.67
	c-2.26-7.78-7.16-10.97-15.29-10.46c-11.96,0.75-23.9,1.11-35.86-0.57C286.94,342.78,275.67,341.75,264.43,340.48z M173.48,406
	c-29.95,0-59.91,0.1-89.86-0.11c-4.17-0.03-3.56,2.14-3.56,4.62c0.01,39.29,0,78.58,0.04,117.87c0,1.2-0.68,2.65,0.9,3.78
	c8.88-7.3,16.95-15.24,22.56-25.53c7.35-13.47,16.01-26.05,26.47-37.37c7.87-8.52,13.96-18.31,18.05-29.1
	C153.33,426.33,160.05,413.91,173.48,406z M502.69,538.35c0.5-0.88,0.78-1.15,0.78-1.42c0.01-42.46-0.05-84.92,0.07-127.39
	c0.01-3.52-1.52-3.6-4.18-3.59c-20.65,0.08-41.29,0.03-61.94,0.07c-0.85,0-2.06-0.6-2.5,0.97c4.8,4.53,9.52,9.21,13.8,14.33
	c13.18,15.77,20.74,34.3,26.52,53.72C481.79,497.08,490.72,518.09,502.69,538.35z M195.68,461.5c-1.85,4.49-3.42,8.73-5.31,12.82
	c-6.34,13.72-15.23,26.14-20.79,40.24c-4.07,10.34-10.94,17.98-20.4,23.69c-7.89,4.77-10.09,11.12-7.75,20.01
	c0.93,3.52,2.55,7.05,1.53,10.71c-0.74,2.67,0.39,2.75,2.36,2.74c6.82-0.04,13.64-0.09,20.46,0.03c2.19,0.04,3.27-0.72,3.95-2.8
	c8.06-24.44,16-48.92,20.82-74.26C192.63,483.8,194.94,472.93,195.68,461.5z M446.67,571.69c4.17,0,8.33,0.01,12.5-0.01
	c1.4,0,2.98,0.01,1.9-2.14c-2.74-5.47-1.66-11.12-0.56-16.64c3.49-17.58-0.04-34.05-7.51-49.91c-1.52-3.23-3.31-7.98-6.87-7.8
	c-3.86,0.19-4.17,5.37-5.42,8.7c-0.7,1.86-1.12,3.83-1.57,5.78c-3.73,16.44-5.18,33.2-6.76,49.93
	c-1.14,12.08-1.03,12.09,11.31,12.09C444.67,571.69,445.67,571.69,446.67,571.69z M111.14,571.69c-9.87-4.93-19.56-9.71-28.56-15.78
	c-2.13-1.44-2.53-0.22-2.51,1.68c0.03,3.82,0.08,7.64-0.02,11.46c-0.05,1.87,0.49,2.69,2.51,2.67
	C92.08,571.65,101.61,571.69,111.14,571.69z"/>
<path class="svgfill" d="M611.9,379c-58.62,0.04-117.24,0.07-175.86,0.09c-0.64,0-1.29-0.17-2.2-0.3c3.73-18.04,8.3-35.72,14.03-53.07
	c4.22-12.77,6.72-25.71,5.66-39.18c-0.23-2.92,0.82-3.61,3.62-3.63c28.63-0.18,57.25-0.45,85.87-0.8
	c22.96-0.28,45.92-0.72,68.88-1.08C611.9,313.69,611.9,346.35,611.9,379z"/>
<path class="svgfill" d="M611.9,571.96c-18.3-0.09-36.6-0.2-54.91-0.26c-9.82-0.04-19.64-0.01-29.47-0.01c-6.31,0-8.51-2.13-8.85-8.59
	c-0.04-0.83-0.01-1.66-0.01-2.5c0-49.78,0.07-99.56-0.12-149.35c-0.02-4.47,1.14-5.38,5.44-5.35c29.3,0.21,58.6,0.1,87.9,0.1
	C611.9,461.32,611.9,516.64,611.9,571.96z"/>
<path class="svgfill" d="M0.1,406c19.98,0,39.95,0.09,59.93-0.07c3.65-0.03,5.06,0.55,5.04,4.75C64.9,462.78,64.89,514.89,65.07,567
	c0.01,4.27-1.45,4.78-5.08,4.76c-19.96-0.06-39.93,0.11-59.89,0.2C0.1,516.64,0.1,461.32,0.1,406z"/>
<path class="st1" d="M0.1,234.04c8.33,3.22,16.97,4.72,25.87,4.01c15.86-1.27,30.97,1.52,45.89,6.91
	c28.09,10.14,55.85,21.02,82.65,34.23c0,0.49,0,0.98,0,1.47c-5.79,0-11.58-0.07-17.37,0.01c-13.46,0.19-26.92,0.44-40.39,0.71
	c-30.73,0.62-61.46,1.27-92.2,1.89c-1.49,0.03-2.98-0.15-4.46-0.24C0.1,266.7,0.1,250.37,0.1,234.04z"/>
<path class="svgfill" d="M372.3,750.63c5.51-5.76,9.83-11.39,12.86-17.92c0.71-1.53,1.88-3.36-0.02-4.4c-2.19-1.2-2.57,1.1-3.31,2.54
	c-3.31,6.4-7.44,12.18-12.61,17.26c-1.8,1.77-3.5,2.15-5.8,1.6c-9.98-2.4-19-6.8-27.66-13.03c2.57-1.78,5.45-1.54,7.96-2.34
	c7.03-2.24,12.88-6.14,17.66-11.69c1.1-1.28,3.35-2.77,1.23-4.51c-1.7-1.4-2.9,0.61-3.96,1.85c-6.52,7.62-14.93,11.42-24.81,12.28
	c-2.09,0.18-3.96-0.02-5.56-1.52c-4.6-4.3-9.21-8.59-13.47-14.21c6.36-0.26,12.23-0.08,17.97-1.39c5.22-1.19,10.24-2.86,14.98-5.34
	c1.25-0.65,3.19-1.31,2.23-3.22c-0.89-1.78-2.61-0.98-3.94-0.3c-9.71,4.99-19.98,6.91-30.88,6.39c-2.47-0.12-3.49-0.76-4.25-2.9
	c-2.36-6.63-1-12.5,3.66-17.56c2.59-2.81,5.54-5.28,8.33-7.91c5.76-5.44,5.93-7.92,0.69-13.75c8.75-4.24,13.13-12.03,16.26-20.58
	c5.35-14.58,13.86-27.63,19.88-41.88c8.08-19.14,14.4-38.68,13.63-59.82c-1.03-28.09-13.77-49.61-38.14-63.14
	c-23.71-13.15-48.15-12.77-71.76,1.09c-15.49,9.09-22.49,24.13-27.86,40.52c-15.59,47.51-8.39,92.9,12.01,137.14
	c3.44,7.47,8.27,14.1,16.33,17.47c0.93,0.39,2.01,0.78,1.91,2c-0.91,10.69,3.54,21.02,2.06,31.75c-0.86,6.25-1.06,12.61-3.53,18.57
	c-3.2,7.7-6.96,9.77-15.18,8.56c-5.8-0.85-11.27-2.84-16.84-4.5c-2.79-0.83-3.14-2.13-2.1-4.7c1.62-3.99,2.82-8.16,4.26-12.23
	c0.51-1.44,1.37-3.06-0.69-3.73c-1.95-0.64-2.51,1.18-3.01,2.57c-1.51,4.23-3.04,8.45-4.35,12.74c-0.71,2.32-1.54,2.75-3.85,1.67
	c-5.41-2.54-10.93-4.86-16.51-7.01c-2.36-0.91-2.57-1.79-1.48-4.01c2.7-5.52,5.05-11.21,7.59-16.81c0.77-1.69,1.98-3.75-0.27-4.76
	c-2.2-0.99-2.48,1.61-3.11,2.93c-2.56,5.41-5.28,10.77-7.32,16.38c-1.26,3.46-2.73,3.12-5.3,1.82c-6.07-3.09-12.23-6.01-18.32-8.98
	c0.06-1.78,1.64-2.02,2.65-2.73c4.14-2.87,7.9-6.15,10.81-10.26c1.05-1.48,3.61-3.29,1.4-5.04c-2.39-1.89-3.12,1.35-4.39,2.6
	c-0.94,0.93-1.66,2.08-2.57,3.06c-10.13,10.95-18.38,10.73-28.29-0.62c-2.38-2.73-1.81-4.27,1.46-5.36
	c2.67-0.89,5.45-1.64,7.91-2.96c8.91-4.77,12.19-12.83,12.22-22.44c0.04-16.71-2.79-33.13-5.41-49.57
	c-1.72-10.82-4.32-21.51-3.93-32.62c0.48-13.43,6.01-25.49,9.99-37.95c11.02-34.52,18.71-69.69,21.38-105.89
	c0.2-2.65,0.32-5.33,0.21-7.98c-0.06-1.47,0.62-3.81-1.86-3.9c-2.16-0.07-1.74,2.14-1.94,3.46c-1.24,8.07-2.86,16.03-5.28,23.84
	c-2.83,9.11-6.77,17.7-11.59,25.88c-5.84,9.9-11.17,20.05-15.67,30.62c-3.24,7.63-8.48,13.4-15.4,17.83
	c-12.23,7.83-15.24,14.55-10.88,28.09c2.5,7.75-0.64,11.07-8.94,10.37c-6.04-0.51-11.62-2.72-17.28-4.66
	c-2.48-0.85-2.36-2.33-1.84-4.27c1.03-3.84,3.15-6.92,6.26-9.38c1.05-0.83,2.17-1.94,0.94-3.33c-1.18-1.34-2.44-0.47-3.5,0.38
	c-3.62,2.88-6.44,6.42-7.23,11.03c-0.48,2.83-1.48,2.86-3.56,1.72c-5.25-2.86-10.52-5.7-15.82-8.48c-3.23-1.7-2.61-3.18,0.07-4.74
	c2.15-1.26,4.27-2.56,6.38-3.88c0.98-0.61,2.16-1.2,1.21-2.7c-0.76-1.2-1.81-1.34-3.02-0.75c-3.15,1.54-6.21,3.25-8.74,5.7
	c-1.67,1.62-2.7,1.18-3.97-0.49c-2.83-3.71-2.58-7.46,1.21-11.04c4.47-4.22,9.16-8.21,13.66-12.41c7.81-7.3,12.14-17,17.69-25.86
	c6.29-10.03,13.33-19.47,21.32-28.25c8.13-8.94,14.7-19.16,18.4-30.6c7.06-21.78,22.79-32.61,43.95-37.56
	c2.85-0.67,4.41-0.26,5.15,2.65c0.58,2.25,1.56,4.42,1.98,6.7c2.59,14.05,11.45,22.89,23.79,28.84
	c23.49,11.33,48.48,17.24,74.25,20.18c12.21,1.39,24.39,3.09,36.77,2.65c14.16-0.5,26.57-5.71,38.03-13.46
	c11.44-7.73,22.65-15.82,33.37-24.56c6.12-4.99,11.45-10.73,15.4-17.55c1.73-2.98,2.63-2.64,4.98-0.69
	c21.01,17.41,33.75,39.94,41.16,65.81c8.58,29.99,21.89,57.75,38.89,83.84c2.62,4.02,4.77,8.36,7.02,12.62
	c1.2,2.26,1.71,4.77,1.04,7.27c-0.79,2.95-3.02,5.21-5.75,5.74c-2.49,0.48-2.13-2.75-2.93-4.32c-2.21-4.34-4.8-8.37-8.19-11.86
	c-1.14-1.17-2.53-2.84-4.21-1.4c-2,1.72,0.15,2.87,1.19,3.95c3.51,3.63,6.23,7.73,8.22,12.4c0.97,2.27,1.01,3.19-1.78,3.48
	c-6.75,0.71-13.27-0.17-19.74-2.03c-2.28-0.66-2.55-1.99-2.28-4.1c0.53-4.18-0.07-8.32-1.5-12.29c-0.46-1.27-1.23-2.61-2.89-2
	c-1.72,0.63-1.3,2.05-0.78,3.36c0.12,0.31,0.34,0.6,0.39,0.92c0.55,3.66,3.29,8.58-0.02,10.58c-2.39,1.44-6.22-2.79-8.86-5.25
	c-4.7-4.39-6.68-9.76-5.31-16.24c4.38-20.67,1.44-40.31-8.62-58.86c-1.99-3.67-4.34-7.82-9.07-7.55c-4.97,0.28-6.27,5.09-7.53,8.96
	c-4.98,15.29-6.56,31.22-8.16,47.11c-3.16,31.47-3.47,63.11-5.42,94.65c-1.48,23.89-2.06,47.88-4.81,71.66
	C417.09,736.68,396.76,752.3,372.3,750.63z"/>
<path class="svgfill" d="M453.14,232.87c-2.19,13.69-4.13,26.68-3.93,39.84c0.11,7.31,1.01,14.61,1,21.92
	c-0.01,10.58-2.79,20.66-6.02,30.71c-6.37,19.79-11.7,39.89-15.37,60.37c-2.58,14.38-9.11,26.31-20.31,35.61
	c-12.82,10.64-26.16,20.59-40.39,29.26c-12.43,7.59-26.03,10.48-40.61,9.34c-32.12-2.51-63.85-6.74-93.65-20.01
	c-5.01-2.23-9.94-4.64-14.36-7.97c-6.21-4.68-10.48-10.63-12.28-18.25c-3.72-15.72-10.94-29.51-22.22-41.19
	c-8.46-8.76-10.79-18.61-5.32-30.11c3.78-7.95,6-16.52,8.1-26.47c8.53,22.11,23.01,34.22,47.04,32.14
	c-1.52,4.63-0.69,8.97,0.74,13.23c3.61,10.78,5.47,21.86,6.75,33.16c1.94,17.1,13.7,26.5,28.71,31.11
	c22.95,7.06,42.89-0.59,60.26-15.92c9.96-8.78,16.35-20.11,20.97-32.38c3.17-8.4,2.71-17.06-0.47-25.4
	c-2.8-7.35-8.65-11.37-16.32-10.55c-18.75,1.99-37.2-0.33-55.71-2.73c-9.05-1.17-18.15-2.6-28.11-0.19
	c8.59-11.24,17.14-21.09,29.79-26.6c56.95-24.81,112.02-53.71,169.16-78.1C451.19,233.44,451.83,233.29,453.14,232.87z
	 M372.6,306.89c-3.44,0.05-7.73,0.14-12.01,0.91c-8.81,1.59-13.63,6.14-14.44,13.95c-0.84,8.14,3.55,15.75,11.3,18.55
	c9.33,3.37,18.36,2.3,26.48-3.53c6.91-4.96,10.58-15.7,7.77-22.55C388.18,305.67,380.65,306.59,372.6,306.89z M373.39,290.62
	c-8.92,0.06-16.5,2.19-23.43,6.53c-1.11,0.7-2.51,1.36-1.21,3.05c0.93,1.2,1.81,0.88,2.97,0.15c11.52-7.25,23.68-7.9,36.29-3.31
	c1.48,0.54,2.57,0.59,3.1-1.18c0.53-1.77-0.87-1.83-1.91-2.22C383.86,291.66,378.32,290.71,373.39,290.62z"/>
<path class="svgfill" d="M464.96,180.09c0.89,8.46-3.58,16.68-5.07,25.45c-1.7,10.05-6.69,13.98-16.66,16.19
	c-35.4,7.87-67.65,23.46-98.12,42.95c-10.48,6.71-21.16,13.26-33.42,16.41c-11.38,2.92-21.91,1.16-32.01-5.04
	c-14.62-8.97-30.83-13.08-47.86-13.73c-14.51-0.56-26.01,5.79-35.21,16.69c-0.64,0.76-1.18,1.62-1.79,2.4
	c-0.59,0.75-1.48,0.98-2.21,0.52c-0.92-0.57-0.27-1.31,0-2.11c2.66-8.07,5.71-16.03,10.51-23.04c7.35-10.72,7.64-21.76,3.68-33.76
	c-4.17-12.64-10.45-24.45-14.17-37.23c-7.38-25.37,2.94-49.68,25.21-60.26c18.83-8.94,45.17,1.19,51.98,18.26
	c6.46,16.19,15.68,20.4,32.98,16.67c16.32-3.52,32.68-6.49,49.46-5.01c8.12,0.71,16.2,1.84,24.28,2.9c4.15,0.55,8.3,0.85,12.45,0.49
	c6.55-0.56,10.2-5.04,9.62-11.53c-0.1-1.16-0.18-2.36-0.55-3.45c-3.6-10.51,2.66-14.95,10.88-16.68
	c21.4-4.51,41.77,6.47,51.07,27.34C463.5,162.41,465.29,170.64,464.96,180.09z M223.84,135.9c-1.73,0.12-3.89,0.16-6.03,0.43
	c-10.38,1.28-13.38,5.44-10.78,15.48c2.63,10.17,7.39,19.52,11.88,28.95c1.75,3.68,5.16,4.5,8.83,4.11
	c3.32-0.35,6.44-1.56,9.39-3.11c7.84-4.11,14.76-9.53,21.51-15.21c7.39-6.22,7.67-9.49,1.34-16.9c-1.85-2.17-3.96-4.02-6.34-5.57
	C244.7,138.27,234.63,136.6,223.84,135.9z M421.04,183.08c7.67-0.09,13.78-0.74,19.86-1.77c7.6-1.29,9.71-3.84,10.06-11.77
	c0.59-13.33-6.32-22.81-16.13-30.48c-8.72-6.82-15.06-5.06-19.73,5.06c-4.12,8.92-6.87,18.36-9.63,27.76
	c-1.46,5,0.59,8.37,5.69,9.89C414.86,182.88,418.67,183.31,421.04,183.08z"/>
<path class="svgfill" d="M230.49,580.71c0.06-23.84,4.83-44.55,12.82-64.4c10.56-26.23,37.46-40.59,65.99-36.16
	c38.17,5.93,63.84,39.04,60.49,77.59c-2.17,24.9-11.67,47.3-23.18,68.95c-4.94,9.28-8.33,19.19-13.13,28.49
	c-5.53,10.7-10.89,13.64-22.75,12.78c-11.77-0.85-22.78,1.48-32.96,7.69c-8.52,5.2-13.4,4.31-20.07-3.22
	c-7.1-8.02-11.09-17.71-14.48-27.64C235.87,623.29,230.89,601.31,230.49,580.71z"/>
<path class="svgfill" d="M264.43,340.48c11.24,1.27,22.51,2.3,33.7,3.87c11.96,1.68,23.89,1.33,35.86,0.57
	c8.13-0.51,13.02,2.68,15.29,10.46c1.9,6.52,2.46,13.25,0,19.67c-10.16,26.51-27.61,44.91-56.93,49.08
	c-16.41,2.34-30.05-3.45-40.84-15.97c-3.48-4.04-5.26-8.8-5.7-14.1c-0.96-11.47-3.16-22.68-6.81-33.63
	c-3.45-10.34-0.9-14.6,9.65-17.62C253.82,341.34,259.03,340.53,264.43,340.48z M275.07,397.23c0.06-6.64-3.18-10.13-9.4-10.14
	c-7.15-0.01-13.96,5.14-14.15,10.71c-0.18,5.26,6.18,10.37,13.04,10.47C271.25,408.36,275,404.42,275.07,397.23z M306.31,389.42
	c-6.72,0.06-12.03,5.17-11.87,11.43c0.14,5.48,5.01,9.63,11.24,9.59c6.15-0.04,11.04-5.04,10.97-11.2
	C316.58,393.53,312.2,389.37,306.31,389.42z"/>
<path class="svgfill" d="M173.48,406c-13.43,7.91-20.15,20.33-25.4,34.16c-4.09,10.79-10.18,20.59-18.05,29.1
	c-10.46,11.31-19.12,23.9-26.47,37.37c-5.61,10.29-13.68,18.22-22.56,25.53c-1.58-1.13-0.9-2.58-0.9-3.78
	c-0.04-39.29-0.03-78.58-0.04-117.87c0-2.48-0.62-4.65,3.56-4.62C113.57,406.1,143.53,406,173.48,406z"/>
<path class="svgfill" d="M502.69,538.35c-11.96-20.25-20.9-41.27-27.46-63.31c-5.78-19.42-13.33-37.95-26.52-53.72
	c-4.28-5.12-9-9.79-13.8-14.33c0.44-1.57,1.65-0.96,2.5-0.97c20.65-0.03,41.29,0.01,61.94-0.07c2.66-0.01,4.19,0.07,4.18,3.59
	c-0.12,42.46-0.06,84.92-0.07,127.39C503.46,537.2,503.18,537.46,502.69,538.35z"/>
<path class="svgfill" d="M195.68,461.5c-0.74,11.43-3.05,22.3-5.12,33.17c-4.83,25.34-12.76,49.82-20.82,74.26
	c-0.69,2.08-1.76,2.84-3.95,2.8c-6.82-0.12-13.64-0.07-20.46-0.03c-1.97,0.01-3.1-0.07-2.36-2.74c1.02-3.66-0.6-7.19-1.53-10.71
	c-2.35-8.89-0.15-15.24,7.75-20.01c9.46-5.71,16.33-13.36,20.4-23.69c5.56-14.11,14.45-26.52,20.79-40.24
	C192.26,470.22,193.83,465.99,195.68,461.5z"/>
<path class="svgfill" d="M446.67,571.69c-1,0-2,0-3,0c-12.34,0-12.45-0.01-11.31-12.09c1.58-16.73,3.04-33.49,6.76-49.93
	c0.44-1.95,0.86-3.92,1.57-5.78c1.26-3.33,1.56-8.51,5.42-8.7c3.57-0.18,5.35,4.57,6.87,7.8c7.47,15.86,11,32.34,7.51,49.91
	c-1.1,5.52-2.18,11.17,0.56,16.64c1.08,2.16-0.49,2.14-1.9,2.14C455,571.7,450.83,571.69,446.67,571.69z"/>
<path class="svgfill" d="M111.14,571.69c-9.53,0-19.06-0.04-28.59,0.03c-2.02,0.02-2.56-0.8-2.51-2.67c0.1-3.82,0.05-7.64,0.02-11.46
	c-0.02-1.9,0.38-3.12,2.51-1.68C91.57,561.98,101.27,566.76,111.14,571.69z"/>
<path class="st1" d="M372.6,306.89c8.05-0.3,15.59-1.22,19.09,7.33c2.81,6.85-0.85,17.59-7.77,22.55
	c-8.13,5.83-17.15,6.91-26.48,3.53c-7.75-2.8-12.14-10.41-11.3-18.55c0.81-7.82,5.63-12.37,14.44-13.95
	C364.87,307.03,369.16,306.93,372.6,306.89z M367.16,338.54c11.07,0.34,20.11-6.8,21.72-17.16c1.02-6.54-2.17-10.66-8.81-11.1
	c-6.14-0.41-12.26,0.17-18.39,0.73c-8.32,0.76-13.69,7.86-11.61,15.95C351.97,334.36,357.71,338.25,367.16,338.54z"/>
<path class="st1" d="M373.39,290.62c4.92,0.09,10.46,1.05,15.81,3.03c1.04,0.38,2.44,0.45,1.91,2.22c-0.53,1.76-1.61,1.72-3.1,1.18
	c-12.61-4.59-24.77-3.94-36.29,3.31c-1.16,0.73-2.04,1.06-2.97-0.15c-1.3-1.69,0.1-2.35,1.21-3.05
	C356.89,292.8,364.47,290.67,373.39,290.62z"/>
<path class="st1" d="M223.84,135.9c10.79,0.7,20.87,2.37,29.8,8.18c2.38,1.55,4.49,3.4,6.34,5.57c6.33,7.41,6.05,10.68-1.34,16.9
	c-6.74,5.68-13.67,11.09-21.51,15.21c-2.95,1.55-6.07,2.75-9.39,3.11c-3.68,0.39-7.08-0.42-8.83-4.11
	c-4.48-9.43-9.24-18.78-11.88-28.95c-2.6-10.04,0.39-14.2,10.78-15.48C219.94,136.07,222.11,136.02,223.84,135.9z"/>
<path class="st1" d="M421.04,183.08c-2.37,0.23-6.18-0.2-9.87-1.3c-5.1-1.52-7.16-4.89-5.69-9.89c2.75-9.4,5.5-18.84,9.63-27.76
	c4.67-10.12,11-11.88,19.73-5.06c9.81,7.67,16.72,17.15,16.13,30.48c-0.35,7.93-2.46,10.48-10.06,11.77
	C434.82,182.35,428.71,182.99,421.04,183.08z"/>
<path class="st1" d="M275.07,397.23c-0.07,7.19-3.82,11.13-10.51,11.03c-6.87-0.1-13.23-5.2-13.04-10.47
	c0.19-5.57,7.01-10.72,14.15-10.71C271.89,387.1,275.13,390.6,275.07,397.23z"/>
<path class="st1" d="M306.31,389.42c5.88-0.05,10.26,4.11,10.33,9.82c0.08,6.16-4.82,11.16-10.97,11.2
	c-6.23,0.04-11.09-4.11-11.24-9.59C294.28,394.59,299.59,389.48,306.31,389.42z"/>
<path class="svgfill" d="M367.16,338.54c-9.45-0.29-15.19-4.18-17.09-11.58c-2.07-8.1,3.29-15.19,11.61-15.95
	c6.13-0.56,12.24-1.14,18.39-0.73c6.64,0.44,9.83,4.57,8.81,11.1C387.27,331.73,378.23,338.87,367.16,338.54z M369.27,333.93
	c3.34-0.04,7.52-1.3,10.33-3.13c5.99-3.9,6.51-9.58,1.33-14.46c-5.3-5-12.94-5.92-20.34-2.46c-5.94,2.78-7.59,10.7-3,15.42
	C360.72,332.51,364.75,333.96,369.27,333.93z"/>
<path class="st1" d="M369.27,333.94c-4.52,0.03-8.56-1.43-11.68-4.64c-4.59-4.71-2.95-12.64,3-15.42c7.4-3.46,15.04-2.53,20.34,2.46
	c5.18,4.88,4.66,10.56-1.33,14.46C376.79,332.63,372.62,333.9,369.27,333.94z"/>
</svg>
